<?xml version="1.0" encoding="utf-8"?>
<!-- Generator: Adobe Illustrator 25.2.1, SVG Export Plug-In . SVG Version: 6.00 Build 0)  -->
<svg version="1.1" id="Layer_1" xmlns="http://www.w3.org/2000/svg" xmlns:xlink="http://www.w3.org/1999/xlink" x="0px" y="0px"
	 viewBox="0 0 575 784" style="enable-background:new 0 0 575 784;" xml:space="preserve">
<g>
	<g>
		<path d="M358.56,782.56c-1.91-10.84-3.82-21.67-5.73-32.51c-0.93-5.26-1.95-10.51-2.73-15.79c-0.24-1.65-1-2.26-2.44-2.72
			c-5.95-1.89-11.11-4.98-14.51-10.39c-4.49-7.14-3.88-16.84,1.39-24.18c1.87-2.61,4.05-4.95,6.5-7.03c0.88-0.75,1.11-1.51,0.9-2.71
			c-5.98-34.17-11.92-68.35-17.85-102.53c-3.04-17.52-6.06-35.05-9.07-52.57c-0.12-0.68-0.36-1.4-0.03-2.13
			c1.18,0.15,1.21,1.08,1.36,1.93c4.32,24.51,8.64,49.02,12.96,73.52c3.89,22.07,7.79,44.14,11.69,66.21
			c0.9,5.1,1.8,10.2,2.69,15.24c0.81,0.37,1.12-0.25,1.5-0.57c3.3-2.79,6.66-5.5,9.66-8.63c3.25-3.39,3.21-5.2-0.29-8.42
			c-2.65-2.44-5.32-4.84-7.45-7.79c-2.86-3.96-4.63-8.33-5.49-13.15c-0.55-3.07,0.28-5.54,2.37-7.66c2.89-2.93,6.16-5.37,10.04-6.83
			c4.04-1.52,8.08-3.04,12.2-4.28c1.88-0.56,2.31-1.22,1.85-3.13c-4.37-17.83-8.65-35.67-12.95-53.52
			c-1.76-7.29-3.52-14.58-5.22-21.89c-0.29-1.26-0.94-1.86-2.12-2.26c-2.5-0.85-4.93-1.88-7.42-2.75
			c-16.69-5.85-27.47-17.55-33.67-33.85c-4.5-11.83-6.59-24.18-8.09-36.66c-1.08-8.97-1.87-17.97-1.9-27.03c0-0.94,0-1.89,0.4-2.86
			c1.12,8.7,2.21,17.41,3.37,26.11c1.78,13.4,3.73,26.77,8.64,39.49c2.97,7.69,6.99,14.73,12.87,20.6c0.83,0.83,1.73,1.6,2.88,2.65
			c0.28-1.89,0.51-3.42,0.77-5.12c0.97,2.43-1.07,5.59,2.37,7.41c0.38-6.37,1.29-12.37,3.82-18.02c-0.54,6.31-2.38,12.43-2.78,18.77
			c1.06,0.32,0.69-1,1.38-1l-0.04-0.05c-0.66,1.6,0.01,2.39,1.66,2.66c0.65-5.53,1.94-10.84,4.65-16.26
			c0.37,1.54-0.16,2.46-0.37,3.38c-0.94,4.04-1.9,8.09-3.02,12.09c-0.37,1.33-0.04,1.89,1.11,2.36c3.62,1.5,7.2,3.06,10.81,4.57
			c2.19,0.92,4.41,1.79,6.96,2.83c-1.69-6.17,0.17-11.68,2.04-17.08c2.82-8.14,5.14-16.55,9.42-24.05
			c3.61-6.33,6.98-12.73,10.02-19.34c2.39-5.21,4.84-6.35,10.58-5.36c10.47,1.8,19.11-1.85,26.64-8.87l-0.08,0.09
			c4.09-2.18,7.27-5.43,10.3-8.84c4.9-5.52,9.16-11.51,12.88-17.88c3.35-5.73,7.02-11.26,10.43-16.95
			c5.79-9.68,14.06-16.97,22.26-24.38c1.12-1.01,2.41-1.86,3.73-2.61c4.27-2.42,7.78-1.21,9.64,3.38c0.63,1.54,0.99,3.2,1.4,4.82
			c0.45,1.78,0.73,3.61,1.53,5.29c1.29,2.68,2.88,3.2,5.53,1.88c0.64-0.32,1.3-0.72,1.99-0.81c8.24-1.08,14.25-6.2,20.2-11.3
			c7.25-6.21,13.4-13.5,19.54-20.78c2.01-2.38,4.16-4.65,6.2-7c0.4-0.46,1.45-0.69,0.84-1.67c-0.54-0.87-1.31-0.39-1.95-0.22
			c-6.62,1.82-13.21,3.78-19.86,5.52c-9.51,2.49-19.07,4.79-28.85,6.04c-16.86,2.15-32.95-1.04-48.64-6.96
			c-5.02-1.89-9.86-4.17-14.47-6.94c-15.14-9.09-23.04-22.6-24.56-40.03c-0.44-5.03-0.43-10.06,0.18-15.1
			c0.89,7.41,1.61,14.85,3.5,22.71c1.55-3,1.48-5.83,2.23-8.47c-0.37,0.47-0.75,0.95-1.46,1.84c0.34-2.91,1.97-4.86,2.67-7.59
			c-0.76,0.81-1.21,1.28-2,2.12c1.57-4.15,0.26-8.12,1.84-12.24c-1.67,1.18-1.7,2.89-3.04,3.74c0.08-1.39,0.74-2.49,1.14-3.68
			c0.16-0.47,1-1.06,0.03-1.57c-0.85-0.45-1.31,0.03-1.66,0.76c-0.2,0.41-0.35,0.89-0.94,1.01c-0.1-2.01,2.13-3.65,0.85-6.08
			c-1.13,1.68-2.16,3.22-3.19,4.75c0.22-3.71,2-6.66,4.09-9.47c0.25-0.33,0.65-0.53,1.04-0.26c0.41,0.28,0.21,0.68,0.11,1.07
			c-0.24,0.89-1.59,1.92-0.78,2.52c1.08,0.81,1.24,1.51,1.19,2.68c-0.02,0.35,0.98,0.48,1.45,0.1c0.47-0.39,0.82-0.93,1.41-1.36
			c-1.36,2.98,0.29,5.92-0.07,8.87c-0.05,0.44-0.39,1.61,0.87,0.77c0.43-0.28,0.62,0.09,0.45,0.37c-1.15,1.89,0.37,3.73,0.06,5.57
			c-0.9,5.47-1.95,10.92-4.35,15.98c-0.83,1.74-0.7,3.25-0.05,5.01c3.57,9.57,9.75,17.02,18.27,22.52
			c12.02,7.76,25.39,11.92,39.34,14.5c15.06,2.78,29.76,0.36,44.39-3.13c8.86-2.11,17.7-4.33,26.63-6.08
			c2.74-0.54,4.59-1.1,5.66-3.92c1.12-2.96,4.01-4.2,6.73-5.42c2.5-1.13,2.75-2.58,0.78-4.51c-1.74-1.7-3.94-2.05-6.24-1.83
			c-4.25,0.4-8.3,1.64-12.3,3.06c-9.65,3.42-18.93,7.77-28.43,11.56c-17.63,7.04-35.28,7.79-52.97,0.32
			c-9.59-4.05-17.69-9.99-23.01-19.11c-1.8-3.09-2.12-6.81-2.93-10.3c-1.38-5.95-0.85-12.11-2.33-18.05
			c-1.43-5.74-2.86-11.48-5.37-16.88c-3.05-6.57-7.74-11.7-13.66-14.89c-1.6,4.49-5.1,7.34-8.7,10.11
			c-0.81,0.63-1.48,1.45-2.16,2.22c-0.64,0.72-0.61,0.74-1.79,0.52c-0.14-0.03-0.33,0.02-0.45,0.11c-2.78,2.05-6.35,2.74-8.53,5.92
			c-4.12,5.99-8.44,11.86-13.17,17.41c-0.56,0.66-1.17,1.29-1.96,1.79c3.79-6.93,8.62-13.16,13.33-19.61
			c-0.85-0.34-1.43,0.17-2.02,0.4c-7.18,2.68-14.57,4.28-22.25,4.34c-3.22,0.03-5.5,0.98-6.96,4.19c-1.47,3.25-3.61,6.2-5.66,9.15
			c1.7-4.39,4.33-8.28,7.22-12.73c-1.91,0-3.31,0.07-4.7-0.02c-1.04-0.07-1.39,0.59-1.77,1.3c-2.54,4.72-5.35,9.28-8.31,13.75
			c-0.39,0.59-0.7,1.27-0.87,1.96c-3.77,15.07-8.96,29.68-14.27,44.24c-0.19,0.51-0.34,1.04-0.71,2.19
			c1.73-1.95,2.71-3.58,3.49-5.38c4.91-11.22,10.09-22.41,17.33-32.27c5.77-7.86,10.39-16.5,16.68-23.96
			c0.49-0.58,0.88-1.82,2.01-0.9c0.86,0.7,1.66,1.54,0.72,2.79c-0.29,0.38-0.51,0.81-0.78,1.21
			c-10.79,15.91-19.78,32.87-29.03,49.69c-4.56,8.29-6.3,17.57-8.82,26.55c-3.38,12.04-5.54,24.32-6.67,36.76
			c-0.47,5.12,0.84,10.17,2.1,15.13c3.59,14.06,8.27,27.72,15,40.61c3.22,6.18,7.08,11.93,11.85,17.13
			c-0.55-1.19-1.1-2.38-1.64-3.56c3.93,4.1,7.7,8.36,13.19,10.48c-2.14-0.21-4.32-0.21-6.4-0.68c-1.83-0.42-3.26,0.89-5.11,0.52
			c-5.64-1.12-10.21-4.08-14.31-7.87c-2.35-2.17-4.66-4.37-7.13-6.41c-3.46-2.85-6.18-6.4-7.59-10.62
			c-2.82-8.48-6.28-16.77-8.33-25.49c-4.01-17.09-2.96-34.14,0.7-51.13c3.54-16.47,9.7-32.1,15.36-47.9
			c1.93-5.39,3.73-10.82,5.16-16.39c-1.66,4.17-3.33,8.35-5.05,12.65c-0.59-0.81-0.1-1.35,0.06-1.88
			c3.64-12.17,7.46-24.29,12.07-36.14c0.83-2.12,1.06-4.34,1.35-6.55c0.06-0.46,0.1-1.04-0.12-1.4c-4.68-7.42-6.75-15.95-10.3-23.85
			c-0.16-0.36-0.32-0.73-0.46-1.1c-1.56-3.88-1.58-3.9-4.79-1.31c-2.12,1.72-4.32,3.33-6.78,4.49c-1.44,0.67-1.55,1.43-1.06,2.8
			c0.74,2.06,1.68,4.09,2.01,6.96c-1.31-2.66-1.82-4.9-2.48-7.08c-0.34-1.11-0.8-1.57-2.05-0.96c-1.73,0.84-3.62,1.47-5.54,1.38
			c-2.4-0.11-2.35,0.98-1.85,2.74c2.45,8.6,4.85,17.2,7.25,25.81c2.45,8.76,4.9,17.52,7.32,26.29c0.22,0.78,0.73,1.62-0.18,2.94
			c-5.26-19.16-10.42-37.94-15.72-57.23c-1.79,2-3.4,3.71-4.89,5.52c-0.48,0.58-0.06,1.38,0.11,2.08
			c4.63,18.92,9.27,37.83,13.85,56.76c0.54,2.21,1.42,4.38,1.32,6.71c-0.21,0.05-0.42,0.1-0.63,0.14
			c-5.15-21.38-10.3-42.77-15.61-64.83c-2.43,3.17-5.14,5.37-6.98,8.37c-4.89,7.96-4.77,7.94-3.15,16.93
			c4.2,23.3,8.3,46.63,12.44,69.94c0.71,4,1.45,8,2.14,12.01c0.21,1.24,0.61,2.5-0.13,4.45c-5.44-31.48-10.77-62.35-16.11-93.22
			c-0.95,0.1-0.93,0.92-1.1,1.44c-0.82,2.5-1.63,5.02-2.3,7.56c-1.38,5.26-0.8,4.91-5.63,1.96c-2.23-1.36-3.78-3.48-4.97-5.76
			c-4.55-8.72-9.09-17.44-11.33-27.12c-0.29-1.24-0.74-1.31-1.79-0.87c-3.17,1.33-6.37,2.62-9.93,2.37
			c-0.54-0.04-0.9,0.14-1.15,0.64c-1.45,2.97-4.12,3.11-6.8,2.62c-6.14-1.1-12.22-2.47-17.94-5.11c-0.86-0.4-1.77-0.7-2.66-1.05
			c-0.16-0.13-0.31-0.26-0.47-0.39c-0.04-1.39,0.56-1.71,1.78-1.11c5.74,2.82,11.98,3.92,18.16,5.18c2.3,0.47,4.75,1.04,6.7-1.56
			c-7.06-0.22-12.9-3.19-18.45-6.85c-0.89-0.59-2.68-1.33-1.81-2.54c0.75-1.05,1.89,0.54,2.77,1.05c4.1,2.38,8.4,4.31,12.98,5.5
			c5.8,1.51,9.37-1.5,9.13-7.53c-0.06-1.36-0.57-2.42-1.92-3.16c-1.23,2.65-2.15,5.4-3.98,7.65c-0.18,0.22-0.46,0.36-0.93,0.71
			c0.45-3.08,1.82-5.56,2.59-8.22c0.28-0.95,0.55-1.7-0.46-2.53c-5.92-4.83-11.06-10.36-14.97-16.98c-0.71-1.21-1.58-2.33-2.59-3.36
			c0.43,5.99,4.04,10.56,6.96,16.05c-0.97-0.76-1.53-1.2-2.27-1.78c0,0.68,0,1.15,0,1.63c-1.55-5.58-6.55-9.61-6.8-15.67
			c-0.05-1.19-1.02-2.81,0.53-3.43c1.35-0.54,2.3,0.89,3.05,1.88c2.61,3.44,5.19,6.9,7.68,10.43c2.83,4.03,7.11,6.11,11.17,8.46
			c1.63,0.94,3.86-0.68,3.78-2.64c-0.31-7.55-0.67-15.09-1.01-22.63c-0.23-5.16-0.46-10.32-0.69-15.48l-0.03,0.04
			c0.47,0.27,0.57,0.7,0.59,1.21c0.36,8.52,0.67,17.05,1.13,25.57c0.19,3.58,0.42,7.16,0.54,10.75c0.02,0.62-0.42,2.29,1.16,2.02
			c1.22-0.21,2.84-0.38,2.57-2.42c-0.46-3.44,1.03-5.74,4.38-6.52c3.65-0.85,6.54-3.02,9.31-5.26c3.8-3.09,8.19-4.15,12.85-4.69
			c0.98-0.11,1.77,0.02,2.25,0.94c3.13,6.03,6.53,11.91,9.34,18.1c0.12,0.26,0.12,0.58,0.21,1.07c-2.16-0.77-3.15-2.47-4.07-4.08
			c-2.26-3.96-4.39-7.98-6.48-12.03c-0.65-1.25-1.38-1.64-2.81-1.49c-3.9,0.42-7.47,1.51-10.66,3.89c-2.5,1.86-5.17,3.49-8.45,4.48
			c6.09,10.52,6.71,22.33,8.53,33.87c1.27,8.08,4.38,15.44,9.04,22.71c2.28-9.82,7.42-17.77,12.43-25.83
			c-4.22,4.55-9.39,7.93-14.02,12.13c-0.15-0.94,0.5-1.5,0.88-2.1c4.54-7.09,8.63-14.39,11.29-22.43c0.57-1.72,1.55-3.33,2.5-4.9
			c0.79-1.31,1.8-2.58,3.64-2.13c1.99,0.49,3.13,1.83,3.5,3.82c0.17,0.92-0.09,1.95,0.8,2.7c0.77-0.95,0.65-2.1,0.73-3.18
			c0.24-3.22,1.14-6.28,2.03-9.36c0.35-1.23,0.99-1.77,2.4-1.76c4.49,0.05,8.22-1.67,11.11-5.18c5.03-6.1,8.76-12.78,9.41-20.86
			c0.05-0.63,0.13-1.26,0.96-1.88c1.82,3.62,3.21,7.33,4.19,11.18c1,3.89,0.2,7.73-1.13,11.92c1.75-1.13,2.56-2.3,3-3.68
			c1.25-3.95,2.43-7.92,3.59-11.9c0.37-1.28-0.02-2.46-0.52-3.7c-3.17-7.81-3.96-15.93-2.9-24.24c0.25-1.93,0.8-3.81,3.71-4.2
			c-1.98,1.8-2.05,3.97-2.18,6.01c-0.37,5.78,0.07,11.55,1.71,17.11c0.72,2.46,2.14,4.75,3.43,7c2.78,4.85,3.44,10.23,3.83,15.62
			c0.72,10,4.16,19.33,6.8,28.86c0.37,1.35,1.03,3.23,2.57,3.12c1.7-0.12,1.51-2.18,1.77-3.52c1.4-7.08,1.49-14.3,2.34-21.45
			c0.05-0.39,0.09-0.78,0.27-1.16c0.54,2.79,0.51,5.59,0.38,8.41c-0.25,5.52-0.64,11.02-2.07,16.39c-0.33,1.25-0.78,2.55-2.31,2.76
			c-1.6,0.21-2.51-0.9-3.2-2.1c-1.79-3.1-2.32-6.61-3.1-10.04c-0.53-2.3-1.01-4.61-1.7-6.88c0.31,6.25,0.52,12.48,0.24,18.71
			c-0.03,0.64-0.03,1.28-0.08,1.92c-0.3,3.62-0.31,3.59,3.26,3.62c8,0.08,15.7-1.68,23.32-3.89c0.37-0.11,0.79-0.15,0.96-0.71
			c-0.8,0.04-1.58,0.07-3.06,0.14c3.97-2.94,6.07-6.6,7.95-10.59c1.09,1.09,0.4,2.55,1.38,4.05c2.43-8.64,4.74-16.88,7.06-25.13
			c0.17,5.97-1.27,11.67-2.64,17.38c2.55-6.05,4.01-12.35,4.21-19.6c1.14,3.09,1.15,5.74,1.72,8.27c0.71,3.12,1.34,6.26,2.58,9.22
			c0.36,0.87,0.57,2.51,2.17,1.83c1.26-0.53,1.74-1.46,1.19-3.09c-2.24-6.63-3.29-13.53-3.34-20.51c-0.02-2.11-1.4-3.67-1.43-5.55
			c-0.14-10.9,1.38-21.53,5.71-31.62c1.07-2.48,2.19-4.99,5.4-5.7c-0.11,2.93-1.46,5.58-2.17,8.35c-2.45,9.57-3.53,19.16-1.45,28.93
			c0.38,1.77,2.24,2.35,3.65,1.05c1.25-1.16,1.91-2.74,2.73-4.21c3.59-6.43,7.4-12.62,13.03-17.62c3.84-3.41,8.1-5.05,13.05-5.65
			c2.58-0.31,5.01-1.58,7.93-1.57c-1.12,1.34-2.59,1.85-3.93,2.22c-8.72,2.42-14.06,8.36-17.64,16.33
			c-5.14,11.46-7.71,23.44-7.9,36.63c1.45-1.42,1.76-2.69,2.18-3.92c3.38-9.98,9.69-17.54,18.86-22.7c1.46-0.82,2.97-1.53,4.65-1.84
			c-0.03,2.17-1.79,2.82-3.13,3.82c-1.03,0.77-2.09,1.54-2.74,2.66c-3.28,5.64-5.75,11.58-6.33,18.17
			c-0.14,1.54,0.06,3.03,1.25,4.22c0.81-0.59,0.89-1.54,1.19-2.33c1.59-4.11,3.34-8.13,5.66-11.89c0.92-1.5,1.93-2.89,1.4-4.88
			c-0.29-1.07,0.65-1.93,1.6-1.94c1.29-0.02,1.78-0.81,2.4-1.63c3.45-4.56,7.7-8.11,13.07-10.18c1.03-0.4,1.59-0.69,1-2.02
			c-4.06-9.13-7.25-18.61-10.83-27.94c-0.92-2.4-2.27-4.11-4.48-5.31c-5.49-3-10.84-6.21-15.08-10.93
			c-1.98-2.21-4.01-4.36-6.39-6.13c-1.04-0.78-2.3-2.24-3.53-1.44c-1.34,0.87-0.53,2.65-0.14,3.97c0.51,1.76,1.39,3.41,1.88,5.18
			c0.79,2.88,1.51,5.93-0.8,8.41c-2.58,2.77-5.89,3.69-9.64,2.7c-1.55-0.41-3.04-0.95-4.5-1.85c-4.07,13.49-10.23,25.81-18.36,37.17
			c5.12-12.28,11.97-23.8,16.42-37.08c-4.03,1.69-7.38,0.7-10.69-0.54c-3.26,12.18-16.89,24.41-28.63,25.93
			c-3.04,0.39-5.51-0.58-7.74-2.43c-1.22-1.02-2.31-2.19-3.74-3.56c2.22,7.04,5.28,13.06,11.95,16.44c3.26,1.65,6.54,1.08,9.74-0.28
			c6.5-2.76,11.39-7.6,16.22-12.52c0.52-0.53,0.85-1.32,2.16-1.66c-5.55,7.26-11.37,13.52-19.97,16.27
			c-5.76,1.85-12.6-0.95-16.75-6.61c-3.67-5.01-5.55-10.76-6.63-16.81c-0.6-3.39-0.86-6.82-0.82-10.27c0.01-1.1-0.03-2.25,1.05-3.24
			c1,1.59,0.81,3.37,1.1,5c0.65,3.71,1.27,7.41,3.13,10.76c3.78,6.83,8.98,8.7,16.09,5.55c7.15-3.16,12.73-8.33,17.06-14.69
			c1.82-2.67,2.54-6.08,3.36-9.36c-2.28,3.54-4.21,7.25-7.15,10.31c1.63-2.93,3.26-5.86,4.89-8.79c0.31-0.56,0.56-1.15,0.87-1.71
			c0.32-0.6,0.21-1.13-0.37-1.43c-0.84-0.45-0.9,0.41-1.11,0.82c-1.53,2.99-3.16,5.92-5.11,8.68c-0.17,0.25-0.31,0.52-0.66,0.64
			c0.68-2.6,2.24-4.72,3.4-7.03c0.61-1.21,1.26-2.41,1.92-3.59c0.4-0.71,0.19-1.31-0.4-1.66c-0.94-0.56-0.99,0.48-1.25,0.91
			c-2.28,3.74-4.65,7.41-7.77,10.6c2.35-3.74,4.62-7.54,7.08-11.21c0.89-1.34,1.1-2.39-0.11-3.61c-2.2,1.87-4.54,3.52-7.41,4.21
			c-0.97,0.23-0.97,0.87-0.95,1.63c0.08,3.2-1.51,5.47-4.07,7.15c-2.44,1.6-5.12,2.65-8.04,2.88c-2.19,0.17-4.52,0.07-6.06-1.65
			c-1.97-2.2-4.41-3.56-6.91-4.96c-2.28-1.28-3.49-3.48-4.4-5.79c-0.51-1.3-0.91-1.17-2.04-0.63c-5.5,2.58-7.87,7.04-9.22,12.81
			c-2.03,8.72-7.22,15.19-15.97,18.26c-0.82,0.29-1.32,0.85-1.9,1.39c-4.89,4.51-10.11,8.61-15.66,12.27
			c-2.28,1.5-4.68,2.77-7.39,3.35c-0.75,0.16-1.5,0.46-2.21,0.1c-0.15-0.53,0.08-0.74,0.39-0.86c9.93-3.69,17.51-10.62,24.77-17.98
			c0.41-0.42,0.83-0.71,1.36-0.9c7.69-2.86,12.29-8.61,14.01-16.34c1.41-6.33,3.92-11.44,10.1-14.13c1.98-0.86,3-2.15,2.67-4.41
			c-0.1-0.69,0.11-1.43,0.22-2.14c0.53-3.43-0.74-5.73-3.88-7.41c-5.18-2.78-6.65-6.42-4.87-12.02c1.58-4.97,1.97-9.9,1.35-15.1
			c-0.48-4.02-0.11-8.18,0.86-12.16c1.29-5.29,4.41-9.16,9.63-11.13c0.52-0.2,1.03-0.46,1.58-0.57c6.56-1.38,12.79-3.77,19-6.22
			c4.59-1.82,8.61,0,12.37,2.54c1.05,0.71,2.1,1.51,2.92,2.47c2.24,2.6,4.49,5.13,7.13,7.36c2.51,2.12,3.44,5.1,3.37,8.41
			c-0.02,0.76-0.77,1.97,0.5,2.22c1,0.2,1.98-0.38,2.59-1.38c1.68-2.75,2.55-5.83,2.15-8.93c-0.99-7.62,0.63-14.8,3.15-21.85
			c2.35-6.59,8.05-8.03,14.12-8.89c6.47-0.92,11.78,1.56,16.47,5.62c1.4,1.21,1.94,1.17,3.07-0.22
			c5.33-6.56,11.71-11.81,19.68-14.88c10.06-3.88,19.8-3.65,29.64,1.36c16.1,8.2,28.86,19.89,38.77,34.9
			c14.22,21.54,24.29,44.97,31.7,69.58c8.64,28.71,14.56,57.97,17.39,87.83c0.61,6.45,1.35,12.88,1.97,19.33
			c0.13,1.34,0,2.71-0.07,4.07c-0.03,0.56-0.21,1.13-0.92,1.22c-0.67,0.09-1.07-0.34-1.28-0.87c-0.45-1.11-0.9-2.23-1.22-3.38
			c-3.18-11.4-5.2-23.07-7.88-34.59c-6.93-29.83-16.47-58.77-29.72-86.42c-0.35-0.72-0.66-1.45-0.97-2.19
			c-0.05-0.12,0.01-0.29,0.04-0.61c1.88,1.9,3.21,4.05,4.47,6.23c6.25,10.79,10.17,22.56,14.39,34.2
			c8.37,23.08,13.76,46.91,18.23,70.98c0.88,4.76,1.94,9.49,3.49,14.27c0.71-0.8,0.49-1.54,0.43-2.18
			c-1.66-16.38-2.34-32.91-5.89-49.02c-5.72-25.98-11.67-51.93-21.06-76.92c-7.31-19.46-16.33-38.03-28.49-54.99
			c-9.5-13.24-21.72-23.1-36.38-30.12c-8.61-4.12-17.19-3.61-25.81-0.27c-3.98,1.54-7.75,3.55-10.89,6.45
			c-9.69,8.92-18.38,18.53-21.1,32.07c-0.96,4.8-1.13,9.68-1.63,14.53c-0.52,5.11-1.3,10.15-4.77,14.27
			c-0.71,0.85,0.13,1.13,0.44,1.54c3.47,4.6,3.86,9.65,2.25,14.99c-0.15,0.49-0.44,0.87,0.12,1.21c1.6,1,3.2,1.98,4.85,3
			c0.6-1.04-0.71-1.31-0.38-2.16c4.61,1.56,8.83,4.31,14.14,5.09c-5.94-5.13-12.51-9.11-16.35-15.89c1.67,0.27,2.88,1.25,4.06,2.26
			c5.89,5.04,11.74,10.15,18.26,14.4c2.05,1.34,4.27,1.95,7.27,2.35c-8.96-8.95-17.44-17.49-22.84-28.51
			c10.95,12.62,21.46,25.65,35.08,35.68c-4.34-5.98-8.55-12.03-12.37-18.35c-3.82-6.33-7.54-12.71-10.42-19.56
			c2.41,2.56,4.34,5.46,6.16,8.42c7,11.38,14.05,22.73,22.74,32.94c4.78,5.61,9.79,11,15.49,15.7c4.57,3.77,9.4,7.22,13.67,11.35
			c0.42,0.4,0.84,0.97,1.96,0.86c-9.85-9.85-18.06-20.68-25.19-32.32c-7.14-11.65-13.83-23.52-17.74-36.76
			c1.93,3.65,3.88,7.29,5.77,10.96c9.01,17.54,18.83,34.55,31.94,49.44c5.45,6.19,11.4,11.86,18.14,16.77
			c-2.57-3.22-2.96-7.44-5.59-10.74c-13.69-17.13-23.94-36.24-31.92-56.61c-0.19-0.48-0.67-0.95-0.2-1.81
			c2.17,4.16,4.32,8.14,6.34,12.19c8.7,17.43,18.22,34.33,30.95,49.22c5.41,6.33,11.18,12.29,17.56,17.82
			c-1.01-2.19-1.97-4.4-3.03-6.56c-1.2-2.44-1.34-5-1.08-7.62c0.1-1.02-0.61-1.6-1.05-2.31c-11.75-18.84-21.95-38.46-29.63-59.33
			c-0.27-0.72-0.77-1.41-0.48-3.06c15.44,34.36,32.64,66.95,55.9,95.97c-9.64-28.46-21.74-55.65-40.08-79.76
			c2.61,2.01,4.71,4.45,6.72,6.96c9.38,11.7,16.33,24.83,22.4,38.45c9.75,21.85,17.69,44.35,23.93,67.59
			c-1.39-1.23-1.8-1.84-2.79-4.78c-2.68-7.87-5.31-15.75-7.95-23.63c-0.38-1.13-0.68-1.96-2.26-2.21c-1.79-0.29-3.07-1.93-4.33-3.27
			c-4.12-4.39-7.48-9.37-10.79-14.37c-1.98-2.99-4-5.97-6.03-9.01c-0.62,0.7,0,1.11,0.2,1.49c2.35,4.27,4.4,8.71,7.41,12.59
			c0.49,0.63,1.16,1.52,0.41,2.09c-0.76,0.58-1.38-0.41-1.95-0.93c-3.47-3.16-6.93-6.32-10.57-9.35c1.81,4.1,4.16,7.85,6.6,11.56
			c0.49,0.74,1.65,1.47,0.97,2.46c-0.76,1.1-1.96,0.3-2.87,0.02c-4.31-1.32-7.76-4.06-11.09-6.95c-1.39-1.2-2.7-2.48-4.25-3.6
			c2.08,4.5,2.33,9.84,7.57,12.76c4.19,2.33,7.85,5.61,11.54,8.79c-3-0.59-5.05-2.79-7.41-4.43c-2.42-1.68-4.75-3.47-7.39-5.41
			c0.02,1.82,0.52,3.2,0.97,4.58c0.14,0.44,0.49,0.93,0.12,1.34c-0.46,0.51-1.04,0.16-1.55-0.03c-1.68-0.61-3.07-1.71-4.45-2.79
			c-7.71-6.04-14.36-13.19-21.11-20.24c-0.98-1.02-1.92-2.08-3.09-2.96c3.35,4.4,5.31,9.76,9.62,13.46
			c0.49,0.42,1.47,0.88,0.63,1.66c-0.56,0.52-1.37,0.55-2.16-0.05c-7.88-6.02-16.14-11.53-23.38-18.37
			c-8.62-8.14-17-16.48-24.05-26.07c-0.45-0.61-0.78-1.37-1.89-1.79c1.18,3.19,2.3,6.15,3.37,9.14c1.75,4.9,3.35,9.84,4.3,14.96
			c0.11,0.62,0.13,1.22,0.64,1.75c0.83,0.86,0.25,1.48-0.58,1.83c-14.87,6.35-19.64,19.4-22.39,33.77c-0.34,1.8-0.49,3.65-0.58,5.48
			c-0.05,1.07-0.8,2.59,1.3,2.81c0.22,0.02,0.45,0.97,0.49,1.5c0.26,3.68,2.52,6.33,4.71,8.96c1,1.2,2.81,1.04,4.1,2.11
			c4.39,3.63,8.46,7.55,12.32,11.73c0.29,0.47,0.59,0.94,0.88,1.4c3.65,5.75,8.1,10.96,7.89,18.6c-0.14,4.89,1.63,9.74,4.04,14.15
			c0.84,1.54,1.73,3.09,3.59,4.12c-0.42-1.91-0.72-3.52-0.59-5.22c0.57-7.65,3.41-14.4,8.09-20.39c0.97-1.24,1.5-2.54,1.91-4.03
			c0.44-1.63-0.24-1.62-1.38-1.34c-1.32,0.32-2.63,0.69-3.95,0.98c-4.67,1.05-7.51-0.72-8.88-5.28c-0.73-2.43-0.44-4.92-0.75-7.36
			c-0.19-1.52-1-2.59-2.45-2.9c-1.5-0.32-1.29,1.32-1.91,2.02c-0.13,0.15-0.17,0.39-0.25,0.59c-0.12-0.08-0.25-0.16-0.37-0.24
			c0.07-0.9,0.14-1.79,0.21-2.69c-1.64,1.74-2.07,3.89-2.52,6.02c-0.7,3.28-0.66,3.29-3.32,1.38c-2.11-2.88-2.18-6.28-2.28-9.62
			c-0.04-1.51-0.52-2.15-2.02-2.26c-3.02-0.21-5.34-1.44-6.37-4.54c-0.51-1.54-1.88-2.31-3.25-3.02c-5.41-2.81-6.32-4.78-5.09-10.83
			c0.25-1.24,0.45-2.5,0.68-3.84c-0.91,0.33-0.76,1.24-1.35,1.88c-0.04-1.69,0.58-3.06,1.22-4.37c3.72-7.57,9.15-13.64,16.24-18.18
			c1.76-1.13,3.71-2.03,5.83-0.76c0.5,0.3,1.37,0.66,0.92,1.41c-0.42,0.7-0.97-0.01-1.39-0.29c-0.97-0.66-2.01-0.62-2.98-0.16
			c-6.52,3.11-10.97,8.43-14.89,14.33c1.25-1.01,2.51-2.01,4.27-3.43c-1.16,3.66-2.19,6.67-2.17,9.89c0.03,5.15,1.52,6.76,6.63,6.98
			c0.16,0.01,0.32,0,0.48,0.01c4.71,0.16,4.82,0.3,4.49,5.04c-0.06,0.8-0.11,1.6-0.06,2.4c0.2,3.52,2.54,5.12,5.73,3.69
			c3.39-1.52,6.71-3.04,8.91-6.49c2.51-3.93,6.16-6.88,10.5-9.25c-3.06-2.82-5.53-5.94-8.11-8.96c-5.07-5.94-9.07-12.55-12.55-19.51
			c-0.89-1.78-1.64-3.66-1.63-5.72c0.01-0.69,0.21-1.3,1.02-1.37c0.69-0.05,0.99,0.45,1.13,1.02c2.09,8.55,7.64,15.18,12.29,22.33
			c1.2,1.84,2.65,3.42,3.03,5.92c0.26,1.68,2.54,2.94,4.15,4.13c0.98,0.73,1.81,1.95,3.34,1.4l-0.09-0.08
			c0.64,1.34,1.71,2.2,3.01,2.9c3.23,1.75,6.48,3.51,9.37,5.81c0.81,0.64,1.61,0.58,2.47,0.5c1.89-0.17,3.35,0.42,3.89,2.37
			c0.34,1.22,0.89,1.25,1.91,0.72c2.12-1.11,4.3-2.13,6.46-3.16c0.65-0.31,1.32-0.58,2.01-0.78c1.69-0.51,3.62-1.23,4.99,0.21
			c1.42,1.49-1.14,2.32-1.09,3.93c3.11-0.96,6.06-2.27,8.91-3.75c3.97-2.06,7.91-4.2,12.06-5.9c0.92-0.38,2-1.05,2.84,0.05
			c0.7,0.91,0.2,1.92-0.37,2.67c-5.47,7.2-12.19,12.64-21.19,14.77c-0.29,0.07-0.62,0.01-1.08-0.23
			c8.01-3.67,15.66-7.77,20.54-15.66c-2.62,1.26-5.27,2.46-7.86,3.79c-4.77,2.46-9.58,4.81-14.84,6.04
			c-1.17,0.27-1.94,1.06-2.72,1.87c-3.86,3.99-8.38,6.89-13.82,8.24c-0.52,0.13-1.04,0.4-1.9-0.06c3.51-2.18,6.98-4.13,10.22-6.4
			c3.24-2.29,6.09-5.07,8.78-8.44c-2.1-0.27-3.54,0.46-4.96,1.1c-4.46,2.01-8.52,4.95-12.98,6.73c-4.67,1.86-4.98,5.46-5.85,9.18
			c-0.2,0.83-0.21,1.5,0.94,1.75c3.49,0.76,6.93,2.12,10.55,0.52c0.62-0.27,0.51-0.08,0.91,0.47c0.59,0.81,1.11,1.34-0.3,1.82
			c-1.26,0.43-2.53,0.39-3.8,0.31c-2.53-0.16-5.08-0.68-7.53,0.86c1.04,2.62,3.44,3.84,5.87,5.01c0.14,0.07,0.34,0.11,0.47,0.05
			c2.49-1.12,5.15,0.31,7.73-0.6c2.72-0.96,5.38-2.03,7.97-3.27c0.35-0.17,0.89-0.38,0.57-0.81c-0.66-0.89-1.34,0.23-2.16,0.36
			c1.03-4.18,2.36-8.08,1.46-12.24c-0.09-0.44-0.13-1.15,0.53-1.08c0.64,0.06,1.06,0.65,1.21,1.33c0.6,2.87,0.6,5.7-0.5,8.47
			c-0.23,0.59-0.5,1.16-0.89,2.06c8.84-0.73,14.1-6.3,19.01-12.81c-1.06,3.01,1.2,3.87,2.79,5.16c14.39,11.66,28.77,23.32,43.14,35
			c0.61,0.5,1.67,0.87,1.02,2.38c-2.93-2.36-5.81-4.65-8.66-6.98c-12.61-10.3-25.21-20.61-37.84-30.89
			c-0.48-0.39-0.94-1.63-1.81-0.34c-2.83,4.21-6.6,7.31-11.47,9.38c8.3,7.39,16.39,14.59,24.49,21.8
			c11.51,10.24,23.02,20.48,34.56,30.7c0.72,0.64,1.28,1.19,0.75,2.47c-3.91-3.49-7.61-7.09-11.63-10.29
			c-3.52-2.8-5.83-6.73-9.5-9.38c-7.71-5.56-14.46-12.26-21.57-18.53c-5.68-5.02-11.32-10.09-16.96-15.15
			c-2.11-1.9-4.39-1.71-5.98,0.52c-0.23,0.32-0.47,0.72-0.8,0.88c-2.67,1.3-1.92,2.37-0.11,4.03c8.66,7.93,17.18,16,25.75,24.03
			c0.29,0.27,0.6,0.54,0.85,0.85c0.27,0.33,0.95,0.61,0.55,1.12c-0.41,0.51-0.98,0.33-1.46-0.13c-1.38-1.33-2.78-2.64-4.17-3.96
			c-7.94-7.53-15.89-15.04-23.79-22.61c-0.88-0.84-1.67-1.05-2.77-0.61c-0.74,0.29-1.55,0.64-2.31,0.59c-3.51-0.21-6,1.94-8.73,3.57
			c-0.93,0.56-1.56,1.22-1.77,2.39c-0.87,4.84-2.77,9.35-4.88,13.74c-0.73,1.52-0.41,2.4,0.64,3.54c5,5.47,9.93,11.01,14.99,16.66
			c-1.38,0.74-1.83-0.25-2.4-0.88c-4.47-4.99-9-9.94-13.37-15.02c-1.2-1.39-1.47-0.82-1.96,0.37c-1.23,2.95-2.44,5.92-4.08,8.67
			c-2.54,4.27-4.99,4.7-9.61,3.06c-5.76-2.04-8.56-6.33-10.48-11.64c-1.87-5.16-2.39-10.58-3.24-15.95
			c-0.2-1.27-0.49-2.48-1.16-3.62c-4.66-7.95-10.24-15.26-17.88-20.42c-3.45-2.33-6.13-4.87-8.16-8.31
			c-0.66-1.12-1.98-1.02-2.93-1.73c-1.95-1.45-2.98-3.29-3.77-5.38c-1.13-3-1.93-6.1-2.53-9.24c-0.28-1.49-0.83-1.34-1.63-0.43
			c-1.6,1.81-2.85,3.85-3.92,6.01c-0.35,0.7-0.22,1.76-1.51,1.87c-0.88,0.07-0.32,0.7-0.05,1c6.17,6.85,10.02,15.29,15.83,22.45
			c13.08,16.11,25.64,32.66,38.4,49.03c0.28,0.36,0.52,0.75,0.51,1.34c-5.61-5.75-10.19-12.34-15.14-18.62
			c-4.99-6.33-9.89-12.74-14.82-19.12c-4.97-6.42-9.94-12.85-14.94-19.32c-0.67,0.71-0.23,1.2-0.09,1.68
			c3.21,10.53,4.99,21.3,5.46,32.31c0.15,3.53,2.19,6.31,4.29,8.93c5.11,6.4,11.72,10.8,19.15,14.06
			c9.45,4.14,19.48,5.97,29.68,5.81c5.99-0.1,12.01-1.47,17.67-3.87c6.4-2.71,12.81-5.4,19.27-7.99c1.73-0.69,1.32-1.19,0.32-2.2
			c-8.15-8.25-16.26-16.53-24.36-24.83c-0.68-0.7-2.15-1.68-1.45-2.37c1-0.99,1.63,0.72,2.25,1.34
			c8.04,8.02,16.08,16.04,23.96,24.22c1.81,1.88,3.17,2.33,5.67,1.22c5.99-2.65,12.16-4.92,18.71-5.84
			c3.19-0.45,6.25-0.14,8.78,2.16c3.11,2.83,2.65,5.96-1.19,7.6c-3.37,1.44-6.03,3.43-6.97,7.94c4.71-3.75,9.28-2.9,13.98-1.2
			c3.71,1.34,6.05,3.8,6.95,7.59c2.08,8.76,3.56,17.57,2.07,26.6c-0.28,1.72,0.06,2.94,1.47,4.13c2.13,1.81,3.98,3.93,5.99,5.88
			c0.85,0.83,1.48,1.68,0.88,3.29c-2.89-2.99-5.67-5.87-8.78-9.09c-1,4.02-1.79,7.44-3.24,10.65c-4.32,9.53-10.82,17.52-17.94,25.04
			c-4.37,4.62-7.8,9.71-9.2,16.01c-1.28,5.73,0.2,8.62,5.84,10.05c4.51,1.14,7.86,3.68,10.88,7.02c2.67,2.96,3.44,6.21,2.22,9.98
			c-3.88,11.97-9.29,23.14-17.43,32.83c-1.2,1.43-1.2,2.33-0.19,3.85c12.35,18.56,24.62,37.18,36.95,55.76
			c0.94,1.41,1.5,2.78,1.02,4.5c-0.86-0.28-1.09-1.1-1.51-1.73c-12.54-19.01-25.09-38.02-37.57-57.07c-1.08-1.65-1.57-1.99-3.1-0.35
			c-6.48,6.98-13.24,13.7-20.68,19.66c-1.57,1.26-1.73,2.1-0.74,3.83c13.63,23.67,27.18,47.38,40.75,71.08
			c3.41,5.96,6.87,11.9,10.22,17.89c0.83,1.48,1.72,2.23,3.54,2c2.39-0.31,4.76-0.01,7.08,0.83c1.5,0.54,2.26,1.39,2.17,2.99
			c-0.04,0.64-0.01,1.28-0.01,1.92c0,42.8,0,85.6,0,128.4c0,1.36-0.02,2.72-0.03,4.08c-31.52,0-63.04,0-94.56,0
			c-3.38-9.18-10.92-15.31-16.6-22.85c0.06,0.92,0.3,1.74,0.56,2.56c2.14,6.77,4.29,13.53,6.43,20.29c-0.64,0-1.28,0-1.92,0
			c-2.9-8.79-5.81-17.57-8.67-26.36c-0.46-1.4-1.17-2.56-2.22-3.61c-3.1-3.12-6.78-5.34-10.78-7.02
			c-7.27-3.04-14.94-4.42-22.95-5.29c2.08,7.5,4.14,14.71,6.07,21.95c1.81,6.78,3.99,13.45,5.43,20.32c-0.64,0-1.28,0-1.92,0
			c-0.16-0.45-0.34-0.89-0.46-1.35c-3.56-12.9-7.15-25.79-10.65-38.71c-0.49-1.82-1.16-2.78-3.25-2.94
			c-5.25-0.4-10.49-1.04-15.7-1.75c-2.1-0.29-2.54,0.15-2.01,2.24c2.86,11.36,5.66,22.74,8.33,34.14c0.65,2.76,1.82,5.44,1.67,8.37
			c-0.64,0-1.28,0-1.92,0c-0.17-0.85-0.32-1.71-0.52-2.56c-3.21-13.34-6.46-26.68-9.59-40.04c-0.45-1.93-1.24-2.84-3.27-2.88
			c-2.39-0.05-4.78-0.38-7.17-0.58c-10.51-0.88-21.07-1.28-31.46-3.31c-1.8-0.35-1.72,0.35-1.47,1.77
			c2.83,15.86,5.59,31.73,8.36,47.59C359.84,782.56,359.2,782.56,358.56,782.56z M384.78,211.36c-1.94-0.58-2.18,1.1-2.86,2.18
			c0.35-2.23-0.94-4.4-3.08-5.11c-0.45-0.15-0.73,0.17-0.87,0.59c0.8-1.43-0.21-2.23-1.13-3.21c-0.53,0.98-1.05,1.87-1.5,2.79
			c-0.22,0.46-0.92,1.21-0.3,1.39c0.62,0.18,1.52,0.73,2.22,0.05c0.33-0.32,0.53-0.79,0.78-1.19c-0.09,0.38-0.24,0.77-0.25,1.15
			c-0.05,1.88,2.65,4.1,4.18,3.45c0.21,0.55-0.11,1.47,0.74,1.56c0.91,0.1,0.68-0.86,0.94-1.37c0.38-0.77,0.37-1.72,1.12-2.31
			c-0.04,1.52-1.28,2.94-0.18,4.6c0.56-1.6,1.12-3.21,1.76-5.01C385.67,211.11,385.23,211.23,384.78,211.36z M474.63,420.3
			c2.71,1.32,5.45,1.58,8.62,0.33c-2.28-1.96-2.97-4.47-3.93-7.14c-1.54,2.61-2.77,5.02-4.75,6.9c0.64-2.19,2.16-3.88,3.31-5.77
			c1.56-2.56,1.53-4.47-0.36-7.08c-0.39,0.63-0.75,1.25-1.14,1.83c-2.27,3.34-4.12,6.98-6.98,9.9c0.16-0.44,0.25-0.93,0.5-1.31
			c2.21-3.42,4.41-6.85,6.7-10.22c0.61-0.89,1.13-1.73,0.06-2.43c-1.3-0.85-1.31,0.7-1.7,1.24c-1.59,2.23-2.9,4.65-4.85,6.63
			c1.25-2.74,2.81-5.29,4.56-7.74c0.23-0.33,0.84-0.74,0.18-1.14c-0.46-0.28-0.91-0.02-1.16,0.49c-0.72,1.47-1.43,2.95-2.83,4.04
			c0.77-1.39,1.53-2.77,2.3-4.16c-0.17-0.12-0.35-0.24-0.52-0.36c-2.39,2.83-4.1,6.22-6.99,8.68c1.44-2.1,2.88-4.21,4.32-6.31
			c-2.52,1.24-3.52,3.86-5.59,5.64c-0.15-0.81,0.76-1.18,0.29-1.92c-2.66,2.08-4.76,4.55-6.88,7.4c3.1,0.52,5.82,1.64,8.73,2.12
			c1.24,0.21,2.11,0.05,2.97-0.74c-0.1,0.62-0.25,1.42,0.68,1.34C471.64,420.38,473.17,421.16,474.63,420.3z M453.05,627.44
			c-0.28-0.82-0.46-1.41-0.69-1.99c-2.87-7.28-5.75-14.55-8.63-21.83c-2.17-5.49-4.35-10.97-6.5-16.47c-0.17-0.45-0.78-1.06,0-1.43
			c0.66-0.31,1.24,0,1.51,0.74c0.14,0.37,0.3,0.74,0.45,1.11c4.86,12.17,9.79,24.31,14.55,36.52c1.02,2.61,2.41,4.12,5.12,5.29
			c7.75,3.35,14.34,8.39,18.97,15.63c2.59,4.05,6.15,6.29,10.97,6.69c0.06-1.08-0.48-1.81-0.83-2.59
			c-8.84-20-17.69-39.99-26.54-59.99c-0.74-1.68-1.5-3.35-2.25-5.03c-0.19-0.43-0.51-0.89,0.14-1.2c0.54-0.26,1.09-0.35,1.42,0.33
			c0.21,0.43,0.37,0.89,0.56,1.32c9.73,21.79,19.5,43.56,29.15,65.38c0.79,1.78,1.79,2.33,3.56,2.42
			c5.46,0.28,10.86-0.43,16.28-0.82c1.93-0.14,1.78-0.77,1.09-2.18c-9.02-18.52-18-37.06-26.98-55.61
			c-2.85-5.89-5.67-11.8-8.5-17.71c-0.34-0.71-0.94-1.54,0.2-1.98c1.07-0.42,1.06,0.75,1.33,1.27c2.19,4.35,4.33,8.73,6.46,13.11
			c9.81,20.18,19.63,40.36,29.41,60.56c0.72,1.49,1.42,2.08,3.25,1.79c12.47-1.98,24.97-3.79,37.45-5.67
			c3.17-0.48,3.17-0.49,1.51-3.4c-5.81-10.2-11.61-20.4-17.42-30.6c-10.79-18.94-21.59-37.87-32.34-56.83
			c-0.89-1.57-1.47-1.94-3.13-0.71c-5.32,3.96-10.78,7.74-16.26,11.49c-9.84,6.73-20.59,11.56-31.91,15.25
			c-10.19,3.32-20.33,3.79-30.66,0.78c-5.56-1.62-11.2-2.93-16.16-6.22c0.38,0.69,0.76,1.39,1.14,2.08
			c-1.54-0.48-2.78-1.18-3.98-1.94c-5.56-3.51-10.61-7.67-15.68-11.85c-8.65-7.13-14.99-15.44-15.17-27.59
			c-5.53,3.58-10.33,7.4-14.95,11.44c-1.83,1.61-4.01,2.98-3.81,5.91c0.01,0.2-0.38,0.43-0.59,0.65c-0.8-0.69-0.97-1.58-1.26-2.39
			c-0.25-0.71-0.65-1.16-1.41-0.9c-0.88,0.3-0.27,0.94-0.17,1.4c0.65,2.8,1.34,5.59,2.01,8.38c5.33,21.95,10.68,43.89,15.97,65.85
			c0.43,1.77,0.96,2.5,2.99,2c3.25-0.8,6.58-1.3,9.9-1.79c3.72-0.55,3.7-0.47,2.72-4.03c-6.5-23.53-13-47.06-19.43-70.62
			c-0.17-0.62-1.29-1.75,0.18-2.17c1.42-0.4,1.17,1.08,1.36,1.75c1.91,6.67,3.73,13.37,5.59,20.06c4.85,17.45,9.71,34.9,14.56,52.35
			c0.3,1.09,0.42,2.08,2.09,1.95c7.02-0.55,14.05-0.8,21.09-0.66c2.02,0.04,2.4-0.31,1.73-2.32c-4.75-14.32-9.39-28.67-14.05-43.02
			c-0.84-2.58-1.62-5.18-2.5-8.01c1.97,0.95,2.43,2.48,2.93,4.02c5.14,15.71,10.27,31.41,15.46,47.1c0.31,0.95,0.2,2.42,1.81,2.47
			c3.85,0.12,7.59,1.38,11.38,1.52C435.96,626.81,444.44,626.04,453.05,627.44z M411.27,503.97c-6.34-4.37-13.47,0.25-15.77,5.35
			c-1.98,4.4-1.4,8.7-0.3,13.11c2.22,8.93,3.86,17.98,4.69,27.15c0.49,5.44,1.23,10.75,3.71,15.74c2.54,5.11,6.21,8.87,11.62,10.82
			c5.35,1.93,10.85,3.32,16.45,4.26c3.32,0.56,6.68,0.79,10.03,0.3c13.49-2,25.88-7.04,37.48-14.01
			c17.78-10.68,33.8-23.58,47.89-38.88c9.72-10.56,16.35-22.8,20.71-36.37c0.68-2.12,0.86-4.24-0.58-6.19
			c-1.63-2.2-3.46-4.2-5.73-5.75c-0.98-0.67-1.98-1.2-3.3-1.17c-10.65,0.26-21.01-1.23-31.02-5.07
			c-8.99-3.44-16.71-8.99-24.65-14.23c-5.62-3.71-10.75-7.77-14.15-13.7c-0.27-0.48-0.68-0.89-1.09-1.27
			c-1.21-1.14-2.11-1.36-2.52,0.72c-0.41,2.11-0.96,4.21-1.55,6.28c-2.17,7.57-2.41,15.46-3.79,23.17
			c-2.52,14.08-11.04,23.86-22.65,30.89c-4.3,2.61-7.8,5.56-10.97,9.23c-0.79,0.91-1.66,1.75-2.49,2.62
			c0.71-3.79,3.32-6.31,5.23-9.37c-3.88,1.7-5.9,5.5-9.21,8.61c0.74-3.77,2.94-6.02,5.02-8.6c-4.75-1.08-5.54,4.23-8.94,5.24
			c0.71-2.54,2.58-4.14,4.32-6.6c-5.44,0.13-7.47,4.7-11.2,7.09c1.53-3.49,3.91-5.81,6.46-8.06c-4.08,0.91-7.58,3.24-11.98,4.99
			C405.49,507.13,408.5,505.74,411.27,503.97z M532.81,476.08c-5.81-3.91-4.76-9.01-3.15-14.15c1.48-4.72,3.96-8.89,7.31-12.54
			c4.06-4.42,8.16-8.8,11.67-13.68c4.22-5.86,7.95-11.97,9.71-19.11c2.62-10.64,2.25-21.21-0.36-31.79
			c-1.42-5.76-6.09-9.23-12.12-8.84c-0.98,0.06-1.61,0.21-1.7,1.45c-0.72,9.91-4.68,18.64-9.87,26.94
			c-6.46,10.32-15.91,17.6-25.19,25.08c-6.71,5.41-14.38,8.53-22.71,10.27c-3.96,0.83-3.96,0.81-4.52,4.92
			c-0.04,0.32-0.12,0.63-0.21,0.94c-1.49,5.18,0.81,9.43,4.42,12.37C499.5,468.89,514.94,475.05,532.81,476.08z M343.55,216.85
			c-0.13-0.08-0.26-0.15-0.39-0.23c0.73-1.75,1.45-3.51,2.2-5.25c0.33-0.78,0.44-1.62-0.7-1.39c-1.48,0.31-2.26-0.55-3.07-1.39
			c-4.68-4.87-8.59-10.31-11.94-16.17c-0.69-1.21-1.13-2.56-0.85-3.91c0.66-3.21,1.09-6.21-0.27-9.52
			c-2.25-5.49,0.68-10.3,2.96-15.09c0.56,0.3-0.17,1.09,0.6,1.42c2.18-6.17,7.6-8.74,12.82-11.58c0.17,0.61,0.49,1.15,0.45,1.66
			c-0.21,3.04,0.46,4.03,3.27,4.72c1.51,0.37,3.02,0.2,4.54,0.25c1.46,0.05,2.84,0.71,2.55,2.2c-0.64,3.36,1.6,4.63,3.81,5.87
			c2.47,1.38,5.07,2.51,7.76,3.82c-2.89,0.95-5.08-0.88-7.61-1.41c0.09,3.59,2.61,5.16,5.02,6.66c3.81,2.38,5.63,5.68,4.87,10.1
			c-0.53,3.11,1.08,5.7,1.56,8.56c0.1,0.6,0.57,1.45,1.5,1.05c1.06-0.45,1.76-3.25,1.16-4.28c-1.45-2.49-1.62-3.32-1.14-5.47
			c0.87,3.38,2.01,6.52,5.98,7.36c-0.99,1.52-1.86,2.86-2.74,4.2c2.04-0.47,2.39-2.68,4.2-3.28c-0.43,0.88-0.98,1.65-1.6,2.36
			c-0.94,1.08-0.84,1.66,0.7,1.66c1.9,0,3.8,0,5.61,0c-0.63,3.07-3.31,2.99-5.31,3.89c-0.36,0.16-0.77,0.21-1.15,0.33
			c-0.48,0.14-0.52,0.42-0.4,0.9c0.6,2.43,4.53,5.09,7.15,4.78c2.29-0.27,2.39-0.09,1.74,2.23c-0.44,1.57-1.4,3.05-1.22,4.74
			c0.2,0.05,0.41,0.11,0.61,0.16c0.58-1.95,1.16-3.9,1.74-5.86c0.02,1.97-0.4,3.82-0.84,5.66c-0.13,0.57,0.03,0.97,0.64,1.03
			c0.57,0.06,0.53-0.44,0.61-0.81c0.38-1.9,0.77-3.79,1.16-5.69c0.43,1.91-0.11,3.67-0.47,5.44c-0.14,0.68-0.63,1.48,0.52,1.68
			c1.09,0.19,1-0.72,1.17-1.4c0.36-1.44,0.45-2.97,1.29-4.29c-0.16,1.51-0.46,2.98-0.74,4.47c-0.09,0.46-0.27,1.04,0.31,1.25
			c0.67,0.25,1.01-0.21,1.18-0.83c0.32-1.21,0.66-2.41,1.05-3.83c0.7,1.65-0.66,2.99,0,4.63c1.15-1.38,0.73-3.05,1.46-4.31
			c0.66,1.28-0.58,2.72,0.21,4.21c0.54-0.61,1.07-1.46,1.26-1.39c2.4,0.89,2.38,0.92,2.95-1.4c0.04-0.18,0.19-0.32,0.3-0.49
			c0.6,0.58-0.33,1.47,0.55,1.95c2.07-1.07,2.55-2.73,1.9-4.83c-0.47-1.53-0.92-3.06-1.42-4.58c-0.92-2.77,0.16-4.92,2.29-6.5
			c0.85-0.63,1.28-1.29,1.62-2.2c1.2-3.31,0.53-6.39-0.82-9.51c-0.97-2.26-2.85-3.04-4.73-4.28c-2.99-1.96-6.48-1.85-9.53-3.88
			c-0.15,2.55-0.11,4.63-1.34,6.86c-0.36-4.1-0.27-7.8-1.52-11.41c-0.93-2.69-2.19-4.28-5.15-4.37c-1.98-0.06-2.83-1.31-2.62-3.23
			c0.18-1.75,0.5-3.48,0.65-5.23c0.34-3.89-1.5-6.79-4.64-9.72c0.95,3.04,1.45,5.55,0.8,8.87c-0.85-2.51-1.45-4.39-2.12-6.23
			c-1.71-4.7-4.82-8.24-9.08-10.79c-4.19-2.51-8.36-2.31-12.46,0.22c-2.75,1.69-5.66,2.89-8.88,3.42c-3.08,0.51-6.06,1.47-8.9,2.79
			c-1.84,0.86-3.76,1.93-4.51,3.79c-1.59,3.95-3.08,7.98-3.64,12.24c-0.45,3.41-0.8,6.8-0.15,10.26c0.7,3.66-0.6,7.09-1.61,10.55
			c-1.22,4.17-0.03,6.91,3.7,9.09c0.62,0.36,1.26,0.7,1.89,1.04c2.76,1.45,4.05,3.72,3.93,6.84c-0.08,2.15-0.22,4.32-0.1,6.47
			c0.22,3.84,1.87,7.03,5.33,8.82c5.06,2.63,12.81,1.17,17.03-2.82c0.93-0.88,0.61-1.22-0.25-1.71c-1.35-0.76-2.39-2.03-2.24-3.46
			c0.25-2.43,1.11-4.77,2.24-6.97c0.18,2.35-1.14,4.32-1.37,6.56c1.14-2.49,2.87-4.81,2.23-7.8c-0.28-1.3-0.84-1.63-1.88-0.6
			c-1.85,1.83-4.02,3.34-4.58,6.21c-0.25,1.32-0.88,2.68-2.44,4.23c0.9-2.34,1.56-4.05,2.22-5.75c-0.23-0.11-0.45-0.22-0.68-0.33
			c-3.08,2.51-3.11,7.01-6.13,10.23c0.61-1.82,1.04-3.13,1.48-4.43c-0.09-0.03-0.18-0.07-0.27-0.1
			C344.39,215.34,343.97,216.1,343.55,216.85z M330.02,174.14c1.51-1.28,2.92-2.15,4.59-2.41c0.67-0.11,1.46-0.07,1.63,0.63
			c0.21,0.86-0.63,0.96-1.26,1.04c-1.54,0.21-2.83,1.08-4.26,1.56c-0.74,0.25-0.95,0.78-0.76,1.51c0.18,0.69,0.25,1.46,1.28,1.38
			c0.47-0.04,0.96,0.04,1.44,0.07c0.53,0.03,1.18-0.3,1.54,0.31c0.39,0.67-0.15,1.02-0.63,1.31c-0.4,0.24-0.64,0.42-0.16,0.85
			c1.4,1.26,0.72,1.65-0.74,1.68c-0.38,0.01-0.78-0.12-1.03,0.34c-1.7,3.08-2.44,7.05-0.29,10.06c2.83,3.97,5.93,7.76,8.54,11.87
			c1.67,2.62,3.7,3.22,6.47,2.74c1.52-0.26,2.95-0.72,4.25-1.54c6.22-3.94,10.85-9.13,12.91-16.36c0.12-0.42-0.01-1.15,0.95-1.22
			c-0.18,5.25-0.19,10.49-3.57,14.88c-1,1.29-1.48,2.45-1.17,4.13c0.31,1.67-0.12,3.38-1.1,4.81c-0.95,1.38-0.65,1.91,0.98,2.04
			c4.61,0.37,8.06-2.09,11.49-4.63c0.53-0.39,0.37-0.98,0.46-1.53c0.14-0.85-0.91-2.28,1.19-2.31c0.53-0.01,0.82-1.16-0.29-1.47
			c-1.01-0.29-1.8-0.99-1.96-1.91c-0.59-3.3-2.18-6.33-2.67-9.62c-0.25-1.7,0.09-3.5,0.21-5.25c0.1-1.31,0.14-2.29-1.76-2.18
			c-1.44,0.08-2.91-0.45-4.17-1.99c1.5-0.2,2.51,0.21,3.55,0.46c0.54,0.13,1.14,0.31,1.52-0.29c0.37-0.59-0.03-1.07-0.36-1.51
			c-1.17-1.58-2.86-2.54-4.39-3.68c-2.03-1.53-3.83-3.22-4.02-5.95c-0.1-1.54-0.69-2.64-2.02-3.52c-1.42-0.94-2.76-2.3-2.35-4.14
			c0.49-2.2-0.48-2.42-2.24-2.41c-3.11,0.02-6.03-0.73-7.42-3.83c-0.7-1.57-1.28-1.19-2.26-0.56c-3.2,2.04-5.72,4.85-8.44,7.44
			C331.16,167.33,330.09,170.27,330.02,174.14z M456.21,312.98c4.74-0.71,5.11-0.38,5.1,3.96c0,0.4,0.01,0.8,0,1.2
			c-0.02,1.77,0.67,3.13,2.35,3.82c3.45,1.42,7.02,1.29,10.61,0.67c0.42-0.07,0.95-0.33,0.82-0.7c-0.45-1.31,0.78-1.93,1.08-2.92
			c1.5-4.99,4.69-9.06,7.42-13.36c0.89-1.41,0.98-2.14-0.44-3.02c-3.39-2.11-6.77-4.25-10.11-6.45c-0.89-0.59-1.5-0.17-2.18,0.23
			C464.32,300.31,460.14,306.27,456.21,312.98z M331.36,295.22c-0.55-1.22-1.18-2.41-1.64-3.66c-1.02-2.75-2.01-5.42-5.8-4.93
			c-0.77,0.1-1.57-1.45-2.4,0.02c-0.73,1.3-2.13,2.19-1.18,4.21c1.83,3.89,3.27,7.97,4.87,11.97c1.33,3.31,2.65,6.63,3.98,9.93
			c1.23-1.14,2.13-2.61,3.35-2.95c1.56-0.43,1.73-1.32,1.89-2.49c1.28-9.26,2.17-18.56,1.99-27.93c-0.01-0.64-0.08-1.28-0.17-2.63
			c-1.71,4.71-2.78,9-7.44,10.8C329.57,290.09,331.21,292.38,331.36,295.22z M371.17,520.22c3.19-2.34,5.86-4.13,9.21-4.63
			c-2.41,1.66-4.82,3.31-7.24,4.97c1.54,0.23,2.49-1,3.8-0.97c-0.22,2.42-2.5,3.04-4.02,4.59c0.73,0,1.15,0,1.82,0
			c-1.19,1.4-2.21,2.85-3.13,3.94c-2.42,2.83-3.45,6.4-5.79,9.18c-0.84,0.99-1.58,2.06-2.37,3.09c1.73-0.8,3.13-1.95,4.61-2.97
			c6.4-4.38,12.51-9.47,21.26-8.46c-1.2-2.04-2-4.03-2.49-6.14c-0.74-3.19-1.66-6.35-2.21-9.57c-0.36-2.11-1.17-2.04-2.7-1.23
			c-2.19,1.15-4.41,2.26-6.68,3.26C373.28,516.15,372.25,517.72,371.17,520.22z M245.94,290.17c2.02,4.87-0.81,8.5-2.56,12.36
			c2.56-0.19,12.49-4.24,14.72-5.92c0.67-0.5,0.64-1.02,0.47-1.66c-0.58-2.24-1.21-4.47-1.72-6.72c-0.3-1.36-0.82-1.67-2.12-1.02
			C252.02,288.57,249.2,289.67,245.94,290.17z M380.9,304.69c-13.66,5.41-26.78,10.16-41.16,10.79c0.8,0.85,1.61,0.91,2.37,0.92
			c12,0.3,23.7-1.1,34.97-5.61c3.84-1.53,5.47-4.69,7.53-7.69c-1.97,0.83-2.91,2.89-5.02,4.31
			C380.08,306.41,380.34,305.86,380.9,304.69z M389.88,170.29c0.89-0.7,0.78-1.55,0.91-2.31c1.02-6.08,0.69-12.27,1.36-18.38
			c0.47-4.21,0.82-8.51,2.87-12.28c2.95-5.44,6.92-9.62,13.9-8.97c0.64,0.06,1.41,0.17,1.62-0.62c0.23-0.87-0.47-1.31-1.18-1.53
			c-2.24-0.7-4.43-0.43-6.53,0.52c-5.99,2.68-9.9,7.22-11.51,13.56C388.83,150.13,389.05,160.13,389.88,170.29z M403.62,296.05
			c-2-2.6-3.46-5.37-4.34-8.5c-0.87-3.12-1.2-6.32-1.51-9.63c-1.11,0.53-1.35,1.44-1.57,2.22c-0.63,2.14-1.09,4.33-1.63,6.49
			c-0.49,1.94,1.1,5.9,2.93,6.64C399.57,294.1,401.47,295.21,403.62,296.05z M476.56,351.23c-2.94,3.86-3.81,8.85-7.37,12.24
			c-0.14,0.14-0.06,0.62,0.05,0.88c0.24,0.62,0.27,1.32,1.34,1.36c0.87,0.03,1.5,0.15,2.07-0.71c2.09-3.15,3.3-6.71,4.9-10.09
			C478.27,353.39,478.29,352.21,476.56,351.23z M331.66,332.03c0.12,0.05,0.25,0.09,0.37,0.14c1.83-3.49,3.68-6.97,5.46-10.48
			c0.33-0.66,1.5-1.59,0.39-2.12c-0.9-0.43-2.33-0.88-3.32,0.23c-0.52,0.59-1.15,1.26-1.29,1.98
			C332.66,325.18,332.19,328.61,331.66,332.03z M244.97,288.48c2.35-0.12,4.18-0.9,6-1.72c0.82-0.37,0.63-0.99,0.43-1.61
			c-0.26-0.8-0.72-0.81-1.47-0.53c-1.64,0.6-3.34,1.05-5,1.58c-0.7,0.22-1.92,0.07-1.76,1.12
			C243.3,288.2,244.31,288.56,244.97,288.48z M338.48,297.23c-0.87,4.11-1.49,8.19-2.53,12.2c-0.16,0.61-0.48,1.24,0.57,1.42
			c0.79,0.13,1.33,0.14,1.6-0.82c0.13-0.44,0.36-0.86,0.36-1.34C338.48,304.87,338.48,301.05,338.48,297.23z M482.09,341.31
			c-1.9,2.06-2.82,4.64-4.22,6.94c-0.94,1.54-0.57,2.42,1.05,3.09C480.31,348.04,481.46,344.76,482.09,341.31z M392.32,298.31
			c-2.56,1.43-3.38,4.17-4.88,6.41C390.56,303.75,391.16,300.82,392.32,298.31z"/>
		<path d="M-3.36,782.56c-0.04-1.04-0.13-2.07-0.13-3.11c-0.01-33.92,0.01-67.84-0.05-101.75c0-1.97,0.44-3.57,1.7-5.04
			c4.08-4.72,6.72-10.53,11.26-14.91c0.35-0.33,0.62-0.7,0.6-1.24c-0.11-2.8,0.86-5.39,1.88-7.87c2.24-5.44,2.56-11.33,4.37-16.87
			c3.7-11.34,9.34-21.62,15.71-31.68c4.59-7.25,11.03-10.75,18.78-12.84c2.29-0.62,4.62-1.08,7.25-1.69
			c-3.46-3.77-5.5-8.22-8.17-12.27c-2.92-4.41-3.69-9.5-4.69-14.49c-1.86-9.24-3.33-18.56-4.98-28.11
			c-14.37,32.67-28.74,65.34-43.11,98.01c-0.64-1.74-0.64-3.29,0.07-4.89c14.21-32.03,28.43-64.05,42.5-96.14
			c1.58-3.6,3.41-6.95,6.31-9.48c13.97-12.21,23.06-27.89,31.56-43.99c5.83-11.05,10.91-22.42,13.48-34.76
			c1.26-6.03,1.37-12.29,3.28-18.15c3.99-12.29,5.88-25.01,8.25-37.64c0.29-1.53-0.05-2.32-1.35-3.09
			c-1.71-1.01-3.28-2.24-5.05-3.48C63.08,446.1,30.1,515.04-3.06,584.31c-0.68-1.74-0.55-3.08,0.11-4.46
			c3.77-7.85,7.51-15.71,11.29-23.55c14.72-30.58,29.45-61.16,44.19-91.73c6.94-14.39,13.9-28.77,20.86-43.15
			c7.02-14.52,14.01-29.06,21.11-43.54c0.77-1.57,0.15-2.22-0.86-3.17c-12.05-11.36-17.96-25.23-16.82-41.89
			c0.17-2.46,0.64-4.89,0.56-7.58C50.6,366,23.83,406.75-3.07,447.68c-0.87-1.63-0.03-2.57,0.61-3.53
			c9.8-14.79,19.6-29.57,29.4-44.36c17.16-25.92,34.32-51.84,51.47-77.78c0.61-0.92,1.13-1.93,1.53-2.97
			c2.44-6.26,5.86-11.94,10.57-16.72c3.07-3.12,5.41-6.7,7.79-10.29c7.73-11.65,15.45-23.31,23.18-34.96
			c0.19-0.29,0.43-0.55,1.01-0.57c-8.62,13.15-17.25,26.3-25.97,39.6c1.08,0,1.51-0.65,2.06-1.04c5.89-4.26,12.37-7.28,19.36-9.27
			c6.46-1.84,13.04-2.34,19.7-1.97c1.61,0.09,2.41-0.37,3.11-1.83c5.49-11.54,11.08-23.03,16.64-34.53
			c0.37-0.77,0.79-1.52,1.34-2.21c-0.39,2.38-1.72,4.37-2.71,6.48c-4.73,10.04-9.53,20.04-14.41,30.01
			c-0.94,1.92-0.52,2.41,1.48,2.6c4.24,0.42,4.22,0.5,5.94-3.37c2.46-5.54,4.92-11.08,7.39-16.61c0.21-0.48,0.51-0.92,1.16-1.2
			c-1.83,4.2-3.65,8.4-5.48,12.6c-1.15,2.63-2.23,5.3-3.49,7.88c-0.63,1.28-0.19,1.67,0.97,1.98c1.85,0.49,3.68,1.09,5.51,1.65
			c0.65,0.2,1.34,0.75,1.82-0.28c0.06-0.12,0.34-0.6,0.36-0.3c0.22,2.98,3.11,2.34,4.67,3.44c1.3,0.91,3.02,2.66,4.29,1.92
			c1.11-0.64,1.27-2.94,1.81-4.53c1.46-4.3,2.89-8.61,4.75-12.78c-1.64,5-3.1,10.07-5,14.96c-0.97,2.5-0.44,3.65,1.67,5.18
			c13.26,9.65,21.04,22.51,22.26,39.07c0.04,0.53,0.29,1.09-0.19,1.68c-0.88-0.75-0.92-1.76-1.03-2.77
			c-2.38-20.45-13.69-34.25-31.91-42.93c-1.17-0.55-2.26-1.08-2.86,0.93c0.42-1.49,0.08-2.18-1.34-2.65
			c-10.79-3.57-21.72-4.41-32.86-2c-4.37,0.95-8.62,2.26-12.68,4.19c-4.28,2.04-8.18,4.64-11.98,7.48
			c-4.66,3.48-6.78,8.82-10.23,13.19c-6.31,8-9.22,17.05-8.81,27.19c0.58,14.15,6.27,25.92,16.58,35.54
			c0.61,0.57,1.12,1.42,2.01,0.12c0.52-0.76,1.13-0.02,0.85,0.5c-0.87,1.61,0.34,2.16,1.27,2.83c1.41,1.02,2.73,2.21,4.58,2.91
			c1.7-7.89,3.95-15.53,6.37-23.12c1.24-3.88,2.59-7.73,3.85-11.6c0.49-1.51,1.38-2.63,2.71-3.52c11.25-7.48,22.07-15.6,33.82-22.33
			c0.86-0.49,1.56-1.06,1.97-2c0.25-0.57,0.63-1.26,1.43-0.98c1.34,0.48,1.24-0.33,1.24-1.19c-0.01-2.04,1.29-2.36,2.92-2.08
			c0.62,0.11,1.23,0.37,1.78,0.68c4.83,2.69,9.88,4.89,15.01,6.93c1.37,0.54,2.13,1.21,2.01,3c-0.19,2.66,0.18,5.07,2.8,7.05
			c2.9,2.19,3.91,5.82,3.99,9.44c0.05,2.56,1.05,4.24,3.25,5.49c1.68,0.95,3.34,1.91,5.25,2.27c1.68,0.32,1.94,1.27,1.63,2.73
			c-0.54,2.49-2.31,3.91-4.6,5.09c1.61,1.69,3.79,2.92,2.98,5.66c-0.06,0.2,0.62,0.65,0.99,0.93c1.24,0.89,1.68,1.93,0.61,3.23
			c-0.73,0.89-0.59,1.53,0.11,2.46c1.41,1.89,1.15,3.88-0.47,5.63c-4.77,5.14-10.71,5.49-17.04,4.06c-2.63-0.59-2.63-0.66-2.19,1.98
			c0.44,2.6,0.29,5.27,0.97,7.85c0.26,0.98,0.66,1.5,1.72,1.95c5.6,2.38,11,5.16,16.03,8.61c2.38,1.63,4.25,3.78,5.85,6.21
			c-0.01-2.2-0.36-3.98-2.14-5.69c-5.67-5.42-11.99-9.81-18.96-13.34c-0.76-0.38-2.26-0.82-1.72-1.84c0.49-0.93,1.73,0.01,2.54,0.34
			c1.84,0.77,3.62,1.68,5.41,2.58c3.06,1.55,5.65,3.51,9.58,3.69c5.06,0.22,9.1,3.71,13.02,7.03c4.31,3.64,6.79,8.4,9.28,13.18
			c1.58,3.02,2.42,6.37,1.95,10.01c1.31-0.06,2.49,0.48,3.49,1.5c0.68,0.7,1.57,0.95,2.56,1.14c4.67,0.89,7.84,3.89,10.4,7.69
			c-1.44-0.32-2.26-1.55-4.07-2.67c1.58,1.93,3.18,3,3.78,4.87c-1.17,0.21-1.92-0.5-2.65-1.02c-3.77-2.7-7.53-5.41-11.2-8.25
			c-1.07-0.82-2.08-1.31-3.42-1.4c-1.43-0.09-2.84-0.44-4.26-0.66c-3.86-0.59-6.95-2.18-9.04-5.77c-1.59-2.73-3.76-5.12-5.75-7.61
			c-0.54-0.67-1.31-1.16-2-1.7c-0.31-0.24-0.7-0.49-1.08-0.17c-0.44,0.37-0.11,0.79,0.14,1.03c2.79,2.78,3.99,6.89,7.57,9
			c0.65,0.38,1.08,0.97,1.31,1.67c1.7,5.12,2.74,10.33,2.14,16.11c-0.86-0.83-0.92-1.67-1.12-2.43c-0.21-0.77-0.33-1.56-0.51-2.34
			c-0.84-3.65-0.42-7.98-2.79-10.77c-2.26-2.66-6.03-4.04-9.42-6.16c3.42,17.58,0.55,34.32-5.37,50.84c2.45-0.93,5-0.99,7.54-1.15
			c3.59-0.22,6.81-1.62,9.88-3.43c4.19-2.46,8.39-4.9,12.74-7.17c-1.19,2.2-3.19,3.59-5.19,5.28c6.52,1.57,12.84,3.93,18.79-0.59
			c3.66-2.78,7.06-5.89,10.58-8.85c0.42-0.36,0.38-0.84,0.47-1.3c2.47-12.13-2.54-22.17-13.71-27.4c-1.86-0.87-3.8-1.58-5.63-2.34
			c-0.7,0.67,0.47,1.7-0.64,1.95c-0.76,0.17-0.99-0.66-1.37-1.14c-0.49-0.63-0.95-1.29-1.47-1.89c-0.43-0.49-1.02-0.93-0.49-1.63
			c0.46-0.6,1.16-0.47,1.78-0.27c5.17,1.69,10.35,3.38,14.76,6.74c7.82,5.95,11.21,15.94,8.92,25.44c-0.95,3.95-3.92,6.38-6.43,8.94
			c-3.54,3.6-8.03,6.09-13.18,6.9c-1.31,0.21-1.45,1.03-1.68,1.93c-1.56,5.95-3.3,11.85-5.33,17.67c-0.46,1.32-1.17,2.19-2.42,2.77
			c-4.17,1.93-8.41,2.97-13.01,1.53c-1.58-0.49-3.05-0.29-3.33,1.83c-0.02,0.16-0.05,0.33-0.14,0.45c-3.3,4.36-2.09,8.48,0.49,12.66
			c1.45,2.34,2,4.92,0.33,7.47c-0.73,1.12,0.12,1.79,0.63,2.55c5.76,8.66,12.74,16.21,20.81,22.75c5.03,4.08,10.07,8.15,15.12,12.21
			c0.7,0.56,1.34,1.1,1.65,1.99c2.92,8.17,7.41,15.58,11.3,23.28c4.84,9.57,9.59,19.17,11.91,29.74c0.93,4.25,1.32,8.55,0.52,12.86
			c-0.86,4.63-3.04,8.54-6.49,11.76c-1.98,1.85-4.01,3.65-5.74,5.78c-2.53,3.11-2.84,6.53-0.29,9.59c3.29,3.94,6.21,8.13,9.17,12.3
			c3.96,5.56,5.87,11.8,6.45,18.56c0.41,4.77-1.32,8.57-4.61,11.85c-4.1,4.08-9.02,7.15-13.34,10.95
			c-4.15,3.65-7.99,7.61-11.94,11.47c-0.76,0.74-1.02,1.53-1.02,2.55c-0.01,6.87-0.13,13.74-0.23,20.61
			c-0.24,17.19-0.18,34.39-0.24,51.58c0,0.8,0.07,1.6-0.33,2.35c-0.64,0-1.28,0-1.92,0c0.31-24.48,0.63-48.96,0.94-73.43
			c-0.2-0.09-0.39-0.18-0.59-0.27c-5.23,5.12-11.43,8.86-17.46,12.86c-0.7,0.46-0.79,1.11-0.82,1.86
			c-0.24,5.65-0.55,11.31-0.76,16.96c-0.41,11-0.65,22.01-1.24,33c-0.16,2.99,0.32,6.08-0.72,9.02c-0.48,0-0.96,0-1.44,0
			c-0.04-0.88-0.16-1.75-0.12-2.63c0.31-8.52,0.62-17.05,0.98-25.57c0.26-6.21,0.68-12.41,0.9-18.62c0.14-3.86,0.03-7.72,0.03-11.58
			c0.02,0-0.17-0.06-0.28,0.01c-11.93,8.18-23.69,16.59-34.92,25.73c-0.63,0.51-1.06,1.09-1.14,1.99
			c-0.94,10.23-1.92,20.45-2.89,30.67c-0.64,0-1.28,0-1.92,0c-0.04-4.79,0.8-9.5,1.19-14.26c0.41-5,0.94-9.99,1.47-15.54
			c-1.32,1.15-2.17,1.86-2.98,2.61c-4.78,4.42-10.07,8.09-15.81,11.16c-4.08,2.18-8.08,4.52-12.15,6.73
			c-4.16,2.26-7.11,5.8-10.12,9.29C85.28,782.56,40.96,782.56-3.36,782.56z M192.2,516.52c1.14,1.12,1.4,2.3,1.73,3.4
			c1.32,4.36,2.52,8.75,3.84,13.11c1.27,4.21,2.57,8.43,4.88,12.21c1.41,2.31,3.06,4.35,6.22,4.12c0.49-0.04,1.12,0.26,1.51,0.6
			c3.7,3.21,7.95,5.65,11.83,8.61c14.15,10.81,22.13,25.08,24.44,42.71c0.86,6.57-0.49,12.13-5.27,16.87
			c-2.84,2.82-5.53,5.83-8.95,7.94c-4.49,2.77-6.34,7.63-9.99,11.34c1.66,0.43,2.84,0.34,3.78-0.53c1.31-1.22,2.87-1.65,4.58-1.83
			c4.72-0.51,9.35-1.23,13.01-4.72c3.12-2.98,6.4-5.8,9.46-8.84c2.14-2.12,3.37-4.84,4.05-7.78c1.14-4.97,0.48-9.86-0.78-14.7
			c-2.6-10.06-7.23-19.27-11.91-28.47c-3.73-7.33-8.05-14.38-10.6-22.27c-0.27-0.83-0.91-1.27-1.53-1.77
			c-4.3-3.45-8.59-6.93-12.9-10.38c-8.74-7.01-16.43-14.97-22.27-24.6c-0.22-0.36-0.32-0.92-1.02-0.9
			c-3.51,4.52-7.67,8.29-13.03,10.6c-2.07,0.89-4.44,1.28-5.53,3.74c-0.27,0.61-1.22,1-1.94,1.3c-5.39,2.27-10.9,4.24-16.69,5.11
			c-4.58,0.69-9.2,1.02-13.73-0.64c-6.11-2.24-10.04-6.99-13.71-11.96c-1.2-1.63-1.75-1.37-2.98-0.22
			c-3.62,3.39-7.11,7.07-11.42,9.49c-4.39,2.47-5.72,6.07-5.87,10.6c-0.01,0.16-0.02,0.32-0.03,0.48
			c-1.07,15.89,0.46,31.63,2.82,47.32c0.18,1.2,0.81,1.93,1.71,2.43c5.94,3.28,11.68,7.23,18.1,9.24
			c12.26,3.83,24.65,7.43,37.63,8.09c4.64,0.24,9.27,0.3,14.37-0.53c-4.97-1.63-9.42-3.12-13.9-4.54
			c-12.94-4.13-23.41-11.92-32.42-21.86c-0.68-0.75-1.62-1.66-0.51-2.65c0.87-0.77,1.81-0.12,2.57,0.48
			c6.37,5.06,13.6,8.27,21.45,10.22c7.82,1.94,15.91,1.73,23.79,3.18c4.71,0.87,9.56,0.33,14.37,0.77
			c-0.79,0.32-1.61,0.54-2.44,0.68c-3.48,0.57-7,0.71-10.52,0.81c-0.92,0.03-2.08-0.36-2.59,0.74c-0.53,1.18,0.67,1.83,1.16,2.67
			c0.22,0.38,0.72,0.62,1.13,0.86c3.53,2.03,7.08,4.02,10.59,6.09c2.72,1.6,5.54,2.38,8.7,1.56c0.84-0.22,1.76-0.15,2.88-0.23
			c-3.5,3.49-8.25,3.02-11.95,5.25c7.71-1.98,15.73-1.62,23.6-3.8c-0.55,1.56-1.67,2.03-2.67,2.32c-5.92,1.68-11.33,4.78-17.29,6.31
			c-10.05,2.59-20.39,2.97-30.67,3.35c-4.57,0.17-9.2-0.19-13.83-0.06c-14.97,0.41-29.14-4.98-43.84-6.15
			c0.46,0.74,0.97,1.74,1.65,2.62c7.59,9.96,16.2,18.96,25.62,27.19c0.41,0.36,0.94,0.67,1.46,0.79c6.44,1.52,12.78,3.41,19.56,3.14
			c9.83-0.38,19.67-0.8,29.5-0.06c4.88,0.37,9.72,0.21,14.6-0.1c5.95-0.38,10.68-2.34,14.18-7.45c2.72-3.97,5.78-7.77,8.94-11.37
			c3.72-4.24,8.3-7.71,11.96-12.09c2.65-3.17,3.5-6.64,3.12-10.68c-1.68-17.76-9.41-32.17-23.58-43.06
			c-2.85-2.19-5.81-4.25-8.66-6.45c-1.75-1.35-3.3-2.88-5.76-3c-1.46-0.07-2.57-1.22-3.55-2.3c-1.81-1.98-2.99-4.34-3.96-6.8
			c-2.74-6.93-4.41-14.18-6.24-21.38C192.14,519.48,191.77,518.23,192.2,516.52z M101.04,462.88c-0.21-1.38,0.9-2.57,0.54-4.41
			c-3.11,7.28-6.06,14.15-9.13,21.32c-0.48-1.33,0.14-2.09,0.38-2.89c5.26-17.1,13.27-33.19,18.04-50.51
			c2.53-9.2,6.27-18.05,10.31-26.79c4.83-10.45,8.21-21.54,12.43-32.28c4.84-12.31,7.69-25.37,12.6-37.72
			c0.72-1.81,1.45-3.68,1.64-5.97c-0.89,0.53-1.57,0.94-2.24,1.34c-9.71,5.76-18.62,12.71-28.07,18.87
			c-1.11,0.72-1.57,1.75-1.94,2.9c-3.12,9.57-6.24,19.15-8.59,28.95c-2.75,11.43-4.08,23.14-6.72,34.6
			c-1.4,6.06-3.95,11.82-4.74,18.06c-0.8,6.35-1.59,12.75-3.73,18.79c-9.51,26.85-22.06,51.92-43,71.97
			c-3.7,3.54-3.65,5.51,0.51,8.5c3.56,2.56,7.01,5.28,10.91,7.37c5.95,3.18,12.58,3.79,19,4.55c5.89,0.7,12.2,1.16,17.62-2.67
			c0.22-0.16,0.59-0.31,0.89,0.07c-0.6,2.47-1.6,4.81-2.86,7.04c-1.58,2.78-3.27,5.5-4.85,8.27c-3.9,6.84-6.52,14.02-6.03,22.09
			c0.08,1.33,0.73,3-0.93,4.09c-0.24,0.16-0.12,0.87-0.2,1.68c-1.24-3.55-1.67-6.91-2.74-10.14c0,1.47,0,2.95,0,4.42
			c-0.1,0.01-0.2,0.03-0.3,0.04c-0.29-1.38-0.58-2.76-0.89-4.27c-0.55,0.75-0.02,1.65-1.05,2.22c-0.42-2.8-0.82-5.5-1.23-8.2
			c-0.61,3.22,0.38,6.48-0.57,10.09c-0.88-2.57-0.78-4.83-1.16-7.02c-0.11-0.6,0.31-1.63-0.85-1.6c-1.2,0.03-1.26,0.9-1.21,1.88
			c0.07,1.66,0.02,3.33,0.02,5c-0.94-1.63-1.25-3.33-1.47-5.07c-0.09-0.68-0.1-1.64-1.14-1.45c-0.97,0.18-0.42,1.03-0.4,1.59
			c0.08,1.81,0.21,3.61,0.33,5.42c-0.22,0.02-0.45,0.03-0.67,0.05c-0.32-1.54-0.69-3.08-0.94-4.63c-0.5-3.06-0.47-3.06-2.14-3.55
			c0.39,2.88,0.77,5.7,1.2,8.96c-2.74-3.92-0.82-9.3-5.36-12.55c0.64,3.78,1.65,6.97,1.89,10.86c-1.67-3.83-2.46-7.34-3.29-10.82
			c-0.39-1.63-1.03-2.99-2.89-3.87c0.92,4.41,2.34,8.51,2.7,12.83c-1.18-3.64-2.08-7.36-3.2-11.01c-0.33-1.07,0.04-3.31-1.58-2.93
			c-1.71,0.4-0.25,2.2-0.1,3.3c0.46,3.21,1.47,6.34,1.34,9.66c-0.85-3.69-1.69-7.38-2.67-11.65c-0.96,3.15-0.26,5.76-0.49,8.36
			c-2.29-4.87-4.61-9.67-7.14-14.5c1.1,15.33,7.04,28.11,18.67,38.04c8.74,7.45,19.14,11.21,30.44,13.58
			c-0.29-0.94-0.46-1.54-0.65-2.14c-2.96-8.96-5.89-17.93-6.33-27.47c-0.34-7.42-0.94-14.87,2.63-21.81
			c0.91-1.77,1.87-3.53,2.73-5.33c4.73-9.9,10.2-19.38,16.18-28.56c3.25-4.98,5.5-10.45,7.78-15.9c0.09-0.22,0.28-0.54-0.19-0.73
			c-2.67,4.32-4.77,9.02-8.29,12.82c-0.43-0.48-0.23-0.77-0.09-1.04c3.18-6.18,4.93-13.04,8.88-18.86c1.08-1.58,1.96-3.3,2.93-4.95
			c0.53-0.91,1.01-1.83,0.07-2.9c-2.48,4.09-4.59,8.34-7.67,11.96c1.74-4.83,4.18-9.3,6.78-13.69c0.79-1.33,0.99-2.59,0.28-4.43
			c-3.28,5.69-5.53,11.6-9.38,16.57c0.53-3.44,2.44-6.33,3.78-10.19c-2.01,2.2-2.53,4.6-4.55,5.91c2.39-7.21,6.53-13.62,9.6-20.52
			c-3.69,5.44-6.12,11.61-10.39,16.68c2.59-7.02,6.64-13.33,9.72-20.11c-3.61,5.5-6.52,11.46-10.74,16.16
			c-1.08-2.54,0.29-4.7,1.31-6.92c2.73-5.96,5.49-11.9,8.24-17.85c0.49-1.07,1.2-2.13,0.08-3.39c-2.7,6.63-5.56,13.07-9.58,19.24
			c-0.16-1.11,0.35-1.67,0.63-2.3c2.6-5.84,5.19-11.69,7.84-17.51c0.65-1.43,0.7-2.73-0.37-4.28c-4.04,9.19-8.08,18.2-13.56,26.47
			c0.15-0.78,0.41-1.51,0.73-2.21c3.81-8.45,7.62-16.91,11.44-25.36c1.1-2.42,1.09-2.71-0.31-5.32
			c-4.07,10.76-8.4,21.28-13.98,31.24c0.09-0.8,0.34-1.53,0.63-2.25c4.09-10.24,8.16-20.5,12.32-30.71
			c0.76-1.86,0.57-3.47-0.37-5.64c-3.57,9.64-7.14,18.82-11.64,27.94c-0.24-1.2,0.25-1.9,0.52-2.61
			c3.33-8.82,6.64-17.65,10.05-26.45c0.62-1.59,0.75-3.03-0.17-4.87C108.96,442.34,105.42,452.76,101.04,462.88z M123.48,443.11
			c3.75,4.17,7.44,8.05,10.88,12.14c7.25,8.61,16.88,13.77,27.05,17.6c8.16,3.08,16.6,5.7,25.33,7.09c5.14,0.82,9.72,3.74,15.2,3.7
			c3.8-0.03,7.25-0.69,10.64-2.19c0.91-0.4,1.25-1.15,1.52-2.02c1.29-4.12,2.6-8.22,3.89-12.34c0.57-1.82,2.02-4.12,1.4-5.36
			c-0.75-1.5-3.55-1.24-5.43-1.83c-3.58-1.13-6.93-1.11-10.22,1.23c-3.04,2.17-6.54,3.17-10.41,2.86c-2.38-0.19-4.82-0.07-7.07,0.95
			c-0.85,0.39-1.86-0.02-1.74-0.53c0.41-1.67-0.86-2.58-1.25-3.83c-2.87-9.33-5.62-18.69-4.56-28.67c0.54-5.04,0.44-5.04-4.31-7
			c-2.89-1.19-5.98-2.27-8.04-4.61c-1.1-1.25-2.05-1.44-3.45-1.68c-6.69-1.16-11.44-5.36-15.72-10.35
			c5.1,3.76,10.61,6.29,17.15,6.14c-1.49,1.57-3.29,1.01-5.1,1.16c0.37,0.29,0.53,0.51,0.74,0.58c1.29,0.41,2.61,0.75,3.9,1.17
			c0.81,0.27,1.63,0.42,2.39,0.98c6.8,5.06,14.45,7.69,22.94,7.84c1.18,0.02,1.79-0.57,1.3-1.6c-0.99-2.07-1.61-4.38-3.42-5.99
			c-1.92-1.71-3.68-3.61-5.04-5.77c-2.39-3.78-5.41-6.67-9.74-8.04c-0.68-0.22-1.43-1.18-1.92,0.1c-0.48,1.29-2.47,2.24-1.17,3.95
			c2.37,3.12,1.71,5.73-1.97,7.23c0.1-0.85,0.74-1.39,1.17-2.02c1.11-1.59,1.78-3.06-0.32-4.47c-1.04-0.7-0.82-1.79-0.37-2.82
			c0.33-0.74,1.05-1.33,1.05-2.42c-6.97,1.2-13.88,0.96-20.77,1.22c5.23,2.94,11.05,2.07,17.11,2.35c-1.49,1.31-2.8,1.31-4.03,1.41
			c-5.1,0.39-10.06-0.11-14.62-2.71c-0.52-0.3-1.27-0.6-1.08-1.4c0.17-0.68,0.76-0.97,1.47-0.99c0.36-0.01,0.73-0.05,1.09-0.08
			c-1.51-0.82-3.16-1.13-4.64-1.82c-1.57-0.72-2.57-0.02-3.92,0.63c-3.32,1.59-4.29,5.04-6.46,7.52c-4.4,5-8.29,10.36-11.07,16.45
			c-0.66,1.45-1.57,3-1.29,4.56c0.78,4.32,0.94,8.75,2.3,12.96c0.03,0.08,0.19,0.11,0.33,0.18
			C123.31,444.21,123.37,443.83,123.48,443.11z M68.39,661.15c-0.69-1.98-2.9-1.45-4.01-2.72c-2.35-2.67-4.94-5.16-5.99-8.74
			c-0.24-0.82-0.64-1.8-1.28-2.24c-2.14-1.49-3.2-3.68-3.69-6c-2.06-9.68-5.38-19.07-6.49-28.96c-0.13-1.18-0.27-2.4-1.05-3.39
			c-0.51-0.65-1.11-1.3-2-0.67c-4.67,3.29-10.13,5.39-13.8,10.16c-8.1,10.51-12.07,22.98-17.06,34.97c-0.38,0.9-0.15,1.53,1.08,1.44
			c3-0.23,5.89,0.46,8.72,1.32c7.41,2.23,14.72,4.85,22.33,6.34C52.99,664.19,60.87,665.59,68.39,661.15z M69.57,607.77
			c-2.01,1.88-3.16,4.05-4.22,6.29c-4.54,9.58-4.57,19.62-3.16,29.84c0.83,6.01,2.75,11.48,7.19,15.85c0.71,0.7,1.24,1.05,2.25,0.66
			c4.48-1.71,9.3-2.79,13.41-5.12c12.3-6.96,25.94-9.79,39.28-13.58c2.63-0.75,5.45-0.85,8.67-1.32c-3.68-2.47-6.76-4.98-9.67-7.69
			c-0.85-0.79-1.57-0.41-2.39-0.03c-1.51,0.7-2.89,1.92-4.62,1.87c-5.02-0.16-10.08,0.78-15.06-0.32
			c-11.81-2.62-22.07-7.62-28.13-18.81C71.83,613.04,70.83,610.51,69.57,607.77z M163.91,366.74c0.31,1.94,0.95,3.63,2.52,4.82
			c3.28,2.49,6.8,4.59,10.93,5.2c5.41,0.79,10.57,0.42,14.49-4.16c1.04-1.21,1.31-2.55,0.21-3.65c-1.26-1.26-1.35-2.47-0.7-3.94
			c0.34-0.76,0.16-1.36-0.53-1.88c-0.67-0.5-1.14-0.25-1.69,0.19c-0.96,0.76-2.03,0.84-3.84,0.5c2.57-0.7,2.72-2.83,4.05-3.92
			c0.51-0.42,0.12-0.79-0.2-1.19c-2.16-2.66-2.15-2.66,0.25-5.02c0.4-0.39,0.79-0.8,1.14-1.23c1.58-1.96,1.46-2.22-0.86-3.08
			c-3.75-1.38-6.8-3.43-7.37-7.88c-0.64-4.96-3.27-8.72-7.28-11.65c-1.05-0.77-1.49-0.77-2.16,0.33c-3.1,5.13-6.32,10.18-9.35,15.35
			c-0.91,1.55-1.51,3.25-1.52,5.21c-0.01,3.69,0.57,7.07,3.4,9.77c-3.12-1.48-4.67-3.93-4.82-7.37c-1.37,4.45-3.93,8.68-1.64,13.55
			c0.57,1.21,1,2.36,2.58,2.43C163.17,369.19,163.35,367.89,163.91,366.74z M156.15,363.45c1.36-6.56,3.08-12.5,6.11-18.04
			c3.51-6.41,8.37-12.08,10.66-19.16c0.34-1.04,1.8-2.19-0.39-3c-4.87-1.81-9.64-3.87-14.15-6.48c-0.83-0.48-1.22-0.28-1.98,0.34
			c-1.87,1.52-1.49,3.8-2.29,5.65c-5.09,11.76-8.47,24.11-12.61,36.2c-1.15,3.36-1.07,6.56-0.31,9.88c0.15,0.67,0.15,1.62,0.9,1.84
			c0.89,0.27,1.05-0.78,1.5-1.27c0.79-0.86,1.23-2.53,2.44-2.36c1.17,0.16,0.75,1.89,1.2,2.87c0.54,1.16,0.82,2.66,2.29,2.81
			c1.71,0.17,2.18-1.42,2.68-2.64c1.26-3.09,2.41-6.23,3.7-9.61C155.98,361.49,156.05,362.27,156.15,363.45z M158.81,497.08
			c10.93,2.08,21.99,2.03,33.07,2.17c-9.29,3.55-18.91,2.17-28.48,1.72c2.55,1.49,5.41,1.92,8.1,2.99
			c-4.21,0.34-8.37,0.32-12.52,0.36c-0.65,0.01-1.61-0.42-1.9,0.47c-0.23,0.72,0.47,1.32,0.95,1.84c2.24,2.43,5.08,3.52,8.33,3.67
			c1.12,0.05,2.24,0.06,3.36,0.07c1.11,0.01,2.21,0,3.32,0c-5.17,2.51-10.6,1.93-16.61,1.93c3.08,2.92,5.88,4.86,10.11,4.93
			c-3.5,2.09-6.74,2.55-10.15,2.01c-2.29-0.36-4.55-0.84-6.9-0.71c-1.52,0.09-3.72,0.08-4-1.28c-0.28-1.36,1.96-1.7,3.22-2.32
			c0.73-0.36,1.96-0.17,2.02-1.34c0.05-1.04-0.8-1.66-1.56-2.28c-0.91-0.74-2-0.98-3.08-1.26c-4.11-1.08-8.07-2.55-11.85-4.5
			c-0.56-0.29-1.03-0.99-2.03-0.66c0.54,1.11,1.03,2.1,1.49,3.1c1.27,2.76,3.02,5.42,3.61,8.32c0.41,1.98,1.29,2.57,2.77,3.1
			c17.14,6.14,33.62,4.17,49.6-3.99c0.56-0.29,1.12-0.56,1.48-1.17c1.54-2.62,3.11-5.22,4.66-7.83c0.61-1.02,0.79-2.12,0.3-3.22
			c-1.05-2.33-2.14-4.64-3.26-6.94c-0.21-0.42-0.35-1.19-1.18-0.81c-4.16,1.92-8.63,1.24-12.98,1.52
			C172.09,497.41,165.46,497.3,158.81,497.08z M130.98,460.44c2.06,5.87,5.5,11.17,5.39,17.6c-0.01,0.74,0.57,1.09,0.91,1.61
			c2.04,3.15,4.36,6.18,5.36,9.85c0.41,1.5,1.11,1.97,2.5,2.32c15.22,3.81,30.62,2.84,46.03,1.92c0.52-0.03,0.95-0.04,1.19-0.53
			c1.21-2.48,2.41-4.96,3.61-7.43c-16.42,0.03-31.93-2.63-47.05-9.79c1.94-0.32,3.45-0.19,4.97-0.93c-0.41-0.29-0.63-0.54-0.91-0.62
			c-1.63-0.51-2.93-1.64-5.02-1.27c-1.31,0.23-3-1.27-4.42-2.14C138.83,468.14,134.68,464.53,130.98,460.44z M185.11,411.87
			c1.55-8.11-2.81-17.68-9.1-19.68c3.39,3.53,5.62,7.73,7.95,12.53c-2.56-1.01-3.4-2.77-4.34-4.41c-2.76-4.83-5.35-9.72-9.37-13.77
			c-3.94-3.96-6.01-8.98-6.4-14.64c-0.04-0.6,0.49-2.04-1.18-1.69c-2.2,0.46-3.9-0.2-5.03-2.41c0.03,10.54-0.98,20.91,1.2,31.17
			c0.77,3.61,0.5,3.92-3.19,4.78c4.52,0.22,8.7-0.86,12.91-0.8c5.1,0.08,9.71,1.67,12.9,6.08c1.59,2.19,3.23,4.34,4.99,6.7
			c1.35-1.55,2.35-3.19,3.79-4.21c1.82-1.29,3.34,0.95,5.43,1.32c-1.05-1.31-1.9-2.26-2.63-3.3c-0.72-1.02-1.83-1.93-1.52-3.37
			c0.3-1.43,1.76-1.58,2.98-2.15c-2.76-3.41-6.25-5.38-9.9-7.17c1.61,2.99,3.02,5.94,3.44,9.26
			C188.41,409.09,187.6,410.77,185.11,411.87z M118.07,422.83c1.32-3.56,3.09-6.35,5.24-8.89c4.79-5.67,10.76-9.99,16.63-14.41
			c0.95-0.72,1.83-0.59,2.89-0.11c4.1,1.88,8.39,2.42,12.86,1.63c1.02-0.18,1.34-0.43,1.2-1.49c-0.42-3-0.66-6.03-1.11-9.03
			c-0.35-2.32,0.05-4.75-1-7.42c-0.49,3.82,0.33,7.1,0.66,10.95c-2.79-4.37-3.17-9.2-5.61-13.14c-2.39,1.77-2.39,1.77-3.47-1.06
			c-0.84-2.21-1.95-2.68-4.04-1.5c-1.46,0.82-2.83,1.81-4.17,2.81c-1.22,0.91-2.3,1.31-3.24-0.84c-1.23,4.23-2.28,8-3.45,11.73
			c-0.53,1.7,0.24,1.69,1.5,1.51c3.72-0.53,7.44-1.01,11.16-1.48c2.37-0.3,4.73-0.83,7.14-0.73c0.62,0.03,1.39,0.03,1.39,0.94
			c0.01,0.68-0.56,0.92-1.12,1.04c-0.54,0.12-1.1,0.23-1.65,0.3c-5.39,0.67-10.78,1.37-16.18,1.95c-1.22,0.13-1.98,0.65-2.84,1.45
			c-2.99,2.79-4.23,6.74-6.8,9.88c-2.91,3.55-4.47,8.09-5.87,12.52C117.93,420.32,117.4,421.29,118.07,422.83z M31.49,606.21
			c3.62-2.83,7.51-5.17,11.34-7.61c0.86-0.55,1.8-1.24,2.76-1.35c6.23-0.71,12.32-2.6,18.66-2.39c0.76,0.03,1.37,0,1.69-0.9
			c0.3-0.85-0.26-1.14-0.73-1.56c-1.78-1.6-3.56-3.2-5.32-4.82c-0.49-0.46-0.88-0.82-1.64-0.38c-2.94,1.71-6.29,2.38-9.51,3.13
			C39.93,592.38,35.55,599.06,31.49,606.21z M200.83,396.16c3.8,4.57,7.2,9.19,4.36,16.21c-0.82-3.17-0.3-5.95-1.53-8.48
			c-1.35-2.78-3.04-5.21-5.14-6.34c1.11,3.48,1.99,6.9,2.13,10.4c0.11,2.85,1.35,4.9,2.99,7.06c2.32,3.06,6.15,3.14,9.03,5.06
			c0.69,0.46,1.83,0.26,2.86,0.38c-0.92-6.24-3.18-11.77-6.4-16.94c0.01,1.91,0.97,3.65,0.42,5.96
			C206.39,404.91,206.41,398.69,200.83,396.16z M134.02,490.93c-0.62,3.82-0.58,7.4-0.58,10.99c0,0.58,0.08,1.06,0.71,1.37
			c5.07,2.53,10.39,4.2,16.28,5.25c-3.82-4.03-4.15-4.79-4.28-10.43c-0.02-0.75-0.33-0.97-0.91-1.15
			C141.17,495.7,137.45,493.78,134.02,490.93z M111.23,584.02c-1.26-10.42-2.25-20.76-2.81-31.16c-2.69,8.48-3.24,17.02-1.12,25.68
			C107.88,580.91,109.42,582.51,111.23,584.02z M137.02,483.78c-0.53,1.73-0.42,3.25-1.63,4.29c-0.34,0.29-0.42,0.95,0.26,1.12
			c2.01,0.49,3.92,1.43,6.33,1.51C140.28,488.33,138.77,486.23,137.02,483.78z M119.34,462.46c-2.23,4.68-4.33,9.1-6.43,13.52
			c2.49-3.38,4.7-6.92,6.8-10.52C120.19,464.62,120.04,463.61,119.34,462.46z M155.77,367.91c-0.2,5.43-1.98,10.93,0.55,16.26
			C155.88,378.76,156.07,373.32,155.77,367.91z M195.7,395.66c-0.03-0.78,0.7-1.38,2.04-1.66c-2.07-1.26-3.92-2.31-6.11-2.31
			C193.03,393.06,194.37,394.37,195.7,395.66z"/>
		<path d="M317.76,782.56c-0.91-3.31-0.98-6.75-1.38-10.13c-1.93-16.22-3.79-32.45-5.66-48.67c-1.65-14.25-3.27-28.5-4.91-42.75
			c-2.38-20.58-4.78-41.16-7.15-61.74c-2.33-20.27-4.61-40.55-6.94-60.82c-2.47-21.45-4.99-42.9-7.45-64.36
			c-1.66-14.49-3.23-28.99-4.89-43.48c-1.86-16.23-3.81-32.45-5.67-48.68c-1.66-14.49-3.25-28.98-4.89-43.47
			c-0.41-3.64-0.9-7.27-1.34-10.91c-0.05-0.45-0.24-0.94,0.44-1.45c0.91,2.63,0.88,5.32,1.2,7.93c2.6,21.6,5.15,43.21,7.7,64.82
			c2.79,23.67,5.55,47.34,8.35,71c2.64,22.32,5.33,44.63,7.96,66.95c2.33,19.79,4.59,39.58,6.92,59.37
			c2.31,19.63,4.69,39.25,6.99,58.87c2.33,19.87,4.6,39.74,6.93,59.61c1.79,15.27,3.65,30.54,5.49,45.8
			c0.09,0.73,0.08,1.43-0.26,2.1C318.72,782.56,318.24,782.56,317.76,782.56z"/>
		<path d="M269.28,782.56c-0.46-9.31-0.94-18.62-1.38-27.93c-0.27-5.74-0.41-11.48-0.69-17.22c-0.55-11.46-1.16-22.92-1.71-34.39
			c-0.28-5.82-0.42-11.64-0.69-17.46c-0.54-11.46-1.17-22.92-1.71-34.39c-0.29-6.22-0.26-12.45-0.75-18.65
			c-0.48-6.08-0.33-12.12,0.06-18.17c0.04-0.63,0.14-1.26,0.25-2.15c1.16,2.33,0.66,4.6,0.79,6.77c0.45,7.48,0.69,14.97,1.05,22.46
			c0.58,12.02,1.2,24.04,1.79,36.06c0.37,7.65,0.7,15.29,1.09,22.94c0.55,10.74,1.18,21.48,1.71,32.23
			c0.44,8.92,0.76,17.85,1.17,26.77c0.33,7.33,0.71,14.65,1.05,21.98c0.02,0.38-0.08,0.77-0.13,1.15
			C270.56,782.56,269.92,782.56,269.28,782.56z"/>
		<path d="M410.9,473.43c-2.99,1.99-6.5,2.91-9.53,4.89c-2.63,1.72-5.84,2.14-8.97,2.28c-3.35,0.16-6.74,0.31-10.07,0.03
			c-2.25-0.19-4.09,0.42-5.73,1.65c-1.24,0.94-2.16,0.76-3.16-0.12c-0.66-0.58-1.29-1.19-1.87-1.85
			c-15-16.97-21.68-37.06-22.73-59.43c-0.9-19.15,1.65-37.78,7.22-56.06c0.64-2.09,1.76-3.91,2.79-6.44
			c0.46,4.44-0.24,8.26-0.55,12.1c-1.67,20.64-1.49,41.08,6.49,60.69c2.63,6.45,5.5,12.78,9,18.8c5.67,9.73,13.28,17.14,24.61,19.98
			c2.86,0.72,5.53,2.09,8.47,2.58c1.11,0.18,2.19,0.37,3.31,0.02c1.2-0.37,0.83,0.38,0.63,0.98
			C410.81,473.52,410.9,473.43,410.9,473.43z"/>
		<path d="M212.98,64.39c4.76,0.5,9.03,1.51,12.37,4.92c0.94,0.96,1.88,1.79,3.17,2.4c2.18,1.04,3.9,2.83,5.24,4.84
			c2.9,4.36,5.63,8.83,6.65,14.09c0.45,2.33-0.32,4.53-0.96,6.96c3.29-1.07,5.45-3.12,7.14-5.69c1.58-2.41,3.19-4.82,4.47-7.38
			c2.98-5.95,7.04-11.05,11.83-15.59c5.16-4.9,10.36-9.77,15.67-14.5c2.62-2.34,5.56-4.32,8.99-5.37c0.89-0.27,2.05-0.73,2.41,0.6
			c0.31,1.15-0.85,1.15-1.57,1.31c-1.05,0.23-1.3,1.11-1.68,1.88c-1.56,3.1-3.26,6.44-6.07,8.2c-2.77,1.73-4.83,4.03-7.24,6.04
			c-0.24,0.2-0.43,0.46-0.42,1.01c2.12-1.4,4.23-2.82,6.37-4.2c0.63-0.41,1.31-1.28,2.1-0.6c0.83,0.72,0.22,1.65-0.15,2.42
			c-1.44,3.01-3.64,5.43-6.09,7.64c-0.26,0.24-0.68,0.41-0.56,1.15c1.61-1.18,3.12-2.3,4.64-3.41c0.4-0.29,0.83-0.59,1.27-0.18
			c0.45,0.42,0.19,0.88-0.1,1.28c-1.07,1.49-2.22,2.94-3.21,4.48c-0.94,1.46-2.75,2.6-1.68,4.88c0.23,0.48-0.47,1.47-0.86,2.16
			c-3.06,5.43-7.48,9.52-12.73,12.77c-1.7,1.05-2.22,3.1-0.95,4.63c5.59,6.7,7.43,14.54,7.05,23.06c-0.03,0.74,0.25,1.92-0.7,2.04
			c-1.25,0.17-0.98-1.21-1.26-1.94c-0.4-1.04-0.61-2.15-0.93-3.22c-0.06-0.22-0.25-0.4-0.4-0.63c-0.48,0.49,0.04,1.53-0.93,1.67
			c-0.9,0.13-1.25-0.61-1.63-1.18c-1.85-2.8-3.29-5.85-5.55-8.39c-0.88-0.99-1.55-1.36-2.98-0.62c-2.59,1.35-5.32,1.44-8.16,0.19
			c-3.47-1.52-6.69-3.37-9.54-5.85c-3,2.91-6.15,5.57-8.16,9.24c-0.27,0.48-0.65,1-1.32,0.8c-0.69-0.21-0.64-0.82-0.58-1.39
			c0.13-1.11,0.25-2.22,0.39-3.33c0.3-2.27,0.7-4.41-0.07-6.8c-1.24-3.84,2.04-7.3,6-6.74c0.78,0.11,1.89,0.18,1.91,1.08
			c0.02,1.12-1.16,0.83-1.87,0.82c-1.99-0.02-3.4,0.66-4,2.69c-0.52,1.75,0.92,4.69,2.92,5.24c1.78,0.5,2.45-1.2,3.18-2.35
			c0.63-0.98,0.96-2.17,1.57-3.61c1.34,5.22,5.99,5.89,9.68,7.72c4.7,2.33,8.49,0.25,11.82-3.11c0.16,0.23,0.33,0.4,0.3,0.45
			c-1.41,2.22-0.73,3.83,1.18,5.47c1.21,1.04,1.92,2.66,3.26,4.61c-0.53-2.25-1.43-3.57-2.12-4.97c-0.26-0.52-0.53-1.05,0.04-1.51
			c0.68-0.55,1.2-0.09,1.65,0.39c1.7,1.82,2.74,4.06,4.02,6.21c0.08-3.22-0.81-6.19-2.15-9.05c-0.47-1.01-1.09-1.96-1.7-2.89
			c-0.87-1.33-1.54-3.09-2.79-3.81c-1.21-0.7-2.69,0.84-4.16,1.13c-2.83,0.56-4.83,0.54-6.83-0.42c3.21-1.12,6.75-0.84,9.85-2.86
			c-0.49-0.2-0.75-0.33-1.03-0.42c-0.67-0.21-1.55-0.22-1.59-1.17c-0.05-1.09,0.91-1.22,1.66-1.38c5.3-1.14,8.88-4.8,12.47-8.47
			c-2.54,1.07-4.75,2.81-7.38,3.64c-1.36,0.42-3.35,1.82-4.06,0.2c-0.73-1.65,1.74-1.84,2.86-2.41c6.13-3.11,11.13-7.43,15.23-13.72
			c-2.6,1.44-4.66,2.69-6.81,3.74c-1.71,0.84-3.53,1.48-5.32,2.17c-0.66,0.26-1.51,0.64-1.81-0.35c-0.24-0.79,0.63-0.97,1.18-1.25
			c4.91-2.48,9.05-5.99,12.92-9.84c0.83-0.83,1.71-1.67,2.14-2.97c-0.97-0.16-1.5,0.55-2.1,0.94c-3.89,2.54-7.85,4.95-12.14,6.74
			c-1.28,0.53-2.52,1.43-4.09,0.85c-0.79-0.29-1.08,0.51-1.46,0.96c-2.03,2.39-3.68,5.02-5.14,7.79c-1.98,3.75-4.23,7.35-6.98,10.59
			c-1.91,2.24-4.25,3.91-7.27,4.26c-2.57,0.3-2.93-0.17-1.91-2.49c0.79-1.78,1.44-3.57,1.26-5.54c-0.09-0.94,0.73-2.47-1.46-2.3
			c-0.67,0.05-0.41-1.06-0.48-1.66c-0.5-4.43-2.61-8.1-5.62-11.34c0.66,1.22,1.37,2.42,1.95,3.68c0.35,0.76,0.93,1.79-0.11,2.33
			c-0.87,0.45-1.47-0.48-1.85-1.14c-0.93-1.58-1.8-3.21-2.59-4.86c-2.52-5.28-6.43-8.82-12.19-10.34
			C215.25,65.27,213.7,66.48,212.98,64.39z M262.31,72.87c8.67-5.05,15.66-11.92,21.92-19.58
			C275.94,58.73,269.21,65.92,262.31,72.87z M228.17,110.81c2.95-1.59,2.99-2.14,0.4-3.77
			C228.45,108.22,228.32,109.39,228.17,110.81z"/>
		<path d="M261.93,587.61c-2.74-3.44-1.94-6.97-2.13-10.19c-0.81-13.45-1.36-26.91-1.98-40.37c-0.42-9.17-0.74-18.34-1.16-27.5
			c-0.54-11.79-1.17-23.57-1.72-35.35c-0.42-9.16-0.74-18.33-1.16-27.5c-0.54-11.79-1.16-23.57-1.72-35.36
			c-0.27-5.66-0.42-11.32-0.68-16.98c-0.55-11.87-1.16-23.73-1.72-35.6c-0.25-5.26-0.45-10.52-0.67-15.78
			c-0.49-11.87-0.99-23.74-1.48-35.62c-0.01-0.29-0.19-0.62,0.46-0.96c0.18,2.19,0.41,4.27,0.51,6.36
			c0.56,12.11,1.07,24.22,1.64,36.33c0.62,13.06,1.27,26.12,1.92,39.18c0.47,9.56,0.96,19.11,1.43,28.67
			c0.65,13.06,1.28,26.12,1.92,39.18c0.48,9.72,0.96,19.43,1.44,29.15c0.64,12.98,1.28,25.96,1.92,38.94
			c0.64,13.06,1.26,26.12,1.93,39.18c0.37,7.32,0.83,14.64,1.24,21.96C261.95,585.91,261.93,586.46,261.93,587.61z"/>
		<path d="M189.1,284.26c-1.06-0.32-2.16-0.55-3.18-0.98c-1.24-0.52-2.28-1.37-2.04-2.89c0.25-1.54,1.36-2.32,2.88-2.41
			c3.29-0.2,6.55-0.03,9.76,0.82c4.44,1.18,9.01,1.76,13.44,3.04c-1.81-1.75-4.11-2.43-6.35-3.23c-3.16-1.13-6.35-2.17-9.51-3.31
			c-0.82-0.29-1.6-0.74-2.31-1.24c-0.74-0.52-1.32-1.22-0.95-2.24c0.33-0.91,1.11-1.03,1.95-1.06c8.82-0.35,17.39,0.91,25.49,4.49
			c2.01,0.89,3.71,2.48,5.54,3.77c0.39,0.27,0.88,0.69,0.57,1.16c-0.36,0.54-1.03,0.39-1.52,0.1c-1.79-1.06-3.55-2.16-5.31-3.25
			c-0.33-0.21-0.59-0.61-0.94-0.71c-7.23-1.91-14.44-4.03-22.3-3.2c0.71,0.83,1.59,0.95,2.36,1.22c3.99,1.42,8.05,2.67,11.96,4.27
			c3.56,1.46,6.37,3.87,7.88,8.16c-1.63-0.64-2.84-1.13-4.05-1.59c-7.58-2.91-15.44-4.6-23.53-5.21c-0.4-0.03-0.8-0.01-1.2,0
			c-0.64,0.02-1.54-0.07-1.64,0.65c-0.12,0.89,0.87,1.06,1.52,1.2c3.28,0.72,6.59,1.27,9.85,2.06c5.68,1.38,10.83,3.86,15.2,7.81
			c0.69,0.62,1.49,1.21,1.83,2.63c-8.03-3.79-15.75-7.75-25.17-7.67c1.16,1.07,2.22,1.19,3.15,1.5c5.39,1.78,10.75,3.65,15.81,6.26
			c1.6,0.83,3.28,1.65,3.93,3.62c-0.97,0.46-1.61-0.2-2.25-0.55c-6.04-3.36-12.48-5.72-19.03-7.83c-1.75-0.56-3.49-1.17-5.08-2.11
			c-0.62-0.37-1.32-0.78-1.16-1.64c0.18-1,1.05-1.1,1.87-1.13c0.86-0.03,1.73-0.01,2.59-0.01
			C189.13,284.59,189.12,284.43,189.1,284.26z"/>
		<path d="M386.05,322.09c0.36,6.71,0.15,13.39,0.81,20.05c1.7,17.07,7.59,32,21.93,42.5c10.13,7.42,21.59,11.66,33.97,13.45
			c6.9,1,13.86,0.92,20.82,1.05c3.02,0.05,6.03,0.39,9.09,1.1c-1.55,0.18-3.1,0.42-4.66,0.51c-14.29,0.84-28.45,0.51-42.1-4.57
			c-4.2-1.57-8.28-3.38-12.19-5.58c-16.28-9.13-25.28-23.23-28.26-41.42c-1.44-8.76-1.3-17.51,0.41-26.22
			C385.92,322.67,385.99,322.38,386.05,322.09z"/>
		<path d="M127.79,233.91C84.23,294.37,40.68,354.83-2.97,415.41c-0.53-1.7-0.54-1.71,0.4-3.02c13.41-18.48,26.83-36.95,40.24-55.43
			c24.53-33.79,49.05-67.59,73.58-101.38c5.34-7.36,10.71-14.7,16.06-22.05C127.48,233.66,127.63,233.78,127.79,233.91z"/>
		<path d="M80.01,356.33c-27.63,48.28-55.26,96.55-82.96,144.95c-0.62-1.8-0.63-1.8,0.48-3.72c11.97-20.74,23.94-41.47,35.91-62.21
			c14.84-25.71,29.69-51.42,44.54-77.13c0.43-0.75,0.89-1.48,1.33-2.22C79.54,356.11,79.77,356.22,80.01,356.33z"/>
		<path d="M46.75,511.72c15.93-35.94,31.87-71.88,47.8-107.83c-0.28,2.79-1.08,5.39-2.2,7.93c-14.16,32.21-28.31,64.42-42.42,96.66
			C49.28,509.96,48.23,510.94,46.75,511.72z"/>
		<path d="M200.07,69.93c3.22,0.49,6.51-0.17,9.7,0.74c5.49,1.57,9.41,5.27,12.9,9.53c3.46,4.22,5.93,9.09,8.77,13.72
			c0.32,0.51,0.87,1.19,0.2,1.69c-0.59,0.44-1.23-0.08-1.67-0.54c-1.69-1.83-2.94-3.98-4.24-6.09c-2.32-3.74-4.69-7.47-7.97-10.46
			c-6.03-5.48-12.76-8.75-21.17-6.1c-0.51,0.16-1.15,0.48-1.44-0.25c-0.22-0.56,0.38-0.77,0.74-1.06c0.92-0.74,2.62-0.85,2.06-2.8
			c-0.13-0.47,0.76-0.73,1.3-0.84c5.84-1.24,11.71-1.89,17.5,0.1c2.21,0.76,3.96,2.38,5.56,4.07c0.72,0.76,0.23,1.17-0.61,1.15
			c-1.17-0.03-2.12-0.71-3.02-1.36C212.79,67.19,206.52,67.46,200.07,69.93z"/>
		<path d="M-3.24,381.05c0.03-2.2,87.25-110.97,93.59-116.44C59.23,303.33,28.11,342.04-3.24,381.05z"/>
		<path d="M570.67,58.83c-54.94,3.85-109.89,7.7-164.83,11.55c-0.01-0.15-0.02-0.31-0.03-0.46c54.92-4.07,109.85-8.14,164.77-12.21
			C570.61,58.08,570.64,58.46,570.67,58.83z"/>
		<path d="M570.76,9.22C520.08,20.3,469.41,31.38,418.73,42.46c-0.04-0.16-0.07-0.32-0.11-0.48
			c50.63-11.28,101.27-22.56,151.9-33.83C570.6,8.5,570.68,8.86,570.76,9.22z"/>
		<path d="M99.86,214.72C65.57,247.83,31.27,280.95-3.3,314.33C-2.99,312.29,95.13,217.41,99.86,214.72z"/>
		<path d="M416.23,95.98c51.48,3.88,102.95,7.76,154.43,11.63c-0.03,0.35-0.05,0.7-0.08,1.05
			C519.13,104.65,467.68,100.51,416.23,95.98z"/>
		<path d="M407.64,37.21C416,33.59,542.31,0.35,545.24,0.9C499.01,13.1,453.33,25.15,407.64,37.21z"/>
		<path d="M213.16,301.22c0.16,0.13,0.31,0.26,0.47,0.39c0.35,0.5,1.09,1,0.65,1.63c-0.4,0.57-1.2,0.36-1.75,0.04
			c-6.57-3.78-14.13-4.06-21.22-5.97c-2.23-0.6-4.44-1.25-6.5-2.31l0.01,0c-0.53-0.79-2.02-1.19-1.32-2.49
			c0.56-1.04,1.72-0.61,2.63-0.55c7.34,0.51,14.72,0.97,21.28,4.83c0.77,0.45,3.04,0.1,1.77,2.27
			C210.51,299.77,211.83,300.5,213.16,301.22z M190.48,294.7c4.39,1.5,8.96,2.12,13.5,2.88
			C199.78,295.26,195.19,294.68,190.48,294.7z"/>
		<path d="M84.06,245.01c-29.01,30.88-58.01,61.76-87.13,92.75c-0.73-1.11-0.02-1.59,0.48-2.13c5.48-5.81,10.97-11.61,16.45-17.41
			c12.45-13.17,24.9-26.36,37.37-39.52c7.85-8.29,15.75-16.55,23.61-24.83c2.94-3.1,5.86-6.22,8.8-9.32
			C83.79,244.7,83.92,244.86,84.06,245.01z"/>
		<path d="M570.68,46.69c-45.67,4.85-91.33,9.7-137,14.55c-0.02-0.15-0.03-0.29-0.05-0.44c45.65-5.04,91.3-10.09,136.95-15.13
			C570.62,46.01,570.65,46.35,570.68,46.69z"/>
		<path d="M432.35,76.55c2.63,0,5.26,0.02,7.88,0c7.25-0.05,14.49-0.55,21.75-0.65c5.49-0.07,11-0.15,16.48-0.45
			c10.75-0.58,21.51-0.74,32.27-1.03c10.85-0.29,21.7-0.62,32.54-0.96c8.85-0.28,17.7-0.61,26.55-0.91c0.22-0.01,0.45,0.11,0.8,0.2
			c-0.46,1.1-1.41,0.85-2.17,0.87c-8.14,0.18-16.29,0.31-24.43,0.5c-12.69,0.3-25.38,0.55-38.06,0.98
			c-12.04,0.41-24.09,0.71-36.14,0.92c-11.73,0.21-23.45,0.62-35.17,0.93c-0.79,0.02-1.58,0-2.36,0
			C432.31,76.82,432.33,76.68,432.35,76.55z"/>
		<path d="M233.77,459.28c0,25.45,0,50.89,0,76.64c-1.49-0.72-1.6-1.69-1.59-2.73c0.21-16.14,0.45-32.28,0.63-48.43
			c0.07-6.24-0.02-12.48,0.05-18.72c0.02-2.28,0.28-4.55,0.44-6.82C233.46,459.24,233.61,459.26,233.77,459.28z"/>
		<path d="M214.75,313.03c0.37,2.36-0.18,4.68-0.39,6.97c-1.36,14.9-2.83,29.79-4.27,44.69c-0.95,9.83-1.9,19.65-2.88,29.47
			c-0.06,0.57,0.44,1.72-0.75,1.55c-0.84-0.12-0.37-1-0.31-1.61c1.39-13.94,2.75-27.89,4.13-41.83c1.27-12.83,2.56-25.65,3.85-38.47
			C214.16,313.53,214.03,313.14,214.75,313.03z"/>
		<path d="M486.52,117.32c28.04,3.93,56.09,7.86,84.13,11.79c-0.05,0.34-0.1,0.69-0.15,1.03c-28.03-4.03-56.06-8.07-84.09-12.1
			C486.45,117.8,486.48,117.56,486.52,117.32z"/>
		<path d="M223.3,403.34c1.29-29.97,2.58-59.94,3.88-89.92c0.22,0.01,0.43,0.02,0.65,0.02c-1.18,29.96-2.36,59.91-3.53,89.87
			C223.96,403.33,223.63,403.34,223.3,403.34z"/>
		<path d="M235.15,312.31c-0.24,34.95-0.48,69.9-0.73,104.85c-0.31,0-0.62-0.01-0.92-0.01c0.43-34.95,0.85-69.9,1.28-104.85
			C234.9,312.31,235.02,312.31,235.15,312.31z"/>
		<path d="M-3.66,298.62c22.07-19.82,44.14-39.65,66.21-59.47c0.15,0.16,0.29,0.32,0.44,0.48c-22,19.9-44,39.81-65.99,59.71
			C-3.23,299.11-3.44,298.86-3.66,298.62z"/>
		<path d="M477.16,38.21c31.12-5.75,62.23-11.51,93.35-17.26c0.05,0.29,0.11,0.58,0.16,0.87c-31.14,5.62-62.28,11.25-93.42,16.87
			C477.22,38.53,477.19,38.37,477.16,38.21z"/>
		<path d="M-3.62,240.4c23.8-15.62,47.6-31.25,71.39-46.87c0.11,0.16,0.22,0.33,0.33,0.49c-23.73,15.71-47.46,31.42-71.18,47.14
			C-3.27,240.91-3.45,240.65-3.62,240.4z"/>
		<path d="M570.58,91.38c-32.07-0.9-64.14-1.79-96.22-2.69c0-0.12,0-0.24,0.01-0.37c32.07,0.73,64.14,1.46,96.21,2.19
			C570.58,90.8,570.58,91.09,570.58,91.38z"/>
		<path d="M361.3,304.19c3.89-13.61,7.69-26.72,12.82-39.4C374.09,270.32,363.93,302.01,361.3,304.19z"/>
		<path d="M86.62,120.02c-29.92,7.53-59.83,15.06-89.75,22.6c-0.07-0.28-0.14-0.55-0.21-0.83c29.95-7.4,59.9-14.8,89.85-22.19
			C86.55,119.73,86.59,119.87,86.62,120.02z"/>
		<path d="M-3.13,12.89c27.96,8.09,55.92,16.18,83.88,24.27c-0.05,0.16-0.09,0.32-0.14,0.48c-27.99-7.97-55.99-15.94-83.98-23.9
			C-3.29,13.45-3.21,13.17-3.13,12.89z"/>
		<path d="M-3.66,249.85c20.78-14.46,41.56-28.93,62.35-43.39c0.13,0.18,0.25,0.36,0.38,0.53c-20.73,14.54-41.46,29.08-62.19,43.62
			C-3.31,250.36-3.48,250.11-3.66,249.85z"/>
		<path d="M570.58,30.59c-28.88,4.45-57.76,8.89-86.64,13.34c-0.02-0.15-0.05-0.3-0.07-0.46c28.88-4.58,57.76-9.16,86.64-13.74
			C570.54,30.02,570.56,30.31,570.58,30.59z"/>
		<path d="M499.25,127.39c23.79,4.07,47.58,8.15,71.37,12.22c-0.05,0.3-0.1,0.61-0.16,0.91c-23.76-4.16-47.52-8.32-71.27-12.48
			C499.21,127.83,499.23,127.61,499.25,127.39z"/>
		<path d="M65.67,162.31c-1.76,1.96-4.32,2.47-6.55,3.53c-19.53,9.27-39.11,18.43-58.68,27.62c-1.19,0.56-2.41,1.04-4.08,1.77
			c0.82-1.57,1.97-1.78,2.9-2.21c21.62-10.07,43.25-20.13,64.88-30.17c0.49-0.23,1.05-0.33,1.57-0.49L65.67,162.31z"/>
		<path d="M450.98,256c17.2,13.95,34.39,27.9,51.59,41.85c-0.2,0.24-0.39,0.49-0.59,0.73c-17.16-14.02-34.32-28.04-51.48-42.06
			C450.66,256.34,450.82,256.17,450.98,256z"/>
		<path d="M219.84,515.41c-1.21-0.72-1.44-1.57-1.39-2.57c0.48-10.91,0.95-21.83,1.44-32.74c0.07-1.59,0.2-3.18,0.31-4.76
			c0.06-0.81,0.21-1.56,1.31-1.88C220.95,487.43,220.4,501.31,219.84,515.41z"/>
		<path d="M514.07,145.24c18.89,4.29,37.77,8.57,56.66,12.86c-0.07,0.32-0.15,0.64-0.22,0.96c-18.9-4.36-37.79-8.72-56.69-13.07
			C513.9,145.74,513.98,145.49,514.07,145.24z"/>
		<path d="M570.89,174.01c-15.64-4.3-30.92-8.51-46.2-12.71C527.66,160.61,569.81,172.38,570.89,174.01z"/>
		<path d="M514.97,1.02c-22.2,6.47-44.4,12.95-66.6,19.42c-0.05-0.17-0.1-0.35-0.15-0.52c22.17-6.56,44.35-13.13,66.52-19.69
			C514.82,0.5,514.89,0.76,514.97,1.02z"/>
		<path d="M72.72,65.53c-25.28-2.56-50.56-5.11-75.84-7.67c0.03-0.25,0.05-0.51,0.08-0.76c25.24,2.67,50.47,5.34,75.71,8.01
			C72.69,65.25,72.71,65.39,72.72,65.53z"/>
		<path d="M570.51,513.09c-2.42-3.13-4.69-6.07-6.97-9.01c-3.37-4.34-6.75-8.67-10.12-13.02c-0.47-0.61-1.31-1.37-0.42-2.02
			c0.98-0.72,1.19,0.54,1.6,1.06c5.06,6.46,10.08,12.95,15.16,19.39C570.58,510.51,570.98,511.48,570.51,513.09z"/>
		<path d="M530.32,170.37c0.62-0.56,1.19-0.12,1.76,0.04c12.08,3.59,24.16,7.19,36.24,10.78c0.38,0.11,0.75,0.3,1.13,0.38
			c0.64,0.14,1.48,0.27,1.16,1.11c-0.26,0.67-0.97,0.11-1.46-0.04c-7.64-2.29-15.28-4.58-22.92-6.89
			c-4.66-1.41-9.31-2.83-13.95-4.27C531.55,171.27,530.64,171.34,530.32,170.37z"/>
		<path d="M45.13,236.79c-16.06,12.95-32.12,25.9-48.18,38.85c-0.17-0.21-0.34-0.42-0.51-0.63c16.09-12.88,32.19-25.77,48.28-38.65
			C44.86,236.51,45,236.65,45.13,236.79z"/>
		<path d="M507,318.9c0.23-0.73,0.93-0.81,1.49-0.97c7.2-2.09,12.25-6.92,16.41-12.88c0.31-0.45,0.45-1.45,1.31-0.93
			c0.59,0.36,0.14,1.07-0.11,1.51c-3.72,6.64-8.71,11.76-16.41,13.6C508.71,319.47,508.59,319.39,507,318.9z"/>
		<path d="M367.97,334.27c4.28-7.81,8.89-15.41,14.23-22.52c0.32,0.21,0.64,0.42,0.96,0.64C378.57,320,373.89,327.54,367.97,334.27z
			"/>
		<path d="M570.47,456.25c-2.97-3.3-5.83-6.46-8.67-9.65c-2.27-2.55-4.51-5.14-6.78-7.7c-0.43-0.49-1.01-1.02-0.36-1.61
			c0.77-0.7,1.13,0.26,1.48,0.64c4.64,5.14,9.23,10.32,13.88,15.46C570.75,454.18,570.92,454.97,570.47,456.25z"/>
		<path d="M328.57,475.49c0.61-7.51,3.76-14.13,7.65-20.51c-2.22,6.93-4.45,13.87-6.67,20.8
			C329.22,475.69,328.89,475.59,328.57,475.49z"/>
		<path d="M53.17,91.1c-18.74,0.91-37.48,1.83-56.22,2.74c-0.01-0.22-0.02-0.45-0.03-0.67c18.77-0.81,37.53-1.62,56.3-2.43
			C53.21,90.86,53.19,90.98,53.17,91.1z"/>
		<path d="M42.55,18.44C27.29,13.45,12.04,8.46-3.21,3.47c0.07-0.23,0.15-0.45,0.22-0.68c15.21,5.06,30.43,10.13,45.64,15.19
			C42.62,18.13,42.58,18.29,42.55,18.44z"/>
		<path d="M345.1,536.25c0.33-1.92,0.6-3.44,0.86-4.96c-0.08-0.02-0.16-0.05-0.23-0.07c-0.67,2.31-1.33,4.62-2,6.93
			c-0.26-4.75,0.78-9.18,3.26-13.3c-0.15,1.09-0.3,2.19-0.45,3.28c0.1,0.03,0.21,0.06,0.31,0.09c0.56-1.34,1.13-2.68,1.75-4.15
			C348.67,528.36,347.25,533.5,345.1,536.25z"/>
		<path d="M540.81,194.03c10,3.68,20,7.37,29.99,11.05c-0.11,0.29-0.22,0.58-0.33,0.87c-9.98-3.71-19.96-7.42-29.94-11.12
			C540.63,194.56,540.72,194.29,540.81,194.03z"/>
		<path d="M550.29,228.88c2.32,1.04,4.4,1.94,6.45,2.9c4.18,1.95,8.35,3.92,12.51,5.91c0.66,0.32,1.87,0.56,1.36,1.55
			c-0.46,0.87-1.21-0.14-1.75-0.39c-5.42-2.5-10.82-5.03-16.2-7.61C551.76,230.81,550.46,230.69,550.29,228.88z"/>
		<path d="M547.68,216.88c7.74,3.36,15.48,6.72,23.22,10.09c-0.15,0.33-0.29,0.65-0.44,0.98c-7.73-3.39-15.46-6.78-23.18-10.17
			C547.42,217.48,547.55,217.18,547.68,216.88z"/>
		<path d="M36.56,144.09c-13.18,4.07-26.37,8.15-39.55,12.22c-0.07-0.22-0.14-0.44-0.2-0.66c13.2-4.02,26.4-8.05,39.6-12.07
			C36.46,143.75,36.51,143.92,36.56,144.09z"/>
		<path d="M40.85,105.09c-14.59,1.71-29.18,3.42-43.78,5.12c-0.02-0.21-0.05-0.43-0.07-0.64c14.6-1.64,29.2-3.28,43.8-4.92
			C40.81,104.8,40.83,104.95,40.85,105.09z"/>
		<path d="M273.69,292.46c1.19,6.66,0.21,13.19-1.09,19.69C272.6,305.56,272.6,298.97,273.69,292.46z"/>
		<path d="M552.65,239.85c3.49,1.69,6.83,3.29,10.16,4.92c2.29,1.12,4.56,2.29,6.85,3.42c0.58,0.29,1.36,0.59,0.97,1.35
			c-0.38,0.75-0.96,0.04-1.39-0.17c-5.27-2.65-10.53-5.32-15.79-8C553.06,241.17,552.51,241.02,552.65,239.85z"/>
		<path d="M319.22,449.18c1.75-6.82,5.05-12.81,9.2-18.35c0.2,0.11,0.4,0.21,0.59,0.32C325.74,437.15,322.48,443.16,319.22,449.18z"
			/>
		<path d="M331.4,482.86c0.78-6.66,3.2-12.79,6.31-18.7C336.11,470.55,334.07,476.79,331.4,482.86z"/>
		<path d="M37.63,590.73c2.02-5.15,3.83-9.77,5.73-14.63C44.56,579.03,40.68,589.27,37.63,590.73z"/>
		<path d="M331.47,452.42c-0.11,3.31-3.78,14.6-5.61,17.26C325.38,466.99,328.67,456.87,331.47,452.42z"/>
		<path d="M326.85,417.43c-3.56,6.25-7.12,12.5-10.72,18.82C316.3,432.75,322.76,421.1,326.85,417.43z"/>
		<path d="M420.43,423.94c4.07-5.53,8.64-10.62,14.14-14.79C430.08,414.27,425.64,419.46,420.43,423.94z"/>
		<path d="M329.61,438.47c-2.41,5.83-5.25,11.46-8.46,17.53C321.23,452.3,325.78,442.95,329.61,438.47z"/>
		<path d="M323.8,461.6c0.33-4.09,4.75-13.79,7.96-17.41C329.35,450.55,326.74,456.15,323.8,461.6z"/>
		<path d="M320.77,339.87c-3.28-10.12-6.56-20.24-9.84-30.35c0.17-0.06,0.34-0.11,0.52-0.17c3.33,10.1,6.65,20.19,9.98,30.29
			C321.21,339.71,320.99,339.79,320.77,339.87z"/>
		<path d="M275.53,307.26c-0.18-4.49,0.36-8.37,1.02-12.64c0.78,1.34,0.36,2.46,0.65,3.47c0.32-1.62,0.64-3.24,0.98-4.98
			c1.28,2.22,0.83,6.43-0.86,7.98c-0.83,0.76-0.62,1.72-0.79,2.61C276.34,304.68,276.49,305.75,275.53,307.26z"/>
		<path d="M383.78,436.86c-1.93-2.98-0.9-10.83,1.88-14.83C385,427.22,384.42,431.83,383.78,436.86z"/>
		<path d="M-2.98,71.57c12.79,0.59,25.57,1.18,38.36,1.77c0,0.12-0.01,0.24-0.01,0.36C22.6,73.17,9.83,72.65-2.94,72.12
			C-2.96,71.94-2.97,71.75-2.98,71.57z"/>
		<path d="M316.6,445.81c2.16-6.33,5.15-12.24,9.17-17.62C323.11,434.27,320.1,440.16,316.6,445.81z"/>
		<path d="M451.95,413.69c-2.6,5.69-6.74,10.16-10.95,14.59C444.38,423.19,447.62,418.01,451.95,413.69z"/>
		<path d="M438.3,412.01c-3.89,4.91-8.07,9.54-12.8,13.67C429.3,420.69,433.17,415.77,438.3,412.01z"/>
		<path d="M-3.09,133.16c10.84-2.29,21.68-4.57,32.52-6.86c0.03,0.16,0.07,0.31,0.1,0.47c-10.83,2.33-21.66,4.66-32.5,6.99
			C-3,133.56-3.04,133.36-3.09,133.16z"/>
		<path d="M457.77,10.35c10.21-3.34,20.43-6.67,30.64-10.01c0.06,0.2,0.13,0.41,0.19,0.61c-10.23,3.3-20.45,6.6-30.68,9.89
			C457.87,10.68,457.82,10.52,457.77,10.35z"/>
		<path d="M340.41,522.83c-1.57,5.29-3.14,10.57-4.82,16.21C334.71,535.78,337.46,526.29,340.41,522.83z"/>
		<path d="M377.02,325.23c-2.33,5.08-5,9.96-9.25,13.88c2.86-4.76,5.73-9.52,8.59-14.28C376.58,324.96,376.8,325.09,377.02,325.23z"
			/>
		<path d="M437.47,425.64c3.41-4.87,7.01-9.56,11.56-13.42C445.79,417.22,441.69,421.49,437.47,425.64z"/>
		<path d="M556.26,258.14c4.85,2.79,9.95,5.15,14.6,8.27c-0.15,0.26-0.3,0.52-0.45,0.77c-4.9-2.74-9.81-5.48-14.71-8.22
			C555.89,258.69,556.07,258.41,556.26,258.14z"/>
		<path d="M369.74,395.87c-0.44-4.89,0.71-9.54,2.4-14.12c0.21,0.03,0.43,0.06,0.64,0.1c-0.77,4.71-1.53,9.42-2.3,14.13
			C370.24,395.95,369.99,395.91,369.74,395.87z"/>
		<path d="M337.07,539.93c0.7-4.98,1.97-9.76,4.67-14.07c0.2,0.07,0.4,0.13,0.6,0.2c-1.55,4.69-3.1,9.38-4.65,14.08
			C337.49,540.06,337.28,539.99,337.07,539.93z"/>
		<path d="M369.29,372.83c1.11-5.55,2.36-11.03,4.92-16.11C373.39,362.35,371.64,367.69,369.29,372.83z"/>
		<path d="M21.83,166.17c-8.29,3.25-16.59,6.49-24.88,9.74c-0.08-0.2-0.16-0.41-0.24-0.61c8.31-3.21,16.61-6.43,24.92-9.64
			C21.69,165.82,21.76,166,21.83,166.17z"/>
		<path d="M434.98,411.31c-3.42,4.5-7.05,8.81-11.23,12.62C427.03,419.32,430.53,414.88,434.98,411.31z"/>
		<path d="M374.44,369.75c-1.79,5.13-3.59,10.26-5.51,15.75C368.57,382.33,371.61,373.3,374.44,369.75z"/>
		<path d="M396.16,314.36c0.95-3.5,2.8-6.5,4.97-9.34c0.23-0.31,0.6-0.64,1.02-0.4c0.58,0.33,0.31,0.86,0.08,1.24
			C400.4,308.82,398.61,311.81,396.16,314.36z"/>
		<path d="M396.57,447.02c-1.05-3.92-0.3-7.65,1.81-11.22c-0.34,3.77-0.68,7.54-1.02,11.31
			C397.1,447.08,396.83,447.05,396.57,447.02z"/>
		<path d="M197.15,334.56c1.3-8.17,2.59-16.34,3.89-24.51c0.18,0.03,0.37,0.06,0.55,0.09c-1.27,8.18-2.54,16.35-3.8,24.53
			C197.57,334.63,197.36,334.6,197.15,334.56z"/>
		<path d="M17.76,209.82c-6.95,4.04-13.89,8.08-20.84,12.13c-0.11-0.19-0.22-0.38-0.33-0.57c6.96-4.02,13.92-8.04,20.88-12.05
			C17.56,209.49,17.66,209.66,17.76,209.82z"/>
		<path d="M391.76,430.39c-0.53,4.35-1.01,8.26-1.52,12.38C388.43,440.66,389.23,434.22,391.76,430.39z"/>
		<path d="M222.34,235.62c-0.85,9.05-1.71,18.09-2.56,27.14c-0.18-0.02-0.36-0.03-0.54-0.05c0.89-9.06,1.79-18.12,2.68-27.17
			C222.06,235.57,222.2,235.59,222.34,235.62z"/>
		<path d="M400.46,301.97c-1.65,3.89-3.98,7.31-6.7,10.46C395.14,308.39,396.91,304.6,400.46,301.97z"/>
		<path d="M21.96,35.29c-8.34-1.81-16.67-3.63-25.01-5.44c0.04-0.2,0.09-0.41,0.13-0.61c8.33,1.85,16.66,3.7,24.98,5.55
			C22.04,34.95,22,35.12,21.96,35.29z"/>
		<path d="M-3.4,211.79c6.3-3.39,12.6-6.78,18.9-10.16c0.1,0.18,0.19,0.36,0.29,0.54c-6.26,3.4-12.53,6.81-18.79,10.21
			C-3.13,212.18-3.26,211.98-3.4,211.79z"/>
		<path d="M378.82,412.12c-0.71,3.94-1.42,7.88-2.13,11.82C375.42,419.64,376.8,415.82,378.82,412.12z"/>
		<path d="M492.36,398.1c2.67-2.34,5.34-4.68,8.01-7.01C498.9,394.76,496.85,397.79,492.36,398.1z"/>
		<path d="M499.31,402.44c3.05-2.11,6.09-4.22,9.14-6.33c-3.55,3.82-7.74,6.72-12.38,9.22c-0.2-1.06,0.45-1.16,0.86-1.46
			C497.72,403.4,498.52,402.92,499.31,402.44z"/>
		<path d="M368.85,355.71c0.77-3.8,2.01-7.4,4.6-10.4C372.69,349.1,370.96,352.48,368.85,355.71z"/>
		<path d="M564.23,389.54c2.14,2.42,5.57,3.66,6.35,7.16C568.29,394.44,565.01,393.05,564.23,389.54z"/>
		<path d="M394.19,443.38c-0.94-3.73-0.88-7.4,0.61-10.99C395.06,436.08,395.01,439.75,394.19,443.38z"/>
		<path d="M374.22,333.09c-1.15,4.38-3.51,8.09-6.16,11.66C369.6,340.6,371.8,336.78,374.22,333.09z"/>
		<path d="M18.56,45.36c-7.17-1.21-14.34-2.42-21.5-3.63c0.03-0.18,0.06-0.36,0.09-0.54c7.17,1.23,14.34,2.46,21.51,3.69
			C18.62,45.05,18.59,45.21,18.56,45.36z"/>
		<path d="M418,260.82c0.62-3.85,3.91-4.36,6.28-6.5C423.26,257.12,421.04,259.38,418,260.82z"/>
		<ellipse cx="9.66" cy="85.31" rx="17.53" ry="0.2"/>
		<path d="M378.89,428.11c-0.76-4.1,0.33-7.89,2-11.58C380.66,420.47,379.96,424.32,378.89,428.11z"/>
		<path d="M330.44,536.54c-0.22-4.99,1.61-9.48,3.42-13.97c-0.85,4.71-2.02,9.34-3.47,13.91
			C330.4,536.49,330.44,536.54,330.44,536.54z"/>
		<path d="M369.36,348.98c1.04-3.41,2.15-6.8,4.62-9.52C373.04,342.91,371.51,346.09,369.36,348.98z"/>
		<path d="M344.47,526.69c-0.36,3.8-1.71,7.33-3.02,10.88C341.62,533.72,342.49,530.07,344.47,526.69z"/>
		<path d="M402.95,442.64c0.8,2.53,0.85,4.77,1.13,6.97c0.07,0.54,0.48,1.45-0.4,1.61c-0.95,0.17-1.08-0.82-1.2-1.47
			C402.07,447.45,402.29,445.17,402.95,442.64z"/>
		<path d="M190.2,252.28c-1.54,5.82-3.09,11.64-4.63,17.46c-0.21-0.06-0.41-0.11-0.62-0.17c1.05-3.74,2.02-7.51,3.17-11.22
			c0.63-2.03,0.58-4.31,2.13-6.02C190.25,252.33,190.2,252.28,190.2,252.28z"/>
		<path d="M381.95,429.9c0.11-3.74,0.16-7.49,1.79-10.98C383.56,422.65,383.17,426.35,381.95,429.9z"/>
		<path d="M444.83,414.24c-2.77,3.53-5.94,6.69-9.33,9.63C438.15,420.22,441.35,417.1,444.83,414.24z"/>
		<path d="M564.03,288.61c2.3,1.49,4.95,2.47,7.32,4.98C568.37,292.83,564.6,290.24,564.03,288.61z"/>
		<path d="M389.1,426.79c0.36,3.19-0.17,6.34-0.7,9.5C387.61,433.07,388.24,429.94,389.1,426.79z"/>
		<path d="M400.29,441.01c0.32,2.54,0.52,5.03,0.09,7.79C399.06,446.55,399.02,444.04,400.29,441.01z"/>
		<path d="M414.38,416.56c2.97-2.79,5.94-5.59,8.91-8.38c0.13,0.14,0.27,0.28,0.4,0.43C420.74,411.45,418.05,414.56,414.38,416.56z"
			/>
		<path d="M499.23,397.75c1.43,0.02,2.04-1.43,3.54-1.51c-2.5,2.35-4.99,4.71-7.49,7.06c0.67-2.43,3.34-3.26,4.03-5.63
			C499.32,397.67,499.23,397.75,499.23,397.75z"/>
		<path d="M176.93,298.4c1.06-3.86,2.12-7.72,3.18-11.59c-0.23,4.07-1.41,7.91-2.54,11.75C177.36,298.51,177.15,298.46,176.93,298.4
			z"/>
		<path d="M499.23,397.75c0,0,0.09-0.08,0.09-0.08c-1.66,1.35-3.31,2.7-4.97,4.05c-0.13-0.15-0.26-0.29-0.39-0.44
			c2.33-2.43,4.96-4.55,8-6.23C501.05,395.95,500.14,396.85,499.23,397.75z"/>
		<path d="M472.76,293.33c-1.69-2.08-4.12-3.44-5.34-6.04c2.52,2.21,5.04,4.42,7.56,6.62c-0.06,0.12-0.12,0.24-0.18,0.36
			c-0.71-0.34-1.42-0.68-2.13-1.02C472.67,293.25,472.76,293.33,472.76,293.33z"/>
		<path d="M315.29,431.55c0.77-3.93,2.58-7.38,4.78-10.66C318.48,424.44,316.88,427.99,315.29,431.55z"/>
		<path d="M102.84,212c2.72-2.9,5.44-5.81,8.17-8.71c-0.12-0.12-0.24-0.24-0.36-0.35c-2.69,2.93-5.38,5.87-8.08,8.8
			C102.65,211.82,102.74,211.91,102.84,212z"/>
		<path d="M426.02,412.23c-2.32,2.64-4.63,5.29-6.95,7.93c-0.16-0.15-0.33-0.29-0.49-0.44C420.71,416.91,423.1,414.33,426.02,412.23
			z"/>
		<path d="M306.32,272.08c-0.71-2.13-0.69-4.18,0.16-6.75C307.45,267.99,307.34,270.07,306.32,272.08z"/>
		<path d="M369.87,403.92c0.36-3.49,0.9-6.94,2.44-10.14C371.95,397.27,371.12,400.65,369.87,403.92z"/>
		<path d="M537.87,304.59c-1.77-1.3-3.22-2.34-4.64-3.41c-0.28-0.21-0.79-0.44-0.46-0.91c0.31-0.45,0.78-0.49,1.24-0.13
			C535.46,301.27,537.2,302.15,537.87,304.59z"/>
		<path d="M570.53,328.42c-1.49-1.18-3.82-1.49-4.21-4.63C568.17,325.54,570.41,325.92,570.53,328.42z"/>
		<path d="M298.06,275.76c-0.76-2.13-0.46-4.07-0.23-6.18C299.23,271.3,299.3,273.28,298.06,275.76z"/>
		<path d="M300.44,274.57c-0.69-2.36-0.43-4.19-0.21-6.16C301.68,270.15,301.78,271.75,300.44,274.57z"/>
		<path d="M410.06,233.85c-1.05,2.21-2.82,3.66-4.89,4.8C406.54,236.78,408.02,235.03,410.06,233.85z"/>
		<path d="M25.65,84.78c4.49,0,8.98,0,13.47,0c0,0.07,0,0.14,0,0.22c-4.48,0-8.96,0-13.44,0C25.67,84.93,25.66,84.85,25.65,84.78z"
			/>
		<path d="M159.31,243.47c1.5-3.11,3.01-6.21,4.51-9.32c0.15,0.07,0.3,0.13,0.44,0.2c-1.49,3.14-2.97,6.28-4.46,9.43
			C159.64,243.68,159.47,243.58,159.31,243.47z"/>
		<path d="M362.15,276.37c-0.64,2.28-2.02,4.03-3.99,5.32C358.89,279.49,360.35,277.82,362.15,276.37z"/>
		<path d="M456.15,297.31c-1.12,2.91-2.07,3.72-4.61,4.14C452.76,299.79,454.21,298.7,456.15,297.31z"/>
		<path d="M84.93,243.18c2.12-2.24,4.24-4.47,6.36-6.71c0.13,0.12,0.26,0.24,0.4,0.36c-2.11,2.26-4.22,4.52-6.33,6.78
			C85.22,243.47,85.08,243.33,84.93,243.18z"/>
		<ellipse cx="17.28" cy="79.14" rx="8.62" ry="0.13"/>
		<path d="M433.43,109.97c3.23,0.43,6.47,0.86,9.7,1.29c-0.02,0.16-0.04,0.32-0.06,0.48c-3.23-0.45-6.47-0.9-9.7-1.35
			C433.4,110.25,433.41,110.11,433.43,109.97z"/>
		<path d="M499.31,402.44c-0.79,0.48-1.58,0.96-2.38,1.43c0.99-2.59,3.41-3.64,5.36-5.22C501.76,400.32,499.71,400.69,499.31,402.44
			z"/>
		<path d="M184.8,295c0.63,0.52,0.7,1.17,0.51,1.93c-0.58,2.28-1.14,4.57-1.9,6.81c-0.14-3.01,1.52-5.74,1.42-8.74
			C184.81,295,184.8,295,184.8,295z"/>
		<path d="M414.51,251.8c1.14-1.95,2.43-3.75,4.95-4.78C418.25,249.39,416.21,250.42,414.51,251.8z"/>
		<path d="M309.59,269.45c-0.61-1.66-0.76-3.29,0.21-5.14C310.76,266.27,310.36,267.87,309.59,269.45z"/>
		<ellipse cx="3.16" cy="79.07" rx="7.76" ry="0.09"/>
		<path d="M121.94,192.21c-1.8,2.02-3.6,4.03-5.4,6.05c0.01,0.01,0.02,0.02,0.03,0.02c1.83-1.91,3.65-3.81,5.48-5.72
			C122.22,192.4,122.35,192.44,121.94,192.21z"/>
		<path d="M83.83,7.32c2.29,1.16,4.58,2.31,6.87,3.46c-0.07,0.14-0.14,0.29-0.21,0.43c-2.28-1.17-4.55-2.34-6.82-3.52
			C83.66,7.69,83.75,7.5,83.83,7.32z"/>
		<path d="M416.59,418.16c1.46-1.86,3.37-3.54,5.62-4.87C420.3,414.94,418.39,416.6,416.59,418.16z"/>
		<path d="M449.81,293.04c0.07,0.23,0.12,0.31,0.1,0.36c-0.52,1.24-1.31,2.14-2.8,2c-0.35-0.03-0.59-0.39-0.41-0.68
			C447.43,293.57,448.61,293.31,449.81,293.04z"/>
		<path d="M279.99,296.46c-0.32-1.91-0.23-3.61,0.2-5.84C281.18,293.38,281.11,294.45,279.99,296.46z"/>
		<path d="M229.78,257.62c0,3.13,0,6.27,0,9.4c-0.08,0-0.15,0-0.23,0c0-3.1,0-6.21,0-9.31C229.63,257.68,229.7,257.65,229.78,257.62
			z"/>
		<path d="M190.96,304.46c-0.05,2.32-0.47,4.59-1.28,6.78C189.55,308.89,190.41,306.71,190.96,304.46z"/>
		<path d="M447.53,290.74c-0.94,1.45-2.2,2.23-3.99,1.99C444.66,291.67,445.96,290.96,447.53,290.74z"/>
		<path d="M311.71,261.78c0.97,1.54,0.98,2.87-0.05,4.43C310.61,264.64,311.09,263.31,311.71,261.78z"/>
		<path d="M283.04,247.86c0.71,2.52,1.43,5.03,2.14,7.55c-0.16,0.05-0.32,0.09-0.47,0.14c-0.7-2.52-1.41-5.04-2.11-7.56
			C282.75,247.94,282.9,247.9,283.04,247.86z"/>
		<path d="M436.5,280.21c0.61-0.98,1.2-1.97,1.83-2.93c0.2-0.3,0.49-0.71,0.94-0.33c0.37,0.31,0.31,0.74,0.02,1.06
			c-0.78,0.86-1.59,1.68-2.39,2.52C436.78,280.43,436.64,280.32,436.5,280.21z"/>
		<path d="M93.5,234c1.88-1.56,3.76-3.11,5.63-4.67c-0.06-0.07-0.12-0.14-0.18-0.21c-1.66,1.78-3.33,3.56-4.99,5.34
			C93.81,234.31,93.66,234.16,93.5,234z"/>
		<path d="M190.25,252.33c-0.18-3.01,1.33-5.61,2.03-8.4c-0.34,2.87-1.17,5.62-2.08,8.35C190.2,252.28,190.25,252.33,190.25,252.33z
			"/>
		<path d="M45.85,73.94c-2.76,0-5.53,0-8.29,0c0-0.08,0-0.15,0-0.23c2.78,0,5.56,0,8.35,0C45.89,73.79,45.87,73.87,45.85,73.94z"/>
		<path d="M165.99,229.59c1.01-2.05,2.03-4.09,3.04-6.14c0.13,0.06,0.25,0.12,0.38,0.18c-0.98,2.04-1.95,4.07-2.93,6.11
			C166.32,229.69,166.15,229.64,165.99,229.59z"/>
		<path d="M65.71,162.36c2.13-1.49,4.54-2.36,6.99-3.13c-2.37,0.96-4.31,2.91-7.04,3.08C65.67,162.31,65.71,162.36,65.71,162.36z"/>
		<path d="M101.97,225.51c1.55-1.44,3.1-2.87,3.92-3.64C105.31,222.83,103.44,224.02,101.97,225.51z"/>
		<path d="M449.69,13.45c-2.1,0.7-4.21,1.4-6.31,2.11c-0.05-0.13-0.09-0.27-0.14-0.4c2.1-0.71,4.2-1.42,6.3-2.13
			C449.59,13.17,449.64,13.31,449.69,13.45z"/>
		<path d="M244.57,244.29c0-2.98,0-5.97,0-7.75c-0.1,1.78,0.61,4.77-0.02,7.77C244.54,244.33,244.57,244.29,244.57,244.29z"/>
		<path d="M420.65,566.91c6.23,1.86,12.01,2.53,17.81,2.91c12.71,0.82,24.26-3.18,35.25-9.1c11.4-6.14,21.45-14.15,31.22-22.55
			c0.47-0.4,0.91-0.83,1.57-1.06c-0.43,0.51-0.84,1.05-1.3,1.53c-12.88,13.26-27.01,24.66-44.91,30.58
			c-11.21,3.71-22.44,3.78-33.74,0.65C424.64,569.33,422.69,568.83,420.65,566.91z"/>
		<path d="M495.29,508.74c-3.02,0.98-5.21,2.87-7.11,5.16c-0.44,0.53-1.04,1.65-1.86,0.84c-0.76-0.76,0.24-1.47,0.78-1.94
			c2.19-1.92,3.8-4.19,4.59-7.23c0.59,1.03,0.07,1.83,0.23,2.83c1.13-0.62,2.12-1.21,3.15-1.7c0.65-0.31,1.42-0.56,1.98,0.14
			c0.46,0.58,0.22,1.25-0.14,1.79c-1.21,1.86-2.46,3.7-3.52,5.79c1.91-1.47,3.76-3.03,5.75-4.38c1.09-0.73,2.47-2.45,3.68-1.03
			c1.06,1.24-0.72,2.37-1.56,3.34c-1.38,1.6-2.89,3.08-4.55,4.42c1.26-2.22,3.27-3.83,4.83-6.55c-2.52,1.14-4.09,2.68-5.84,3.93
			c-1.23,0.88-2.46,1.78-3.71,2.63c-0.46,0.32-1.03,0.61-1.53,0.12c-0.53-0.53-0.09-1.08,0.19-1.51
			C492.19,513.17,493.75,510.96,495.29,508.74z"/>
		<path d="M461.88,500.6c-1.49,2-2.54,4.35-4.86,5.74c6.13-10.42,9.34-21.78,11.24-33.61C469.27,482.77,466.16,491.82,461.88,500.6
			L461.88,500.6z"/>
		<path d="M461.87,500.59c1.04-0.2,1.21-1.19,1.65-1.9c4.26-6.96,7.49-14.42,10.7-21.9c0.21-0.49,0.27-1.09,0.84-1.41
			c0.36,1-0.12,1.9-0.35,2.78c-1.88,7.16-4.89,13.82-9.21,19.84C464.64,499.2,463.84,500.79,461.87,500.59
			C461.88,500.6,461.87,500.59,461.87,500.59z"/>
		<path d="M468.14,502.32c5.28-7.23,10.74-14.3,13.36-23.44C482.52,484.33,474.42,498.39,468.14,502.32z"/>
		<path d="M482.65,485.46c1.01,5.87-6,18.09-11.82,20.53C476.09,499.67,480.52,493.23,482.65,485.46z"/>
		<path d="M517.31,528.82c5.45-5.98,8.89-13.16,12.4-20.29C527.59,516.51,525.18,524.31,517.31,528.82z"/>
		<path d="M507.21,516.33c-1.79,1.02-2.99,1.72-4.2,2.39c-0.27,0.15-0.63,0.28-0.82-0.09c-0.16-0.29-0.12-0.7,0.2-0.83
			c2.28-0.9,3.72-2.96,5.77-4.17c0.41-0.24,0.88-0.59,1.3-0.21c0.6,0.54-0.02,1.02-0.27,1.45c-0.73,1.28-1.53,2.52-1.96,4.05
			c1.04-0.8,2.06-1.61,3.12-2.39c0.45-0.33,1.02-0.71,1.5-0.22c0.56,0.56-0.05,1.13-0.4,1.39c-1.85,1.33-3.75,2.58-5.66,3.83
			c-0.37,0.24-0.81,0.14-1.07-0.2c-0.26-0.35-0.16-0.76,0.06-1.12C505.48,519.1,506.17,518,507.21,516.33z"/>
		<path d="M480.25,512.26c4.08-6.03,8.35-11.93,11.18-18.7C490.18,501.24,485.88,507.14,480.25,512.26z"/>
		<path d="M478.26,505.98c2.97-5.71,6.28-11.22,9.32-16.87C486.25,495.7,482.94,501.22,478.26,505.98z"/>
		<path d="M439.01,509.8c-3.4,4.09-6.08,8.05-8.59,12.42C430.29,518.27,434.93,511.37,439.01,509.8z"/>
		<path d="M507.59,508.77c-3.69,4.13-7.76,7.85-12.81,10.38C499.46,516.18,502.64,511.45,507.59,508.77z"/>
		<path d="M485.3,510.43c2.96-4.08,6.35-7.64,8.05-12.6C493.88,501.61,489.06,509.08,485.3,510.43z"/>
		<path d="M438.33,517.92c-1.61,4.4-4.54,8.05-6.11,12.51C431.1,528.32,434.67,520.95,438.33,517.92z"/>
		<path d="M441.68,529.4c-0.38,2.11,0.82,4.27-0.22,6.23c-0.25,0.47-0.53,1.11-1.23,0.86c-0.69-0.25-0.58-0.92-0.42-1.44
			C440.4,533.16,441.05,531.28,441.68,529.4z"/>
		<path d="M449.12,551.91c-0.57,3.66-2.73,5.79-6.15,5.27C445.89,555.9,447.34,553.85,449.12,551.91z"/>
		<path d="M447.12,536.42c-1.33,0.79-2.07,1.9-2.95,2.88c-0.36,0.41-0.8,0.99-1.38,0.59c-0.52-0.36-0.32-1.02-0.09-1.54
			c0.39-0.86,0.81-1.71,1.29-2.7C444.1,536.39,445.15,536.62,447.12,536.42z"/>
		<path d="M436.22,534.49c1.65-3.36,3.07-6.24,4.56-9.26C440.6,527.97,438.49,532.43,436.22,534.49z"/>
		<path d="M460.29,485.82c0.98-2.4,1.97-4.79,2.95-7.19C462.97,481.31,462.01,483.73,460.29,485.82z"/>
		<path d="M447.05,543.81c-0.48-2.27,0.58-3.94,0.45-5.02C446.94,539.83,449.38,541.75,447.05,543.81z"/>
		<path d="M448.53,545.14c0.39,1.39-0.39,2.34,0.05,3.4c0.17,0.41-0.25,1.07-0.83,1.28c-0.17,0.06-0.5-0.02-0.61-0.15
			c-0.38-0.44-0.08-0.88,0.09-1.31C447.61,547.41,448,546.46,448.53,545.14z"/>
		<path d="M552.23,391.13c0.88,4.87,1.5,9.7,1.56,14.57c0.06,4.37-0.77,8.54-2.61,12.56c-4.75,10.32-11.07,19.56-19.01,27.71
			c2.19-3.36,4.42-6.69,6.55-10.08c3.96-6.29,7.65-12.73,10.69-19.54c2.37-5.32,3.05-10.87,2.84-16.61
			C552.14,396.87,552.23,394,552.23,391.13z"/>
		<path d="M517.8,440.3c-3.69,3.32-7.38,6.64-11.08,9.96c2.63-4.48,6.21-7.93,10.65-10.47C517.52,439.96,517.66,440.13,517.8,440.3z
			"/>
		<path d="M519.9,443.4c0.86-0.34,1.71-0.69,2.57-1.03c-3.37,4.13-7.55,7.41-10.96,11.46c1.8-3.23,4.19-5.97,6.87-8.49
			C518.89,444.69,519.4,444.05,519.9,443.4z"/>
		<path d="M503.92,448.26c2.62-3.91,6.07-6.85,10.33-8.83C511.2,442.84,507.12,445.02,503.92,448.26z"/>
		<path d="M519.9,443.4c-0.51,0.65-1.01,1.3-1.52,1.94c-2.98,1.23-4.81,3.94-7.55,5.97c1.95-3.62,7.32-8.48,10.38-9.48
			C521.06,442.67,520.48,443.03,519.9,443.4z"/>
		<path d="M513.39,458.55c0.45-3.4,5.29-10.2,9.48-13.28C519.84,449.77,515.8,453.56,513.39,458.55z"/>
		<path d="M502.27,445.83c2.41-3.41,5.43-6.02,9.51-7.25C508.87,441.35,505.23,443.14,502.27,445.83z"/>
		<path d="M519.13,459.85c1.25-4.6,4.02-8.15,7.44-11.27C524.2,452.42,521.17,455.83,519.13,459.85z"/>
		<path d="M525.95,446.74c-2.69,3.2-5.38,6.4-8.21,9.77C518.43,454.12,523.17,448.35,525.95,446.74z"/>
		<path d="M508,438.72c-1.95,2.36-4.71,3.56-7.27,5.08C502.8,441.62,505.12,439.78,508,438.72z"/>
		<path d="M505.14,438.14c-1.51,1.65-3.23,2.99-5.21,3.97C501.32,440.32,503.11,439.05,505.14,438.14z"/>
		<path d="M370.05,165.78c-2.06-0.69-2.55-2.96-4.84-3.53c1.08,1.96,2.6,3.06,3.98,4.28c0.47,0.41,1.15,0.81,0.76,1.56
			c-0.39,0.76-1.11,0.36-1.71,0.27c-1.56-0.26-2.86-0.96-3.89-2.16c0.37-0.72,0.88,0.36,1.33-0.21c-0.97-1.57-2.49-2.86-2.93-4.79
			c-0.2-0.88-0.51-1.82,0.45-2.36c0.84-0.47,1.22,0.42,1.74,0.88c1.25,1.1,2.94,1.63,3.93,3.07
			C369.48,163.63,370.22,164.38,370.05,165.78z"/>
		<path d="M376.52,183.72c0.42,3.3-0.07,6.46,3.22,8.19c-0.99,1.1-1.82,0.72-2.61-0.05C375.56,190.3,375.1,186.2,376.52,183.72z"/>
		<path d="M378.98,183.05c1.01,1.95,0.83,4.31,3.2,5.03c0.43,0.13,0.16,0.53-0.05,0.75c-0.46,0.49-0.98,0.39-1.52,0.1
			C379.07,188.12,378.15,185.22,378.98,183.05z"/>
		<path d="M383.91,203.78c1.47,1.51,2.29,3,3.81,3.78c0.4,0.21,1.38,0.11,0.85,0.96c-0.38,0.61-1.11,0.53-1.68,0.08
			C385.45,207.46,384.38,206.08,383.91,203.78z"/>
		<path d="M362.82,153.18c-2.32,0.67-4.28,2.78-7.04,1.62C358.38,155.16,360.11,152.36,362.82,153.18z"/>
		<path d="M362.15,151.57c2.03-0.35,3.86-1.18,5.7-1.99C366.54,151.87,364.45,152.06,362.15,151.57z"/>
		<path d="M391.01,206.73c-2.37,0.77-3.19-0.76-3.86-2.52C388.42,205.07,389.38,206.44,391.01,206.73z"/>
		<path d="M373.63,176.84c0.64-1.29,1.02-2.77,2.52-3.5C376.7,175.53,374.91,176.02,373.63,176.84z"/>
		<path d="M350.35,214.25c0.73-2.02,1.46-4.05,2.2-6.07C352.77,210.53,351.82,212.48,350.35,214.25z"/>
		<path d="M383.9,185.99c-1.82-0.44-2.25-1.03-2.62-3.59C382.33,183.27,383.21,184.46,383.9,185.99z"/>
		<path d="M329.36,165.83c-0.08-2.31,0.68-3.92,1.64-5.47C330.89,162.15,330.46,163.85,329.36,165.83z"/>
		<path d="M347.99,181.13c-0.79,0.04-1.59,0.1-2.38,0.1c-0.83,0-1.51-0.41-1.3-1.28c0.33-1.38,0.18-2.4-1.27-2.98
			c-0.33-0.13-0.41-0.57-0.17-0.8c0.19-0.18,0.62-0.29,0.87-0.2c2.79,1,5.71,1.26,8.61,1.68c0.8,0.11,1.23,0.75,1.36,1.48
			c0.16,0.92-0.61,1.21-1.26,1.47C351.02,181.17,349.5,181.14,347.99,181.13z"/>
		<path d="M338.55,177.3c-0.22,3.58-1.22,7.01-2.7,10.25c-0.83,1.83-0.46,2.34,1.4,2.46c0.73,0.05,2.15-0.22,1.91,1.09
			c-0.19,1.04-1.45,0.61-2.29,0.62c-1.19,0.01-2.23-0.83-3.49-0.59c-0.7,0.13-0.75-0.51-0.58-0.96c1.65-4.35,3.34-8.7,5.01-13.04
			C338.06,177.18,338.3,177.24,338.55,177.3z"/>
		<path d="M342.58,171.58c3.08-2.19,7.67-1.51,10.14,1.29C349.32,172.16,345.98,171.77,342.58,171.58z"/>
		<path d="M338.33,196.51c3.34-0.96,6.81-1.41,10.36-3.18C346.74,196.34,342.46,197.63,338.33,196.51z"/>
		<path d="M139.73,553.63c-3.98-4.42-7.27-8.73-9.91-13.49c-1.2-2.16-2.29-4.39-3.26-6.67c-0.42-1-1.45-2.62,1.2-2.4
			c0.82,0.07-0.13-0.88,0.03-1.09c7.29,6.96,16.23,10.17,25.98,11.58c6.41,0.93,12.82,0.67,19.81-0.18c-2.15,2.44-4.17,4.25-6.99,5
			c-4.33,1.16-8.72,2.03-13.19,2.39c-1.56,0.13-2.17,0.68-1.26,2.03c4.2,6.27,7.93,13.04,15.9,15.46c2.67,0.81,5.29,1.83,8,2.5
			c1.12,0.28,1.25,1.16,1.84,1.75c0.38,0.38,0.4,0.69-0.22,0.75c-1.77,0.19-0.48,0.36-0.05,0.74c0.65,0.58-0.04,0.76-0.45,0.91
			c-1.01,0.37-2.04,0.27-3.08,0.12c-4.71-0.71-9.06-2.52-13.38-4.43c-3.28-1.45-6.63-2.63-10.75-3.26
			c3.04,4.71,6.08,8.71,10.67,11.08c8.71,4.5,18.11,6.6,27.98,7.66c-0.93,0.26-1.74,0.49-2.55,0.72c9.04,0.98,17.98,0.35,26.93-0.8
			c-0.04,0.6-0.54,0.64-0.91,0.76c-9.12,2.97-18.33,4.97-28.02,3.11c-2.41-0.46-4.99-0.01-7.4-0.48
			c-13.1-2.57-24.35-8.5-33.12-18.75c-2.08-2.43-4.12-4.89-6.12-7.38c-0.65-0.8-1.17-1.72-1.66-2.63c-0.72-1.35-1.43-2.8-0.53-4.3
			C136.18,552.76,137.74,553.39,139.73,553.63z"/>
		<path d="M174.58,447.16c-2.76,0.76-4.73,0.23-6.68-0.47c-3.67-1.31-6.82-3.49-9.69-6.07c-7.47-6.74-13.73-14.47-18.69-23.23
			c-0.7-1.24-1.25-2.59-1.72-3.94c-0.26-0.75-0.69-1.7,0.27-2.2C147.32,425.96,156.87,440.25,174.58,447.16z"/>
		<path d="M175.4,433.46c-1.77,0.52-3.17,0.05-4.49-0.43c-7.65-2.79-14.59-6.8-20.68-12.24c-0.3-0.27-0.61-0.53-0.84-0.85
			c-0.56-0.79-2.01-1.6-1.13-2.54c1.07-1.14,1.72,0.5,2.39,1.09c5.9,5.18,12.87,8.54,19.85,11.91
			C172.14,431.18,173.84,431.88,175.4,433.46z"/>
		<path d="M202.05,472.64c1.53,2.06,1.06,7.84-0.5,9.46c-0.22,0.23-0.44,0.52-0.79,0.35c-0.16-0.08-0.24-0.34-0.33-0.53
			c-0.03-0.06,0.01-0.15,0.04-0.23C201.69,478.81,201.48,475.68,202.05,472.64z"/>
		<path d="M178.88,343.9c-0.42,1.15-0.47,2.23,0.53,2.98c1.65,1.24,0.87,1.83-0.59,2.1c-1.75,0.33-4.26,1.82-5.07,0.5
			c-0.85-1.39,1.8-2.68,2.83-4.09C177.06,344.73,177.71,344.08,178.88,343.9z"/>
		<path d="M170.06,349.31c1.81-3.27,4.11-6.15,6.79-8.69c1.09-1.03,2.34-0.51,3.62,0.45c-3.39,0.63-4.7,3.53-6.83,5.45
			C172.52,347.52,171.77,349.01,170.06,349.31z"/>
		<path d="M158.74,359.66c1.86,0.08,2.55,0.74,3.13,1.5c0.53,0.7,1.02,1.34-0.58,1.39c-1.01,0.03-1,0.3,0.19,2.66
			C158.15,364.47,161.12,361.22,158.74,359.66z"/>
		<path d="M165.38,361.38c-2.78,0.43-3.67-1.78-4.79-3.69C162.11,359,163.12,361.03,165.38,361.38z"/>
		<path d="M186.02,512.79c-1.76,2.76-4.05,4.01-6.54,4.95c-8.57,3.24-17.5,4.23-26.59,4.12c-0.72-0.01-1.67,0-1.56-0.99
			c0.14-1.16,1.18-0.74,1.93-0.72C164.63,520.47,175.53,518.67,186.02,512.79z"/>
	</g>
</g>
</svg>
