<svg id="Layer_1" data-name="Layer 1" xmlns="http://www.w3.org/2000/svg" viewBox="0 0 574.56 782.4"><defs><style>.cls-1{fill:transparent;}</style></defs><path class="cls-1" d="M0-.44H574.52V782H0Zm35.17,722.5c2.13-.1,3.83-.07,5.51-.27,13.56-1.63,27.1-3.54,40.69-4.89a184.17,184.17,0,0,1,21.79-.6c3.68.07,7.2-.07,10.54-1.57,3-1.34,5.8-3.05,8.82-4.3a6.09,6.09,0,0,1,4-.08,5.56,5.56,0,0,0,4.53-.3,18.63,18.63,0,0,1,6.3-1.81c5.26-.34,10.55-.06,15.8-.46,4.13-.31,8.2-1.24,11.65-3.91a13.41,13.41,0,0,1,4.12-2.19c2.43-.77,5-1.11,7.45-1.81,8-2.32,16.2-4.44,23-9.8a3.13,3.13,0,0,1,2.21-.54c10.77,1.84,21.62,3.34,32,7.08,2.53.91,5.27,1.25,7.89,1.92a37.33,37.33,0,0,1,6.87,1.93,27.69,27.69,0,0,0,16.8,2.59c4.14-.7,8.13-2.27,12.26-3.12,7.66-1.57,15.39-2.83,23.06-4.37,3.83-.78,7.56-2.09,11.39-2.82,13.37-2.55,26.92-2,40.43-2.08.78,0,1.57.11,2.36.17l0,.31-4.22.54c5.27.86,10,1.67,14.72,2.41,13.42,2.1,26.84,4.24,40.27,6.24,7.45,1.1,15,1.84,22.46.44,8.7-1.62,17.35-3.59,26-5.64,11.89-2.83,23-7.69,33.76-13.42,1-.51,2.24-1.33,3.06-1.05,5.55,1.87,11.13.52,16.68.38,2.28-.06,4.53-1,6.47-1.44a36.13,36.13,0,0,0,6,1.16,4.38,4.38,0,0,1,3.3,1.32c8.22,7.72,18.84,7.49,27.34-.27a8.11,8.11,0,0,0,1.89-3,49,49,0,0,0,2.16-6.85,108.42,108.42,0,0,0,1.76-32.2c-.48-5.49-1.44-11-1.57-16.47A425,425,0,0,0,552,580.2c-.54-4.35-2.28-7.16-6.08-8.53a94.77,94.77,0,0,0-14.21-4.19A11.05,11.05,0,0,0,521,571a2.21,2.21,0,0,1-1.85.51c-2.61-.74-4.23.26-5.53,2.5a10,10,0,0,1-7.33,5.29c-.57.09-1.72-.28-1.76-.57-.3-2-.37-3.94-.54-6.26l3.2,1.71c-.92-2.71-1.59-4.79-2.32-6.85-.48-1.35-1.52-2.68-1.49-4,.12-4.28-2.05-6.77-5.56-8.71-6.09-3.36-12.19-6.71-18-10.44a18.47,18.47,0,0,0-15.11-2.48,29.49,29.49,0,0,1-16.53-1c-6.38-2.1-12.75-4.28-19.63-3.9a5.52,5.52,0,0,1-1.42-.34l-2.82,3.51c-2.3-4.19-4.45-8.2-6.73-12.13a12.23,12.23,0,0,0-2.34-2.25,8.83,8.83,0,0,1-1.93-1.93c-1.6-3.12-2.73-6.52-4.63-9.43-3.24-5-8.33-7-14.19-8,0-.26.11-1,.21-1.64,1.48-9.72,3.33-19.4,4.35-29.17,1.09-10.49,1.45-21.06,2.06-31.6.7-12.22,1.28-24.46-.38-36.65-.69-5.05-2.11-10-2.88-15.05-1.82-11.83-4.5-23.41-9.11-34.47-4.79-11.51-11-22-21.36-29.56a3.77,3.77,0,0,1-1-2.68c-.26-9.44-.48-18.87-.6-28.3-.05-3.66.66-7.4.12-11A116.36,116.36,0,0,0,362.12,271c-.78-2.69-.61-5.81-3.44-7.78-1.21-.84-1.66-2.71-2.65-4-9.21-11.53-19.79-21.8-30.86-31.46a126.84,126.84,0,0,0-20.53-14c-5.05-2.9-10.39-6.59-16.95-4.06-.1,0-.27-.12-.62-.28.14-.63.3-1.29.45-2,1.08-5,2.58-9.94,3.14-15,1.19-10.72,2.11-21.48,2.69-32.25.26-4.75.21-9.78-1.11-14.27a116.08,116.08,0,0,0-7.92-19.19c-3.67-7.29-7.4-14.51-9.63-22.4-.18-.63-.39-1.71-.11-1.92,2.43-1.8,1-3.64-.23-4.87a31.87,31.87,0,0,0-7.11-5.6c-13.24-7-27.4-8.21-42-5.82-4.3.71-8.51,2-12.93,3.06-.67-2.42-2.27-2-3.77-.75q-5.79,4.67-11.41,9.52-11.08,9.54-22.07,19.19a19.61,19.61,0,0,0-7,15c-.09,4.7,2.48,7.89,5.26,11.13a4,4,0,0,1,1.13,2.51c-.17,2.63-.67,5.23-1,7.85-.27,2.11.06,4.29,1.94,5.33,2.73,1.52,2.43,3.6,2.24,6.11-.38,4.82-.42,9.68-.51,14.53a3.9,3.9,0,0,0,.72,2.43,18.22,18.22,0,0,1,4.87,13.1,9.24,9.24,0,0,0,.69,3.74q3.57,8.5,7.37,16.92c1,2.32,2.58,2.86,5.14,2.2.6-.16,1.21-.3,1.81-.45,2.72,8.3-8.16,42.56-15.51,48.25-.78-5.48-1.34-10.79-2.34-16A99.63,99.63,0,0,0,176.06,234c-1.7-4.59-7-5.13-10.42-1.57-2.47,2.59-3.84,6.33-7.78,7.37-.07,0-.13.1-.19.15a22.65,22.65,0,0,0-6.42,10.44c-.33,1.26-1.5,2.28-2.22,3.45s-1.95,2.5-2.11,3.85c-.43,3.56-.37,7.18-.6,10.76a5.09,5.09,0,0,1-.77,2.67c-2,2.46-2.24,5.23-1.91,8.17.25,2.31.7,4.61.73,6.92q.31,22.29.41,44.6c0,1.15-.83,2.36-1.43,3.45-1.08,2-2.49,3.75-3.37,5.78a215.47,215.47,0,0,1-20.44,36.27,25.27,25.27,0,0,0-4.74,14.52c-.07,4.48-.22,9-.55,13.42a126.94,126.94,0,0,0,1.89,30.09c.81,4.8,1.34,9.65,2,14.47.19,1.33-.43,1.94-1.55,2.58-3.32,1.9-6.82,3.64-9.73,6.07Q94.74,467.6,83,478.26c-10.46,9.54-20.7,19.29-31,28.95-1.6,1.49-2.68,3.16-2.19,5.5,1.87,8.84,1.82,17.79,1.63,26.76a5.1,5.1,0,0,1-.49,2.06c-5.21,11-10.2,22.07-15.78,32.86-4.87,9.43-10.4,18.53-15.68,27.76-2.26,3.94-4.39,8-3.17,12.66a9.89,9.89,0,0,0,2.61,4.9,5.78,5.78,0,0,1,2.34,3.89c1.6,13,3.33,26,4.71,39,.87,8.19,1.06,16.44,1.83,24.64C28.94,699.24,32.07,710.81,35.13,722.06Zm131.3-549c1.22-1.82,1.28-3.09-.32-4.55a62.68,62.68,0,0,1-5.64-6.2c-18.6-22.14-25.86-47.21-18.3-75.53,6.29-23.57,21.12-41,41.68-53.54,25.6-15.6,53.48-20.1,82.85-15.17,24.2,4.07,45.48,14.4,62.07,32.7,23.54,26,30,55.78,16.59,88.64-8.66,21.23-24.75,36-44.8,46.56-2.76,1.46-2.86,1.76-1.12,4.51.56-.26,1.14-.51,1.71-.79a101.81,101.81,0,0,0,30.55-22.85c22.72-25.46,30.08-54.57,19-87.2C342.59,56,326,39.23,304.33,27.43,279,13.61,251.82,9.7,223.48,14.6c-23.7,4.1-44.56,14.16-61.53,31.46-16,16.32-25.45,35.75-26.14,58.83-.8,26.37,9.67,48.14,28.2,66.39A23.79,23.79,0,0,0,166.43,173.1Z" transform="translate(0.04 0.44)"/><path d="M35.13,722.06c-3.06-11.25-6.19-22.82-7.32-34.79-.77-8.2-1-16.45-1.83-24.64-1.38-13-3.11-26-4.71-39a5.78,5.78,0,0,0-2.34-3.89,9.89,9.89,0,0,1-2.61-4.9c-1.22-4.71.91-8.72,3.17-12.66,5.28-9.23,10.81-18.33,15.68-27.76C40.75,563.6,45.74,552.5,51,541.53a5.1,5.1,0,0,0,.49-2.06c.19-9,.24-17.92-1.63-26.76-.49-2.34.59-4,2.19-5.5,10.34-9.66,20.58-19.41,31-28.95q11.68-10.65,23.85-20.79c2.91-2.43,6.41-4.17,9.73-6.07,1.12-.64,1.74-1.25,1.55-2.58-.69-4.82-1.22-9.67-2-14.47a126.94,126.94,0,0,1-1.89-30.09c.33-4.46.48-8.94.55-13.42a25.27,25.27,0,0,1,4.74-14.52A215.47,215.47,0,0,0,140,340.05c.88-2,2.29-3.82,3.37-5.78.6-1.09,1.44-2.3,1.43-3.45q-.08-22.31-.41-44.6c0-2.31-.48-4.61-.73-6.92-.33-2.94,0-5.71,1.91-8.17a5.09,5.09,0,0,0,.77-2.67c.23-3.58.17-7.2.6-10.76.16-1.35,1.34-2.6,2.11-3.85s1.89-2.19,2.22-3.45A22.65,22.65,0,0,1,157.67,240c.06-.05.12-.13.19-.15,3.94-1,5.31-4.78,7.78-7.37,3.38-3.56,8.72-3,10.42,1.57a99.63,99.63,0,0,1,3.87,15.76c1,5.22,1.56,10.53,2.34,16,7.35-5.69,18.23-39.95,15.51-48.25-.6.15-1.21.29-1.81.45-2.56.66-4.09.12-5.14-2.2q-3.81-8.4-7.37-16.92a9.24,9.24,0,0,1-.69-3.74A18.22,18.22,0,0,0,177.9,182a3.9,3.9,0,0,1-.72-2.43c.09-4.85.13-9.71.51-14.53.19-2.51.49-4.59-2.24-6.11-1.88-1-2.21-3.22-1.94-5.33.34-2.62.84-5.22,1-7.85a4,4,0,0,0-1.13-2.51c-2.78-3.24-5.35-6.43-5.26-11.13a19.61,19.61,0,0,1,7-15q11-9.66,22.07-19.19,5.63-4.86,11.41-9.52c1.5-1.21,3.1-1.67,3.77.75,4.42-1.06,8.63-2.35,12.93-3.06,14.56-2.39,28.72-1.23,42,5.82a31.87,31.87,0,0,1,7.11,5.6c1.25,1.23,2.66,3.07.23,4.87-.28.21-.07,1.29.11,1.92,2.23,7.89,6,15.11,9.63,22.4A116.08,116.08,0,0,1,292.24,146c1.32,4.49,1.37,9.52,1.11,14.27-.58,10.77-1.5,21.53-2.69,32.25-.56,5.06-2.06,10-3.14,15-.15.68-.31,1.34-.45,2,.35.16.52.32.62.28,6.56-2.53,11.9,1.16,16.95,4.06a126.84,126.84,0,0,1,20.53,14c11.07,9.66,21.65,19.93,30.86,31.46,1,1.24,1.44,3.11,2.65,4,2.83,2,2.66,5.09,3.44,7.78a116.36,116.36,0,0,1,3.69,15.11c.54,3.56-.17,7.3-.12,11,.12,9.43.34,18.86.6,28.3a3.77,3.77,0,0,0,1,2.68c10.32,7.56,16.57,18.05,21.36,29.56,4.61,11.06,7.29,22.64,9.11,34.47.77,5,2.19,10,2.88,15.05,1.66,12.19,1.08,24.43.38,36.65-.61,10.54-1,21.11-2.06,31.6-1,9.77-2.87,19.45-4.35,29.17-.1.68-.18,1.38-.21,1.64,5.86,1,10.95,3,14.19,8,1.9,2.91,3,6.31,4.63,9.43a8.83,8.83,0,0,0,1.93,1.93,12.23,12.23,0,0,1,2.34,2.25c2.28,3.93,4.43,7.94,6.73,12.13l2.82-3.51a5.52,5.52,0,0,0,1.42.34c6.88-.38,13.25,1.8,19.63,3.9a29.49,29.49,0,0,0,16.53,1,18.47,18.47,0,0,1,15.11,2.48c5.85,3.73,11.95,7.08,18,10.44,3.51,1.94,5.68,4.43,5.56,8.71,0,1.32,1,2.65,1.49,4,.73,2.06,1.4,4.14,2.32,6.85l-3.2-1.71c.17,2.32.24,4.31.54,6.26,0,.29,1.19.66,1.76.57a10,10,0,0,0,7.33-5.29c1.3-2.24,2.92-3.24,5.53-2.5A2.21,2.21,0,0,0,521,571a11.05,11.05,0,0,1,10.71-3.48,94.77,94.77,0,0,1,14.21,4.19c3.8,1.37,5.54,4.18,6.08,8.53a425,425,0,0,1,2.68,43.08c.13,5.5,1.09,11,1.57,16.47a108.42,108.42,0,0,1-1.76,32.2,49,49,0,0,1-2.16,6.85,8.11,8.11,0,0,1-1.89,3c-8.5,7.76-19.12,8-27.34.27a4.38,4.38,0,0,0-3.3-1.32,36.13,36.13,0,0,1-6-1.16c-1.94.45-4.19,1.38-6.47,1.44-5.55.14-11.13,1.49-16.68-.38-.82-.28-2.1.54-3.06,1.05-10.76,5.73-21.87,10.59-33.76,13.42-8.62,2-17.27,4-26,5.64-7.46,1.4-15,.66-22.46-.44-13.43-2-26.85-4.14-40.27-6.24-4.73-.74-9.45-1.55-14.72-2.41l4.22-.54,0-.31c-.79-.06-1.58-.18-2.36-.17-13.51.09-27.06-.47-40.43,2.08-3.83.73-7.56,2-11.39,2.82-7.67,1.54-15.4,2.8-23.06,4.37-4.13.85-8.12,2.42-12.26,3.12a27.69,27.69,0,0,1-16.8-2.59,37.33,37.33,0,0,0-6.87-1.93c-2.62-.67-5.36-1-7.89-1.92-10.37-3.74-21.22-5.24-32-7.08a3.13,3.13,0,0,0-2.21.54c-6.78,5.36-14.93,7.48-23,9.8-2.46.7-5,1-7.45,1.81a13.41,13.41,0,0,0-4.12,2.19c-3.45,2.67-7.52,3.6-11.65,3.91-5.25.4-10.54.12-15.8.46a18.63,18.63,0,0,0-6.3,1.81,5.56,5.56,0,0,1-4.53.3,6.09,6.09,0,0,0-4,.08c-3,1.25-5.84,3-8.82,4.3-3.34,1.5-6.86,1.64-10.54,1.57a184.17,184.17,0,0,0-21.79.6c-13.59,1.35-27.13,3.26-40.69,4.89C39,722,37.26,722,35.13,722.06ZM190.14,335l-2.36-2.3c-3.18,6-6.16,11.51-9,17.1a6.17,6.17,0,0,0-.17,2.38l.86.11c.32-.71.61-1.43,1-2.12,1.78-3.57,3.4-7.24,5.45-10.66,1-1.76,2.88-3.06,4.37-4.58-1.86,3.71-3.79,7.39-5.54,11.14-1.31,2.82-2.37,5.76-3.58,8.62a2.12,2.12,0,0,0,1,3c1.92,1.11,3.92,2.09,5.77,3.32,3.09,2.05,6.1,4.23,9.12,6.38,6.11,4.36,12.41,8.48,18.23,13.19,4,3.25,8.53,6.26,10.69,11.36,0,.05.27,0,.85,0-.32-8.15-.45-16.3-1.05-24.4a26.69,26.69,0,0,0-5-13.3c-1.65-2.35-3.09-4.84-4.76-7.18a5.77,5.77,0,0,0-2.34-1.8c-3.66-1.56-7.42-2.89-11.06-4.49C198.33,339,194.26,336.92,190.14,335ZM230,255.74a6.21,6.21,0,0,0,1.08-.48c5.9-4.25,11.85-8.43,17.65-12.81,4.18-3.16,7.31-6.92,4.88-12.71a6,6,0,0,1-.23-1.42c-2-14-1-27.92,1.16-41.8,1.32-8.55,2.76-17.08.38-25.68a7.61,7.61,0,0,1,0-1.91l.73-.13c.87,2.69,2.27,5.33,2.5,8.07a126.74,126.74,0,0,1,.19,15.1c-.26,8-.76,16.05-1.16,24.07l-1,0,.84-21.25h-.59c-4.27,24.27-4.2,48.14,7.05,71l-.77.24c-1.85-3.86-3.71-7.72-5.5-11.46-2.54,2.64-4.92,5.31-7.5,7.78C242,259.73,232.5,264.82,223.83,271c-1.76,1.26-3.65,2.33-5.48,3.49l-.41-.54,3.78-3.25-.32-.5a45.18,45.18,0,0,1-5.73,2.17,17.19,17.19,0,0,1-5,.14c-.31,0-.91-1.48-.76-1.62,2-1.85.79-4.07.79-6.1a73.61,73.61,0,0,1,6-28.67c1.51-3.62.21-6.6-.54-10.08a32.88,32.88,0,0,0-5,5.72c-6.5,9.66-13.55,19-19,29.36-3.08,5.89-5.84,12.17-11.6,16.23a1.47,1.47,0,0,0-.53,1.21c.36,2.08.83,4.14,1.35,6.66,1.39-3,2.4-5.58,3.77-8,.67-1.16,2.24-2.89,3-2.71,2.15.49,1.13,2.63,1,4.08-.54,6.46-1.07,12.88.11,19.36a49.25,49.25,0,0,1,.86,11c-.3,6.29-1.1,12.55-1.73,18.82-.12,1.14-.45,2.25-.72,3.56l1.9.77c.56-3.4.86-6.66,1.66-9.79,2.06-8,4.35-16,6.53-24,2.77-10.12,5.53-20.24,10.14-29.73.11-.21.41-.33,1.05-.83-.43,4.41-.52,8.39-1.25,12.23-2,10.45-4.31,20.86-3.45,31.6.54,6.84,1.54,13.65,2,20.49.15,2.25.46,4.11,2.22,5.56l-1.53.32-.11.74,5.87,3,.66-.93-2.35-1.79c3.53,2.29,7.12,4.49,10.56,6.9,2.39,1.67,4.57,3.63,6.84,5.46l.57-.32c-.23-2.35.21-5.08-.86-6.93a6.68,6.68,0,0,1-.86-4.8c.56-3.8,1-7.62,1.92-11.34,3.25-13.69,6.65-27.34,10-41,.61-2.47.75-5.33,2.13-7.29,5.86-8.35,9.11-17.93,13.46-27a6.47,6.47,0,0,1,1.29-2,1.67,1.67,0,0,1,1.52-.2,1.6,1.6,0,0,1,.81,1.28,23.52,23.52,0,0,1-.8,4.57c-3.16,10.23-7,20.29-9.44,30.67-3.43,14.42-2.69,29.26-2.36,44,.09,3.75,1.35,7.57,2.63,11.16,2.52,7.12,9.3,8.11,13.85,4.83,3.33-2.39,4-2.1,6.36,1.22a9.93,9.93,0,0,0,1.94,2.42,7,7,0,0,0,3.38,1.31c.51,0,1.53-1.28,1.56-2a50.66,50.66,0,0,0-.45-5.62c-.38-5.18-.85-10.35-1.05-15.52-.12-3.1.2-6.22.34-9.33.12-2.7-1.43-5.17-.08-8.2,1.11-2.47.36-5.72.72-8.59,1.39-11.18,2.82-22.36,4.39-33.52.45-3.24,1.39-6.42,2.11-9.63l.52.11L278.33,294l.57.16c.33-.67.72-1.32,1-2,1.8-4.61,3.59-9.23,5.33-13.86,3.17-8.39,5-17.28,9.26-25.28.33-.63.56-1.31.84-2l.53.17V267c.28-.88.47-1.46.66-2.05-.46,2.71-1.69,4.95-2.1,7.33-1.19,6.93-1.82,14-3.12,20.87s-.81,13.73-2.73,20.38a6,6,0,0,0,.1,1.5c1-1.21,1.74-2.09,2.46-3l.48.37-3.9,7.1.61.36c1-1.46,2.07-2.91,3.1-4.36l.49.27-4.76,8.65.51.27,3.33-4.1.36.25-5.2,9.62.71.41,2.69-3.36.35.2c-.46,1.23-.91,2.46-1.36,3.68l.33.13,3.05-4.29.54.33c-1,2.05-2.14,4.05-3,6.16-1.58,3.89-3.6,7.73-4.34,11.8-1.54,8.32-2.39,16.77-3.42,25.19a3.58,3.58,0,0,0,.92,2.44A121,121,0,0,1,302.56,403c1.47,3.19,2.8,6.44,4.25,9.78l.57-1.08c2,3,3.41,6.27,6.81,7.9.25-.45.46-.65.47-.86.69-9.1,4.8-17.16,7.6-25.63,1.57-4.72,2.64-9.6,1.35-14.8-1.95-7.89-3.41-15.89-5.07-23.85,4.08,8.31,6.55,17.2,9.16,26.06l.87-59c-2.46,6.77-4.87,13.41-7.29,20.05l-.63-.22A20.2,20.2,0,0,1,321,339c2.28-8.41,4.4-16.87,7-25.18a26.76,26.76,0,0,0,.7-11.13c-.5-4.52-1.59-9,.57-13.49a27.52,27.52,0,0,0,1.88-6.43c1.35-6.68,4.86-12.28,8.59-17.79a16.23,16.23,0,0,1,1.15-1.36l.53.3c-1.28,2.62-2.49,5.29-3.88,7.85-1.25,2.31-3.07,4.36-4,6.78-1.76,4.53-3.11,9.23-4.5,13.9a11.75,11.75,0,0,0,0,3.25l.74.08c2.59-8.61,5.26-17.19,10.09-24.9a5.51,5.51,0,0,1-.28,2.27c-2.76,7.66-5.43,15.36-8.43,22.94-.9,2.28-.54,3.92,1,6.24l10-28.38.73.19c-.36,2.17-.73,4.33-1.07,6.5-.11.69-.48,1.76-.18,2,1.56,1.35.63,2.6.1,3.9-2.41,5.92-4.76,11.87-7.28,17.74-1,2.33-.32,4.11,1.13,6.1,2.33-3.77,2.74-8.4,6.31-11.25a6.37,6.37,0,0,1-.36,2.82c-1.2,3.3-2.36,6.63-3.75,9.86-.9,2.07-.38,3.6,1,5.2.76-1.43,1.43-2.7,2.1-4l.93.35-1.33,7.09c3.76.58,3.85-2,4.09-4.43.2-2,.46-3.92.7-6,.12.46.23.87.48,1.78.81-6.57,1.71-12.6,2.24-18.66a86.05,86.05,0,0,0,.28-12.94,29.75,29.75,0,0,0-2.06-8.46c-.84-2.22-1.14-2.11.87-3.51a25.47,25.47,0,0,0-7.86-12.26c-2,5.26-6.54,9-7.14,15.38,2.54-4.16,4.74-7.76,6.93-11.36l.87.5a29.68,29.68,0,0,1-2.09,4.45c-5.8,8.63-9.66,18.1-12.57,28-.68,2.29-1.77,4.46-2.66,6.68l-.41-.15q3.53-13.16,7-26.31l-.35-.18-6.87,9-.51-.37c1.59-2.66,3.21-5.29,4.77-8,1.83-3.16,3.66-6.33,5.38-9.56.9-1.69.49-4.33,3.49-4.35.19,0,.4-.46.57-.73.88-1.32,1.76-2.65,2.73-4.13-.77-.69-1.51-1.33-2.19-1.92l-18.33,27.28-.67-.4c.42-1,.84-1.95,1.27-2.93l-.54-.31q-4.65,7.39-9.3,14.76c.05-.28.1-.59.18-.89,1-3.79,3-7,5.12-10.27,3.5-5.44,6.37-11.27,9.49-16.95,2.3-4.2,4.56-8.44,6.85-12.65.61-1.11,1-2.09-.62-2.41-4.34,7.22-8.58,14.36-12.91,21.45-3.33,5.44-7.18,10.6-9,16.86a9.42,9.42,0,0,1-1.12,1.76v-3l-2.57,2.91-.51-.36,24.51-42.21,5.54,1.74c.06-.72.11-1.34.21-2.48a23.3,23.3,0,0,1,2,1.76c2.49,2.81,4.64,6,7.49,8.4,4.33,3.59,5.6,8.61,7.42,13.44a27.77,27.77,0,0,1,2,6.38c.55,4.59.7,9.23,1,13.84.15,1.92.78,3.88.56,5.74-2.08,16.89-4.71,33.73-6.34,50.66s-2.31,33.68-5.38,50.31c-1.64,8.87-3.56,17.7-5.53,26.51-2.18,9.73-4.55,19.43-6.89,29.13-1.15,4.8-2.34,9.6-3.64,14.36-.63,2.29-2.36,3-4.67,2.66-5.83-1-11.68-1.84-17.49-2.9-5.59-1-11.07-2.14-16.86-1.1-7,1.26-13.88.78-19.69-4.52a16.29,16.29,0,0,1-2.15,1.36c-2.69,1.16-5.33,2.84-8.14,3.22-9.78,1.33-9.47,2.72-15.51-6.08-1.55-2.26-3.11-2.75-5.59-1.62-3.16,1.45-6.21,3.12-9.72,4.9a20.4,20.4,0,0,0,2.18.84c7.19,1.87,14.38,3.75,21.6,5.53.8.2,1.76-.33,2.65-.36a6.52,6.52,0,0,1,3,.28c1.54.8,2.77,2.32,4.36,2.89a46.38,46.38,0,0,0,7.7,1.71c8.2,1.37,16.54,2.13,24.58,4.1,9.93,2.43,19.66,2.07,29.45,0a18.61,18.61,0,0,0,10.39-5.61,4.47,4.47,0,0,0,1.05-2.72c0-6-.44-12-.1-17.93.49-8.82,1.65-17.59,5.28-26.07.33,4.28.67,8.56,1,13a18.11,18.11,0,0,0,.84-1.75c1.66-4.75,3.6-9.43,4.87-14.29,2.17-8.34,3.89-16.81,5.86-25.21,1.52-6.44,3.95-12.79,4.57-19.31q2.24-23.52,3.07-47.16c.56-15.58.52-31.19.34-46.77-.06-5.3-.73-10.76-3.66-15.48a92.68,92.68,0,0,0-18.56-21.79c-4.44-3.78-9.33-7.05-13.65-11-8.54-7.74-18.66-12.81-28.8-17.94-3.17-1.6-5.67-1.36-8.43.82-4.58,3.61-9.46,6.84-14,10.47a16.11,16.11,0,0,0-4.33,5.21,33.5,33.5,0,0,0-3.13,16.56c0,.76,0,1.53,0,2.3h-.69c-.19-1.4-.51-2.8-.56-4.21a34.18,34.18,0,0,1,4-17.33,5.19,5.19,0,0,0,.41-4.27,66.52,66.52,0,0,1-2.32-10.52c-2.05-15.26-1.07-30.49.9-45.68a52,52,0,0,1,1.22-5.3l.66.13c-2.59,20.67-4,41.32.65,62.58,1.32-1.62,2-2.81,2.94-3.55,3.74-2.82,5-6.24,3.09-10.66a2.54,2.54,0,0,1-.09-1c0-7.49-.2-15,.16-22.48.2-4.23,1.35-8.42,2.07-12.63l.78.08c-1.61,13-3.85,26-.91,39.22,5-3.66,5-3.66,5.82-9,1-6.4,2.27-12.76,2.86-19.2.79-8.43,1.05-16.92,1.49-25.39.19-3.66.39-7.33.4-11,0-6.58-3-12.15-6.18-17.65a5.22,5.22,0,0,0-1.9-1.63c-3.73-2.29-7.54-4.45-11.21-6.82a52.86,52.86,0,0,1-5-4.2,23.3,23.3,0,0,0,4.7,11.49c2.84,3.65,6.05,7,9.05,10.54a16.31,16.31,0,0,1,1.39,2.28c-3.61-.82-16.91-12.52-18.72-15.76l11.86,10.49c-.07-.71,0-.9-.1-1-.44-.57-.9-1.13-1.37-1.67-3.78-4.34-6.76-9.13-7.9-14.86a8.35,8.35,0,0,1,.36-2.66,8.75,8.75,0,0,1,2.49.89c2.52,2,4.84,4.19,7.42,6.07,2.06,1.5,4.38,2.65,6.59,3.95l.48-.52c-.35-.77-.71-1.53-1.06-2.3-1.22-2.69-2.47-5.37-3.66-8.07-3-6.68-4-14.11-8.34-20.31-1.66-2.38-3.41-4-6.08-4.45-5.58-1-11.18-2-16.82-2.54-9.65-1-19.29-1-28.87,1.06-3.74.82-6.74,2.35-8.59,5.83-.31.58-1,1.4-1.48,1.38-2.44-.1-2.64,1.87-3.4,3.36a16.93,16.93,0,0,1-2,3.42c-5.88,6.75-11.92,13.37-16.5,21.14-1.41,2.4-2.94,4.73-4.41,7.09l-.27-.18.82-2.48-1.46.57-.45-.35,20.71-28.43-.54-.62a10.88,10.88,0,0,0-2,1.09c-3.62,3.15-7.27,6.27-10.77,9.55a122.35,122.35,0,0,0-9.41,9.51c-2.8,3.26-3,9.2.17,12.06s2.86,5.73,2.73,9c0,.88-.11,1.76-.1,2.64,0,.58.15,1.17.32,2.42,2.39-1.46,4.32-2.81,6.39-3.86,2.22-1.12,4.45-2.08,4.42-5.32l.92.49c-.45,1.93-.9,3.85-1.42,6.05.44.3,2.49.49.78,2.39a19.85,19.85,0,0,0,1.46,1.64c.45-3.76.8-6.77,1.16-9.78l.63.12c.22,9.24-2.24,18-5.39,26.65.07-5.18,2.89-9.91,2.86-15-1.81.68-3.54,1.76-5.34,1.89-2.25.16-2.56,1.14-2.56,3a71.65,71.65,0,0,1-.46,9c-.73,5.65.94,10.64,3.61,15.9,2.59-4.21,4.81-8.35,10.3-8.18a16.53,16.53,0,0,0-9.47,10.09,5.33,5.33,0,0,0,1.71-.76c3.49-2,6.63-4.36,11.2-4a17.49,17.49,0,0,1,9.25,3.25,11.51,11.51,0,0,1,1.66,1.75l-.47.78c-1.72-.76-3.78-1.14-5.07-2.35a8.47,8.47,0,0,0-10.51-.06h7a1.48,1.48,0,0,1-1.19.77c-2.79.15-5.59.19-8.38.44-4.06.36-4.38.82-3.92,4.71a10.53,10.53,0,0,1,.1,1.68c-.19,7.69,4.69,13.45,7.43,20.46l3.26-5.49,1.21,2.9.35-.1.12-2.19a11.88,11.88,0,0,1,1.41,1.08c1.14,1.21,2.19,3.39,3.36,3.45,1.34.07,2.88-1.62,4.14-2.76,3.06-2.77,6-5.66,7.36-9.74.63-1.93,1.27-3.85,1.91-5.78l.47.05v7.18c3.54-2.65,7.33-4,8.76-8,.13-.36.78-.87,1-.79,1.62.58,1.61-.77,2.09-1.6.78-1.37.92-3.34,3.22-3.3.3,0,.65-.65.9-1,.7-1.07,1.32-2.2,2-3.26,4.84-7.2,5.08-15.14,3.45-23.25-.36-1.81-.58-3.1,1.13-4.58a11.45,11.45,0,0,0,.88,2.27c.52.74,1.16,1.75,1.92,1.92,2.88.65,5.69.59,8-1.83s2.21-3-.76-4.54a16,16,0,0,1-1.48-.78c-1.61-1-3.19-2.16-5.17-.74-.2.13-.68-.14-1.37-.31l1.72-1.45c-1.43-1.57-2.81-3.06-4.16-4.57-4.84-5.39-7.49-12-10.46-18.45-.86-1.88-2-3.64-3-5.46l-.58.31c2.62,7.87,3.62,16.38,9.3,23.13-1.7-1.33-3.45-2.72-4.21-4.51a110,110,0,0,1-5.09-14.15c-1.8-6.68-5.23-11.64-11.89-14.14-3-1.14-5.94-2.61-8.9-3.92l.24-.61c4.52,1.68,9.34,2.85,13.48,5.2,3.21,1.82,5.57,5.14,8.34,7.75a16.28,16.28,0,0,0,1.91,1.42c1.81,3.57,3.71,6.68,5,10a21.71,21.71,0,0,0,13.24,13c2.35.87,4.95,1.07,7.75,1.63-9.93-23.7-27.36-37.29-51.46-43a14.47,14.47,0,0,1,5.55.21c11.39,3.42,21.79,8.72,30.56,16.9,6.84,6.38,11.22,14.5,15.62,22.57,1.16,2.13,2.3,3.79,5.05,3.26L258.62,148a87.28,87.28,0,0,0,5.18,7.07,31.49,31.49,0,0,0,6.05,5.43c2.28,1.52,5,2.44,7.6,3.68a16.21,16.21,0,0,1-10.94-4.47,12,12,0,0,0-7.36-3.48c-.87-.08-1.7-.53-2.56-.6-.54,0-1.45.13-1.64.49a10.15,10.15,0,0,1-6.46,5.54c.76,19.05,1.5,37.65,2.24,56.26l-1,.05q-.88-16.33-1.79-32.67l-.58-.15-10.69,14,.28.2,8.94-9.32.62.57a10.53,10.53,0,0,1-.81,1.39c-3,3.64-6.06,7.22-9,10.93a10.68,10.68,0,0,0-2,3.92c-2,8.39-3.5,16.92-5.92,25.19-1.42,4.83-4.26,9.25-6.69,14.36l-1.47-2.76c1,5.32,4.44,9.28,7.57,13.7l1.87-1.63ZM174.73,468c-3.32-1.95-3.29-1.93-5.19,1q-4.18,6.44-8.46,12.8c-.85,1.27-1.82,2.44-2.74,3.66l-.51-.36q5.68-9.65,11.35-19.3c-2.27-1.47-8.25-.28-9.73,1.9-3.77,5.56-7.51,11.13-11.28,16.68-.75,1.11-1.59,2.16-2.39,3.23l-.59-.42,12.22-19.79-.49-.35q-7.57,11.38-15.16,22.77l-.78-.51,11.6-19.94-.49-.4a28.37,28.37,0,0,0-3.28,3.59c-2.22,3.42-4.19,7-6.36,10.45-2.26,3.61-4.64,7.15-7,10.72l-.71-.42,11-19.66-.39-.25-14.27,22.25-.66-.39,4.22-8.37-.26-.14-6.6,9.87-.79-.51,12.18-20.64-.43-.46a9.16,9.16,0,0,0-1.87,1.61c-2.06,3-4,6.18-6,9.23-1.5,2.22-3.14,4.35-4.71,6.52l-.49-.35,10.09-16.54c-1.74-1-2.91-.78-3.8,1a38.24,38.24,0,0,1-2.53,4.07q-4.93,7.47-9.92,14.91l-.79-.48L131,474.14l-.63-.54c-.61.72-1.28,1.39-1.83,2.16-4.78,6.62-8.31,14.1-14.56,19.74-8.84,8-17.27,16.39-25.95,24.55-.85.79-3,1.67-3.2,1.45-1.17-1.57.31-2.6,1.31-3.51,5.78-5.27,11.64-10.46,17.42-15.73a14.27,14.27,0,0,0,2.9-3.41c2.76-5,5.24-10.07,8.06-15,2.66-4.63,5.62-9.09,8.58-13.84-4.08-2.41-6.31-6.19-7.64-10.72a19.68,19.68,0,0,0-1.71,1c-2.42,1.83-5,3.51-7.22,5.55-15.16,13.87-30.16,27.91-45.4,41.68-3.32,3-4.54,5.69-4.26,10.5.72,12,.19,24.11.07,36.18a37.39,37.39,0,0,1-.78,7.62c-.21,1-1.57,1.69-2.4,2.52a11.2,11.2,0,0,1-2.25-2.44,12.88,12.88,0,0,1-.63-3.41,4.18,4.18,0,0,0-1.58,1.88c-7.12,14.94-14.59,29.7-23.44,43.72a46.44,46.44,0,0,0-3.07,5.95c-.8,1.76-.53,3.17,1.6,4,3,1.1,5.89,2.49,8.88,3.61,24.59,9.18,50.18,9.89,75.93,8.63,6.63-.32,12.92-2.23,18.24-6.87,17.61-15.32,35.37-30.46,53.07-45.68.18-.16.22-.49.47-1.06-3.41,0-6.53.06-9.64,0-9.08-.21-17.6-2.37-25-7.8a5.28,5.28,0,0,1-2.1-3.84c.08-1.12,1.6-2.55,2.81-3.08,2.24-1,4.75-1.35,7.11-2.08,3.64-1.14,7.5-1.9,10.83-3.65,9.19-4.84,18.11-10.19,27.21-15.2,17.57-9.68,35.2-19.24,52.76-28.93a4.08,4.08,0,0,0,2-2.73c.13-3.67-.08-7.36-.3-11a2.51,2.51,0,0,0-1.12-1.86c-4.27-1.76-8.61-3.4-12.93-5-1.49-.56-2.5,0-3.37,1.36-1.18,1.89-2.63,3.62-4,5.41-1,1.35-2.8,2.66-2.85,4-.1,2.89-2.5,3.82-3.75,5.67-.29.42-1.22.42-1.85.61,0-.65-.27-1.43,0-1.93a37.71,37.71,0,0,1,2.53-3.78c.56-.78,1.18-1.52,1.75-2.28l1.51-2c-3.74,3.14-6.53,7.12-10.43,9.9l-.83-.79,14.85-16.79c-1.79-1-2.75-.51-3.76.73-4.56,5.67-9.2,11.28-13.85,16.87a39.83,39.83,0,0,1-2.92,2.89l-.75-.68q8.52-10.51,17-21c-1.28-1.09-2.12-.56-3.07.5q-7.84,8.74-15.81,17.38a26.61,26.61,0,0,1-2.54,2.19l-.4-.39,1.45-2.5h-1.86l11.52-14.23-.31-.24L200,499l-.62-.6c.54-.63,1.05-1.29,1.6-1.9,4-4.44,8-8.91,12.16-13.26,1.36-1.43,1.4-2.47-.23-3.79l-15.06,15.95-.76-.71,14.56-16.74c-1.53-2.05-3.27-2.64-7-2.72-2.23-.05-3.87.44-5,2.61a44.81,44.81,0,0,1-4.2,5.83c-1.06,1.37-2.23,2.65-3.34,4l-.38-.32q3.83-6.12,7.66-12.25l-.66-.63a10.18,10.18,0,0,0-2,1.67c-3.24,4.66-6.4,9.38-9.61,14.06-.57.84-1.26,1.6-1.9,2.4l-.56-.45,10.92-17.89c-1.92-1.14-3.11-.73-4.13,1.16-1.31,2.47-2.88,4.8-4.4,7.15-2,3.1-4.09,6.16-6.15,9.25l-.63-.39L188.42,477l-.16-.1-10.57,14.49-.81-.56,12-18.29c-1.41-1.19-2-.31-2.71.71-2.56,3.87-5.11,7.74-7.74,11.56-1.8,2.59-3.73,5.1-5.6,7.64l-.84-.55,12.92-20.56-.55-.35q-7.73,11.88-15.44,23.76l-1-.65,14.25-23.63-.51-.31-14.94,22.49-.92-.6q6.92-11.19,13.83-22.41c-1.59-1.18-2.58-1-3.61.63-2.88,4.42-5.89,8.75-8.9,13.08-2.22,3.19-4.51,6.32-6.76,9.48l-.86-.55ZM356.37,571.72c-.91,0-1.82,0-2.72,0-7.16-.26-13.56-2.91-19.6-6.48-10.5-6.19-18.76-14.84-26.07-24.45-2.78-3.65-5.32-7.48-8-11.23l-.77.31c2,5.26,3.41,10.82,6,15.72,7.07,13.16,14.24,26.3,23.54,38.09s19.43,22.74,32.48,30.57c2.25,1.35,2.51,1.29,3.21-1.23,1.67-6.09,3.23-12.21,5-18.27,5.12-17.42,10-34.91,12.75-52.88,2.39-15.41,4.41-30.87,6.71-46.29,3.11-20.88,5.39-41.85,6.63-62.94,1.28-21.79-3-42.65-10.39-63A123.23,123.23,0,0,0,369.83,340c-1.07-1.5-2.34-2.85-3.82-4.63-.75,6-1.37,11.41-2.1,16.78-.79,5.85-2.29,11.68-2.42,17.54-.43,18.79-.37,37.59-.47,56.38a32.57,32.57,0,0,0,.4,5c.09.55.86,1.52,1.07,1.45,2.39-.71,5.75-.88,6.92-2.55,5.63-8,10.81-16.41,13.73-25.95.75-2.48,2.26-4.72,3.41-7.05,2.13.94,2.17,2.32,2,4.08-.85,11.67-5.45,22.1-10.41,32.43a41.55,41.55,0,0,0-2.43,6.24c-4.43,15-11.4,28.49-23.16,39.09-3.71,3.34-7.86,6.21-11.95,9.4.62.27,1.3.6,2,.87,6.35,2.36,12.89,2.69,19.61,2.21,4.33-.31,8.26-1.58,10.78-4.9,5.36-7,10.22-14.46,15.28-21.72.22-.32.48-.62.72-.92l.7.29a93.75,93.75,0,0,1-3.13,9.7c-1.92,4.38-4.38,8.52-6.46,12.83a42.27,42.27,0,0,1-12.12,15,3.69,3.69,0,0,0-1.34,1.56,10.49,10.49,0,0,1-6.71,6.74,60.4,60.4,0,0,1-11.65,3.55c-4.56.76-9.26.69-13.84,1a2.69,2.69,0,0,0,.51.64,71.66,71.66,0,0,0,21.53,13.68c3.76,1.47,8.15,1.43,11.21,4.58.63.66,1.21,1.37,1.81,2-1,.29-2,1-2.87.8A68.74,68.74,0,0,1,346.91,529c-1-.59-2.06-1.21-3.09-1.82s-1.89-1.14-2.83-1.7a107.62,107.62,0,0,0,25.46,20.24,28.75,28.75,0,0,1,4.57,2.6c.87.74,1.17,2.15,1.73,3.26a16.49,16.49,0,0,1-3.37,1.61,6.14,6.14,0,0,1-2.82-.41c-8.2-2.36-16.41-4.71-24.59-7.17-1.41-.42-2.4-.53-3.06.91,5.67,5.72,12.79,9,19.77,12.58a2.85,2.85,0,0,1-1.28.16c-.56-.06-1.11-.15-1.66-.26-6.64-1.32-12.11-4.8-17.1-9.21-2.81-2.48-5.44-5.33-8.62-7.22a125.91,125.91,0,0,1-19.44-14.36c-4.25-3.79-8.78-7.28-13.19-10.9,3.45,8.67,8.55,16.23,14.27,23.4C323.44,555.43,337.49,566.92,356.37,571.72Zm-137,13.67c-.64,4.15-1.81,8.31-1.83,12.48-.05,11.27.21,22.55.68,33.81.51,12.08,4.93,23.21,9.17,34.35a79.31,79.31,0,0,0,12.52,21.13c3.16,4,7.23,5.07,11.46,5.83,4.44.81,9.08.53,13.62.82,1.79.12,2.35-.59,2.45-2.31.4-7.26.91-14.51,1.4-21.77.29-4.38.87-8.77.88-13.15,0-8-.55-16-.41-24,.29-16.86.89-33.72,1.35-50.59,0-1-.08-2-.14-3.22C253.89,584.93,236.9,585.27,219.33,585.39Zm1.78-235.75a6.77,6.77,0,0,0,.64,1.15c5.59,6.53,7.83,14.27,7.69,22.67-.31,20.47-.72,40.93-1.36,61.39-.15,4.81-1.37,9.58-2.06,14.37a3.63,3.63,0,0,0,.38,1.33,200,200,0,0,0,5.3-21.71c.53-3-.11-6.28-.35-9.42a23.6,23.6,0,0,0-.95-3.74l2.41,1.49c.5-6.91,1-13.55,1.45-20.2l.36,0q.54,3.07,1.09,6.14l.29,0q.56-3.26,1.09-6.51l.6.07c-.61,7.64-1,15.31-1.89,22.92-1,8.13-1.91,16.19.36,24.24.41,1.45.89,2.88,1.51,4.85,2.68-4.81,5.12-8.93,7.3-13.19a20.65,20.65,0,0,0,2.08-6.22c1.3-8.89,1.19-18,4-26.67-.15,9.19-.49,18.37-.94,27.55-.16,3.27,3,7.63,5.86,7.94q.76-7.95,1.55-15.92l.8.06v14.52c2.82-.22,3.75-1.57,3.9-4.14a59.35,59.35,0,0,1,1.46-7.84l.68.09q-.4,5.76-.82,11.52l.21,0,3.06-16.55.82.11a29.19,29.19,0,0,1,0,4c-.58,4.36-1.32,8.7-1.9,13.05a7.53,7.53,0,0,0,.46,2.36l.75-.09,3.8-19.35.65.1c.83,6.64-1.28,13-1.86,19.76a.78.78,0,0,0,.65-.7c.67-3.77,1.43-7.54,2-11.33s3.28-6.92,2.56-10.93c0-.21.15-.45.36-1.1.39,1.59.66,2.71.93,3.82l.92-.17c-.62-4.89-.6-10-2-14.63a107.34,107.34,0,0,0-13.49-29,10.47,10.47,0,0,0-3.76-3.14c-5.28-2.83-10.66-5.46-16-8.2-3.39-1.75-6.75-3.54-10.11-5.34-.47-.25-1.07-.58-1.24-1C228.73,353.61,224.2,352.45,221.11,349.64ZM393.87,509.17c-1.21,3.95-2.57,7.79-3.54,11.73a49.17,49.17,0,0,0-1.25,8.64c-.28,4.13.27,8.39-.47,12.42a334.42,334.42,0,0,1-18.16,62.75,4,4,0,0,0-.51,1.82c.29,2.31.67,4.62,1.12,6.91.29,1.47.75,2.9,1.14,4.36l1.19.12c2.63-6.16,5.56-12.22,7.67-18.58s3.7-13.06,5.56-19.6,3.69-12.77,5.54-19.16l.9.21c-1.25,8.76-2.35,17.55-3.81,26.27-1,5.9-2.68,11.68-3.68,17.58-1.46,8.57-2.64,17.2-3.81,25.82-.3,2.25-.64,4.75,0,6.82a7.68,7.68,0,0,0,4,4c1.91.86,3.25-1,4.09-2.55,5.17-9.31,10.3-18.8,12.45-29.22,3.2-15.48,5.58-31.15,7.79-46.81,1.32-9.39,2.31-18.93.84-28.44-1.2-7.76-4-14.82-10.33-20C398.44,512.53,396.18,510.91,393.87,509.17Zm37.44,32.48-.06.67c.15.17.28.43.46.48,6.85,1.84,10.5,6.92,13.13,13a64.09,64.09,0,0,1,4.87,20.2,22.22,22.22,0,0,0,2.71,9.56,99.48,99.48,0,0,1,9.93,24.86,63.29,63.29,0,0,0,2.7,8.19,21.88,21.88,0,0,0,8.73,10.25c4,2.54,7,1.59,8.16-3a143.86,143.86,0,0,0,3.67-18.78c1-9.2,1.07-18.51,2.08-27.72.7-6.42,2.29-12.73,3.53-19.08.23-1.21.26-2.06-1-2.79-4.73-2.66-9.49-5.32-14.05-8.26a12.26,12.26,0,0,0-10.06-1.52,29.09,29.09,0,0,1-16.1-.31c-5.3-1.77-10.54-3.73-15.83-5.52A12.06,12.06,0,0,0,431.31,541.65ZM158,297.88l-.89,0c-2.42-8.59-1.91-17.61-3.31-26.38a2.49,2.49,0,0,0-.45,1.11,121.14,121.14,0,0,0,.94,38.89c.1.52.4,1.44.61,1.44,2.36,0,1.75,1.92,1.93,3.15,1,6.87,1.88,13.78,3,20.63a7.18,7.18,0,0,0,2.31,3.95,86.94,86.94,0,0,0,8.05,5.61c2.16,1.4,4.43,2.63,6.5,3.85,1.73-4.58,3.07-8.76,4.9-12.72,1.12-2.42,3.6-4.3,4.36-6.77.81-2.65.3-5.7.4-8.58,0-.71.18-1.43.23-2.14.36-4.36,1.37-8.79.91-13.06a125.45,125.45,0,0,1-.64-24.88,9.07,9.07,0,0,0-.16-1.71l-.64-.1c-1.22,3.49-2.44,7-3.87,11l-3-5-2.54,2.86c-1.44-1.74-.18-2.85.7-3.8a4.12,4.12,0,0,0,1-4.14c-.92-4.13-1.71-8.29-2.4-12.47-.9-5.49-1.66-11-2.51-16.7-.37.41-.65.71-.91,1-1-5.64-1.88-11.23-2.93-17.48-2.39,2.6-3.93,4.52-3.64,7.51,1.2,12.33,2.29,24.67,3.39,37,.12,1.28,0,2.57,0,3.86l-.76,0c-3.92-13.1-4.31-26.72-5.15-40.85-2.6,5-2.71,5.57-2.57,10,.09,2.55-.09,5.12.14,7.66.88,9.55,1.9,19.09,2.84,28.64.13,1.21.17,2.44.24,3.66l-.79.08c-3.67-12.24-4.33-25-5.33-37.65-.74,2.93-3,5-2.53,8.64,1.39,10.44,2,21,2.85,31.51A10,10,0,0,1,158,297.88Zm54.14,373.89,1.23-.32c-.33-10.11-.29-20.26-1.08-30.34-1.16-14.74-3.42-29.4-4.29-44.15-1.13-19.32-1.37-38.68-2-58a14.25,14.25,0,0,0-.34-1.88c-4.27,2.21-8.25,4.36-12.3,6.37-12.59,6.26-23.55,15.8-38.25,18.92a11.25,11.25,0,0,0,2.13,1.18c3.16.83,6.31,1.7,9.51,2.32,6.56,1.26,13.35-.31,19.94,2,2.35.82,3.63,1.73,4.13,3.76a46.35,46.35,0,0,1,1.43,8.49c.92,17.17,1.65,34.35,2.59,51.51a25.93,25.93,0,0,0,1.63,7.91c2.12,5.43,4.47,10.79,7,16C206.19,661,209.25,666.36,212.14,671.77Zm52-123.06-.89-.34c-1.37,1.69-2.81,3.33-4.06,5.1a1.86,1.86,0,0,0,.25,1.8c5.26,4.41,10.5,8.83,15.91,13a71.39,71.39,0,0,0,8.68,5.55,5.69,5.69,0,0,1,2.94,4.78c1.43,10.77,1.05,21.53.26,32.31-1.15,15.47-2.3,30.93-3.29,46.41-.45,7-.6,14-.74,21.08-.07,3.22.21,6.45.35,10.08a10.58,10.58,0,0,0,1.66-1c5.26-5.12,10.58-10.18,15.7-15.45a8.2,8.2,0,0,0,1.68-4.37,43.72,43.72,0,0,0,.2-6.68c-.07-5.75-.34-11.51-.28-17.26.15-13.1.74-26.21.6-39.31-.1-8.6-1.16-17.18-1.78-25.78-.05-.55-.31-1.33-.05-1.62,1.93-2.15.6-3.45-1.11-4.64-3.68-2.56-7.4-5-11.88-6a24.56,24.56,0,0,1-6.61-2.76c-4.2-2.47-8.24-5.19-12.32-7.84C266.81,554.09,264.27,552.36,264.17,548.71ZM151.78,350.16c-.15,1.93-.24,3.66-.43,5.39-1.55,14.42-3.18,28.83-4.65,43.26-.92,9,1.33,17.47,4.62,25.7a6.64,6.64,0,0,0,9.33,3.61,20.29,20.29,0,0,0,6.65-4.89c4.31-5.25,6.22-11.66,7.21-18.27.86-5.69,1.31-11.44,1.91-17.16a10.53,10.53,0,0,0-.07-1.7l-2.76,1.66c.29-1.26.48-2,.61-2.68.7-3.6,1.82-7.17,2-10.79a111.13,111.13,0,0,0-.75-14.1c-.21-2.33-.63-4.53,3.1-5.6-2.11-1.19-3.52-2-4.94-2.78s-3.17-1.55-4.6-2.53c-2.24-1.54-4.15-3.67-6.55-4.82-4.92-2.34-6-7.4-7.14-11.45-2-7.16-2.15-14.83-3.11-22.27-.28-2.16-.67-4.29-1-6.44l-.72,0c-.06.83-.17,1.66-.18,2.48,0,5.36.11,10.72-.07,16.07-.13,3.82-.15,7.77-1.15,11.41-2,7.44.24,12.13,7.56,14.07,1.16.31,2.3.67,3.43,1.07a12.38,12.38,0,0,1,1.75,1C158.08,352.25,155,351,151.78,350.16ZM502.89,675.71l.23-.82-10-5.33a12.56,12.56,0,0,0-10.46-.8,77.1,77.1,0,0,0-10.47,4.66c-6.21,3.3-12.27,6.87-18.4,10.3-4.38,2.45-9,2.8-13.95,2.1-10.45-1.49-20.87-3.41-31.37-4.09-17.43-1.11-34.6-4-51.87-6.19-4.32-.55-8.52-.73-12.57,1.52-1.6.89-3.66,1.06-5.53,1.33-7,1-14.15,1.53-21.1,2.93-5.85,1.17-11.44,3.42-17.54,3.63-3.61.13-5.47,3.33-7.87,5.59a6.1,6.1,0,0,0,2.68-.09c6.93-1.56,13.8-3.52,20.8-4.62,14.53-2.29,29.22-1.21,43.84-1.37a9.53,9.53,0,0,1,3.49.7c1.79.71,2.2,2.24,1.24,3.92-.24.43-.51.84-.93,1.52,13.68-.62,26.8,1.19,40,3,7,1,14.32,2,21.22,1.08,11.2-1.52,22.23-4.43,33.22-7.2,9.66-2.43,18.6-6.79,27.36-11.48a11.3,11.3,0,0,1,9.16-1.08C496.8,675.75,499.91,675.49,502.89,675.71ZM145.62,341.63h-.71c-.08.64-.19,1.29-.24,1.93-.09,1.34.3,2.92-.28,4-3.59,6.59-7.26,13.14-11.16,19.55-2.94,4.84-6.45,9.33-9.35,14.2a18.25,18.25,0,0,0-2.6,7.55,201.87,201.87,0,0,0,3.51,58.64c1.94-.2,3.53,1.77,3.35,4.28-.06.75,0,1.9.43,2.24,3.32,2.48,6.78,4.77,10.17,7.18,5.87,4.16,11.34,2.06,16.71-1.09a52.49,52.49,0,0,0,5.43-3.52c4-3.06,8.18-5.92,11.72-9.44,3.35-3.35,5.7-7.7,9-11.13,2.79-2.89,3.28-6.21,3.54-9.81.28-3.91.55-7.82.86-11.73.72-9,1.46-18,2.17-27a14.5,14.5,0,0,0-.14-2.07,3.17,3.17,0,0,0-.75,1.85c-1.21,7.89-2.15,15.83-3.72,23.64-2.18,10.85-7.9,20.18-13.86,29.3a10.23,10.23,0,0,1-4.76,4.15,57.94,57.94,0,0,1-12.38,2.48c-4.19.37-8.53.34-12.58-2.68L144.06,460c-.58-.05-.76-.21-.86-.41-.48-1-1-2-1.4-3.05-8.06-19.22-13.56-39-12-60.1.54-7.28.88-14.67,4.43-21.45,4.08-7.78,7.79-15.75,11.7-23.63.57-1.16,1.33-2.23,1.87-3.11C147.06,346.05,146.34,343.84,145.62,341.63ZM511.19,654.84l.81.35c.76-.94,1.6-1.81,2.26-2.81q4.4-6.69,8.68-13.45a2.94,2.94,0,0,0,.47-2.13c-1.35-4.18-.46-8.15,1.39-11.84A27.84,27.84,0,0,0,528,610.89c-.29-5.89-.92-11.77-1.07-17.67-.08-3.18-1-5.94-3.24-8a67.66,67.66,0,0,0-8.3-6c-.47-.31-1.56.11-2.28.4-2,.8-3.81,2.18-5.84,2.47-2.33.34-2.87,1.19-2.68,3.36,1.54,18.06,2.95,36.13,4.54,54.19C509.61,644.76,510.5,649.79,511.19,654.84Zm-82.91-68.46.63-.1c1,3.42,2.43,6.79,3,10.29,1.21,7.41,1.65,14.95,3.06,22.32.94,5,2.86,9.77,4.66,14.52.69,1.83,2.28,3.54,4.6,3.21s2.56-2.54,2.87-4.26A146.77,146.77,0,0,0,449.5,616c.35-5.69-.13-11.44-.25-17.17l-.79-.25c-.2.48-.39,1-.61,1.5-2-11.39-3.74-22.34-5.91-33.22-1.14-5.71-2.95-11.31-7.05-15.79a9.57,9.57,0,0,0-8.2-3.3c2.41,15.61.84,31.1.81,46.59ZM117.69,706.71c-3.42-1.44-6.45-2.54-9.3-4-2.13-1.07-4-2.6-6-3.88-5.36-3.39-10-8-16.59-9.3a8.46,8.46,0,0,0-5.69.72c-4.83,2.26-9.65,4.77-14.75,6.21A24.51,24.51,0,0,0,53.63,704c-2.73,3-5.08,6.36-7.57,9.58a5.61,5.61,0,0,0-.45,1.46c5.69-.72,11.08-1.36,16.44-2.11,12.84-1.78,25.71-3.3,38.7-3,1.63,0,3.23,1,4.86,1.42.65.19,1.48.55,2,.32C111,710.06,114.42,708.33,117.69,706.71ZM208.6,423.53l-.62,0c-.24-3.14-.54-6.26-.72-9.4-.7-11.81-1.35-23.63-2.06-35.44a14.65,14.65,0,0,0-.77-2.72c-.38.9-.56,1.11-.55,1.32.08,1.83.3,3.67.29,5.5-.06,13.58-.23,27.16-.18,40.74,0,3.31.09,6.87,1.25,9.88,3.22,8.34,9.7,13.43,18,16.29,1.67.57,2.15-.07,2.16-1.67.16-13.92.54-27.83.44-41.74,0-4.4-1.28-8.78-2-13.17l-.68.12c.37,9.78,1.13,19.57-.77,29.31a49.93,49.93,0,0,1-.72-7.79c-.23-7.83-.41-15.66-.66-23.5,0-1.29-.05-2.75-2.15-3.06,1.23,12.51,1.66,24.85.06,37.19a95.22,95.22,0,0,1-.9-10.23c-.34-8.95-.63-17.91-.92-26.86,0-1.57-.35-2.95-2.41-3.7a207.94,207.94,0,0,1,1,40.25,3.13,3.13,0,0,1-.53-1.52q-.37-6.22-.69-12.45c-.45-8.79-.87-17.58-1.33-26.36-.11-2-.47-2.37-2.46-2.78A262.15,262.15,0,0,1,212,428.89c-.67-5.31-1-10.64-1.3-16q-1-15.68-2-31.36a15.65,15.65,0,0,0-.65-2.64l-1,.18A309.66,309.66,0,0,1,208.6,423.53Zm207,110.66c-1,11.26-2,21.83-2.88,32.42-.69,8.62-3.53,17-2.63,25.82,1.2,11.75,1.67,23.58,2.75,35.34.25,2.78,1.54,5.51,2.64,8.13.4,1,1.67,1.55,2.95,2.66.16-1.31.27-1.85.3-2.38.69-14,1.41-27.94,2.05-41.91.65-14.13,1.82-28.26.31-42.4C420.46,545.8,418.18,540.23,415.62,534.19Zm124.3,146.94c3-1.08,6.36-1.52,8-4.64a21.38,21.38,0,0,0,2.57-6.41c.89-5.82,2-11.73,1.85-17.57-.22-10.2-1.24-20.39-2-30.58-1.06-13.7-2.3-27.39-3.26-41.1-.17-2.54-1.08-4.1-3.3-4.92a115.38,115.38,0,0,0-12.88-4.46c-2.25-.54-4.91.06-7.26.63-2,.48-2,1.31-1,2.3,2.63-.23,4.9-1.08,6.67-.47A18.83,18.83,0,0,1,541.17,585a38.12,38.12,0,0,1,2.22,18.19c-1.64,13.34.5,26.5,2,39.62C547,656.16,546.74,668.93,539.92,681.13Zm-5-36.64c4.18,6.1,7.92,12,5.88,19.41-2,7.15-7.94,10.84-14,15a56.28,56.28,0,0,0,7,2.3,3.21,3.21,0,0,0,2.8-1.31c2.26-5.86,5.22-11.68,6.12-17.78.94-6.37,0-13-.42-19.58-.57-9.72-1.38-19.43-2-29.15-.27-4.2-.31-8.43-.57-12.63-.13-2.15-.54-4.28-.74-6.43-.61-6.63-3.24-12.1-8.88-15.92-1.54-1-3.05-1.86-5.78-.64a23.24,23.24,0,0,1,2.4,1.63,21.11,21.11,0,0,1,6.16,9.55,55.25,55.25,0,0,1-2,38.87c0,.12-.21.2-.34.32-.18-.64-.36-1.26-.69-2.44-1.62,3-2.27,5.5-1.62,8.62a19.92,19.92,0,0,1,2.43-1,32.23,32.23,0,0,1,6-1.34c.74-.05,1.58,1.23,2.37,1.9-.65.69-1.19,1.62-2,2-1.41.7-3.06.92-4.46,1.64-.69.37-1.57,1.5-1.45,2.11.3,1.5,1.46,1,2.65.76a17.53,17.53,0,0,1,4.85-.41c.49,0,1.27.91,1.31,1.44s-.67,1.19-1.21,1.49A36.23,36.23,0,0,1,535,644.49ZM264.12,371.73c1,2.28,2,4.59,3.08,6.83,2.75,5.67,6.14,11.1,8.22,17,3.38,9.55,5.88,19.4,8.81,29.11a14.38,14.38,0,0,0,1.76,3.61c2.59,3.94,5.28,7.8,7.91,11.71.64.94,1.21,1.92,2,3.26a20.52,20.52,0,0,0-1.51-15.66,33.59,33.59,0,0,1-4.3-18,7.14,7.14,0,0,0-.61-3.25c-5.42-12.25-12-23.84-20.55-34.19C267.05,369.87,266.63,369.87,264.12,371.73ZM216.5,685.48c-11.7-13.27-16.49-29.28-21.66-45.14q-.42,9.6-.83,19.19h-.57l-.89-4-.63.11c1,9.54,2.06,19.08,3.08,28.48C202.48,681.41,209.09,685.37,216.5,685.48Zm11.35-107c6.77,1.64,36.49-2.34,41.32-5.41l-1.31-1c-4.08-3.3-8.14-6.64-12.29-9.86a2.78,2.78,0,0,0-2.33-.39,94.13,94.13,0,0,0-10.05,4.46A59.18,59.18,0,0,0,227.85,578.46Zm298.28,87.18c-1.94.78-3.45,1.48-5,2-3.13,1.06-3.64,1.67-3.65,5,0,1.23.15,2.46.25,4,6.06-2.52,11.23-5.75,15.28-10.55s2.18-14.39-3.45-17.9c-1.33,1.62-2.76,3.21-4,4.94-1.7,2.32-3.2,4.78-4.88,7.1-.75,1-1.62,2.24-2.89.28a3.76,3.76,0,0,0-2.19-1.07,32.51,32.51,0,0,0-3.4-.41c.14,2.06.31,4.27.45,6.48s.25,4.4.37,6.6C515.63,664.81,520.51,662.08,526.13,665.64ZM307.26,423.92c-.27-2.12-.11-3.94-.75-5.42-6.25-14.6-13.53-28.61-24.16-40.62-1.49-1.68-3-3.24-5.41-3.62-1.77-.26-3-1.29-1.51-3.35a17.27,17.27,0,0,0-2.15-1.66,8.68,8.68,0,0,0-2.07-.59,6.7,6.7,0,0,0,.63,2,222.73,222.73,0,0,1,19.86,32.15c3.81,7.37,9.44,13.79,14.27,20.63C306,423.51,306.25,423.53,307.26,423.92ZM129,698.49a24.81,24.81,0,0,0,.46-3.51q-.16-33.33-.44-66.65a8.4,8.4,0,0,0-.76-2.32l-1.09.11c-.23,2.84-.47,5.69-.7,8.54l-.41,0-.79-3.3C123.85,638.66,126.71,692.16,129,698.49Zm140.49-160.2H270a1.72,1.72,0,0,0,.14-.46q0-26.72,0-53.43a5.57,5.57,0,0,0-.8-1.91l-.71.08c-.32,1.41-.63,2.82-1,4.39l-.9-3.57-1.21.14c.5,17.39.05,34.8,2.18,52.16.19-1.62.39-3.25.58-4.88h.24C268.87,533.32,269.18,535.8,269.48,538.29ZM200.59,431.78c-6-9.63-7.28-20.34-10.06-30.56l-.76.06-3.36,33.44C191,435.14,195.24,432.53,200.59,431.78ZM211.54,575.1H212q.36-4.38.73-8.76h.2l.78,6.35.17,0V530.28c-.45-.2-.59-.32-.71-.31s-.5.25-.67.19c-2.41-1-2.35-1-2.27,1.65.19,7.1.29,14.21.51,21.31C210.94,560.45,211.26,567.77,211.54,575.1Zm37.83-69.56c-1.93,6.95-1.76,39.74.12,45.55a56.34,56.34,0,0,0,1-7.31c.17-11.66.2-23.32.19-35C250.72,507.9,250,507,249.37,505.54ZM109,497.17l.49.51c2.57-2.1,5.77-3.78,7.58-6.4,4-5.84,7.32-12.15,11-18.45l-3-1.5ZM262,155.58c-1.7-2.61-3.1-4.91-4.69-7.07-.37-.5-1.36-.65-2.09-.76-2.21-.35-4.42-.65-6.64-.87a11.25,11.25,0,0,0-2.36.24c.4.79.58,1.88,1.21,2.34A37.53,37.53,0,0,0,262,155.58ZM331.54,477l-.55-.29c1.43-.4,2.86-.88,4.31-1.21,2.41-.54,3-2.23,3-4.41.06-2.47.33-4.93.36-7.4.06-4.76,0-9.52,0-14.28a78.07,78.07,0,0,0-2.39,11c-.27,2.39.35,4.86.4,7.3a6.54,6.54,0,0,1-.62,3.49C334.77,473.25,333.08,475.08,331.54,477Zm-115.2-26.22-.42.43,9.51,9.71c.33-3.19.56-5.45.75-7.32Zm-15.59-216c.81-.28,1.1-.29,1.22-.44,4.32-5.42,8.64-10.83,12.88-16.31.41-.52.33-1.43.47-2.16l-.59-.19c-2,2.62-4,5.25-6.12,7.83s-4.33,5.1-6.36,7.75A16.17,16.17,0,0,0,200.75,234.73ZM516.57,655.34l.67.86c.73-.32,1.72-.44,2.14-1,2.53-3.34,5-6.76,7.34-10.23.26-.39-.16-1.24-.27-1.88-.48.1-1.19,0-1.4.31C522.18,647.36,519.38,651.36,516.57,655.34ZM151.76,267.1l-.89,0c-.16.93-.26,1.87-.49,2.77a13,13,0,0,1-.92,2.7c-1.49,2.93-1.35,4.11,1.34,6.82C150.72,275,152.81,271.16,151.76,267.1Zm-3.29,16.14c.71,6.91,1.39,13.44,2.1,20.3C152.17,301.81,150.37,286.19,148.47,283.24ZM158.7,696.17l15.94-6.88A26.74,26.74,0,0,0,158.7,696.17Zm54.56-470.63c3.56-2,3.67-2.4,2.13-6.67-2.17,3-4.24,5.91-6.31,8.78l.29.22c1.17-1.27,2.34-2.54,3.74-4Zm9.7,28.32c-1.69,2.11-.61,4,1.18,6l2.88-1.94Zm-67-.43c-.62,1-1,2.35-1.89,2.81-2.92,1.56-1.06,3.47-.7,5.32C154.55,258.93,156.68,256.67,155.92,253.43Zm63.8-3,.7.06.8,3.59c1.49-2,.64-5-2.37-7.34-.21.44-.69,1.05-.56,1.24,1.4,2-.44,3.45-.81,5.14-.07.36-.15.72-.23,1.08l.3.08C218.27,253.05,219,251.77,219.72,250.48Zm60.66,112.76.45.1v-11.8a7.93,7.93,0,0,0-1.42,4.23C279.5,358.27,280,360.75,280.38,363.24ZM202.92,472.79l.15.66,6.09,1.83c-.83-2.26-2.08-3.59-4.29-3.45C204.2,471.87,203.57,472.45,202.92,472.79Zm-17-104.1c.06-4.66-1.11-6.36-4.73-7.15ZM333.6,250.78h-.66q-2,4.22-4.06,8.44a40.78,40.78,0,0,0,4.68-6.38C333.86,252.33,333.6,251.48,333.6,250.78Zm-175-.35c.91-2.05,1.81-4.11,2.71-6.16C157.28,247.19,157.2,247.36,158.57,250.43ZM240.87,143c2.42,4,3.64,4.64,5,3ZM198,104.29l.63.54,3.79-4.2-.56-.49C200.49,101.45,198.45,102.2,198,104.29ZM173.89,463.1c3,2.23,3,2.23,4.09,0Zm28.59-50.56h-.31l.6,7.7.62-.06C203.09,417.64,202.78,415.09,202.48,412.54Zm2.84-188.28-1.18-.59c-.64,1.2-1.27,2.4-1.91,3.59l1,.5Z" transform="translate(0.04 0.44)"/><path d="M166.43,173.1a23.79,23.79,0,0,1-2.42-1.82c-18.53-18.25-29-40-28.2-66.39C136.5,81.81,146,62.38,162,46.06c17-17.3,37.83-27.36,61.53-31.46,28.34-4.9,55.48-1,80.85,12.83C326,39.23,342.59,56,350.66,79.68c11.12,32.63,3.76,61.74-19,87.2a101.81,101.81,0,0,1-30.55,22.85c-.57.28-1.15.53-1.71.79-1.74-2.75-1.64-3.05,1.12-4.51,20.05-10.6,36.14-25.33,44.8-46.56,13.4-32.86,6.95-62.67-16.59-88.64-16.59-18.3-37.87-28.63-62.07-32.7-29.37-4.93-57.25-.43-82.85,15.17-20.56,12.52-35.39,30-41.68,53.54-7.56,28.32-.3,53.39,18.3,75.53a62.68,62.68,0,0,0,5.64,6.2C167.71,170,167.65,171.28,166.43,173.1Z" transform="translate(0.04 0.44)"/><path class="cls-1" d="M208.59,337.61c-1.76-1.45-2.07-3.31-2.22-5.56-.47-6.84-1.47-13.65-2-20.49-.86-10.74,1.46-21.15,3.45-31.6.73-3.84.82-7.82,1.25-12.23-.64.5-.94.62-1.05.83-4.61,9.49-7.37,19.61-10.14,29.73-2.18,8-4.47,16-6.53,24-.8,3.13-1.1,6.39-1.66,9.79l-1.9-.77c.27-1.31.6-2.42.72-3.56.63-6.27,1.43-12.53,1.73-18.82a49.25,49.25,0,0,0-.86-11c-1.18-6.48-.65-12.9-.11-19.36.12-1.45,1.14-3.59-1-4.08-.79-.18-2.36,1.55-3,2.71-1.37,2.38-2.38,5-3.77,8-.52-2.52-1-4.58-1.35-6.66a1.47,1.47,0,0,1,.53-1.21c5.76-4.06,8.52-10.34,11.6-16.23,5.42-10.39,12.47-19.7,19-29.36a32.88,32.88,0,0,1,5-5.72c.75,3.48,2,6.46.54,10.08a73.61,73.61,0,0,0-6,28.67c0,2,1.18,4.25-.79,6.1-.15.14.45,1.6.76,1.62a17.19,17.19,0,0,0,5-.14,45.18,45.18,0,0,0,5.73-2.17l.32.5L217.94,274l.41.54c1.83-1.16,3.72-2.23,5.48-3.49,8.67-6.18,18.14-11.27,25.88-18.72,2.58-2.47,5-5.14,7.5-7.78,1.79,3.74,3.65,7.6,5.5,11.46l.77-.24c-11.25-22.83-11.32-46.7-7.05-71H257L256.18,206l1,0c.4-8,.9-16,1.16-24.07a126.74,126.74,0,0,0-.19-15.1c-.23-2.74-1.63-5.38-2.5-8.07l-.73.13a7.61,7.61,0,0,0,0,1.91c2.38,8.6.94,17.13-.38,25.68-2.12,13.88-3.2,27.8-1.16,41.8a6,6,0,0,0,.23,1.42c2.43,5.79-.7,9.55-4.88,12.71C243,246.83,237,251,231.11,255.26a5.69,5.69,0,0,1-1.07.47c3.15-3.06,6.3-6.09,9.41-9.16.83-.82,1.57-1.75,2.34-2.62l-.79-.72c-3.56,3.75-7.13,7.5-10.67,11.28-.24.26-.19.79-.28,1.2l-1.87,1.63c-3.13-4.42-6.53-8.38-7.57-13.7l1.47,2.76c2.43-5.11,5.27-9.53,6.69-14.36,2.42-8.27,3.91-16.8,5.92-25.19a10.68,10.68,0,0,1,2-3.92c2.91-3.71,6-7.29,9-10.93a10.53,10.53,0,0,0,.81-1.39l-.62-.57-8.94,9.32-.28-.2,10.69-14,.58.15q.9,16.33,1.79,32.67l1-.05c-.74-18.61-1.48-37.21-2.24-56.26a10.15,10.15,0,0,0,6.46-5.54c.19-.36,1.1-.54,1.64-.49.86.07,1.69.52,2.56.6a12,12,0,0,1,7.36,3.48,16.21,16.21,0,0,0,10.94,4.47c-2.64-1.24-5.32-2.16-7.6-3.68a31.49,31.49,0,0,1-6.05-5.43,87.28,87.28,0,0,1-5.18-7.07l2.51-1.35c-2.75.53-3.89-1.13-5.05-3.26-4.4-8.07-8.78-16.19-15.62-22.57-8.77-8.18-19.17-13.48-30.56-16.9a14.47,14.47,0,0,0-5.55-.21c24.1,5.73,41.53,19.32,51.46,43-2.8-.56-5.4-.76-7.75-1.63a21.71,21.71,0,0,1-13.24-13c-1.3-3.33-3.2-6.44-5-10a16.28,16.28,0,0,1-1.91-1.42c-2.77-2.61-5.13-5.93-8.34-7.75-4.14-2.35-9-3.52-13.48-5.2l-.24.61c3,1.31,5.87,2.78,8.9,3.92,6.66,2.5,10.09,7.46,11.89,14.14a110,110,0,0,0,5.09,14.15c.76,1.79,2.51,3.18,4.21,4.51-5.68-6.75-6.68-15.26-9.3-23.13l.58-.31c1,1.82,2.11,3.58,3,5.46,3,6.45,5.62,13.06,10.46,18.45,1.35,1.51,2.73,3,4.16,4.57l-1.72,1.45c.69.17,1.17.44,1.37.31,2-1.42,3.56-.3,5.17.74a16,16,0,0,0,1.48.78c3,1.51,3,2.11.76,4.54s-5.08,2.48-8,1.83c-.76-.17-1.4-1.18-1.92-1.92a11.45,11.45,0,0,1-.88-2.27c-1.71,1.48-1.49,2.77-1.13,4.58,1.63,8.11,1.39,16.05-3.45,23.25-.71,1.06-1.33,2.19-2,3.26-.25.39-.6,1-.9,1-2.3,0-2.44,1.93-3.22,3.3-.48.83-.47,2.18-2.09,1.6-.22-.08-.87.43-1,.79-1.43,4-5.22,5.38-8.76,8v-7.18l-.47-.05c-.64,1.93-1.28,3.85-1.91,5.78-1.35,4.08-4.3,7-7.36,9.74-1.26,1.14-2.8,2.83-4.14,2.76-1.17-.06-2.22-2.24-3.36-3.45a11.88,11.88,0,0,0-1.41-1.08l-.12,2.19-.35.1-1.21-2.9-3.26,5.49c-2.74-7-7.62-12.77-7.43-20.46a10.53,10.53,0,0,0-.1-1.68c-.46-3.89-.14-4.35,3.92-4.71,2.79-.25,5.59-.29,8.38-.44a1.48,1.48,0,0,0,1.19-.77h-7a8.47,8.47,0,0,1,10.51.06c1.29,1.21,3.35,1.59,5.07,2.35l.47-.78a11.51,11.51,0,0,0-1.66-1.75,17.49,17.49,0,0,0-9.25-3.25c-4.57-.31-7.71,2.06-11.2,4a5.33,5.33,0,0,1-1.71.76,16.53,16.53,0,0,1,9.47-10.09c-5.49-.17-7.71,4-10.3,8.18-2.67-5.26-4.34-10.25-3.61-15.9a71.65,71.65,0,0,0,.46-9c0-1.88.31-2.86,2.56-3,1.8-.13,3.53-1.21,5.34-1.89,0,5.07-2.79,9.8-2.86,15,3.15-8.65,5.61-17.41,5.39-26.65l-.63-.12c-.36,3-.71,6-1.16,9.78a19.85,19.85,0,0,1-1.46-1.64c1.71-1.9-.34-2.09-.78-2.39.52-2.2,1-4.12,1.42-6.05l-.92-.49c0,3.24-2.2,4.2-4.42,5.32-2.07,1.05-4,2.4-6.39,3.86-.17-1.25-.31-1.84-.32-2.42,0-.88.06-1.76.1-2.64.13-3.31.3-6.29-2.73-9s-3-8.8-.17-12.06a122.35,122.35,0,0,1,9.41-9.51c3.5-3.28,7.15-6.4,10.77-9.55a10.88,10.88,0,0,1,2-1.09l.54.62-20.71,28.43.45.35,1.46-.57-.82,2.48.27.18c1.47-2.36,3-4.69,4.41-7.09,4.58-7.77,10.62-14.39,16.5-21.14a16.93,16.93,0,0,0,2-3.42c.76-1.49,1-3.46,3.4-3.36.49,0,1.17-.8,1.48-1.38,1.85-3.48,4.85-5,8.59-5.83,9.58-2.11,19.22-2,28.87-1.06,5.64.56,11.24,1.57,16.82,2.54,2.67.47,4.42,2.07,6.08,4.45,4.34,6.2,5.37,13.63,8.34,20.31,1.19,2.7,2.44,5.38,3.66,8.07.35.77.71,1.53,1.06,2.3l-.48.52c-2.21-1.3-4.53-2.45-6.59-3.95-2.58-1.88-4.9-4.1-7.42-6.07a8.75,8.75,0,0,0-2.49-.89,8.35,8.35,0,0,0-.36,2.66c1.14,5.73,4.12,10.52,7.9,14.86.47.54.93,1.1,1.37,1.67.07.09,0,.28.1,1L259.84,130c1.81,3.24,15.11,14.94,18.72,15.76a16.31,16.31,0,0,0-1.39-2.28c-3-3.53-6.21-6.89-9.05-10.54a23.3,23.3,0,0,1-4.7-11.49,52.86,52.86,0,0,0,5,4.2c3.67,2.37,7.48,4.53,11.21,6.82a5.22,5.22,0,0,1,1.9,1.63c3.14,5.5,6.19,11.07,6.18,17.65,0,3.67-.21,7.34-.4,11-.44,8.47-.7,17-1.49,25.39-.59,6.44-1.9,12.8-2.86,19.2-.8,5.36-.78,5.36-5.82,9-2.94-13.23-.7-26.22.91-39.22l-.78-.08c-.72,4.21-1.87,8.4-2.07,12.63-.36,7.48-.14,15-.16,22.48a2.54,2.54,0,0,0,.09,1c1.94,4.42.65,7.84-3.09,10.66-1,.74-1.62,1.93-2.94,3.55-4.67-21.26-3.24-41.91-.65-62.58l-.66-.13a52,52,0,0,0-1.22,5.3c-2,15.19-2.95,30.42-.9,45.68A66.52,66.52,0,0,0,268,226.08a5.19,5.19,0,0,1-.41,4.27,34.18,34.18,0,0,0-4,17.33c.05,1.41.37,2.81.56,4.21h.69c0-.77,0-1.54,0-2.3A33.5,33.5,0,0,1,267.94,233a16.11,16.11,0,0,1,4.33-5.21c4.56-3.63,9.44-6.86,14-10.47,2.76-2.18,5.26-2.42,8.43-.82,10.14,5.13,20.26,10.2,28.8,17.94,4.32,3.91,9.21,7.18,13.65,11a92.68,92.68,0,0,1,18.56,21.79c2.93,4.72,3.6,10.18,3.66,15.48.18,15.58.22,31.19-.34,46.77q-.85,23.61-3.07,47.16c-.62,6.52-3.05,12.87-4.57,19.31-2,8.4-3.69,16.87-5.86,25.21-1.27,4.86-3.21,9.54-4.87,14.29a18.11,18.11,0,0,1-.84,1.75c-.35-4.48-.69-8.76-1-13-3.63,8.48-4.79,17.25-5.28,26.07-.34,6,.12,11.95.1,17.93a4.47,4.47,0,0,1-1.05,2.72,18.61,18.61,0,0,1-10.39,5.61c-9.79,2-19.52,2.4-29.45,0-8-2-16.38-2.73-24.58-4.1a46.38,46.38,0,0,1-7.7-1.71c-1.59-.57-2.82-2.09-4.36-2.89a6.52,6.52,0,0,0-3-.28c-.89,0-1.85.56-2.65.36-7.22-1.78-14.41-3.66-21.6-5.53a20.4,20.4,0,0,1-2.18-.84c3.51-1.78,6.56-3.45,9.72-4.9,2.48-1.13,4-.64,5.59,1.62,6,8.8,5.73,7.41,15.51,6.08,2.81-.38,5.45-2.06,8.14-3.22a16.29,16.29,0,0,0,2.15-1.36c5.81,5.3,12.67,5.78,19.69,4.52,5.79-1,11.27.09,16.86,1.1,5.81,1.06,11.66,1.92,17.49,2.9,2.31.39,4-.37,4.67-2.66,1.3-4.76,2.49-9.56,3.64-14.36,2.34-9.7,4.71-19.4,6.89-29.13,2-8.81,3.89-17.64,5.53-26.51,3.07-16.63,3.77-33.51,5.38-50.31s4.26-33.77,6.34-50.66c.22-1.86-.41-3.82-.56-5.74-.35-4.61-.5-9.25-1-13.84a27.77,27.77,0,0,0-2-6.38c-1.82-4.83-3.09-9.85-7.42-13.44-2.85-2.37-5-5.59-7.49-8.4a23.3,23.3,0,0,0-2-1.76c-.1,1.14-.15,1.76-.21,2.48l-5.54-1.74L303.64,288l.51.36,2.57-2.91v3a9.42,9.42,0,0,0,1.12-1.76c1.79-6.26,5.64-11.42,9-16.86,4.33-7.09,8.57-14.23,12.91-21.45,1.57.32,1.23,1.3.62,2.41-2.29,4.21-4.55,8.45-6.85,12.65-3.12,5.68-6,11.51-9.49,16.95-2.11,3.28-4.14,6.48-5.12,10.27-.08.3-.13.61-.18.89q4.65-7.36,9.3-14.76l.54.31c-.43,1-.85,2-1.27,2.93l.67.4,18.33-27.28c.68.59,1.42,1.23,2.19,1.92-1,1.48-1.85,2.81-2.73,4.13-.17.27-.38.73-.57.73-3,0-2.59,2.66-3.49,4.35-1.72,3.23-3.55,6.4-5.38,9.56-1.56,2.68-3.18,5.31-4.77,8l.51.37,6.87-9,.35.18q-3.53,13.15-7,26.31l.41.15c.89-2.22,2-4.39,2.66-6.68,2.91-9.93,6.77-19.4,12.57-28a29.68,29.68,0,0,0,2.09-4.45l-.87-.5c-2.19,3.6-4.39,7.2-6.93,11.36.6-6.38,5.12-10.12,7.14-15.38a25.47,25.47,0,0,1,7.86,12.26c-2,1.4-1.71,1.29-.87,3.51a29.75,29.75,0,0,1,2.06,8.46,86.05,86.05,0,0,1-.28,12.94c-.53,6.06-1.43,12.09-2.24,18.66-.25-.91-.36-1.32-.48-1.78-.24,2-.5,4-.7,6-.24,2.46-.33,5-4.09,4.43l1.33-7.09-.93-.35c-.67,1.28-1.34,2.55-2.1,4-1.4-1.6-1.92-3.13-1-5.2,1.39-3.23,2.55-6.56,3.75-9.86a6.37,6.37,0,0,0,.36-2.82c-3.57,2.85-4,7.48-6.31,11.25-1.45-2-2.12-3.77-1.13-6.1,2.52-5.87,4.87-11.82,7.28-17.74.53-1.3,1.46-2.55-.1-3.9-.3-.26.07-1.33.18-2,.34-2.17.71-4.33,1.07-6.5l-.73-.19-10,28.38c-1.59-2.32-1.95-4-1-6.24,3-7.58,5.67-15.28,8.43-22.94a5.51,5.51,0,0,0,.28-2.27c-4.83,7.71-7.5,16.29-10.09,24.9l-.74-.08a11.75,11.75,0,0,1,0-3.25c1.39-4.67,2.74-9.37,4.5-13.9.94-2.42,2.76-4.47,4-6.78,1.39-2.56,2.6-5.23,3.88-7.85l-.53-.3a16.23,16.23,0,0,0-1.15,1.36c-3.73,5.51-7.24,11.11-8.59,17.79a27.52,27.52,0,0,1-1.88,6.43c-2.16,4.48-1.07,9-.57,13.49a26.76,26.76,0,0,1-.7,11.13c-2.56,8.31-4.68,16.77-7,25.18a20.2,20.2,0,0,0-.38,2.33l.63.22c2.42-6.64,4.83-13.28,7.29-20.05l-.87,59c-2.61-8.86-5.08-17.75-9.16-26.06,1.66,8,3.12,16,5.07,23.85,1.29,5.2.22,10.08-1.35,14.8-2.8,8.47-6.91,16.53-7.6,25.63,0,.21-.22.41-.47.86-3.4-1.63-4.79-4.93-6.81-7.9l-.57,1.08c-1.45-3.34-2.78-6.59-4.25-9.78a121,121,0,0,0-19.94-29.79,3.58,3.58,0,0,1-.92-2.44c1-8.42,1.88-16.87,3.42-25.19.74-4.07,2.76-7.91,4.34-11.8.85-2.11,2-4.11,3-6.16l-.54-.33-3.05,4.29-.33-.13c.45-1.22.9-2.45,1.36-3.68l-.35-.2-2.69,3.36-.71-.41,5.2-9.62-.36-.25-3.33,4.1-.51-.27,4.76-8.65-.49-.27c-1,1.45-2.07,2.9-3.1,4.36l-.61-.36,3.9-7.1-.48-.37c-.72.88-1.45,1.76-2.46,3a6,6,0,0,1-.1-1.5c1.92-6.65,1.46-13.62,2.73-20.38s1.93-13.94,3.12-20.87c.41-2.38,1.64-4.62,2.1-7.33-.19.59-.38,1.17-.66,2.05V251.19l-.53-.17c-.28.66-.51,1.34-.84,2-4.26,8-6.09,16.89-9.26,25.28-1.74,4.63-3.53,9.25-5.33,13.86-.27.7-.66,1.35-1,2l-.57-.16,3.81-34.45-.52-.11c-.72,3.21-1.66,6.39-2.11,9.63-1.57,11.16-3,22.34-4.39,33.52-.36,2.87.39,6.12-.72,8.59-1.35,3,.2,5.5.08,8.2-.14,3.11-.46,6.23-.34,9.33.2,5.17.67,10.34,1.05,15.52a50.66,50.66,0,0,1,.45,5.62c0,.73-1.05,2-1.56,2a7,7,0,0,1-3.38-1.31,9.93,9.93,0,0,1-1.94-2.42c-2.39-3.32-3-3.61-6.36-1.22-4.55,3.28-11.33,2.29-13.85-4.83-1.28-3.59-2.54-7.41-2.63-11.16-.33-14.7-1.07-29.54,2.36-44,2.47-10.38,6.28-20.44,9.44-30.67a23.52,23.52,0,0,0,.8-4.57,1.6,1.6,0,0,0-.81-1.28,1.67,1.67,0,0,0-1.52.2,6.47,6.47,0,0,0-1.29,2c-4.35,9.06-7.6,18.64-13.46,27-1.38,2-1.52,4.82-2.13,7.29-3.36,13.66-6.76,27.31-10,41-.88,3.72-1.36,7.54-1.92,11.34a6.68,6.68,0,0,0,.86,4.8c1.07,1.85.63,4.58.86,6.93l-.57.32c-2.27-1.83-4.45-3.79-6.84-5.46-3.44-2.41-7-4.61-10.56-6.9Zm-3.22-185.28c1.6-.92,2.91-2.16,4.42-2.47,4.7-1,9.49-1.54,14.36-2.29-.34-.3-.68-.83-1.12-.93a38.16,38.16,0,0,0-5.15-1c-5.66-.61-11.35-1.08-16-5-.21-.18-.66-.06-1.74-.13l4.1,3.58-.35.44-1.52-.6C201.29,147.81,203.18,150.29,205.37,152.33Zm78.72,4.21c-4.16-2.78-8.16-5.11-11.79-7.92-8.41-6.49-14.8-15-21.76-22.87-6.37-7.22-13-14.14-22-18.15a11.26,11.26,0,0,0-1.51-.42,26.67,26.67,0,0,0,4.41,3c8.08,5,14.24,12,20.33,19.11,6.35,7.4,12.56,14.94,20.38,20.9A36.32,36.32,0,0,0,284.09,156.54Zm-50.91-12.06h-.82c-.14,2.21-.2,4.43-.44,6.63-.51,4.75-.73,9.57-1.76,14.21-1.67,7.55-4.87,14.36-11.65,18.86-.95.64-1.83,1.38-2.74,2.06a5.33,5.33,0,0,0,2.68-.92c7.05-4,10.55-10.93,12.83-18,1.78-5.54,1.38-11.8,1.87-17.75C233.29,147.88,233.18,146.17,233.18,144.48Zm-11.11-1.4-.06-1.15a22.17,22.17,0,0,0-2.36-.62c-1.26-.2-2.56-.16-3.79-.44-3.72-.84-7.41-1.82-11.13-2.66a6,6,0,0,0-1.94.21c.24.61.31,1.4.75,1.79a6.15,6.15,0,0,0,2.59,1.6c4,.85,7.92,1.66,11.92,2.18C219.33,144.16,220.73,143.41,222.07,143.08Zm6.52,93.08c4-1.29,15.17-25.61,14.87-31.69l-3.59,8.62c-1.14,2.72-2.26,5.46-3.42,8.17s-2.24,5.48-3.6,8.1C231.71,231.56,230.22,233.58,228.59,236.16Zm-25.5-45.79-.28-.6c-3,0-5.94,0-8.9.06-.36,0-.68.8-1,1.23,1.48,1,3.17,3,4.42,2.8C199.38,193.47,201.18,191.61,203.09,190.37Zm109.65,108,.65,0c1.46-3.83.94-7.75-.13-11.76l-2.16,8.62.82.24c.4-1,.81-2.06,1.37-3.48Zm-8.81-23.18q2.6-5.64,5.17-11.29C306.64,265,304.11,270.76,303.93,275.18ZM204.5,175.5l10.18,8.13C214,180.17,208,175.58,204.5,175.5Zm-15.8-5.38-.32.79c3.05,1.51,5.92,3.45,9.35,4.06l.36-.85Zm108.54,61-1.09-.55-4,9,.95.43ZM196.5,170.84l-.17.75c2,2.62,3.81,2.87,5.59.21Zm94.26,66.68c2.84-2.66,4.69-7,4.14-9.44ZM306,280.91l.67.39q2.08-4.44,4.16-8.9l-.81-.37Zm-8.28-46.47-.87-.36-2.56,7.53.9.31C296.06,239.42,296.91,236.93,297.75,234.44Zm-68.33-46.71,1.19.17.83-5.48-1.06-.15Zm-2.12,3.41,1.07.08c.14-1.61.27-3.22.41-4.83l-1.07-.1C227.57,187.91,227.43,189.53,227.3,191.14Z" transform="translate(0.04 0.44)"/><path class="cls-1" d="M174.73,468l-15.3,24.34.86.55c2.25-3.16,4.54-6.29,6.76-9.48,3-4.33,6-8.66,8.9-13.08,1-1.58,2-1.81,3.61-.63q-6.92,11.22-13.83,22.41l.92.6,14.94-22.49.51.31-14.25,23.63,1,.65q7.71-11.88,15.44-23.76l.55.35L172,491.92l.84.55c1.87-2.54,3.8-5.05,5.6-7.64,2.63-3.82,5.18-7.69,7.74-11.56.67-1,1.3-1.9,2.71-.71l-12,18.29.81.56,10.57-14.49.16.1-8.14,14.37.63.39c2.06-3.09,4.13-6.15,6.15-9.25,1.52-2.35,3.09-4.68,4.4-7.15,1-1.89,2.21-2.3,4.13-1.16l-10.92,17.89.56.45c.64-.8,1.33-1.56,1.9-2.4,3.21-4.68,6.37-9.4,9.61-14.06a10.18,10.18,0,0,1,2-1.67l.66.63q-3.84,6.12-7.66,12.25l.38.32c1.11-1.32,2.28-2.6,3.34-4a44.81,44.81,0,0,0,4.2-5.83c1.17-2.17,2.81-2.66,5-2.61,3.69.08,5.43.67,7,2.72l-14.56,16.74.76.71,15.06-15.95c1.63,1.32,1.59,2.36.23,3.79C209,487.58,205,492.05,201,496.49c-.55.61-1.06,1.27-1.6,1.9l.62.6,10.94-10.73.31.24-11.52,14.23h1.86l-1.45,2.5.4.39a26.61,26.61,0,0,0,2.54-2.19q7.95-8.65,15.81-17.38c1-1.06,1.79-1.59,3.07-.5q-8.49,10.5-17,21l.75.68a39.83,39.83,0,0,0,2.92-2.89c4.65-5.59,9.29-11.2,13.85-16.87,1-1.24,2-1.78,3.76-.73l-14.85,16.79.83.79c3.9-2.78,6.69-6.76,10.43-9.9l-1.51,2c-.57.76-1.19,1.5-1.75,2.28a37.71,37.71,0,0,0-2.53,3.78c-.27.5,0,1.28,0,1.93.63-.19,1.56-.19,1.85-.61,1.25-1.85,3.65-2.78,3.75-5.67.05-1.38,1.85-2.69,2.85-4,1.34-1.79,2.79-3.52,4-5.41.87-1.39,1.88-1.92,3.37-1.36,4.32,1.63,8.66,3.27,12.93,5a2.51,2.51,0,0,1,1.12,1.86c.22,3.67.43,7.36.3,11a4.08,4.08,0,0,1-2,2.73c-17.56,9.69-35.19,19.25-52.76,28.93-9.1,5-18,10.36-27.21,15.2-3.33,1.75-7.19,2.51-10.83,3.65-2.36.73-4.87,1.1-7.11,2.08-1.21.53-2.73,2-2.81,3.08a5.28,5.28,0,0,0,2.1,3.84c7.41,5.43,15.93,7.59,25,7.8,3.11.07,6.23,0,9.64,0-.25.57-.29.9-.47,1.06-17.7,15.22-35.46,30.36-53.07,45.68-5.32,4.64-11.61,6.55-18.24,6.87-25.75,1.26-51.34.55-75.93-8.63-3-1.12-5.88-2.51-8.88-3.61-2.13-.78-2.4-2.19-1.6-4a46.44,46.44,0,0,1,3.07-5.95c8.85-14,16.32-28.78,23.44-43.72a4.18,4.18,0,0,1,1.58-1.88,12.88,12.88,0,0,0,.63,3.41,11.2,11.2,0,0,0,2.25,2.44c.83-.83,2.19-1.55,2.4-2.52a37.39,37.39,0,0,0,.78-7.62c.12-12.07.65-24.16-.07-36.18-.28-4.81.94-7.5,4.26-10.5,15.24-13.77,30.24-27.81,45.4-41.68,2.23-2,4.8-3.72,7.22-5.55a19.68,19.68,0,0,1,1.71-1c1.33,4.53,3.56,8.31,7.64,10.72-3,4.75-5.92,9.21-8.58,13.84-2.82,4.91-5.3,10-8.06,15a14.27,14.27,0,0,1-2.9,3.41c-5.78,5.27-11.64,10.46-17.42,15.73-1,.91-2.48,1.94-1.31,3.51.16.22,2.35-.66,3.2-1.45,8.68-8.16,17.11-16.58,26-24.55,6.25-5.64,9.78-13.12,14.56-19.74.55-.77,1.22-1.44,1.83-2.16l.63.54-12.27,20.78.79.48q5-7.45,9.92-14.91a38.24,38.24,0,0,0,2.53-4.07c.89-1.78,2.06-2,3.8-1L125.68,492l.49.35c1.57-2.17,3.21-4.3,4.71-6.52,2.06-3.05,4-6.19,6-9.23a9.16,9.16,0,0,1,1.87-1.61l.43.46L127,496.05l.79.51,6.6-9.87.26.14-4.22,8.37.66.39,14.27-22.25.39.25-11,19.66.71.42c2.32-3.57,4.7-7.11,7-10.72,2.17-3.46,4.14-7,6.36-10.45a28.37,28.37,0,0,1,3.28-3.59l.49.4L141,489.25l.78.51q7.59-11.38,15.16-22.77l.49.35-12.22,19.79.59.42c.8-1.07,1.64-2.12,2.39-3.23,3.77-5.55,7.51-11.12,11.28-16.68,1.48-2.18,7.46-3.37,9.73-1.9q-5.67,9.64-11.35,19.3l.51.36c.92-1.22,1.89-2.39,2.74-3.66q4.26-6.37,8.46-12.8C171.44,466,171.41,466,174.73,468ZM75,570.24l-.07-.68a48.47,48.47,0,0,0-5.82-.9,3.18,3.18,0,0,0-2.56,1.22,3.51,3.51,0,0,0,.24,3,12.71,12.71,0,0,0,3.8,3.19,64.37,64.37,0,0,0,29.63,7.69,39.89,39.89,0,0,0,19.3-3.93c1.09-.54,2.1-1.22,3.15-1.84-17.21,2.09-33.79,1.23-50.06-6.34ZM49.2,578.9l-.48,1c1.74,1.51,3.28,3.39,5.26,4.48,16.31,9,33.55,11.65,51.69,7,3.79-1,7.6-2.24,10.66-5.15C93.1,591.73,70.63,590.4,49.2,578.9Zm86.11-79.4-.44-.5c-1.37,1.18-2.75,2.34-4.11,3.53-5.49,4.84-11,9.63-16.42,14.59a27.9,27.9,0,0,0-3.91,5.08,6.88,6.88,0,0,0-.57,2.29l.87.57A98.15,98.15,0,0,0,135.31,499.5Zm-24.94,93.29L96.13,608.32C100.78,605.46,106.22,599.78,110.37,592.79Zm122.42-101.6-15.35,17.48C223.84,504,228.66,497.94,232.79,491.19ZM76.24,526.8,77.75,523a11.2,11.2,0,0,0-4,2.54,2.92,2.92,0,0,0-.49,2.53c.2.55,1.34,1,2.11,1.07a8.1,8.1,0,0,0,2.43-.41l.44-.8Zm48.58,17.6c-.49,1.68-2.38,3.38-.35,4.93,1.51,1.15,2.3-.48,2.86-1.46Zm19.25,6.51-1.65,2c.59.39,1.25,1.17,1.77,1.08.67-.11,1.24-.9,1.85-1.4Zm-7.8-9.51-.56-.22a14.82,14.82,0,0,0-1.6,2.41c-.17.4.26,1,.41,1.59.48-.3,1.24-.52,1.38-.93A13.48,13.48,0,0,0,136.27,541.4Z" transform="translate(0.04 0.44)"/><path class="cls-1" d="M356.37,571.72c-18.88-4.8-32.93-16.29-44.71-31.05-5.72-7.17-10.82-14.73-14.27-23.4,4.41,3.62,8.94,7.11,13.19,10.9A125.91,125.91,0,0,0,330,542.53c3.18,1.89,5.81,4.74,8.62,7.22,5,4.41,10.46,7.89,17.1,9.21.55.11,1.1.2,1.66.26a2.85,2.85,0,0,0,1.28-.16c-7-3.55-14.1-6.86-19.77-12.58.66-1.44,1.65-1.33,3.06-.91,8.18,2.46,16.39,4.81,24.59,7.17a6.14,6.14,0,0,0,2.82.41,16.49,16.49,0,0,0,3.37-1.61c-.56-1.11-.86-2.52-1.73-3.26a28.75,28.75,0,0,0-4.57-2.6A107.62,107.62,0,0,1,341,525.44c.94.56,1.88,1.14,2.83,1.7s2.05,1.23,3.09,1.82a68.74,68.74,0,0,0,19.77,7.12c.86.19,1.91-.51,2.87-.8-.6-.68-1.18-1.39-1.81-2-3.06-3.15-7.45-3.11-11.21-4.58A71.66,71.66,0,0,1,335,515a2.69,2.69,0,0,1-.51-.64c4.58-.28,9.28-.21,13.84-1A60.4,60.4,0,0,0,360,509.81a10.49,10.49,0,0,0,6.71-6.74,3.69,3.69,0,0,1,1.34-1.56,42.27,42.27,0,0,0,12.12-15c2.08-4.31,4.54-8.45,6.46-12.83a93.75,93.75,0,0,0,3.13-9.7l-.7-.29c-.24.3-.5.6-.72.92-5.06,7.26-9.92,14.68-15.28,21.72-2.52,3.32-6.45,4.59-10.78,4.9-6.72.48-13.26.15-19.61-2.21-.71-.27-1.39-.6-2-.87,4.09-3.19,8.24-6.06,11.95-9.4,11.76-10.6,18.73-24.1,23.16-39.09a41.55,41.55,0,0,1,2.43-6.24c5-10.33,9.56-20.76,10.41-32.43.13-1.76.09-3.14-2-4.08-1.15,2.33-2.66,4.57-3.41,7.05-2.92,9.54-8.1,17.91-13.73,25.95-1.17,1.67-4.53,1.84-6.92,2.55-.21.07-1-.9-1.07-1.45a32.57,32.57,0,0,1-.4-5c.1-18.79,0-37.59.47-56.38.13-5.86,1.63-11.69,2.42-17.54.73-5.37,1.35-10.75,2.1-16.78,1.48,1.78,2.75,3.13,3.82,4.63a123.23,123.23,0,0,1,15.39,29.73c7.43,20.31,11.67,41.17,10.39,63-1.24,21.09-3.52,42.06-6.63,62.94-2.3,15.42-4.32,30.88-6.71,46.29-2.79,18-7.63,35.46-12.75,52.88-1.78,6.06-3.34,12.18-5,18.27-.7,2.52-1,2.58-3.21,1.23-13.05-7.83-23.17-18.77-32.48-30.57s-16.47-24.93-23.54-38.09c-2.63-4.9-4.06-10.46-6-15.72l.77-.31c2.65,3.75,5.19,7.58,8,11.23,7.31,9.61,15.57,18.26,26.07,24.45,6,3.57,12.44,6.22,19.6,6.48C354.55,571.75,355.46,571.72,356.37,571.72Zm18.51-175c-.39,2-.78,3.87-1.24,6.14,3.59-1.63,6-9.95,4.9-14.7-4.64,3-5.86,8.18-8.08,12.75l.66.49Zm1.18,68.45-.61-.37-8,12C371.59,475.71,375.62,469.77,376.06,465.18Zm-2.15-78.13-.76-.21c-1.77,3.28-3.56,6.55-5.26,9.86-.18.34.2,1,.32,1.44.48-.19,1.23-.25,1.41-.6q2.31-4.43,4.42-9C374.23,388.18,374,387.56,373.91,387.05Zm5.4,136.81c3-1.47,4.79-10.63,2.56-13.67C381,515,380.18,519.23,379.31,523.86Zm-3.91-2.49.72.12c2.58-5.19,3.51-10.5,2-13.59C377.15,512.72,376.27,517,375.4,521.37Zm-2.89-55-.64-.52L365,474.12l.54.45A17.05,17.05,0,0,0,372.51,466.35Z" transform="translate(0.04 0.44)"/><path class="cls-1" d="M219.33,585.39c17.57-.12,34.56-.46,51.15-6.59.06,1.24.17,2.23.14,3.22-.46,16.87-1.06,33.73-1.35,50.59-.14,8,.43,16,.41,24,0,4.38-.59,8.77-.88,13.15-.49,7.26-1,14.51-1.4,21.77-.1,1.72-.66,2.43-2.45,2.31-4.54-.29-9.18,0-13.62-.82-4.23-.76-8.3-1.86-11.46-5.83A79.31,79.31,0,0,1,227.35,666c-4.24-11.14-8.66-22.27-9.17-34.35-.47-11.26-.73-22.54-.68-33.81C217.52,593.7,218.69,589.54,219.33,585.39Zm45.29,31.11-13.9,14.34C255.74,626.42,261.46,622.65,264.62,616.5ZM245.69,641c1.28,1.26,2.23,2.19,3.17,3.13.45-.52,1.39-1.27,1.28-1.5a32.68,32.68,0,0,0-2.3-3.6Zm-3.58,18.64-3.55-2.7c.19,1.88-1.36,4.41,1.36,5.3C241.86,662.9,241.9,660.81,242.11,659.67Zm-1.51-59.26-1.13.51c-.46.61-1.15,1.16-1.28,1.83-.06.36,1,1.37,1.25,1.28a3.72,3.72,0,0,0,2-1.6C241.63,602,240.91,601.1,240.6,600.41Z" transform="translate(0.04 0.44)"/><path class="cls-1" d="M221.11,349.64c3.09,2.81,7.62,4,9.23,8.31.17.43.77.76,1.24,1,3.36,1.8,6.72,3.59,10.11,5.34,5.33,2.74,10.71,5.37,16,8.2a10.47,10.47,0,0,1,3.76,3.14,107.34,107.34,0,0,1,13.49,29c1.39,4.66,1.37,9.74,2,14.63l-.92.17c-.27-1.11-.54-2.23-.93-3.82-.21.65-.39.89-.36,1.1.72,4-2,7.21-2.56,10.93s-1.31,7.56-2,11.33a.78.78,0,0,1-.65.7c.58-6.72,2.69-13.12,1.86-19.76l-.65-.1-3.8,19.35-.75.09a7.53,7.53,0,0,1-.46-2.36c.58-4.35,1.32-8.69,1.9-13.05a29.19,29.19,0,0,0,0-4l-.82-.11-3.06,16.55-.21,0q.4-5.76.82-11.52l-.68-.09a59.35,59.35,0,0,0-1.46,7.84c-.15,2.57-1.08,3.92-3.9,4.14V422.17l-.8-.06q-.78,8-1.55,15.92c-2.87-.31-6-4.67-5.86-7.94.45-9.18.79-18.36.94-27.55-2.83,8.7-2.72,17.78-4,26.67a20.65,20.65,0,0,1-2.08,6.22c-2.18,4.26-4.62,8.38-7.3,13.19-.62-2-1.1-3.4-1.51-4.85-2.27-8-1.34-16.11-.36-24.24.92-7.61,1.28-15.28,1.89-22.92l-.6-.07q-.54,3.25-1.09,6.51l-.29,0q-.56-3.06-1.09-6.14l-.36,0c-.47,6.65-.95,13.29-1.45,20.2l-2.41-1.49a23.6,23.6,0,0,1,.95,3.74c.24,3.14.88,6.39.35,9.42a200,200,0,0,1-5.3,21.71,3.63,3.63,0,0,1-.38-1.33c.69-4.79,1.91-9.56,2.06-14.37.64-20.46,1-40.92,1.36-61.39.14-8.4-2.1-16.14-7.69-22.67A6.77,6.77,0,0,1,221.11,349.64Z" transform="translate(0.04 0.44)"/><path class="cls-1" d="M393.87,509.17c2.31,1.74,4.57,3.36,6.73,5.1,6.33,5.14,9.13,12.2,10.33,20,1.47,9.51.48,19-.84,28.44-2.21,15.66-4.59,31.33-7.79,46.81-2.15,10.42-7.28,19.91-12.45,29.22-.84,1.51-2.18,3.41-4.09,2.55a7.68,7.68,0,0,1-4-4c-.66-2.07-.32-4.57,0-6.82,1.17-8.62,2.35-17.25,3.81-25.82,1-5.9,2.7-11.68,3.68-17.58,1.46-8.72,2.56-17.51,3.81-26.27l-.9-.21c-1.85,6.39-3.73,12.77-5.54,19.16s-3.42,13.16-5.56,19.6-5,12.42-7.67,18.58l-1.19-.12c-.39-1.46-.85-2.89-1.14-4.36-.45-2.29-.83-4.6-1.12-6.91a4,4,0,0,1,.51-1.82A334.42,334.42,0,0,0,388.61,542c.74-4,.19-8.29.47-12.42a49.17,49.17,0,0,1,1.25-8.64C391.3,517,392.66,513.12,393.87,509.17Zm7.34,54.49a1.28,1.28,0,0,1-.26-.07s0-.14,0-.22c.23-4.38.58-8.76.63-13.14a28,28,0,0,0-.93-5.36l-.82.11c-.58,9.26-1.93,18.5-.93,28.45l1.19-1.81c.19.94.36,1.81.58,2.88,2.35-2.28,5.57-18.16,3.76-20.58C403.24,557.46,402.23,560.55,401.21,563.66Z" transform="translate(0.04 0.44)"/><path class="cls-1" d="M431.31,541.65a12.06,12.06,0,0,1,2.84.28c5.29,1.79,10.53,3.75,15.83,5.52a29.09,29.09,0,0,0,16.1.31,12.26,12.26,0,0,1,10.06,1.52c4.56,2.94,9.32,5.6,14.05,8.26,1.29.73,1.26,1.58,1,2.79-1.24,6.35-2.83,12.66-3.53,19.08-1,9.21-1.06,18.52-2.08,27.72a143.86,143.86,0,0,1-3.67,18.78c-1.13,4.54-4.13,5.49-8.16,3a21.88,21.88,0,0,1-8.73-10.25,63.29,63.29,0,0,1-2.7-8.19,99.48,99.48,0,0,0-9.93-24.86,22.22,22.22,0,0,1-2.71-9.56,64.09,64.09,0,0,0-4.87-20.2c-2.63-6.08-6.28-11.16-13.13-13-.18,0-.31-.31-.46-.48Zm31.59,34.5.65-.51c-.91-1.76-2.17-3.42-2.65-5.28-.65-2.57-3.07-1.6-4.37-2.71-1.23,2.5,1.18,9.81,4,11.12.12-1.31.24-2.51.35-3.71Z" transform="translate(0.04 0.44)"/><path class="cls-1" d="M158,297.88a10,10,0,0,0,.3-2.22c-.87-10.51-1.46-21.07-2.85-31.51-.48-3.64,1.79-5.71,2.53-8.64,1,12.7,1.66,25.41,5.33,37.65l.79-.08c-.07-1.22-.11-2.45-.24-3.66-.94-9.55-2-19.09-2.84-28.64-.23-2.54-.05-5.11-.14-7.66-.14-4.44,0-5,2.57-10,.84,14.13,1.23,27.75,5.15,40.85l.76,0c0-1.29.1-2.58,0-3.86-1.1-12.34-2.19-24.68-3.39-37-.29-3,1.25-4.91,3.64-7.51,1,6.25,2,11.84,2.93,17.48.26-.3.54-.6.91-1,.85,5.69,1.61,11.21,2.51,16.7.69,4.18,1.48,8.34,2.4,12.47a4.12,4.12,0,0,1-1,4.14c-.88.95-2.14,2.06-.7,3.8l2.54-2.86,3,5c1.43-4.05,2.65-7.53,3.87-11l.64.1a9.07,9.07,0,0,1,.16,1.71,125.45,125.45,0,0,0,.64,24.88c.46,4.27-.55,8.7-.91,13.06,0,.71-.21,1.43-.23,2.14-.1,2.88.41,5.93-.4,8.58-.76,2.47-3.24,4.35-4.36,6.77-1.83,4-3.17,8.14-4.9,12.72-2.07-1.22-4.34-2.45-6.5-3.85a86.94,86.94,0,0,1-8.05-5.61,7.18,7.18,0,0,1-2.31-3.95c-1.14-6.85-2-13.76-3-20.63-.18-1.23.43-3.1-1.93-3.15-.21,0-.51-.92-.61-1.44a121.14,121.14,0,0,1-.94-38.89,2.49,2.49,0,0,1,.45-1.11c1.4,8.77.89,17.79,3.31,26.38Zm5.68,31.27c.66,4.77,2,9.29,5.42,12.89.5.54,1.61.51,2.44.74a6.24,6.24,0,0,0-.36-2.35C168.74,336.63,166.19,332.9,163.68,329.15Zm7-32.48c-7.41,1.07-11.86,5.35-9.54,9,1.21-1.91,2.1-4,3.62-5.49S168.36,298,170.65,296.67Zm3.46-1.78-.28,1.18,4.47.72.17-.83Z" transform="translate(0.04 0.44)"/><path class="cls-1" d="M212.14,671.77c-2.89-5.41-5.95-10.74-8.64-16.24-2.57-5.23-4.92-10.59-7-16a25.93,25.93,0,0,1-1.63-7.91c-.94-17.16-1.67-34.34-2.59-51.51a46.35,46.35,0,0,0-1.43-8.49c-.5-2-1.78-2.94-4.13-3.76-6.59-2.31-13.38-.74-19.94-2-3.2-.62-6.35-1.49-9.51-2.32a11.25,11.25,0,0,1-2.13-1.18c14.7-3.12,25.66-12.66,38.25-18.92,4.05-2,8-4.16,12.3-6.37a14.25,14.25,0,0,1,.34,1.88c.64,19.35.88,38.71,2,58,.87,14.75,3.13,29.41,4.29,44.15.79,10.08.75,20.23,1.08,30.34Z" transform="translate(0.04 0.44)"/><path class="cls-1" d="M264.17,548.71c.1,3.65,2.64,5.38,5.22,7.06,4.08,2.65,8.12,5.37,12.32,7.84a24.56,24.56,0,0,0,6.61,2.76c4.48,1.07,8.2,3.48,11.88,6,1.71,1.19,3,2.49,1.11,4.64-.26.29,0,1.07.05,1.62.62,8.6,1.68,17.18,1.78,25.78.14,13.1-.45,26.21-.6,39.31-.06,5.75.21,11.51.28,17.26a43.72,43.72,0,0,1-.2,6.68,8.2,8.2,0,0,1-1.68,4.37c-5.12,5.27-10.44,10.33-15.7,15.45a10.58,10.58,0,0,1-1.66,1c-.14-3.63-.42-6.86-.35-10.08.14-7,.29-14.06.74-21.08,1-15.48,2.14-30.94,3.29-46.41.79-10.78,1.17-21.54-.26-32.31a5.69,5.69,0,0,0-2.94-4.78,71.39,71.39,0,0,1-8.68-5.55c-5.41-4.2-10.65-8.62-15.91-13a1.86,1.86,0,0,1-.25-1.8c1.25-1.77,2.69-3.41,4.06-5.1Zm33.4,61.54c-.86-.67-1.6-1.49-1.82-1.37a3.41,3.41,0,0,0-1.39,1.67c-.08.22.84,1.19,1.13,1.12C296.12,611.52,296.65,610.92,297.57,610.25Z" transform="translate(0.04 0.44)"/><path class="cls-1" d="M151.78,350.16c3.2.85,6.3,2.09,10,.32a12.38,12.38,0,0,0-1.75-1c-1.13-.4-2.27-.76-3.43-1.07-7.32-1.94-9.59-6.63-7.56-14.07,1-3.64,1-7.59,1.15-11.41.18-5.35,0-10.71.07-16.07,0-.82.12-1.65.18-2.48l.72,0c.34,2.15.73,4.28,1,6.44,1,7.44,1.13,15.11,3.11,22.27,1.12,4.05,2.22,9.11,7.14,11.45,2.4,1.15,4.31,3.28,6.55,4.82,1.43,1,3.07,1.68,4.6,2.53s2.83,1.59,4.94,2.78c-3.73,1.07-3.31,3.27-3.1,5.6a111.13,111.13,0,0,1,.75,14.1c-.13,3.62-1.25,7.19-2,10.79-.13.71-.32,1.42-.61,2.68l2.76-1.66a10.53,10.53,0,0,1,.07,1.7c-.6,5.72-1,11.47-1.91,17.16-1,6.61-2.9,13-7.21,18.27a20.29,20.29,0,0,1-6.65,4.89,6.64,6.64,0,0,1-9.33-3.61c-3.29-8.23-5.54-16.72-4.62-25.7,1.47-14.43,3.1-28.84,4.65-43.26C151.54,353.82,151.63,352.09,151.78,350.16Zm7.44,49.14.89.14a19.56,19.56,0,0,0,1.14-4.06c.4-7,.84-14,.87-21,0-2.56-.08-4.86,1.62-7,.31-.39,0-1.45-.29-2.12a8.08,8.08,0,0,0-1.15-1.7c.77-.13,1.54-.24,2.3-.4s1.37-.38,2.05-.57c-.55-.55-1-1.34-1.68-1.6a36.55,36.55,0,0,0-4.23-1.11l1,1.47c-2.08,1.89-1.75,3.77.14,5.57-1.94,2.55-2.16,5.32-2,8.29.21,3.34.15,6.71,0,10.06C159.76,390,159.46,394.62,159.22,399.3Zm4.32-44a3.18,3.18,0,0,0,4.65.41,9.79,9.79,0,0,0,1.8-2.4l-.69-.69Z" transform="translate(0.04 0.44)"/><path class="cls-1" d="M502.89,675.71c-3-.22-6.09,0-8.88-.79a11.3,11.3,0,0,0-9.16,1.08c-8.76,4.69-17.7,9-27.36,11.48-11,2.77-22,5.68-33.22,7.2-6.9,1-14.21-.11-21.22-1.08-13.16-1.81-26.28-3.62-40-3,.42-.68.69-1.09.93-1.52,1-1.68.55-3.21-1.24-3.92a9.53,9.53,0,0,0-3.49-.7c-14.62.16-29.31-.92-43.84,1.37-7,1.1-13.87,3.06-20.8,4.62a6.1,6.1,0,0,1-2.68.09c2.4-2.26,4.26-5.46,7.87-5.59,6.1-.21,11.69-2.46,17.54-3.63,6.95-1.4,14.06-1.94,21.1-2.93,1.87-.27,3.93-.44,5.53-1.33,4.05-2.25,8.25-2.07,12.57-1.52,17.27,2.21,34.44,5.08,51.87,6.19,10.5.68,20.92,2.6,31.37,4.09,4.9.7,9.57.35,13.95-2.1,6.13-3.43,12.19-7,18.4-10.3a77.1,77.1,0,0,1,10.47-4.66,12.56,12.56,0,0,1,10.46.8l10,5.33Z" transform="translate(0.04 0.44)"/><path class="cls-1" d="M145.62,341.63c.72,2.21,1.44,4.42,2.18,6.66-.54.88-1.3,1.95-1.87,3.11-3.91,7.88-7.62,15.85-11.7,23.63-3.55,6.78-3.89,14.17-4.43,21.45-1.56,21.1,3.94,40.88,12,60.1.43,1,.92,2,1.4,3.05.1.2.28.36.86.41L140,444.12c4.05,3,8.39,3.05,12.58,2.68a57.94,57.94,0,0,0,12.38-2.48,10.23,10.23,0,0,0,4.76-4.15c6-9.12,11.68-18.45,13.86-29.3,1.57-7.81,2.51-15.75,3.72-23.64a3.17,3.17,0,0,1,.75-1.85,14.5,14.5,0,0,1,.14,2.07c-.71,9-1.45,18-2.17,27-.31,3.91-.58,7.82-.86,11.73-.26,3.6-.75,6.92-3.54,9.81-3.3,3.43-5.65,7.78-9,11.13-3.54,3.52-7.74,6.38-11.72,9.44a52.49,52.49,0,0,1-5.43,3.52c-5.37,3.15-10.84,5.25-16.71,1.09-3.39-2.41-6.85-4.7-10.17-7.18-.46-.34-.49-1.49-.43-2.24.18-2.51-1.41-4.48-3.35-4.28a201.87,201.87,0,0,1-3.51-58.64,18.25,18.25,0,0,1,2.6-7.55c2.9-4.87,6.41-9.36,9.35-14.2,3.9-6.41,7.57-13,11.16-19.55.58-1.06.19-2.64.28-4,.05-.64.16-1.29.24-1.93Z" transform="translate(0.04 0.44)"/><path class="cls-1" d="M190.15,335c4.11,1.94,8.18,4,12.34,5.81,3.64,1.6,7.4,2.93,11.06,4.49a5.77,5.77,0,0,1,2.34,1.8c1.67,2.34,3.11,4.83,4.76,7.18a26.69,26.69,0,0,1,5,13.3c.6,8.1.73,16.25,1.05,24.4-.58,0-.83,0-.85,0-2.16-5.1-6.67-8.11-10.69-11.36-5.82-4.71-12.12-8.83-18.23-13.19-3-2.15-6-4.33-9.12-6.38-1.85-1.23-3.85-2.21-5.77-3.32a2.12,2.12,0,0,1-1-3c1.21-2.86,2.27-5.8,3.58-8.62,1.75-3.75,3.68-7.43,5.54-11.14Zm17.46,33.18.44-.65c-5.3-3.77-10.6-7.55-15.94-11.28-.33-.23-1,0-1.45,0l-.2.72C196.13,360.73,201,365.76,207.61,368.16Z" transform="translate(0.04 0.44)"/><path class="cls-1" d="M511.19,654.84c-.69-5.05-1.58-10.08-2-15.15-1.59-18.06-3-36.13-4.54-54.19-.19-2.17.35-3,2.68-3.36,2-.29,3.88-1.67,5.84-2.47.72-.29,1.81-.71,2.28-.4a67.66,67.66,0,0,1,8.3,6c2.25,2,3.16,4.77,3.24,8,.15,5.9.78,11.78,1.07,17.67A27.84,27.84,0,0,1,524.8,625c-1.85,3.69-2.74,7.66-1.39,11.84a2.94,2.94,0,0,1-.47,2.13q-4.28,6.77-8.68,13.45c-.66,1-1.5,1.87-2.26,2.81Zm-.8-71.18c3.44,5.2,4.84,10.06,4.17,15.83,3.11-5,3-10.11-.21-13.67C513.49,584.89,512,584.52,510.39,583.66Z" transform="translate(0.04 0.44)"/><path class="cls-1" d="M428.28,586.38l-.78,8c0-15.49,1.6-31-.81-46.59a9.57,9.57,0,0,1,8.2,3.3c4.1,4.48,5.91,10.08,7.05,15.79,2.17,10.88,3.91,21.83,5.91,33.22.22-.54.41-1,.61-1.5l.79.25c.12,5.73.6,11.48.25,17.17a146.77,146.77,0,0,1-2.4,16.35c-.31,1.72-.59,3.94-2.87,4.26s-3.91-1.38-4.6-3.21c-1.8-4.75-3.72-9.56-4.66-14.52-1.41-7.37-1.85-14.91-3.06-22.32-.57-3.5-2-6.87-3-10.29Zm6.1-5.72,1.2.07c.21-.88.43-1.76.6-2.65a16.59,16.59,0,0,1,.26-1.76c2.59-.06,1.25-2.12,1-2.68a47.54,47.54,0,0,0-3.28-5.75s-.29,0-.78.09Z" transform="translate(0.04 0.44)"/><path class="cls-1" d="M117.69,706.71c-3.27,1.62-6.65,3.35-10.09,4.95-.51.23-1.34-.13-2-.32-1.63-.46-3.23-1.38-4.86-1.42-13-.31-25.86,1.21-38.7,3-5.36.75-10.75,1.39-16.44,2.11a5.61,5.61,0,0,1,.45-1.46c2.49-3.22,4.84-6.58,7.57-9.58a24.51,24.51,0,0,1,11.68-7.49c5.1-1.44,9.92-4,14.75-6.21a8.46,8.46,0,0,1,5.69-.72c6.59,1.3,11.23,5.91,16.59,9.3,2,1.28,3.92,2.81,6,3.88C111.24,704.17,114.27,705.27,117.69,706.71Z" transform="translate(0.04 0.44)"/><path class="cls-1" d="M208.6,423.53a309.66,309.66,0,0,0-1.5-44.43l1-.18a15.65,15.65,0,0,1,.65,2.64q1,15.68,2,31.36c.33,5.33.63,10.66,1.3,16a262.15,262.15,0,0,0-1.33-47.11c2,.41,2.35.77,2.46,2.78.46,8.78.88,17.57,1.33,26.36q.31,6.22.69,12.45a3.13,3.13,0,0,0,.53,1.52,207.94,207.94,0,0,0-1-40.25c2.06.75,2.36,2.13,2.41,3.7.29,9,.58,17.91.92,26.86a95.22,95.22,0,0,0,.9,10.23c1.6-12.34,1.17-24.68-.06-37.19,2.1.31,2.11,1.77,2.15,3.06.25,7.84.43,15.67.66,23.5a49.93,49.93,0,0,0,.72,7.79c1.9-9.74,1.14-19.53.77-29.31l.68-.12c.7,4.39,2,8.77,2,13.17.1,13.91-.28,27.82-.44,41.74,0,1.6-.49,2.24-2.16,1.67-8.35-2.86-14.83-7.95-18-16.29-1.16-3-1.24-6.57-1.25-9.88-.05-13.58.12-27.16.18-40.74,0-1.83-.21-3.67-.29-5.5,0-.21.17-.42.55-1.32a14.65,14.65,0,0,1,.77,2.72c.71,11.81,1.36,23.63,2.06,35.44.18,3.14.48,6.26.72,9.4Z" transform="translate(0.04 0.44)"/><path class="cls-1" d="M415.62,534.19c2.56,6,4.84,11.61,5.49,17.68,1.51,14.14.34,28.27-.31,42.4-.64,14-1.36,27.94-2.05,41.91,0,.53-.14,1.07-.3,2.38-1.28-1.11-2.55-1.71-2.95-2.66-1.1-2.62-2.39-5.35-2.64-8.13-1.08-11.76-1.55-23.59-2.75-35.34-.9-8.86,1.94-17.2,2.63-25.82C413.59,556,414.61,545.45,415.62,534.19Zm1.5,45.21.8.13a6.37,6.37,0,0,0,.52-1.28c.89-5,1.78-10,2.58-15,.08-.47-.45-1-.7-1.55-.49.42-1.31.77-1.42,1.27a71.22,71.22,0,0,0-1.25,7.53C417.35,573.42,417.29,576.41,417.12,579.4Z" transform="translate(0.04 0.44)"/><path class="cls-1" d="M539.92,681.13c6.82-12.2,7.06-25,5.5-38.32-1.53-13.12-3.67-26.28-2-39.62A38.12,38.12,0,0,0,541.17,585a18.83,18.83,0,0,0-11.87-11.09c-1.77-.61-4,.24-6.67.47-1-1-1-1.82,1-2.3,2.35-.57,5-1.17,7.26-.63a115.38,115.38,0,0,1,12.88,4.46c2.22.82,3.13,2.38,3.3,4.92,1,13.71,2.2,27.4,3.26,41.1.79,10.19,1.81,20.38,2,30.58.13,5.84-1,11.75-1.85,17.57a21.38,21.38,0,0,1-2.57,6.41C546.28,679.61,542.92,680.05,539.92,681.13Z" transform="translate(0.04 0.44)"/><path class="cls-1" d="M535,644.49a36.23,36.23,0,0,0,3.76-1.58c.54-.3,1.25-1,1.21-1.49s-.82-1.42-1.31-1.44a17.53,17.53,0,0,0-4.85.41c-1.19.29-2.35.74-2.65-.76-.12-.61.76-1.74,1.45-2.11,1.4-.72,3.05-.94,4.46-1.64.8-.4,1.34-1.33,2-2-.79-.67-1.63-2-2.37-1.9a32.23,32.23,0,0,0-6,1.34,19.92,19.92,0,0,0-2.43,1c-.65-3.12,0-5.64,1.62-8.62.33,1.18.51,1.8.69,2.44.13-.12.29-.2.34-.32a55.25,55.25,0,0,0,2-38.87,21.11,21.11,0,0,0-6.16-9.55,23.24,23.24,0,0,0-2.4-1.63c2.73-1.22,4.24-.4,5.78.64,5.64,3.82,8.27,9.29,8.88,15.92.2,2.15.61,4.28.74,6.43.26,4.2.3,8.43.57,12.63.64,9.72,1.45,19.43,2,29.15.38,6.53,1.36,13.21.42,19.58-.9,6.1-3.86,11.92-6.12,17.78a3.21,3.21,0,0,1-2.8,1.31,56.28,56.28,0,0,1-7-2.3c6.07-4.18,12-7.87,14-15C542.87,656.48,539.13,650.59,535,644.49Z" transform="translate(0.04 0.44)"/><path class="cls-1" d="M264.12,371.73c2.51-1.86,2.93-1.86,4.85.46,8.59,10.35,15.13,21.94,20.55,34.19a7.14,7.14,0,0,1,.61,3.25,33.59,33.59,0,0,0,4.3,18,20.52,20.52,0,0,1,1.51,15.66c-.83-1.34-1.4-2.32-2-3.26-2.63-3.91-5.32-7.77-7.91-11.71a14.38,14.38,0,0,1-1.76-3.61c-2.93-9.71-5.43-19.56-8.81-29.11-2.08-5.9-5.47-11.33-8.22-17C266.11,376.32,265.14,374,264.12,371.73Z" transform="translate(0.04 0.44)"/><path class="cls-1" d="M216.5,685.48c-7.41-.11-14-4.07-21.5-1.38-1-9.4-2.05-18.94-3.08-28.48l.63-.11.89,4H194q.41-9.6.83-19.19C200,656.2,204.8,672.21,216.5,685.48Z" transform="translate(0.04 0.44)"/><path class="cls-1" d="M227.85,578.46a59.18,59.18,0,0,1,15.34-12.24,94.13,94.13,0,0,1,10.05-4.46,2.78,2.78,0,0,1,2.33.39c4.15,3.22,8.21,6.56,12.29,9.86l1.31,1C264.34,576.12,234.62,580.1,227.85,578.46Z" transform="translate(0.04 0.44)"/><path class="cls-1" d="M526.13,665.64c-5.62-3.56-10.5-.83-13.14,6.43-.12-2.2-.23-4.4-.37-6.6s-.31-4.42-.45-6.48a32.51,32.51,0,0,1,3.4.41,3.76,3.76,0,0,1,2.19,1.07c1.27,2,2.14.75,2.89-.28,1.68-2.32,3.18-4.78,4.88-7.1,1.25-1.73,2.68-3.32,4-4.94,5.63,3.51,7.43,13.17,3.45,17.9s-9.22,8-15.28,10.55c-.1-1.5-.25-2.73-.25-4,0-3.31.52-3.92,3.65-5C522.68,667.12,524.19,666.42,526.13,665.64Z" transform="translate(0.04 0.44)"/><path class="cls-1" d="M307.26,423.92c-1-.39-1.22-.41-1.29-.51-4.83-6.84-10.46-13.26-14.27-20.63a222.73,222.73,0,0,0-19.86-32.15,6.7,6.7,0,0,1-.63-2,8.68,8.68,0,0,1,2.07.59,17.27,17.27,0,0,1,2.15,1.66c-1.5,2.06-.26,3.09,1.51,3.35,2.46.38,3.92,1.94,5.41,3.62,10.63,12,17.91,26,24.16,40.62C307.15,420,307,421.8,307.26,423.92Z" transform="translate(0.04 0.44)"/><path class="cls-1" d="M129,698.49c-2.28-6.33-5.14-59.83-3.73-67.16l.79,3.3.41,0c.23-2.85.47-5.7.7-8.54l1.09-.11a8.4,8.4,0,0,1,.76,2.32q.27,33.33.44,66.65A24.81,24.81,0,0,1,129,698.49Z" transform="translate(0.04 0.44)"/><path class="cls-1" d="M269.48,538.29c-.3-2.49-.61-5-.92-7.46h-.24c-.19,1.63-.39,3.26-.58,4.88-2.13-17.36-1.68-34.77-2.18-52.16l1.21-.14.9,3.57c.35-1.57.66-3,1-4.39l.71-.08a5.57,5.57,0,0,1,.8,1.91q0,26.71,0,53.43a1.72,1.72,0,0,1-.14.46Z" transform="translate(0.04 0.44)"/><path class="cls-1" d="M200.59,431.78c-5.35.75-9.6,3.36-14.18,2.94l3.36-33.44.76-.06C193.31,411.44,194.57,422.15,200.59,431.78Z" transform="translate(0.04 0.44)"/><path class="cls-1" d="M211.54,575.1c-.28-7.33-.6-14.65-.82-22-.22-7.1-.32-14.21-.51-21.31-.08-2.63-.14-2.62,2.27-1.65.17.06.44-.16.67-.19s.26.11.71.31v42.38l-.17,0-.78-6.35h-.2q-.37,4.38-.73,8.76Z" transform="translate(0.04 0.44)"/><path class="cls-1" d="M249.37,505.54c.63,1.46,1.35,2.36,1.35,3.26,0,11.66,0,23.32-.19,35a56.34,56.34,0,0,1-1,7.31C247.61,545.28,247.44,512.49,249.37,505.54Z" transform="translate(0.04 0.44)"/><path class="cls-1" d="M109,497.17l16.07-25.84,3,1.5c-3.7,6.3-7,12.61-11,18.45-1.81,2.62-5,4.3-7.58,6.4Z" transform="translate(0.04 0.44)"/><path class="cls-1" d="M262,155.58a37.53,37.53,0,0,1-14.57-6.12c-.63-.46-.81-1.55-1.21-2.34a11.25,11.25,0,0,1,2.36-.24c2.22.22,4.43.52,6.64.87.73.11,1.72.26,2.09.76C258.91,150.67,260.31,153,262,155.58Z" transform="translate(0.04 0.44)"/><path class="cls-1" d="M331.54,477c1.54-1.92,3.23-3.75,4.56-5.8a6.54,6.54,0,0,0,.62-3.49c-.05-2.44-.67-4.91-.4-7.3a78.07,78.07,0,0,1,2.39-11c0,4.76.05,9.52,0,14.28,0,2.47-.3,4.93-.36,7.4,0,2.18-.63,3.87-3,4.41-1.45.33-2.88.81-4.31,1.21Z" transform="translate(0.04 0.44)"/><path class="cls-1" d="M216.34,450.78l9.84,2.82c-.19,1.87-.42,4.13-.75,7.32l-9.51-9.71Z" transform="translate(0.04 0.44)"/><path class="cls-1" d="M200.75,234.73a16.17,16.17,0,0,1,1.5-3.52c2-2.65,4.26-5.14,6.36-7.75s4.08-5.21,6.12-7.83l.59.19c-.14.73-.06,1.64-.47,2.16-4.24,5.48-8.56,10.89-12.88,16.31C201.85,234.44,201.56,234.45,200.75,234.73Z" transform="translate(0.04 0.44)"/><path class="cls-1" d="M190.21,334.92c-1.49,1.52-3.32,2.82-4.37,4.58-2.05,3.42-3.67,7.09-5.45,10.66-.35.69-.64,1.41-1,2.12l-.86-.11a6.17,6.17,0,0,1,.17-2.38c2.88-5.59,5.86-11.14,9-17.1,1,.94,1.66,1.62,2.37,2.29Z" transform="translate(0.04 0.44)"/><path class="cls-1" d="M516.57,655.34c2.81-4,5.61-8,8.48-11.93.21-.29.92-.21,1.4-.31.11.64.53,1.49.27,1.88-2.37,3.47-4.81,6.89-7.34,10.23-.42.55-1.41.67-2.14,1Z" transform="translate(0.04 0.44)"/><path class="cls-1" d="M151.76,267.1c1.05,4.06-1,7.91-1,12.26-2.69-2.71-2.83-3.89-1.34-6.82a13,13,0,0,0,.92-2.7c.23-.9.33-1.84.49-2.77Z" transform="translate(0.04 0.44)"/><path class="cls-1" d="M148.47,283.24c1.9,2.95,3.7,18.57,2.1,20.3C149.86,296.68,149.18,290.15,148.47,283.24Z" transform="translate(0.04 0.44)"/><path class="cls-1" d="M158.7,696.17a26.74,26.74,0,0,1,15.94-6.88Z" transform="translate(0.04 0.44)"/><path class="cls-1" d="M213.26,225.54l-.15-1.71c-1.4,1.5-2.57,2.77-3.74,4l-.29-.22c2.07-2.87,4.14-5.75,6.31-8.78C216.93,223.14,216.82,223.49,213.26,225.54Z" transform="translate(0.04 0.44)"/><path class="cls-1" d="M223,253.86l4.06,4.07-2.88,1.94C222.35,257.89,221.27,256,223,253.86Z" transform="translate(0.04 0.44)"/><path class="cls-1" d="M155.92,253.43c.76,3.24-1.37,5.5-2.59,8.13-.36-1.85-2.22-3.76.7-5.32C154.91,255.78,155.3,254.39,155.92,253.43Z" transform="translate(0.04 0.44)"/><path class="cls-1" d="M219.72,250.48c-.72,1.29-1.45,2.57-2.17,3.85l-.3-.08c.08-.36.16-.72.23-1.08.37-1.69,2.21-3.13.81-5.14-.13-.19.35-.8.56-1.24,3,2.35,3.86,5.38,2.37,7.34l-.8-3.59Z" transform="translate(0.04 0.44)"/><path class="cls-1" d="M280.38,363.24c-.34-2.49-.88-5-1-7.47a7.93,7.93,0,0,1,1.42-4.23v11.8Z" transform="translate(0.04 0.44)"/><path class="cls-1" d="M202.92,472.79c.65-.34,1.28-.92,2-1,2.21-.14,3.46,1.19,4.29,3.45l-6.09-1.83Z" transform="translate(0.04 0.44)"/><path class="cls-1" d="M185.88,368.69l-4.73-7.15C184.77,362.33,185.94,364,185.88,368.69Z" transform="translate(0.04 0.44)"/><path class="cls-1" d="M333.6,250.78c0,.7.26,1.55,0,2.05a40.78,40.78,0,0,1-4.68,6.38q2-4.23,4.06-8.44Z" transform="translate(0.04 0.44)"/><path class="cls-1" d="M208.59,337.61l2.54,1.3,2.35,1.79-.66.93-5.87-3,.11-.74Z" transform="translate(0.04 0.44)"/><path class="cls-1" d="M158.57,250.43c-1.37-3.07-1.29-3.24,2.71-6.16C160.38,246.32,159.48,248.38,158.57,250.43Z" transform="translate(0.04 0.44)"/><path class="cls-1" d="M240.87,143l5,3C244.51,147.67,243.29,147,240.87,143Z" transform="translate(0.04 0.44)"/><path class="cls-1" d="M198,104.29c.46-2.09,2.5-2.84,3.86-4.15l.56.49-3.79,4.2Z" transform="translate(0.04 0.44)"/><path class="cls-1" d="M173.89,463.1H178C176.93,465.33,176.93,465.33,173.89,463.1Z" transform="translate(0.04 0.44)"/><path class="cls-1" d="M202.48,412.54c.3,2.55.61,5.1.91,7.65l-.62.06-.6-7.7Z" transform="translate(0.04 0.44)"/><path class="cls-1" d="M205.32,224.26l-2.09,3.5-1-.5c.64-1.19,1.27-2.39,1.91-3.59Z" transform="translate(0.04 0.44)"/><path d="M205.37,152.33c-2.19-2-4.08-4.52-3-8.4l1.52.6.35-.44-4.1-3.58c1.08.07,1.53,0,1.74.13,4.63,3.89,10.32,4.36,16,5a38.16,38.16,0,0,1,5.15,1c.44.1.78.63,1.12.93-4.87.75-9.66,1.34-14.36,2.29C208.28,150.17,207,151.41,205.37,152.33Z" transform="translate(0.04 0.44)"/><path d="M284.09,156.54a36.32,36.32,0,0,1-11.94-6.32c-7.82-6-14-13.5-20.38-20.9-6.09-7.1-12.25-14.13-20.33-19.11a26.67,26.67,0,0,1-4.41-3,11.26,11.26,0,0,1,1.51.42c9,4,15.63,10.93,22,18.15,7,7.91,13.35,16.38,21.76,22.87C275.93,151.43,279.93,153.76,284.09,156.54Z" transform="translate(0.04 0.44)"/><path d="M233.18,144.48c0,1.69.11,3.4,0,5.07-.49,5.95-.09,12.21-1.87,17.75-2.28,7.08-5.78,14-12.83,18a5.33,5.33,0,0,1-2.68.92c.91-.68,1.79-1.42,2.74-2.06,6.78-4.5,10-11.31,11.65-18.86,1-4.64,1.25-9.46,1.76-14.21.24-2.2.3-4.42.44-6.63Z" transform="translate(0.04 0.44)"/><path d="M222.07,143.08c-1.34.33-2.74,1.08-4,.91-4-.52-8-1.33-11.92-2.18a6.15,6.15,0,0,1-2.59-1.6c-.44-.39-.51-1.18-.75-1.79a6,6,0,0,1,1.94-.21c3.72.84,7.41,1.82,11.13,2.66,1.23.28,2.53.24,3.79.44a22.17,22.17,0,0,1,2.36.62Z" transform="translate(0.04 0.44)"/><path d="M228.59,236.16c1.63-2.58,3.12-4.6,4.26-6.8,1.36-2.62,2.44-5.38,3.6-8.1s2.28-5.45,3.42-8.17l3.59-8.62C243.76,210.55,232.6,234.87,228.59,236.16Z" transform="translate(0.04 0.44)"/><path d="M203.09,190.37c-1.91,1.24-3.71,3.1-5.78,3.49-1.25.24-2.94-1.79-4.42-2.8.34-.43.66-1.22,1-1.23,3-.1,5.93-.06,8.9-.06Z" transform="translate(0.04 0.44)"/><path d="M312.74,298.36l.55-6.35c-.56,1.42-1,2.45-1.37,3.48l-.82-.24,2.16-8.62c1.07,4,1.59,7.93.13,11.76Z" transform="translate(0.04 0.44)"/><path d="M303.93,275.18c.18-4.42,2.71-10.2,5.17-11.29Q306.52,269.53,303.93,275.18Z" transform="translate(0.04 0.44)"/><path d="M204.5,175.5c3.54.08,9.47,4.67,10.18,8.13Z" transform="translate(0.04 0.44)"/><path d="M188.7,170.12l9.39,4-.36.85c-3.43-.61-6.3-2.55-9.35-4.06Z" transform="translate(0.04 0.44)"/><path d="M297.24,231.12,293.07,240l-.95-.43,4-9Z" transform="translate(0.04 0.44)"/><path d="M230.05,255.71c.09-.41,0-.94.28-1.2,3.54-3.78,7.11-7.53,10.67-11.28l.79.72c-.77.87-1.51,1.8-2.34,2.62-3.11,3.07-6.26,6.1-9.41,9.16Z" transform="translate(0.04 0.44)"/><path d="M196.5,170.84l5.42,1c-1.78,2.66-3.62,2.41-5.59-.21Z" transform="translate(0.04 0.44)"/><path d="M290.76,237.52l4.14-9.44C295.45,230.52,293.6,234.86,290.76,237.52Z" transform="translate(0.04 0.44)"/><path d="M306,280.91l4-8.88.81.37q-2.07,4.46-4.16,8.9Z" transform="translate(0.04 0.44)"/><path d="M297.75,234.44c-.84,2.49-1.69,5-2.53,7.48l-.9-.31,2.56-7.53Z" transform="translate(0.04 0.44)"/><path d="M229.42,187.73l1-5.46,1.06.15-.83,5.48Z" transform="translate(0.04 0.44)"/><path d="M227.3,191.14c.13-1.61.27-3.23.41-4.85l1.07.1c-.14,1.61-.27,3.22-.41,4.83Z" transform="translate(0.04 0.44)"/><path d="M75,570.24l-2.39,1.46c16.27,7.57,32.85,8.43,50.06,6.34-1,.62-2.06,1.3-3.15,1.84a39.89,39.89,0,0,1-19.3,3.93,64.37,64.37,0,0,1-29.63-7.69,12.71,12.71,0,0,1-3.8-3.19,3.51,3.51,0,0,1-.24-3,3.18,3.18,0,0,1,2.56-1.22,48.47,48.47,0,0,1,5.82.9Z" transform="translate(0.04 0.44)"/><path d="M49.2,578.9c21.43,11.5,43.9,12.83,67.13,7.33-3.06,2.91-6.87,4.17-10.66,5.15-18.14,4.67-35.38,2-51.69-7-2-1.09-3.52-3-5.26-4.48Z" transform="translate(0.04 0.44)"/><path d="M135.31,499.5a98.15,98.15,0,0,1-24.58,25.56l-.87-.57a6.88,6.88,0,0,1,.57-2.29,27.9,27.9,0,0,1,3.91-5.08c5.39-5,10.93-9.75,16.42-14.59,1.36-1.19,2.74-2.35,4.11-3.53Z" transform="translate(0.04 0.44)"/><path d="M110.37,592.79c-4.15,7-9.59,12.67-14.24,15.53Z" transform="translate(0.04 0.44)"/><path d="M232.79,491.19c-4.13,6.75-8.95,12.82-15.35,17.48Z" transform="translate(0.04 0.44)"/><path d="M76.24,526.8l2,1.12-.44.8a8.1,8.1,0,0,1-2.43.41c-.77-.11-1.91-.52-2.11-1.07a2.92,2.92,0,0,1,.49-2.53,11.2,11.2,0,0,1,4-2.54Z" transform="translate(0.04 0.44)"/><path d="M124.82,544.4l2.51,3.47c-.56,1-1.35,2.61-2.86,1.46C122.44,547.78,124.33,546.08,124.82,544.4Z" transform="translate(0.04 0.44)"/><path d="M144.07,550.91l2,1.65c-.61.5-1.18,1.29-1.85,1.4-.52.09-1.18-.69-1.77-1.08Z" transform="translate(0.04 0.44)"/><path d="M136.27,541.4a13.48,13.48,0,0,1-.37,2.85c-.14.41-.9.63-1.38.93-.15-.54-.58-1.19-.41-1.59a14.82,14.82,0,0,1,1.6-2.41Z" transform="translate(0.04 0.44)"/><path d="M374.88,396.73l-3.76,4.68-.66-.49c2.22-4.57,3.44-9.73,8.08-12.75,1.13,4.75-1.31,13.07-4.9,14.7C374.1,400.6,374.49,398.69,374.88,396.73Z" transform="translate(0.04 0.44)"/><path d="M376.06,465.18c-.44,4.59-4.47,10.53-8.61,11.67l8-12Z" transform="translate(0.04 0.44)"/><path d="M373.91,387.05c.06.51.32,1.13.13,1.53q-2.12,4.53-4.42,9c-.18.35-.93.41-1.41.6-.12-.48-.5-1.1-.32-1.44,1.7-3.31,3.49-6.58,5.26-9.86Z" transform="translate(0.04 0.44)"/><path d="M379.31,523.86c.87-4.63,1.66-8.89,2.56-13.67C384.1,513.23,382.34,522.39,379.31,523.86Z" transform="translate(0.04 0.44)"/><path d="M375.4,521.37c.87-4.33,1.75-8.65,2.72-13.47,1.51,3.09.58,8.4-2,13.59Z" transform="translate(0.04 0.44)"/><path d="M372.51,466.35a17.05,17.05,0,0,1-7,8.22l-.54-.45,6.87-8.29Z" transform="translate(0.04 0.44)"/><path d="M264.62,616.5c-3.16,6.15-8.88,9.92-13.9,14.34Z" transform="translate(0.04 0.44)"/><path d="M245.69,641l2.15-2a32.68,32.68,0,0,1,2.3,3.6c.11.23-.83,1-1.28,1.5C247.92,643.22,247,642.29,245.69,641Z" transform="translate(0.04 0.44)"/><path d="M242.11,659.67c-.21,1.14-.25,3.23-2.19,2.6-2.72-.89-1.17-3.42-1.36-5.3Z" transform="translate(0.04 0.44)"/><path d="M240.6,600.41c.31.69,1,1.56.82,2a3.72,3.72,0,0,1-2,1.6c-.22.09-1.31-.92-1.25-1.28.13-.67.82-1.22,1.28-1.83Z" transform="translate(0.04 0.44)"/><path d="M401.21,563.66c1-3.11,2-6.2,3.18-9.74,1.81,2.42-1.41,18.3-3.76,20.58-.22-1.07-.39-1.94-.58-2.88l-1.19,1.81c-1-9.95.35-19.19.93-28.45l.82-.11a28,28,0,0,1,.93,5.36c-.05,4.38-.4,8.76-.63,13.14,0,.08,0,.2,0,.22A1.28,1.28,0,0,0,401.21,563.66Z" transform="translate(0.04 0.44)"/><path d="M462.9,576.15l-2.07-1.09c-.11,1.2-.23,2.4-.35,3.71-2.77-1.31-5.18-8.62-4-11.13,1.3,1.12,3.72.15,4.37,2.72.48,1.86,1.74,3.52,2.65,5.28Z" transform="translate(0.04 0.44)"/><path d="M163.68,329.15c2.51,3.75,5.06,7.48,7.5,11.28a6.24,6.24,0,0,1,.36,2.35c-.83-.23-1.94-.2-2.44-.74C165.71,338.44,164.34,333.92,163.68,329.15Z" transform="translate(0.04 0.44)"/><path d="M170.65,296.67c-2.29,1.32-4.42,2.11-5.92,3.55s-2.41,3.58-3.62,5.49C158.79,302,163.24,297.74,170.65,296.67Z" transform="translate(0.04 0.44)"/><path d="M174.11,294.89l4.36,1.07-.17.83-4.47-.72Z" transform="translate(0.04 0.44)"/><path d="M297.57,610.25c-.92.67-1.45,1.27-2.08,1.42-.29.07-1.21-.9-1.13-1.12a3.41,3.41,0,0,1,1.39-1.67C296,608.76,296.71,609.58,297.57,610.25Z" transform="translate(0.04 0.44)"/><path d="M159.22,399.3c.24-4.68.54-9.35.69-14,.11-3.35.17-6.72,0-10.06-.18-3,0-5.74,2-8.29-1.89-1.8-2.22-3.68-.14-5.57l-1-1.47A36.55,36.55,0,0,1,165,361c.67.26,1.13,1.05,1.68,1.6-.68.19-1.36.41-2.05.57s-1.53.27-2.3.4a8.08,8.08,0,0,1,1.15,1.7c.26.67.6,1.73.29,2.12-1.7,2.11-1.61,4.41-1.62,7,0,7-.47,14-.87,21a19.56,19.56,0,0,1-1.14,4.06Z" transform="translate(0.04 0.44)"/><path d="M163.54,355.29l5.76-2.68.69.69a9.79,9.79,0,0,1-1.8,2.4A3.18,3.18,0,0,1,163.54,355.29Z" transform="translate(0.04 0.44)"/><path d="M207.61,368.16c-6.62-2.4-11.48-7.43-17.15-11.24l.2-.72c.49,0,1.12-.2,1.45,0,5.34,3.73,10.64,7.51,15.94,11.28Z" transform="translate(0.04 0.44)"/><path d="M510.39,583.66c1.63.86,3.1,1.23,4,2.16,3.24,3.56,3.32,8.69.21,13.67C515.23,593.72,513.83,588.86,510.39,583.66Z" transform="translate(0.04 0.44)"/><path d="M434.38,580.66l-1-12.68c.49-.06.75-.14.78-.09a47.54,47.54,0,0,1,3.28,5.75c.24.56,1.58,2.62-1,2.68a16.59,16.59,0,0,0-.26,1.76c-.17.89-.39,1.77-.6,2.65Z" transform="translate(0.04 0.44)"/><path d="M417.12,579.4c.17-3,.23-6,.53-8.95a71.22,71.22,0,0,1,1.25-7.53c.11-.5.93-.85,1.42-1.27.25.52.78,1.08.7,1.55-.8,5-1.69,10-2.58,15a6.37,6.37,0,0,1-.52,1.28Z" transform="translate(0.04 0.44)"/></svg>