<svg id="Layer_1" data-name="Layer 1" xmlns="http://www.w3.org/2000/svg" viewBox="0 0 574.56 782.4"><defs><style>.cls-1{fill:transparent;}</style></defs><path class="cls-1" d="M0,659.56V625.48c2.25,1.18,2.12-1,3.41-2.37L0,622.6V525.16l3.92-2.37-.37-1L0,522.76V-.44H574.52q0,390.12,0,780.24A10.42,10.42,0,0,1,574,782c0-.88.08-1.76.08-2.63,0-58.16-.08-116.32.1-174.48a33.74,33.74,0,0,0-5.6-18.93,8,8,0,0,1-1.31-4.9,78.39,78.39,0,0,0-.11-10.73c-.62-6.11-2.43-11.94-6.25-16.85-7.25-9.3-16.83-14-28.69-13.59-4.45.14-9.07.62-12.33,3.83a82.26,82.26,0,0,0-11.3,13.23,40.19,40.19,0,0,1-10,10.81,13.33,13.33,0,0,1-4.63,2.15c-2.29.56-1.75,2.8-2.74,4.1a6.64,6.64,0,0,0,2.07,2.14c1.64,1,3.45,1.67,5.15,2.56.51.27,1.26.8,1.26,1.21,0,2.1.37,4.18-1.2,6.15-3,3.73-5.68,7.73-8.53,11.59-1.11,1.51-1.23,3.13.07,4.35,1.75,1.66,3.83,3,5.75,4.46.62.49,1.69,1.08,1.68,1.59-.06,2.25.76,4.92-1.75,5.83l1.85,3.71c-2.56-.48-4.54-.92-6.56-1.16-.42,0-1.14.59-1.37,1.08a15,15,0,0,0-.69,2.93l5.54-2.67c-4.38,18.57-3.19,36.77-3.82,54.94a69.21,69.21,0,0,1-5.49-7.91c-3.89-6.69-7.64-13.46-11.51-20.16-.66-1.14-1.88-2-2.35-3.2-1.18-2.92-2.13-3.88-5.21-3.88-4.62,0-9.25.15-13.87.28-4,.1-5-1.41-3.5-5.07,1.13-2.78,2.55-5.75,2.54-8.63a100.86,100.86,0,0,0-1.65-15.65c-1.25-7.64-2.46-15.32-6.37-22.22a8,8,0,0,0-4.42-4.11c-1.87-.63-3.66-1.51-5.56-2.31.32-1.26.61-2.44,1-4-.88.39-1.34.53-1.74.77a10.55,10.55,0,0,1-7,1.43c-6.77-.79-13.22.36-19,4.37-2.42,1.69-4.82,3.43-7.38,4.89-1.67,1-3.46,1.55-3.54,3.93a1.62,1.62,0,0,1-1.05,1.17c-2.56.16-2.58,2.31-3.41,3.94s-2.13,3.25-3.17,4.89c-.55.87-1,1.81-1.5,2.72l.56.33,1.88-.64c-.1.73-.14,1.2-.22,1.65a126.16,126.16,0,0,0-1.57,27.52,51.35,51.35,0,0,1-.71,8.82c-.28,2-1.35,2.35-3,1.34a4.67,4.67,0,0,0-2.08-.51,26.12,26.12,0,0,1-3.55-.11c-2.16-.47-4.27-1.19-6.55-1.85l-.76,1.3-5.88-6.32-.31.23.93,3-.69.49c-.49-.5-1.43-1-1.39-1.49.19-2.47-1.38-3.89-2.75-5.56s-2.48-3.56-1.85-5.93a24.38,24.38,0,0,0,1.14-4.68c.21-3.24-.28-6.6,2.08-8.86a25.79,25.79,0,0,1-3.08-2.65c-8.64-10.24-18.68-18.63-31.31-23.48-2.92-1.12-5.83-2-8.15-4.26a3.38,3.38,0,0,0-2.64-.33c-.89,2.06-2.46,1.43-3.85,1.14-5.09-1.09-9.49.53-13.46,3.51-5.84,4.39-10.5,9.91-14.79,15.78a39.23,39.23,0,0,0-6.38,13.78c-.5,2-.64,4.16-1.52,6-2.16,4.36-4.52,8.64-7.05,12.8-3,4.88-3.08,4.76,2.52,5.5,1.7.22,3.73.44,4,2.65.63,4.39,1.08,8.81,1.55,13.22.15,1.43.06,2.88.21,4.31a8.12,8.12,0,0,0,5.1,7.25c2.34,1,4.66,2,7.05,2.9,1.87.7,3.83,1.18,5.74,1.76l.23.66c-3.23,1.66-6.42,3.42-9.71,4.95-4.55,2.12-9.18,4.05-13.76,6.1a4.65,4.65,0,0,0-2.76,3.88c-1,6.74-2.26,13.45-3.22,20.2-1.09,7.63-1.93,15.28-3,22.92-.47,3.48-.41,7.13-2.61,10.32-3.19-3.35-6.3-6.55-9.29-9.85a2.67,2.67,0,0,1-.21-2.12c1.45-5.31,3.29-10.54,4.43-15.92,2.36-11.19,4.55-22.52,1.59-33.9-2.09-8-5.05-15.76-13.25-19.86a3.47,3.47,0,0,1-1.23-1.12C237,650,227.35,647,217.82,644.32c-8.33-2.35-16.65-.64-24.77,1.92a16.16,16.16,0,0,1-3.93.93c-11.54.5-20.66,5.7-27.91,14.39C153,671.41,147.68,682.81,144,695c-.79,2.62-1.47,5.27-2.2,7.91-.68-4.38-3.89-6.57-7.2-8.57-3.69-2.23-7.46-4.35-11.26-6.38a34.74,34.74,0,0,1-12.5-11.67c-.95-1.41-1.24-3.26-1.85-5,7.77-1.76,11.75-3.74,15.35-7.73.75-.83,1.72-2.28,1.46-3.07-1.35-4.06-3-8-4.67-12-1.42-3.35-3.1-6.59-4.5-9.95a2.73,2.73,0,0,1,.39-2.39,28.2,28.2,0,0,1,4.51-3.87c1.73-1.19,2.32-2.54,1-4.14a53,53,0,0,0-5.35-5.13c-3.25-2.86-6.68-5.52-9.8-8.5-2.7-2.59-4.82-5.8-7.64-8.24-5.81-5-12.53-7.59-20.07-4.43a36.46,36.46,0,0,0-10,6.23,134.78,134.78,0,0,0-13.57,14c-4.55,5.47-5.79,12.52-7.42,19.22a62.79,62.79,0,0,0-.21,30.31c1.29,5.16,3.14,10.12,7.81,13.27a66.32,66.32,0,0,0,6.5,3.42c-5.42,2.7-10.73,5.2-17,4.72a93.43,93.43,0,0,0-13.06-.3c-2.84.17-5.62,1.31-8,1.91-1.17-4.83-2.17-9.65-3.54-14.37a18.52,18.52,0,0,0-6.34-9.66c-3.63-2.87-7-6-10.67-8.89A24.93,24.93,0,0,0,0,659.56ZM399.31,518.93l.07.06.84-.46c7.28-4.07,8.3-6.23,7.39-14.5a21.37,21.37,0,0,1,.31-6.43c1.26-6.18,2.51-12.39,4.18-18.47,5-18.11,10.13-36.17,15.28-54.23a52.25,52.25,0,0,1,2.29-5.64L365.31,353c5.57-.9,9.84.48,13.35,3.82,4.16,3.95,8.07,8.17,12.11,12.26,2.67,2.7,5.72,5,9.7,4.28a107.89,107.89,0,0,0,14.06-3.53,11,11,0,0,0,4.91-3.62c1-1.28,1.22-3.25,1.49-5,.14-.92-.53-1.95-.51-2.93.06-3.28.28-6.55.41-9.83q.33-8.08.64-16.17a8.46,8.46,0,0,1,2.2,3.94,2.86,2.86,0,0,0,2.78,2.7c6.58.6,13.36.59,18.05-4.76,5.24-6,10.28-12.25,13.21-19.86.77-2,1.88-3.88,2.69-5.88,2.15-5.31,4.38-10.6,6.24-16,.71-2.09.49-4.5.74-7.36,6.21,5.46,12.1,10.58,17.92,15.78,1.31,1.17,2.32,2.67,3.58,3.89,1.88,1.83,5.1,2.56,4.87,6.1,0,.22.39.67.59.66,1.63-.06,2.27,2.56,4.22,1.52,1.95,2.15,3.32.18,4.65-.81a27.1,27.1,0,0,0,3.63-3.48q17.56-18.79,35.08-37.59c-.45-.77-.75-1.24-1-1.73-1.44-2.81-4.6-3.47-6.77-5.38-12.07-10.6-24.25-21.09-36.3-31.71a4,4,0,0,1-.82-3.1,5.71,5.71,0,0,0-2.27-5.79c.87,2.17,2.17,4.28.54,6.69-1.74-.95-2.66-1.92-2.05-4.18.9-3.35-.07-5-3.15-6.26,2.34,2.21,3,4.43,1.16,7.17-.87-1-2-2.14-1.9-3.2.36-5.16-.75-6.63-6.05-9.87l-2,3.73-.79.21c-.41-1-.83-2-1.23-3-.79-1.95-1.29-4.08-2.43-5.78-.68-1-2.35-1.33-4.05-2.21v3.75c-5.27-4.66-10.26-9-15.13-13.46a2.94,2.94,0,0,1-.19-2.51c7.2-19.74,2.09-40.1-13.65-54.13-.68-.61-1.34-1.25-2.13-2,3.12-3.27,6.09-6.29,9-9.39,6.57-7.09,13.14-14.18,19.58-21.39,1-1.16,2.13-3.05,1.91-4.4-.45-2.85-1.73-5.58-2.69-8.35a35.63,35.63,0,0,0-13.05-17.27c-4.08-3-7.64-6.78-11.4-10.25C439.1,62,433.46,56.12,427.18,51.07c-5.35-4.29-4.86-3.55-9.06.43-.69.66-1.36,1.35-2,2.07-5,5.73-9.81,11.61-15,17.17-7.6,8.17-15.54,16-23.15,24.18-4.24,4.55-8.05,9.51-12.13,14.23-3,3.42-3.7,3.43-6.95.56L302.86,60.12c-4.07-3.6-8.15-7.19-12.18-10.85-3.39-3.08-6.59-6.39-10.1-9.33-4.41-3.69-9.06-7-12.29-12a20,20,0,0,0-4.54-4.56c-3.83-3-7.84-5.74-11.72-8.67-3.28-2.47-5-2.46-7.81.55C236,23.94,227.85,32.59,219.8,41.37a81.61,81.61,0,0,0-6.72,8.73c-1.76,2.56-1.44,4,.89,6,4.95,4.42,9.95,8.79,14.88,13.22Q250.71,89,272.51,108.65c8.1,7.32,15.84,15,24.71,21.48a42.1,42.1,0,0,1,10,10.2,35,35,0,0,0,8.77,8.61,43.29,43.29,0,0,1,6,6,2.24,2.24,0,0,1,0,2.16c-5,6.12-9.95,12.29-15.22,18.18-9.54,10.65-19.29,21.12-29,31.66-14.55,15.85-28.94,31.84-43.7,47.49-14.15,15-28.88,29.47-43,44.5-17.47,18.58-34.57,37.5-51.88,56.22a21.32,21.32,0,0,1-3.23,2.2,4.5,4.5,0,0,0-1.22,1.35c-.48.83-.63,1.91-1.24,2.57Q76.17,422.72,18.71,484.09c-1.78,1.91-3.55,3.83-5.17,5.59a24.31,24.31,0,0,1,3.2,2.17c2.26,2.13,4.09,4.86,6.64,6.49,7,4.48,12.31,10.54,17.43,16.88,4,5,8.72,9.53,11.77,15.34,2.55,4.88,7.09,7.9,11.21,11.25,1,.79,2.94.53,3.71,1.41,2.36,2.68,5.43,1,8.07,1.65.41.1,1.32-1.13,1.72-1.89s.25-1.91.76-2.54c3.71-4.5,7.57-8.88,11.3-13.36,9.39-11.3,18.37-23,28.19-33.88,17.54-19.49,34.67-39.35,53.36-57.79,8.13-8,15.33-17,23.58-24.9a466,466,0,0,0,35.83-38.66c2.93-3.53,6.24-6.74,9.61-10.35a14.83,14.83,0,0,1,0,1.56q-1.66,14.42-3.34,28.82c-1,8.65-1.93,17.3-2.91,26-1.08,9.44-2.38,18.86-3.19,28.33-.28,3.18-.14,6.12-3.53,7.7a1.62,1.62,0,0,0-.63.71c-2.94,5.5-6.07,10.93-8.69,16.58-.84,1.81-1.52,2.58-3.39,2.28l0,0a12.59,12.59,0,0,0-2.38,0c-2.58.53-5.11,1.45-7.71,1.71a163.86,163.86,0,0,0-34.13,7.51,24.91,24.91,0,0,0-7.88,4.34,8,8,0,0,0-3,5.41c-.36,3.62-1.26,7.17-1.86,10.38a14.37,14.37,0,0,0-3.64.35c-3,1.12-5.93,2.36-8.81,3.73-3.37,1.6-5,4.48-4.12,8.07a53.9,53.9,0,0,0,3.83,11c1.86,3.81,2.58,7.44,1.19,11.5-1.56,4.53-3.13,9.07-4.42,13.69-2.44,8.73.8,14.49,9.62,16.52A74.66,74.66,0,0,0,163.43,569c2.26.13,2.91-.89,2.73-3.15-.13-1.56-.15-3.14-.25-5.27l5.31,2.35-2.84,4.78c2.44,2.45,7.14,2.35,9.81-.54.86-.92,1.33-1.55,2.69-.62,1.66,1.15,3.09.29,4-1.31a25.45,25.45,0,0,0,1.28-3.35,2.93,2.93,0,0,0-1.3-3.93,22.1,22.1,0,0,0-3.73-1.52c-4-1.35-7.92-2.62-9.08-7.56-.91-3.93-2-7.78-1.63-12.08.47.26.72.31.84.47,1,1.35,2.06,2.66,2.93,4.09a44.61,44.61,0,0,0,19.2,17.15,180.44,180.44,0,0,0,17.71,7.14c8.6,3.12,16.76,3,24.87-1.23a46,46,0,0,0,12.37-8.78c-5.25,2.45-10,4.78-14.93,6.89a5.16,5.16,0,0,1-3.55.06c-4.16-1.64-8.17-3.65-12.33-5.28-10.67-4.18-22-7.18-29.67-16.65-2.2-2.71-4.95-5.11-6.59-8.11-3.08-5.66-5.6-11.63-8.21-17.54-1-2.3-.05-4.32,1.62-6.09,2.79-3,6.06-2.67,9.27-1.2,4.65,2.14,9.08,4.74,13.75,6.82a35.7,35.7,0,0,0,8.65,2.55c3.17.52,4.79-.67,5.85-3.71a39.3,39.3,0,0,0,1.43-5.8c.79-4.21,2.46-4.85,5.77-2.05,1.34,1.13,2.54,2.44,3.82,3.64.6.56,1.26,1.08,2.16,1.84-.09-1.15-.14-1.85-.23-3,1.91,3.06,3.47,5.75,5.22,8.32,4.22,6.19,8.95,11.9,15.54,15.73,1.94,1.13,4,2.15,6.64,1.58a68.68,68.68,0,0,1-6.33-3.33c-9.08-6-14.9-14.78-19.86-24.21a2.19,2.19,0,0,1,.2-1.91,34.7,34.7,0,0,1,2.82-3.09c4.93,2.62,7.49,8.16,13.08,9.52a46.62,46.62,0,0,1-10-11.26,25.46,25.46,0,0,1,3.09-.15c3.81.4,7.63.81,11.42,1.35a7.38,7.38,0,0,1,3.07,1.17,55.12,55.12,0,0,0,23.09,8.87,51.15,51.15,0,0,0,5.24.56c1.74.1,3.49,0,5.24,0l.06-.59c-10.27-1.65-20.72-2.71-30.21-8.94,1.71,0,2.81,0,3.9,0a52.57,52.57,0,0,0,7.65-.33c1.06-.18,1.91-1.59,2.86-2.45a12.15,12.15,0,0,0-2.6-2.05c-2.58-1.06-5.31-1.76-7.89-2.83-3.68-1.52-3.77-2.51-.47-4.88,2.27-1.63,4.77-2.94,7-4.58,6.33-4.62,8.13-10.21,5.77-17.57-.93-2.9-1.9-5.77-2.87-8.65-2.81-8.36-3.09-17.12-4.12-25.76-2.18-18.36-2.68-36.66,1.71-54.84,3.26-13.52,8-26.14,19.24-35.31,2.48-2,4.65-3.18,8.2-2.67A20.09,20.09,0,0,1,304.36,346a98.11,98.11,0,0,1,15.82,20.68,25.14,25.14,0,0,1,2.35,6.48c1.46,6.6.76,13.23-.3,19.79a270.78,270.78,0,0,0-3,46.39c.12,9.75.41,19.51.28,29.26-.09,7.62-1.11,15.12-4.52,22.14-4.5,9.28-9.08,18.5-15,27-1.94,2.81-3.58,5.94-6,8.3-4.83,4.76-10.13,9-15.15,13.62a11.05,11.05,0,0,1-7.32,3.07,15.11,15.11,0,0,0-4.73.63c-6.53,2.57-13.16,5-19.44,8.11-5.94,3-11.59,6.45-18.11,8.1-.19,0-.33.29-.49.43l0,.71c1.31.07,2.74.52,3.91.14,3.7-1.21,7.36-2.6,10.93-4.14,7.7-3.33,15.32-6.82,23-10.16a8.94,8.94,0,0,1,3.73-.77,14.74,14.74,0,0,0,11.89-5.19,39.24,39.24,0,0,1,3.13-2.7c-.22,1.1-.31,1.55-.43,2.19l1.93-1.54c.75.9,1.11,1.61,1.68,1.95,1.22.73,2.56,1.23,3.83,1.89,4,2.08,7.93,4.56,12.13,6.22,11.57,4.57,23.26,3.86,35,.45,12-3.47,23.95-7,34.25-14.5.14-.11.43,0,.68,0,.13.94.2,1.82.38,2.68.86,4.2,4.52,6.87,8.69,5.88a12.23,12.23,0,0,0,5.8-3,7.87,7.87,0,0,1,6.17-2.37c1.84,0,3.68.08,5.51.2,5.82.39,11.75,1.39,17.35-.77a16.66,16.66,0,0,1,9.16-.69,22.89,22.89,0,0,0,14.45-2.29c3-1.54,3.21-2.47,1.71-5.2a3,3,0,0,1-.31-.88c-.55-2.94-1.44-3.66-4.42-3.74-1.59,0-3.19-.31-4.78-.25a12.73,12.73,0,0,0-2.93.78l.11.7c-1.51-.17-3-.41-4.51-.5-8.78-.51-17.29-2.1-25.31-5.88A7.12,7.12,0,0,0,399.31,518.93ZM488,394c-.92.17-1.13.14-1.21.23-5.12,5.7-11.62,9.43-18.27,13-.89.48-1.32,1.8-2.08,2.91.77.18,1,.29,1.07.24,6.74-3.34,13.53-6.63,18.76-12.23C487.15,397.15,487.35,395.59,488,394Zm-47.35-44.77c-4.29.89-6.1,2.63-5.43,5.25C439.19,353,440.2,352,440.66,349.18Zm-4.84,80.22c-1.17,1.68-2.28,3.19-3.29,4.77a1.7,1.7,0,0,0,0,1.31c.08.18.71.32,1,.22C435.49,435,436.84,431.63,435.82,429.4ZM10.32,516.1c-3.72,1.68-4.42,2.49-4.08,4.77C11.09,518.43,11.63,517.81,10.32,516.1Zm191.5-90.16c-4.27.82-5.14,1.62-4.67,4.26C199.12,429.29,201.47,429,201.82,425.94ZM45.7,542.8c1.26,2.42,6.46,3.55,9.71,2.22Zm484-240.6c-3,.55-3.73,1.22-4.59,4.46C530,304.6,530.56,304.84,529.65,302.2ZM486.75,535l.47.82,11.5-6.51-.43-.76Zm6.43-210.18-1-2.37-5.84,3.78.35.58Zm-34.29,89.8c2.14-.51,3.76-1.42,3.58-4.06C458.45,411.64,457.78,412.38,458.89,414.65ZM31.83,588l7.33-7.15C35.59,582,34,585.33,31.83,588ZM507.34,384.52c2-1.31,5-1.17,4.09-4.7C509,380.33,507.87,381.92,507.34,384.52Zm15.48-17.65,3.18-4.05-.63-.62-4.59,2.38Zm-22.5-46.16.44.33,4.48-2.63L502,317C501.37,318.33,500.84,319.52,500.32,320.71Zm49-25.39c-2.42.29-4.57.87-3.92,4.6C547,298.1,548.16,296.71,549.35,295.32Zm-517.71,269,.53.41c2-.81,3.83-1.82,3.65-4.38l-.69-.54ZM543.77,259c-2.17.7-3,1.83-1.92,3.9C545.12,261.73,545.18,261.63,543.77,259ZM514.61,473.43l-.3-.48-8,4.76.54.86ZM28,591.26c3.29-3.5,3.29-3.5,1.55-4.85C29.12,588,26.71,588.84,28,591.26Zm12.45-58c1.18,2,3.51,2.5,6,1.23ZM531,360.42l1.39,3,2.32-3.25-.47-.5Zm-12.5-52.06c-2.34.41-3.81,1.47-3.27,4.53ZM23.12,568.21l-1-.66c-.89,1.43-1.77,2.87-2.65,4.3l.9.59Q21.72,570.32,23.12,568.21Zm465-76.57c-.14-.27-.29-.54-.44-.8l-5.45,4.25.44.56ZM439,428.17l1.39.35c.29-1.33.58-2.65.88-4l-1.13-.29Zm-406.57,182c-3.16,1-3.5,1.79-1.78,3.44Zm445,17.41c.68-1.82,1.15-3.07,1.72-4.61C476.33,623.52,475.93,624.8,477.44,627.53ZM465.79,339.66,467,340c.39-1.3.79-2.61,1.18-3.92l-1.12-.35ZM42.31,582.36l.31.69c1.45,0,3.1.41,3.51-2.55ZM480.25,328.63l.87.22c.39-1,.77-2,1.39-3.62l-3,1.22C479.81,327.33,480,328,480.25,328.63ZM373.17,628c-1.55,2.81-1.48,3,1.24,3.64C373.92,630.17,373.55,629.07,373.17,628ZM473.66,332.69l.78.11c.23-1.17.45-2.35.76-3.94C472.8,330,473,331.27,473.66,332.69Zm86.81-43.4-1-.59-2,3.88.84.48ZM502,481.56l-.68-.81-3.7,2.84.66.82ZM49.18,556.76l-.64-.59c-.71.87-1.42,1.73-2.32,2.81C48.72,559.52,49.09,558.29,49.18,556.76ZM491.66,391.68l.91.46,1.68-3.6-.82-.41Zm-38.74,24.2c-2.45.6-2.56,1.71-1,3.4C452.24,418.25,452.53,417.22,452.92,415.88Zm5.69-72.22c-3.4,1.62-3.46,1.75-1.94,3.66Zm-426,165.08c-2-.4-3.53-1-3.24,1.87ZM5.27,580.12l1,.42,1.65-3.87-.87-.4C6.46,577.55,5.86,578.83,5.27,580.12ZM567.58,286.59l1,.31,1.7-3.69-1-.44Z" transform="translate(0.04 0.44)"/><path d="M0,659.56A24.93,24.93,0,0,1,4,661.76c3.62,2.89,7,6,10.67,8.89a18.52,18.52,0,0,1,6.34,9.66c1.37,4.72,2.37,9.54,3.54,14.37,2.41-.6,5.19-1.74,8-1.91a93.43,93.43,0,0,1,13.06.3c6.29.48,11.6-2,17-4.72a66.32,66.32,0,0,1-6.5-3.42c-4.67-3.15-6.52-8.11-7.81-13.27a62.79,62.79,0,0,1,.21-30.31c1.63-6.7,2.87-13.75,7.42-19.22a134.78,134.78,0,0,1,13.57-14,36.46,36.46,0,0,1,10-6.23c7.54-3.16,14.26-.61,20.07,4.43,2.82,2.44,4.94,5.65,7.64,8.24,3.12,3,6.55,5.64,9.8,8.5a53,53,0,0,1,5.35,5.13c1.36,1.6.77,2.95-1,4.14a28.2,28.2,0,0,0-4.51,3.87,2.73,2.73,0,0,0-.39,2.39c1.4,3.36,3.08,6.6,4.5,9.95,1.68,3.94,3.32,7.91,4.67,12,.26.79-.71,2.24-1.46,3.07-3.6,4-7.58,6-15.35,7.73.61,1.72.9,3.57,1.85,5A34.74,34.74,0,0,0,123.35,688c3.8,2,7.57,4.15,11.26,6.38,3.31,2,6.52,4.19,7.2,8.57.73-2.64,1.41-5.29,2.2-7.91,3.67-12.21,9-23.61,17.2-33.46,7.25-8.69,16.37-13.89,27.91-14.39a16.16,16.16,0,0,0,3.93-.93c8.12-2.56,16.44-4.27,24.77-1.92C227.35,647,237,650,243.07,658.8a3.47,3.47,0,0,0,1.23,1.12c8.2,4.1,11.16,11.82,13.25,19.86,3,11.38.77,22.71-1.59,33.9-1.14,5.38-3,10.61-4.43,15.92a2.67,2.67,0,0,0,.21,2.12c3,3.3,6.1,6.5,9.29,9.85,2.2-3.19,2.14-6.84,2.61-10.32,1-7.64,1.87-15.29,3-22.92,1-6.75,2.19-13.46,3.22-20.2a4.65,4.65,0,0,1,2.76-3.88c4.58-2,9.21-4,13.76-6.1,3.29-1.53,6.48-3.29,9.71-4.95l-.23-.66c-1.91-.58-3.87-1.06-5.74-1.76-2.39-.88-4.71-1.92-7.05-2.9a8.12,8.12,0,0,1-5.1-7.25c-.15-1.43-.06-2.88-.21-4.31-.47-4.41-.92-8.83-1.55-13.22-.31-2.21-2.34-2.43-4-2.65-5.6-.74-5.49-.62-2.52-5.5,2.53-4.16,4.89-8.44,7.05-12.8.88-1.8,1-4,1.52-6a39.23,39.23,0,0,1,6.38-13.78c4.29-5.87,8.95-11.39,14.79-15.78,4-3,8.37-4.6,13.46-3.51,1.39.29,3,.92,3.85-1.14a3.38,3.38,0,0,1,2.64.33c2.32,2.27,5.23,3.14,8.15,4.26,12.63,4.85,22.67,13.24,31.31,23.48a25.79,25.79,0,0,0,3.08,2.65c-2.36,2.26-1.87,5.62-2.08,8.86a24.38,24.38,0,0,1-1.14,4.68c-.63,2.37.47,4.26,1.85,5.93s2.94,3.09,2.75,5.56c0,.46.9,1,1.39,1.49l.69-.49-.93-3,.31-.23,5.88,6.32.76-1.3c2.28.66,4.39,1.38,6.55,1.85a26.12,26.12,0,0,0,3.55.11,4.67,4.67,0,0,1,2.08.51c1.65,1,2.72.69,3-1.34a51.35,51.35,0,0,0,.71-8.82,126.16,126.16,0,0,1,1.57-27.52c.08-.45.12-.92.22-1.65l-1.88.64-.56-.33c.49-.91.95-1.85,1.5-2.72,1-1.64,2.3-3.17,3.17-4.89s.85-3.78,3.41-3.94a1.62,1.62,0,0,0,1.05-1.17c.08-2.38,1.87-3,3.54-3.93,2.56-1.46,5-3.2,7.38-4.89,5.74-4,12.19-5.16,19-4.37a10.55,10.55,0,0,0,7-1.43c.4-.24.86-.38,1.74-.77-.38,1.54-.67,2.72-1,4,1.9.8,3.69,1.68,5.56,2.31a8,8,0,0,1,4.42,4.11c3.91,6.9,5.12,14.58,6.37,22.22a100.86,100.86,0,0,1,1.65,15.65c0,2.88-1.41,5.85-2.54,8.63-1.48,3.66-.54,5.17,3.5,5.07,4.62-.13,9.25-.28,13.87-.28,3.08,0,4,1,5.21,3.88.47,1.19,1.69,2.06,2.35,3.2,3.87,6.7,7.62,13.47,11.51,20.16a69.21,69.21,0,0,0,5.49,7.91c.63-18.17-.56-36.37,3.82-54.94L489,620.41a15,15,0,0,1,.69-2.93c.23-.49.95-1.13,1.37-1.08,2,.24,4,.68,6.56,1.16l-1.85-3.71c2.51-.91,1.69-3.58,1.75-5.83,0-.51-1.06-1.1-1.68-1.59-1.92-1.49-4-2.8-5.75-4.46-1.3-1.22-1.18-2.84-.07-4.35,2.85-3.86,5.53-7.86,8.53-11.59,1.57-2,1.18-4,1.2-6.15,0-.41-.75-.94-1.26-1.21-1.7-.89-3.51-1.58-5.15-2.56A6.64,6.64,0,0,1,491.3,574c1-1.3.45-3.54,2.74-4.1a13.33,13.33,0,0,0,4.63-2.15,40.19,40.19,0,0,0,10-10.81,82.26,82.26,0,0,1,11.3-13.23c3.26-3.21,7.88-3.69,12.33-3.83,11.86-.37,21.44,4.29,28.69,13.59,3.82,4.91,5.63,10.74,6.25,16.85a78.39,78.39,0,0,1,.11,10.73,8,8,0,0,0,1.31,4.9,33.74,33.74,0,0,1,5.6,18.93c-.18,58.16-.1,116.32-.1,174.48,0,.87,0,1.75-.08,2.63H0Z" transform="translate(0.04 0.44)"/><path d="M0,522.76l3.55-.94.37,1L0,525.16Z" transform="translate(0.04 0.44)"/><path d="M0,622.6l3.41.51c-1.29,1.39-1.16,3.55-3.41,2.37Z" transform="translate(0.04 0.44)"/><path d="M214.23,473.44c1.87.3,2.55-.47,3.39-2.28,2.62-5.65,5.75-11.08,8.69-16.58a1.62,1.62,0,0,1,.63-.71c3.39-1.58,3.25-4.52,3.53-7.7.81-9.47,2.11-18.89,3.19-28.33,1-8.66,1.92-17.31,2.91-26q1.65-14.42,3.34-28.82a14.83,14.83,0,0,0,0-1.56c-3.37,3.61-6.68,6.82-9.61,10.35a466,466,0,0,1-35.83,38.66c-8.25,7.9-15.45,16.88-23.58,24.9-18.69,18.44-35.82,38.3-53.36,57.79-9.82,10.91-18.8,22.58-28.19,33.88-3.73,4.48-7.59,8.86-11.3,13.36-.51.63-.34,1.78-.76,2.54s-1.31,2-1.72,1.89c-2.64-.67-5.71,1-8.07-1.65-.77-.88-2.73-.62-3.71-1.41-4.12-3.35-8.66-6.37-11.21-11.25-3-5.81-7.72-10.32-11.77-15.34-5.12-6.34-10.44-12.4-17.43-16.88-2.55-1.63-4.38-4.36-6.64-6.49a24.31,24.31,0,0,0-3.2-2.17c1.62-1.76,3.39-3.68,5.17-5.59q57.45-61.39,114.88-122.8c.61-.66.76-1.74,1.24-2.57a4.5,4.5,0,0,1,1.22-1.35,21.32,21.32,0,0,0,3.23-2.2c17.31-18.72,34.41-37.64,51.88-56.22,14.13-15,28.86-29.49,43-44.5,14.76-15.65,29.15-31.64,43.7-47.49,9.67-10.54,19.42-21,29-31.66,5.27-5.89,10.22-12.06,15.22-18.18a2.24,2.24,0,0,0,0-2.16,43.29,43.29,0,0,0-6-6,35,35,0,0,1-8.77-8.61,42.1,42.1,0,0,0-10-10.2c-8.87-6.47-16.61-14.16-24.71-21.48Q250.73,89,228.85,69.36c-4.93-4.43-9.93-8.8-14.88-13.22-2.33-2.08-2.65-3.48-.89-6a81.61,81.61,0,0,1,6.72-8.73c8-8.78,16.24-17.43,24.42-26.09,2.83-3,4.53-3,7.81-.55,3.88,2.93,7.89,5.69,11.72,8.67A20,20,0,0,1,268.29,28c3.23,4.93,7.88,8.29,12.29,12,3.51,2.94,6.71,6.25,10.1,9.33,4,3.66,8.11,7.25,12.18,10.85l56.06,49.59c3.25,2.87,4,2.86,6.95-.56,4.08-4.72,7.89-9.68,12.13-14.23,7.61-8.17,15.55-16,23.15-24.18,5.17-5.56,10-11.44,15-17.17.63-.72,1.3-1.41,2-2.07,4.2-4,3.71-4.72,9.06-.43,6.28,5,11.92,10.88,17.85,16.34,3.76,3.47,7.32,7.22,11.4,10.25a35.63,35.63,0,0,1,13.05,17.27c1,2.77,2.24,5.5,2.69,8.35.22,1.35-.87,3.24-1.91,4.4-6.44,7.21-13,14.3-19.58,21.39-2.87,3.1-5.84,6.12-9,9.39.79.73,1.45,1.37,2.13,2,15.74,14,20.85,34.39,13.65,54.13a2.94,2.94,0,0,0,.19,2.51c4.87,4.46,9.86,8.8,15.13,13.46v-3.75c1.7.88,3.37,1.21,4.05,2.21,1.14,1.7,1.64,3.83,2.43,5.78.4,1,.82,2,1.23,3l.79-.21,2-3.73c5.3,3.24,6.41,4.71,6.05,9.87-.07,1.06,1,2.22,1.9,3.2,1.83-2.74,1.18-5-1.16-7.17,3.08,1.23,4,2.91,3.15,6.26-.61,2.26.31,3.23,2.05,4.18,1.63-2.41.33-4.52-.54-6.69a5.71,5.71,0,0,1,2.27,5.79,4,4,0,0,0,.82,3.1c12,10.62,24.23,21.11,36.3,31.71,2.17,1.91,5.33,2.57,6.77,5.38.25.49.55,1,1,1.73Q524.4,290,506.84,308.77a27.1,27.1,0,0,1-3.63,3.48c-1.33,1-2.7,3-4.65.81-1.95,1-2.59-1.58-4.22-1.52-.2,0-.6-.44-.59-.66.23-3.54-3-4.27-4.87-6.1-1.26-1.22-2.27-2.72-3.58-3.89-5.82-5.2-11.71-10.32-17.92-15.78-.25,2.86,0,5.27-.74,7.36-1.86,5.42-4.09,10.71-6.24,16-.81,2-1.92,3.87-2.69,5.88-2.93,7.61-8,13.89-13.21,19.86-4.69,5.35-11.47,5.36-18.05,4.76a2.86,2.86,0,0,1-2.78-2.7,8.46,8.46,0,0,0-2.2-3.94q-.32,8.08-.64,16.17c-.13,3.28-.35,6.55-.41,9.83,0,1,.65,2,.51,2.93-.27,1.72-.49,3.69-1.49,5a11,11,0,0,1-4.91,3.62,107.89,107.89,0,0,1-14.06,3.53c-4,.71-7-1.58-9.7-4.28-4-4.09-7.95-8.31-12.11-12.26-3.51-3.34-7.78-4.72-13.35-3.82l64.36,66.22a52.25,52.25,0,0,0-2.29,5.64C422.23,443,417.07,461,412.1,479.13c-1.67,6.08-2.92,12.29-4.18,18.47a21.37,21.37,0,0,0-.31,6.43c.91,8.27-.11,10.43-7.39,14.5l-.85.46a55.65,55.65,0,0,0-7.05,3.24c-4.11,2.58-8,5.54-12,8.21a5.39,5.39,0,0,0-2.42,6.74c.81,2.44,2.71,3.6,5.74,3,2.41-.51,5.2-.3,6.48-3.59.41-1,3.06-1.63,4.72-1.7,3.33-.15,6.7.43,10,.28q15.13-.72,30.26-1.82c1.86-.13,3.66-1,6.13-1.76-3.89-1.77-7.76-1.71-9.45-4.49a89.05,89.05,0,0,1-9.74.59,49.55,49.55,0,0,1-19.59-5c-1.49-.74-3.43-1.32-3.15-3.67a7.12,7.12,0,0,1,2.3.29c8,3.78,16.53,5.37,25.31,5.88,1.5.09,3,.33,4.51.5l-.11-.7a12.73,12.73,0,0,1,2.93-.78c1.59-.06,3.19.21,4.78.25,3,.08,3.87.8,4.42,3.74a3,3,0,0,0,.31.88c1.5,2.73,1.26,3.66-1.71,5.2a22.89,22.89,0,0,1-14.45,2.29,16.66,16.66,0,0,0-9.16.69c-5.6,2.16-11.53,1.16-17.35.77-1.83-.12-3.67-.21-5.51-.2a7.87,7.87,0,0,0-6.17,2.37,12.23,12.23,0,0,1-5.8,3c-4.17,1-7.83-1.68-8.69-5.88-.18-.86-.25-1.74-.38-2.68-.25,0-.54-.09-.68,0-10.3,7.48-22.23,11-34.25,14.5-11.78,3.41-23.47,4.12-35-.45-4.2-1.66-8.09-4.14-12.13-6.22-1.27-.66-2.61-1.16-3.83-1.89-.57-.34-.93-1-1.68-1.95L285,540.12c.12-.64.21-1.09.43-2.19a39.24,39.24,0,0,0-3.13,2.7,14.74,14.74,0,0,1-11.89,5.19,8.94,8.94,0,0,0-3.73.77c-7.68,3.34-15.3,6.83-23,10.16-3.57,1.54-7.23,2.93-10.93,4.14-1.17.38-2.6-.07-3.91-.14l0-.71c.16-.14.3-.38.49-.43,6.52-1.65,12.17-5.15,18.11-8.1,6.28-3.11,12.91-5.54,19.44-8.11a15.11,15.11,0,0,1,4.73-.63A11.05,11.05,0,0,0,279,539.7c5-4.58,10.32-8.86,15.15-13.62,2.4-2.36,4-5.49,6-8.3,5.88-8.51,10.46-17.73,15-27,3.41-7,4.43-14.52,4.52-22.14.13-9.75-.16-19.51-.28-29.26a270.78,270.78,0,0,1,3-46.39c1.06-6.56,1.76-13.19.3-19.79a25.14,25.14,0,0,0-2.35-6.48A98.11,98.11,0,0,0,304.36,346a20.09,20.09,0,0,0-12.53-6.29c-3.55-.51-5.72.65-8.2,2.67-11.25,9.17-16,21.79-19.24,35.31-4.39,18.18-3.89,36.48-1.71,54.84,1,8.64,1.31,17.4,4.12,25.76,1,2.88,1.94,5.75,2.87,8.65,2.36,7.36.56,12.95-5.77,17.57-2.26,1.64-4.76,2.95-7,4.58-3.3,2.37-3.21,3.36.47,4.88,2.58,1.07,5.31,1.77,7.89,2.83a12.15,12.15,0,0,1,2.6,2.05c-.95.86-1.8,2.27-2.86,2.45a52.57,52.57,0,0,1-7.65.33c-1.09,0-2.19,0-3.9,0,9.49,6.23,19.94,7.29,30.21,8.94l-.06.59c-1.75,0-3.5.08-5.24,0a51.15,51.15,0,0,1-5.24-.56A55.12,55.12,0,0,1,250,501.74a7.38,7.38,0,0,0-3.07-1.17c-3.79-.54-7.61-.95-11.42-1.35a25.46,25.46,0,0,0-3.09.15,46.62,46.62,0,0,0,10,11.26c-5.59-1.36-8.15-6.9-13.08-9.52a34.7,34.7,0,0,0-2.82,3.09,2.19,2.19,0,0,0-.2,1.91c5,9.43,10.78,18.18,19.86,24.21a68.68,68.68,0,0,0,6.33,3.33c-2.65.57-4.7-.45-6.64-1.58-6.59-3.83-11.32-9.54-15.54-15.73-1.75-2.57-3.31-5.26-5.22-8.32.09,1.16.14,1.86.23,3-.9-.76-1.56-1.28-2.16-1.84-1.28-1.2-2.48-2.51-3.82-3.64-3.31-2.8-5-2.16-5.77,2.05a39.3,39.3,0,0,1-1.43,5.8c-1.06,3-2.68,4.23-5.85,3.71a35.7,35.7,0,0,1-8.65-2.55c-4.67-2.08-9.1-4.68-13.75-6.82-3.21-1.47-6.48-1.77-9.27,1.2C173,510.71,172,512.73,173,515c2.61,5.91,5.13,11.88,8.21,17.54,1.64,3,4.39,5.4,6.59,8.11,7.7,9.47,19,12.47,29.67,16.65,4.16,1.63,8.17,3.64,12.33,5.28a5.16,5.16,0,0,0,3.55-.06c4.89-2.11,9.68-4.44,14.93-6.89a46,46,0,0,1-12.37,8.78c-8.11,4.2-16.27,4.35-24.87,1.23a180.44,180.44,0,0,1-17.71-7.14,44.61,44.61,0,0,1-19.2-17.15c-.87-1.43-1.93-2.74-2.93-4.09-.12-.16-.37-.21-.84-.47-.4,4.3.72,8.15,1.63,12.08,1.16,4.94,5.08,6.21,9.08,7.56a22.1,22.1,0,0,1,3.73,1.52,2.93,2.93,0,0,1,1.3,3.93,25.45,25.45,0,0,1-1.28,3.35c-.87,1.6-2.3,2.46-4,1.31-1.36-.93-1.83-.3-2.69.62-2.67,2.89-7.37,3-9.81.54l2.84-4.78-5.31-2.35c.1,2.13.12,3.71.25,5.27.18,2.26-.47,3.28-2.73,3.15A74.66,74.66,0,0,1,151,567.71c-8.82-2-12.06-7.79-9.62-16.52,1.29-4.62,2.86-9.16,4.42-13.69,1.39-4.06.67-7.69-1.19-11.5a53.9,53.9,0,0,1-3.83-11c-.86-3.59.75-6.47,4.12-8.07,2.88-1.37,5.83-2.61,8.81-3.73a14.37,14.37,0,0,1,3.64-.35c.6-3.21,1.5-6.76,1.86-10.38a8,8,0,0,1,3-5.41,24.91,24.91,0,0,1,7.88-4.34,163.86,163.86,0,0,1,34.13-7.51c2.6-.26,5.13-1.18,7.71-1.71a11.9,11.9,0,0,1,2.39,0,11.91,11.91,0,0,1-3,1.72,80.12,80.12,0,0,1-11,2.31c-10.57,1.09-20.63,4.22-30.71,7.28-1.46.45-3.24,1.23-3.94,2.42-1.1,1.83-1.39,4.14-2.18,6.78,1-.62,1.54-.9,2-1.26a8.67,8.67,0,0,1,9.05-1.26,58.81,58.81,0,0,1,9.3,4.8c3.72,2.48,7.35,2.83,11.28.88,1.58-.78,3.17-1.55,4.66-2.46,3.74-2.26,7.49-1.95,11.2-.11,1.49.74,2.78,1.87,4.2,2.76.74.46,1.56.8,2.73,1.38A70.78,70.78,0,0,1,216,491C215.3,485.16,214.82,479.29,214.23,473.44ZM449,286.79c.8-1.66,1.59-3.32,2.44-5.12-2.37,0-3,1.13-3.56,2.71-1.1,3.33-2.36,6.6-3.59,9.89-1.49,4-3,8-4.54,11.93l.64.36a19,19,0,0,0,2.25-3.63c1.37-3.82,2.45-7.75,3.76-11.59,1-2.88,2.15-5.7,3.23-8.54l.5.18c-.36,1.28-.73,2.57-1.07,3.88l-5.1,15.37.67.29a13.23,13.23,0,0,0,1.28-2.36q1.62-5.51,3.05-11.06A9.37,9.37,0,0,0,449,286.79Zm70.76-8.27c.77-1.58,1.52-3.18,2.35-4.74.53-1,1.17-1.95,1.77-2.92l-1-.71-19.17,22.6.61.61a19.51,19.51,0,0,0,1.71-1.42c2.73-2.82,5.37-5.71,8.16-8.47,1.79-1.78,3.77-3.36,5.67-5a18.55,18.55,0,0,1-1.33,1.91c-2.78,3.09-5.6,6.13-8.37,9.21-1,1.07-1.83,2.22-2.74,3.33l.45.41,6.75-5.86.22.27-4.44,5.66c6.56-4.53,11.47-10.51,16.15-16.67l-.58-.69-2.72,1.58,1.29-2.5-.45-.36Zm-70.72-15c1.58,1.65,3.15,3.31,4.72,5l.83-.38c0-3.25-.06-6.49,0-9.73a12.11,12.11,0,0,1,5.94-10.49c.88-.56,1.7-1.24,2.55-1.86l-.38-.62c-1.74,1.81-5,.57-6.2,3.46-1.38-1.65-2.19-.84-2.83.75-.54,1.33-1.1,2.64-1.65,4l-1.16-.4a41.33,41.33,0,0,1,1.39-5.81c.58-1.47.77-2.52-.67-3.42a8,8,0,0,0-4.15,7.93,5.1,5.1,0,0,1-.5,1.74c-.42-.49-1.16-.95-1.23-1.48-.38-3.15.23-5.88,2.81-8.2,2.77-2.51,5.15-5.45,7.69-8.22.07-.07,0-.29-.14-.83-.89.37-1.72.66-2.51,1.05-3.5,1.73-5.92,5.11-9.79,6.37a3.29,3.29,0,0,0-1.56,2.44c-.37,4.4-1.25,8.84.51,13.19a20.6,20.6,0,0,1,.75,3.26c.25,1.18.5,2.35.74,3.52s.44,2.29.66,3.44a2.23,2.23,0,0,1-1.15-1.39c-1.21-6.23-2.58-12.45-3.5-18.73-.63-4.27,1.37-7.38,5-9.93,2.7-1.88,4.68-4.79,7-7.26,0,0-.12-.25-.33-.65-3.2,1.52-6.72,2.63-9.57,4.66-7.14,5.11-6.65,3.37-5.63,12.22.8,7,2.25,13.87,3.3,20.82a2.91,2.91,0,0,0,1.89,2.68,16.63,16.63,0,0,1,2.95,2.08l-.5.73-3-1.38,1.18,2.88-.43.2-2.19-2-.13.73a20.08,20.08,0,0,0-3.57.29c-3.64.9-7.25,1.91-10.84,3-.54.16-1.33.84-1.32,1.27.08,3.94.32,7.88.52,11.81.34,0,.52.05.64,0,8.85-4.45,17.72-8.85,26.5-13.42,2.24-1.16,3.49-4,2.7-5.8-.54-1.23-1.86-2.09-2.69-3.23-1-1.34-1.8-2.79-2.69-4.2Zm-20.92-82.08c3.72-1.76,6.43-5.43,11.46-6.17a11.29,11.29,0,0,1-1.25,1.94c-2.19,2-4.4,3.92-6.66,5.8-1.4,1.17-2,2.34-.88,4.06a31.21,31.21,0,0,1,2.22,4.25c.56,1.29.92,2.66,1.37,4a30.65,30.65,0,0,1-3.52-2.77c-1.33-1.37-2.44-3-3.64-4.46l-.9.47c.79,2.72,1.38,5.52,2.42,8.14,2.72,6.87,2.57,13.72.35,20.64-.19.57-.29,1.17-.54,2.21,10.43-5,18.26-12,23.42-21.68l-15.45-15.82,2.12-2.26,15,13.93c7.9-17.22,2-40.72-14.88-52.47L420.7,160.06c-1.06,1.1-.39,1.84.49,2.56,3.15,2.58,6.23,5.25,9.47,7.72a2.25,2.25,0,0,1,.86,3,11.69,11.69,0,0,1-2.76-.75c-4.46-2.5-7.36-7.06-12.07-9.29-.51-.24-.76-1-1.15-1.51a5.77,5.77,0,0,0-1-1.06c-2.39-1.78-4.94-3.36-7.18-5.31Q396.56,146,386,136.28c-1.45-1.32-2.67-1.53-4.21-.46-3.67,2.54-7.62,4.74-10.95,7.66A43.84,43.84,0,0,0,355.32,177a5.71,5.71,0,0,0,1.62,3.69c2.93,2.94,6.12,5.62,9.14,8.47.51.48,1.16,1.53,1,1.9-2.05,3.91-4.27,7.73-6.6,11.86-3.75-6.58-4.55-13.62-6.21-20.39a31.72,31.72,0,0,0,4.17,20c1.28,2.2.87,3.81-.08,5.75a18.31,18.31,0,0,0-.79,2.82c-.24.83-.52,1.65-.78,2.48a23.77,23.77,0,0,1-2.23-1.74c-.31-.3-.32-.88-.49-1.32-2-5.17-5-9.29-10.8-10.44a6.55,6.55,0,0,0-3.62.29c-4,1.67-8,3.37-11.76,5.41a34.57,34.57,0,0,0-8.05,5.45c-15.07,14.76-24.2,32.78-28.52,53.32-.7,3.3-1.08,6.67-1.61,10l1,.36c3.59-22.47,12.78-42.13,28.78-58.33l-2.56,4,.28.17,6.15-5.82.31.32-5.32,6.7.44.4c3.62-2.87,7.22-5.78,10.88-8.61,4.36-3.39,8.71-6.72,14.49-7.52,5.5-.76,8.5.62,9.35,6.14a97.4,97.4,0,0,1,1,17.82c-.31,9.82-1.42,19.61-1.69,29.42-.11,4,1.1,8,1.7,11.93l.73-.06q.85-5.54,1.69-11.08l-.66-.11-1.14,5.76c0-3.71.42-7.35.43-11s-.48-7.32-.53-11,.1-7.36.27-11,.47-7.1.71-10.65l.63,0v5.26l.68.2c-.14-18.45,7.6-33.24,20.78-45.62a17.08,17.08,0,0,0-3.33.92,7.74,7.74,0,0,1-1.75.11c.17-.62.17-1.4.56-1.84a32.23,32.23,0,0,1,3.88-3.87c1.11-.9,1.46-1.67.83-3-1.11-2.39-2.09-4.84-3-7.31a14.34,14.34,0,0,1-.49-2.72l.76-.31,6.87,7.53c.39-3,.71-5.53,1-8l.63,0q1.06,4.24,2.11,8.49l.47-.09-.33-7.13.79-.22a27,27,0,0,1,3.07,3.83c1.61,3,3.83,4,7.14,2.84-.41-1.89-.84-3.89-1.27-5.89l.94-.35c3.06,3,4.72,6.83,6.4,10.66l-.81.53-3.44-5.35-.43.22,2.48,7.81c-.51.68-1.31,1.78-2.34,3.17l3.28-1,.81,3.1.64-.18.18-2.43,3-.82,3,4.38c.21-1.46.32-2.27.47-3.32l1.45,1.15,2.79-2.23c.22,1.84.37,3.05.53,4.42.8-.68,1.42-1.3,2.12-1.81,2.31-1.68,1.62.53,1.85,1.35l4.23-1.11c.53,1.33,1,2.61,1.73,4.36.31-1.63.5-2.65.8-4.22l3.09,3.43c-.12-1.27-.48-2.34-.21-3.2s1.19-1.54,1.76-2.22ZM365.66,290.9c-2.23,0-3.69-1.33-5-3a46.21,46.21,0,0,1-7.86-16.83,15.14,15.14,0,0,0-.6-1.53l-.37.11q-.36,5.85-.71,11.69h-.5V249.58l-.61,0c-.3,1.63-.7,3.24-.87,4.87q-1.36,13-2.61,26a6.31,6.31,0,0,0,3.53,6.72c3.62,1.91,7.22,3.87,11.4,6.12-1.37-.07-2.36.14-3.09-.21-3.17-1.49-6.23-3.21-9.39-4.71-3.51-1.65-4.47-4.58-4.22-8.09.45-6.22.77-12.46,1.59-18.62,1.58-11.88,3.39-23.73,5.27-35.56,1-6.42-1.76-11.53-5.29-16.36a4,4,0,0,0-3.5-1.09,19.24,19.24,0,0,0-6.55,2.81c-6.74,5-13.33,10.15-19.85,15.41a21.82,21.82,0,0,0-5.2,5.57,156,156,0,0,0-8.16,15.45c-2.19,4.87-2.63,10.21-3.26,16l12.27-20.74.72.4c-.36.76-.68,1.54-1.07,2.29q-5.66,10.85-11.32,21.68c-1.27,2.41-1,4.85-.48,7.51l10.83-19.21.67.35c-.39.94-.73,1.9-1.17,2.81-3,6.27-6,12.53-9.11,18.77-1.39,2.82-.16,5.24.65,8.09,3.3-6,6.37-11.5,9.43-17.05l.63.36c-2.86,5.62-5.65,11.29-8.63,16.85-1.14,2.14-.52,3.7.7,5.32L314,275.06l.62.39c-2.89,5.16-5.67,10.39-8.73,15.44-1.45,2.39-1.05,4.14.82,5.87l-.05,0c.47.94.93,1.88,1.45,2.95l7.44-12,.74.44c-1.91,3.46-3.8,6.93-5.74,10.38-1.6,2.86-1.59,3,1.12,5.34l5.94-9.21.55.34c-1.6,3-3.23,6-4.76,9.07a6.15,6.15,0,0,0-.22,2.13l.81.14,6.19-11,.54.25c-1.56,3.63-3.14,7.26-4.65,10.92-.28.66-.63,1.77-.32,2.12a15.62,15.62,0,0,0,7.65,5.06c.74-1.89,1.34-3.54,2-5.16,2.27-5.48,4.74-10.85,9-15.17a6.32,6.32,0,0,1,6.22-1.93c5.88,1,11.86,1.55,17.79,2.29a6.24,6.24,0,0,1,.94.26l0,.67c-1.85.22-3.74.78-5.55.59-4.6-.49-9.15-1.43-13.75-2a5.34,5.34,0,0,0-3.85,1c-5.74,5.46-8.29,12.7-10.73,20.24,1.66,0,3.44,0,4.55-.82a36.82,36.82,0,0,0,5.42-5.46c1.3-1.5,2.2-3.35,3.5-4.85,1.69-1.95,3.61-3.7,5.44-5.53l.8.65a11.91,11.91,0,0,1-1.46,2.29,40,40,0,0,0-7.91,10.59c5,2.89,5,2.9,6.71,8.35a28.15,28.15,0,0,0,1.41,3.82c1.37,2.85,3.11,3.57,6.06,2.4,2.22-.88,4.32-2.09,6.53-3,.7-.29,1.93-.47,2.33-.09,1.78,1.7,3,.76,4.28-.56q14-14.93,28.07-29.87l1.83-1.94c-5.68,10-13.89,17.8-21.58,26l.53.5,22.41-22.12c-.74,1.1-1.49,2.29-2.31,3.44-3.76,5.26-7.65,10.44-11.26,15.81a25.35,25.35,0,0,0-3.13,6.93c-.87,3,.65,4.32,3.64,3.34,3.56-1.15,6.84-3,8.92-6.15,4.36-6.7,8.7-13.42,12.66-20.35,2.08-3.64,3.41-7.73,4.91-11.68a23.58,23.58,0,0,0,.73-4.61c-4.52,1.29-8.53,2.35-12.48,3.57-8.32,2.58-16.64,5.17-24.9,7.93-2.84.95-4.37.55-5.59-2.31,2,1.79,4.07,1.22,6.35.32,3.89-1.55,7.91-2.76,12-4.16l-4.72-7.62h-.72a36.26,36.26,0,0,0-1.18,5.16c-.14,1.75-1,2.23-2.47,2.06a15.2,15.2,0,0,1-1.8-.44l-.73,3c-2.67-1.49-.06-3.67-1.39-5.66-.21,2.74-.39,5-.57,7.32-2.53-3,.55-6.44-.46-9.53l-.6,0-1,9.63-.93-.08c-1.34-2.52.41-5.21-.26-7.83C365.69,285.49,366,288.27,365.66,290.9ZM319.43,168.35c-8.7,8.73-17,16.64-24.84,25-12.24,13.18-24.11,26.69-36.15,40.06-9.09,10.1-18.28,20.1-27.25,30.32-6.17,7-12,14.32-18,21.51-1.18,1.42-2.3,2-3.53.1a45.43,45.43,0,0,0-3.61,3.12C194,301.41,181.87,314.27,170,327.34c-5.48,6-10.46,12.5-15.72,18.73a15.47,15.47,0,0,1-2.72,2.3c-1.12.8-2.54,1.29-3.44,2.27Q85.88,418.23,23.75,485.89c-4.26,4.64-4.16,5.7.93,9.62l.58.42c4.69,3.31,9.39,6.51,12.92,11.25,5.08,6.84,11.7,12.46,16,20,.71,1.24,1.37,2.53,2.17,3.72,2.09,3.14,3.24,3.12,5.42.08A31.3,31.3,0,0,1,65,526.85c1.45-1.43,3.35-2.44,4.69-4,3.23-3.64,6.22-7.51,9.36-11.23,4.61-5.47,9.27-10.9,13.91-16.34l.29.25-.47,1.37.55.45a20.43,20.43,0,0,1,1.37-1.9c16.43-18.13,32.93-36.19,49.29-54.38,22.62-25.14,45-50.49,67.72-75.55,18.25-20.15,36.83-40,55.23-60a7,7,0,0,0,1.82-3.23c.82-4.87,1.43-9.78,2.08-14.67,1-7.67,2.36-15.3,5.29-22.48a158.7,158.7,0,0,1,21.22-36.32,144.79,144.79,0,0,1,20.81-22.45,68.82,68.82,0,0,1,8-5.61c5.18-3.26,10.45-6.4,14.45-8.84Zm60.65-35.91c-3.06-2.56-5.82-4.79-8.47-7.13-1.19-1-2.09-2.41-3.26-3.48-1.79-1.64-3.68-3.18-5.56-4.72-.61-.5-1.38-.78-2-1.27-3.72-3.07-7.42-6.18-11.13-9.27-6.39-5.32-12.79-10.6-19.15-15.94-2.45-2.06-4.57-4.56-7.21-6.29-5.61-3.69-10.24-8.39-14.86-13.16-5.16-5.32-9.89-11.08-16.35-15.06a14.58,14.58,0,0,1-4.6-5.1c-2.25-3.88-5.63-6.41-9.07-9s-6.86-5.71-10.14-8.73c-2.1-1.94-3.81-4.31-6-6.17-3.69-3.17-7.61-6.08-11.4-9.14-2.68-2.17-2.84-2.22-5.2.41q-14.56,16.24-29.1,32.52c-.51.58-.92,1.24-1.58,2.12,2.84,2.36,5.58,4.53,8.19,6.85q21.67,19.27,43.31,38.6,15.06,13.38,30.18,26.69c1.49,1.32,3.07,2.55,4.48,4,4.23,4.23,8.29,8.65,12.62,12.78,4.89,4.66,10,9.1,15,13.62,3.17,2.86,6.44,5.62,9.5,8.59s6.18,6.41,9.24,9.63c.21.21.51.51.48.74-.3,2.47,2,2.71,3.22,4C351.91,157.64,361.9,142.81,380.08,132.44Zm37.49,283.18c.2,1.39.8,2.85.52,4.13a35.46,35.46,0,0,1-2.51,7.73,421.87,421.87,0,0,1-24.77,45.66,16.23,16.23,0,0,1-3,3.73c-8.33,7.09-16.63,14.22-25.17,21.05a24.81,24.81,0,0,1-13.16,5.4c-1.66.16-3.35,0-5,0l-.22.6c2.41,1.14,4.75,2.46,7.24,3.39,5.52,2.07,11.07,4.69,17.17,3.19,9.38-2.29,18.38-5.55,25.88-12,3.34-2.86,6.53-5.88,9.9-8.71a11.28,11.28,0,0,0,3.85-6c2.35-9.3,4.35-18.68,6.88-27.92,3.17-11.56,6.77-23,10.1-34.51a3.39,3.39,0,0,0-.28-2.74c-6.65-7-13.28-14.06-20.18-20.83-10.37-10.19-21-20.17-31.44-30.24,0-.19-.87.15-1.72.46-4,1.44-7.65,2.95-9.45,7.44-1.47,3.67-3.92,6.95-5.74,10.51-10.59,20.76-19.19,42.08-18.25,66.05.12,3-.27,6.07-.33,9.11-.05,2.77.8,3.64,3.46,3a19.67,19.67,0,0,0,5.77-2.72c3.42-2.26,6.67-4.78,10-7.18l.23.25-3.86,5.05c15.67-7.93,29.73-17.76,40.34-33.17.12,1.51.57,2.64.2,3.32-1.52,2.78-2.93,5.75-5,8.06-6.77,7.45-13.93,14.55-20.74,22-6.42,7-12.63,14.19-18.84,21.39-2.61,3-2.28,4.29,2.36,5.47a9.45,9.45,0,0,0,2.38.16,22.79,22.79,0,0,0,12-3.61c10.94-6.93,21.13-15,28.87-25.33A167.35,167.35,0,0,0,417.57,415.62Zm34.07-300.43-.35-.27-2.84,1.55,2-3.53-.27-.23-4.9,4.3-.66-.65q6.83-8.44,13.66-16.88c1.51-1.86,3-3.72,4.57-5.56,1.25-1.51,1.77-2.91-.58-3.75.93-2.47.89-2.43-1-4.11q-9.85-8.93-19.67-17.91Q433,60.22,424.38,52.24c-1-1-1.88-1.19-3,0-7.5,8.31-15.11,16.53-22.59,24.85-10.73,11.94-21.39,23.94-32.21,36.07.81,1,1.6,2,2.53,3.12-1.72-.38-2.27-2.61-4.64-2.21,2,1.66,3.54,2.86,5,4.2,4.13,3.84,8.22,7.73,12.31,11.62a2.63,2.63,0,0,0,3.2.5,56.44,56.44,0,0,1,38.29-1.38c2.61.82,4.15.28,5.36-1.79a6,6,0,0,0,.52-2.31,13.68,13.68,0,0,0,2.87-1.62c4.43-4.54,8.79-9.16,13.16-13.74l.56.5-3.41,4,.26.27,5-4.12-17.87,20.89c2.66,1.5,5.12,3,7.66,4.27a2,2,0,0,0,1.81-.15c4.18-4.16,8.35-8.35,12.38-12.66a47.4,47.4,0,0,0,3.79-5.48l-7.24,3.23ZM424.12,229.28c-.17,2.84-.43,6.59-.57,10.34,0,.49.55,1,.91,1.52,2.07,2.83,6.09,3.91,6.54,8.38.2,1.94,2.6,3.65,4.46,6-.51-3.29-.87-5.86-1.32-8.41-.9-5.16,0-9.72,4.9-12.42,3.94-2.19,8.16-3.9,12.31-5.69a2.17,2.17,0,0,1,2,.58,3,3,0,0,1-.2,2.4,8.51,8.51,0,0,1-1.64,1.85c2.21-.6,4.82-1.39,7.48-1.94a2.16,2.16,0,0,1,1.8,1.1c.17.49-.44,1.36-.88,1.93a16.14,16.14,0,0,1-1.86,1.73,10.55,10.55,0,0,0,2.14-.1c.74,0,1.77.11,2.11.57a2.46,2.46,0,0,1-.07,2.19,13.4,13.4,0,0,1-2.27,2.73c-.66.69-1.44,1.25-2.48,2.13,2.83-.86,5.12-1.69,7.49-2.2a2.72,2.72,0,0,1,2.4.89,3.24,3.24,0,0,1-.26,2.83,12.64,12.64,0,0,1-3.83,3.5c-4.36,2.33-5.23,6.29-5.43,10.63-.15,3.27-.27,6.55-.17,9.82A5,5,0,0,0,459,273c5.48,5.13,11.06,10.16,16.68,15.15,3.69,3.28,7.49,6.43,11.44,9.8l28.73-32.07.29.25L498,289.79l.64.5c9.83-8.86,17.39-19.68,25.42-29.84a43,43,0,0,0-3-3.3Q513.13,250,505.11,243c-2.39-2.11-5.13-3.92-7.18-6.33-2.23-2.6-6.43-1-8.12-4.33-.05-.08-.7.15-1.08.24a6,6,0,0,0-3.92-5.81c-2.71-.8-4.27-2.56-6.11-4.5-3-3.17-6.62-5.76-9.9-8.68q-5.61-5-11.08-10.22a27.35,27.35,0,0,1-2.5-3.19,14.7,14.7,0,0,0-1,1.16,54.19,54.19,0,0,1-25.66,22.25,3.06,3.06,0,0,0-1.33,2.55c.48,3.34-.15,6.91,2,10a5.61,5.61,0,0,1,.42,2l-.77.24ZM107.6,493.7l.24.18-1.34,2.77.52.39,2.79-3.36.4.33c-.37.73-.74,1.46-1.1,2.19l.42.34L210.87,385.46l-.31-.32-4.28,4-.2-.27,13.65-20.8-.88-.84-8.28,9.32-.25-.25,6.79-8.74a1.64,1.64,0,0,0-1.3.7c-7,7.36-14.05,14.67-21,22.06-19.89,21.1-39.57,42.38-57.53,65.2-9.59,12.18-20,23.73-30,35.53-3.07,3.61-6.24,7.14-9.37,10.71l.32.31Zm315.33-287c3.45-6.47-.3-11.54-2.78-16.9l-.75,11c-.73-3.29-1.49-6.76-2.25-10.26l-2.58,3.11-.69-.36,1.49-4.61L409.56,191c-.14,1.23-.36,3.24-.59,5.25l-.36-.06v-5.3l-.6-.22-4,8.76c-1.81-2.17.88-4.19.34-6.47-2.82,1.56-3.18,4.34-4.1,6.86-1.44,4-2.47,8.26-4.8,11.65-2.75,4-2.64,8.06-2.32,12.36,0,.6.91,1.67,1.27,1.62a12.72,12.72,0,0,0,4.73-1.28c2.38-1.43,4.48-3.32,6.77-4.91a6.66,6.66,0,0,1,2.17-.57c-4.41,2.83-7.38,7.87-13.37,8l1.1,1.64-.28.34-3.31-1.77c-.67,3.13-1.28,6-1.9,8.8-.07.34-.28.64-.37,1-.33,1.23-1,2.5-.9,3.71.19,2.81.76,5.61,1.14,8.41.21,1.48.36,3,.54,4.46.31-4.25,3.13-8.35.92-12.76l3.48,6.08a12.87,12.87,0,0,0,3.38-1.69c1.66-1.56,3.54-1.64,5.55-1.39,2.34.28,3.1,2.07,3.48,4.4,3.13-7.32,6.11-14.27,8.86-20.69.88-.27,1.62-.28,1.81-.61,1.08-1.92,2.73-3.86,2.9-5.9.32-4,1.71-8.53-3.33-11.21,2.63-1.89,3.65,1,6.19,1.05a15.3,15.3,0,0,0-1.84-2.5c-1.35-1.15-2.83-2.15-4.26-3.21l.47-.63ZM369.8,350c6,.54,10.86,2.54,14.66,6.47a86,86,0,0,1,7.3,8.85,9.42,9.42,0,0,0,6.06,3.88c4.41.88,8.47-.29,12.69-1.41,3.38-.9,3.81-2.78,3.91-5.67.25-7.43.62-14.86,1.19-22.27.47-6,1.48-12,1.94-18,1-12.58,1.74-25.18,2.51-37.78a20.27,20.27,0,0,0-.48-5.65c-.29-1.29-1.19-2.5-2.74-1.67v4.47c-1.85.6-3.24,4.78-2.21,6.4a5.5,5.5,0,0,1,1,2.6,58.12,58.12,0,0,1-.34,6.46q-1.55,16.35-3.15,32.68c-.15,1.44-.56,2.86-.84,4.29l-.3-.07c.11-1.61.22-3.21.36-5.22L400,352.2c-.53-1.63-.88-2.57-1.13-3.53-1.51-5.65-3.72-7.3-9.58-6.4-3.52.54-6.91,2.1-10.44,2.54S372.8,347.41,369.8,350ZM157,504.52c-3.81,1.82-7.26,3.45-10.69,5.11-2,.95-3,2.58-2.45,4.68a114.8,114.8,0,0,0,3.62,11.33c2,5.1,2.59,10.06.46,15.33a88.74,88.74,0,0,0-3.68,11.63c-1.65,6.56.4,10.15,6.83,12a81.17,81.17,0,0,0,9.84,1.81,1.69,1.69,0,0,0,1.4-1A3.39,3.39,0,0,0,162,563c-.3-.4-1.43-.36-2.13-.2-1.39.3-2.77,1.12-4.37-.84l8.05-1.5.43-3.08c-2.35-.07-4.61,1.16-7.39-.45l13-3.8c-.5-2.51-1-4.4-1.24-6.33-.47-3.87-1.35-7.81-1-11.63.38-4.47-1.43-8.08-3.55-11.38C160,518,157,512,157,504.52Zm76.83-66.64-.45-.1c-.14,5.64-.43,11.28-.34,16.92a94,94,0,0,0,1.1,10.69c.56,4.26,1.26,8.5,1.91,12.75.09.62,0,1.39.36,1.83,1.82,2.32,3.76,4.56,5.66,6.83a2.56,2.56,0,0,0-.11-1.51,113.22,113.22,0,0,1-4-44.35c1-10.18,2.11-20.38,2.49-30.6.61-16.58,1.55-33,7.14-48.89,5-14.23,11.41-27.55,20.72-39.68-.2-.34-.49-.89-.83-1.42a7.42,7.42,0,0,0-.7-.76,16.58,16.58,0,0,0-1.36,1C254.53,331,246.14,343,243.86,358.19c-2.59,17.31-5.07,34.66-6.65,52.08-1.21,13.44-1,27-1.34,40.51-.12,5,0,10,0,15.05l-.48,0Q234.61,451.86,233.83,437.88Zm71.3-212.7a4.62,4.62,0,0,0-.5.49c-11,15.63-21.57,31.44-24.55,51-.69,4.49-2.15,8.86-2.86,13.35-.85,5.34-1.32,10.74-1.84,16.13-.09,1,.07,2.4.69,2.92,3.83,3.15,7.83,6.1,11.77,9.11l.44-.56C278.32,283.92,287,253.71,305.13,225.18Zm81.48-91.36a3.8,3.8,0,0,0,.45.75q9.12,8.13,18.26,16.24c.87.76,3.14.24,3.52-.75.22-.57.2-1.32.56-1.75,2-2.39,4.08-4.7,6.12-7.05,2.36-2.73,4.7-5.48,7.17-8.35C414,129.06,397.31,128.91,386.61,133.82ZM423,318.09a45.83,45.83,0,0,0,4.38-1.88c5.58-3.09,11.35-5.94,12.92-13.1a80.58,80.58,0,0,1,3-9.1c1.23-3.51,2.53-7,3.8-10.48l-.42-.48L425,294.55c0,2.54.17,4.4,0,6.22C424.41,306.39,423.68,312,423,318.09Zm-39.23-82,2.33-.7,3.49-22.44-3.74,2.29c.94-3.6,1.81-7,2.72-10.39.42-1.53,1.23-2.12,2.87-1.34a3.14,3.14,0,0,0,2.5.15c2.55-1.5,5-3.2,5.33-6.54a10.13,10.13,0,0,0-.47-2.66c-2,.52-1-.94-1-1.56a20.77,20.77,0,0,1,.59-2.81l-4-3.29c-2.26,3.28-4.82,6.21-6.51,9.58a53.22,53.22,0,0,0-5.83,21.86c-.56,14-.74,28.11-1,42.16,0,1.1.77,2.2,1.18,3.31l.76-.17c.65-5.75,1.3-11.5,1.91-16.95l-2.72,1.58-.72-.52q.61-6.94,1.22-13.88l.72,0C383.52,234.53,383.62,235.3,383.72,236.07Zm-25,117.59a16.64,16.64,0,0,0,2-1.52c5.13-5.26,10.21-10.57,15.37-15.8,1.46-1.47.53-2.59-.63-2.95A26.26,26.26,0,0,0,368,332c-9-.08-15.22,5.15-21,11.6.9.3,1.71.54,2.49.84a4.49,4.49,0,0,1,1.61.84C353.64,348,356.12,350.79,358.71,353.66Zm21-115.93c.42-8,.83-15.56,1.23-23.12l-1.74-.07c-2.61-5.4-2-10.6.45-16.15l3.73,5.08,8.06-18-4.88,5.24V189a17.53,17.53,0,0,0-3.89,1.55c-2.87,2-3.45,5.44-4.68,8.44a73.43,73.43,0,0,0-5.46,33.87l1.16-1.55.84,4.22.8-1.28.37.1-1,10.05.44.06c.52-2.91,1.05-5.83,1.63-9Zm56.33-99c-3-1.55-5.45-3-8.05-4.12a2.69,2.69,0,0,0-2.33.7c-5,5.35-9.83,10.8-14.75,16.2-1.88,2.06-1.89,2.49.19,4.46,4.7,4.42,4.71,4.44,9.1-.25C425.41,150.21,430.55,144.67,436.07,138.75Zm-121,193.32,0-.68a4.3,4.3,0,0,0-.74-.55c-3.42-1.71-6.72-3.77-10.31-5-2.81-.94-5.73-2.83-9-1.12-.41.21-1.36-.25-1.86-.64-1.53-1.21-2.88-2.67-4.48-3.79-3.72-2.61-7.54-5.09-11.32-7.61-.47-.31-1-.55-1.83-1,1.21,1.93,2.84,3.4,2.93,5,.16,2.64,1.91,3.33,3.62,4.11,3.69,1.7,7.47,3.23,11.24,4.76,1.62.66,3.31,1.15,5,1.72a2.08,2.08,0,0,1-1.49.31c-5.51-.56-10.51-2.63-15.39-5.09a13.94,13.94,0,0,0-2.33-.7l-.23.81c7,4.68,14.19,8.5,23.19,7.15a15,15,0,0,1-4.67,1.42c-5.26.5-9.84-1.68-14.34-4-2.32-1.18-2.3-1.21-5.7,0,3,1.66,5.25,3.46,7.86,4.31,7,2.31,14.35,2,21.63,1.46C309.63,332.74,312.37,332.37,315.11,332.07Zm97.67-59.23.45.27-1.26,3,1.42,1,6.24-2.89c0-6.58,3.23-12.88,5.74-19.38l-8.86-1.09c-1,4.54-1.42,9.26-3,13.57s-4.29,8.31-6.5,12.44l.79.53Zm-85.06,58.45-.35.15c.09-1.21.18-2.41.3-4-1.64,1.82-2.84,3.58-4.44,4.79a5.67,5.67,0,0,1-4.07,1.08c-3.24-.71-3.2-.91-6.2.67,4.72.28,7.17,3.41,9.26,7.09,1,1.74,2.21,3.36,3.73,5.63,3.14-7.16,5.75-13.53,5.72-20.65a7.34,7.34,0,0,0-.9-2.35l-.56.11Zm-101,157.8c-1.19-5.49-.34-10.3.74-15.13a22.92,22.92,0,0,0,.14-6.09c-.15-3.28-1.45-6.57.35-9.81.23-.4-.11-1.12-.21-1.85C220.17,463.2,219.55,479.66,226.72,489.09ZM368.16,234.35c3.92-1.86,3.1-5,3.21-7.88.13-3.18.2-6.37.59-9.52s1.15-6.23,1.78-9.46c-3.1,4.74-3.1,4.74-6.12,2.81v7.75l-1.81.11c.16,2.92.14,5.73.53,8.47S367.55,231.83,368.16,234.35Zm-75.42,69.27-1,.47c1.51,3.38,2.67,7,4.62,10.08a44.24,44.24,0,0,0,7.33,8.76c2.5,2.32,5.63,3.95,9,6.23a57.19,57.19,0,0,1,.07-7.54c.3-2.13-.52-2.82-2.38-2.88a9.54,9.54,0,0,0-2.39.08c-3.63.81-6.23-.77-8.27-3.55-1.17-1.6-2.2-3.32-3.22-5C295.2,308.05,294,305.83,292.74,303.62Zm95.7-60.28c-2.24,6.39-3,38.26-1.34,42.51,2.7-.58,2.7-.58,2.44-4.42L388,284.24l-.56-.25a11.71,11.71,0,0,1,.28-1.79c1.27-4,2.47-8,1.15-12.35a10.73,10.73,0,0,1,0-5.92C391.05,257,388.4,250.21,388.44,243.34Zm8.49-61.61c4.46-2.86,1.05-6,.84-9.2l-3.94.56c.41,2.59,1.91,1.16,3.31.87l-3,4.63-.88-.08c2.46-2.77-.81-3.22-1.26-4.88l-2.29,1,1.61-2.08-3.12-4.15-.53.21c.14,2.89.29,5.79.42,8.23-1,.62-2.14.92-2.3,1.5-.21.74.36,1.7.62,2.68,3.71-2.27,3.7-2.26,6.18.77.72.88,1.54,1.67,2.67,2.88l.32-4.7Zm-16.84,81.15V244.05c-.93,1.26-1.45,2.68-2.27,2.88s-2.1-.65-3.49-1.16c-2,5.78.24,10.75,2,16l.83-.92ZM331.25,338c-1.59,3.94-3.06,7.56-4.53,11.17l.65.58c6.39-3.25,12-7.71,17.76-12C340.51,338.29,336,340,331.25,338ZM172.31,567.14c1-.16,1.76-.06,2.15-.4a14.14,14.14,0,0,0,2.9-3.19c.18-.28-1.05-1.37-1.57-2.14a9.2,9.2,0,0,1-.62-1.41c3.38-.68,4.47.22,5,3.93,1.37-3.17,1.15-3.74-1.63-5.27-2.56-1.42-5.07-2.95-7.69-4.49-.85.51-1.77,1.14-2.76,1.63s-2,.85-3,1.24c.1,2.23,1.07,3.19,3.2,2.84a5.27,5.27,0,0,1,1.66.17c3.17.58,4.07,2.08,3.07,5.09C172.91,565.66,172.69,566.17,172.31,567.14ZM416.82,250.75l.59,1a73.12,73.12,0,0,0,8.38-.09,2,2,0,0,0,1.51-3.37c-1.64-1.79-3.51-3.36-5.57-5.29ZM413,280.7c-1.7.41-3.26-.2-3.65,2.15a72.93,72.93,0,0,1-2.66,11,68.26,68.26,0,0,1-3.8,8c3.35-3.8,6.46-7.72,9.54-11.66a2.4,2.4,0,0,0,.55-1.28C413,286.28,413,283.6,413,280.7Zm-37.77,3.19,2.34-10c-1.13.42-2.22,1.11-2.49.88a15.74,15.74,0,0,1-2.17-3l-1.57.75-.71-1.51C369.41,273.63,372.07,280.91,375.18,283.89ZM219.41,471.23c-2.91,8.87,0,18.9,6,20.64C222.41,485.16,219.24,478.67,219.41,471.23Zm157.71-291.1.78.27,6.78-2.33-.67-1.79,2.71-.61c-1-2-2-3.84-3.07-5.89-.32,1.35-.62,2.58-1,4.25-1.89-2.13-3.49-3.93-5.08-5.74a8.78,8.78,0,0,0,.87,3.52C379.53,174.71,381.79,177.72,377.12,180.13Zm14.17,104.09.6.58a9.42,9.42,0,0,0,1.79-1.84c2.12-3.91,4.07-7.92,6.22-11.82,1-1.82.43-2.86-1.35-4.06C396.29,273,392.17,277.93,391.29,284.22Zm.91-8.33.71.24c1.58-3.18,3.18-6.36,4.74-9.55a1.77,1.77,0,0,0,.25-1.13c-.67-2-1.41-4-2.3-6.47C394.42,264.89,393.31,270.39,392.2,275.89Zm-15.54-77.23c1.27-2.91,2.65-6,3.9-8.92l-2.74,1-.26-.73a13.36,13.36,0,0,0-4.84,8.79Zm24.63,72.09-7.24,12.92c2.24-.21,3.86-.7,4.78-2.82a46.8,46.8,0,0,1,3.32-6.1C403.15,273.14,402.85,272,401.29,270.75Zm-36.81-51.13c-2.31,3.77-3.27,10.88-2,16q1-2.61,1.91-5.21l.86.36C365,227.05,364.75,223.58,364.48,219.62Zm34.9,62.4c2.36-.28,4.43-3,8.72-11.79.49-1,.17-2.41.22-3.63l-.71-.07Zm119.48-8.72-.49-.44c-6.35,6.84-13,13.44-18.07,21.36l.59.5Zm-159.74,8.75c1-4.09,3.61-8.15.25-12.71C359.12,273.77,357,277.8,359.12,282.05Zm8.08-35.92-.87,0c-1.33,5.63-.37,11.21.87,16.8Zm6.7,14-1.69-15.65a26.75,26.75,0,0,0-.7,7.83C371.79,254.82,371.41,257.75,373.9,260.12ZM403,280.91c2.8-.31,6.85-7.47,5.58-9.68Zm43.81,18.79.94.39c2.21-5,2.91-10.56,4.06-15.92Zm-90.89-23.36,1.11.14c-.22-3.76,2.2-7.28,1.21-11.1l-.76-.08Zm8.56-28.91c-2.48,4.23-2.39,5.59,0,9.22Zm88.88-2.5,6.62-5.5c-3.13-.22-4.68,2.28-6.88,3.61C452.93,243.15,453.24,244.07,453.37,244.93Zm-48.93,23.26c3.2-2.73,3.33-3.91,1-7.27Zm-43.82,17.08,1.17.12c-.32-2.83,2.65-5.38,0-8.42ZM369,259.12l.93-.1q-.36-5.71-.71-11.42l-.89.06Q368.65,253.39,369,259.12ZM485.9,217.26c1,1.9-1.25,4.89,2.3,6.41C488.16,221,488.77,218.56,485.9,217.26Zm-8.63-2.71.8-.49a37.52,37.52,0,0,0-2.13-4c-.22-.34-1.17-.19-1.78-.27,0,.65-.24,1.51.08,1.9A30.64,30.64,0,0,0,477.27,214.55ZM364,280.86c-.22,2.5-1.45,5-.16,7.43C363.6,285.78,366.28,283.35,364,280.86ZM484.42,215c-2.84,3.36-2.73,4.38,0,5Zm-78.53-32.68c-.23,2.06-.4,3.53-.57,5l.76.09C406.87,186,409.05,184.83,405.89,182.28Zm-45,68.67.48,0a27.14,27.14,0,0,0,1-3.34c.07-.42-.47-.93-.74-1.4-.32.36-.89.7-.91,1.08C360.63,248.52,360.78,249.73,360.85,251Zm-88,69.55-3.09-4-.65.66C269.78,318.76,270.58,320.23,272.83,320.5Z" transform="translate(0.04 0.44)"/><path d="M488,394c-.66,1.64-.86,3.2-1.73,4.13-5.23,5.6-12,8.89-18.76,12.23-.11.05-.3-.06-1.07-.24.76-1.11,1.19-2.43,2.08-2.91,6.65-3.55,13.15-7.28,18.27-13C486.88,394.09,487.09,394.12,488,394Z" transform="translate(0.04 0.44)"/><path d="M440.66,349.18c-.46,2.81-1.47,3.78-5.43,5.25C434.56,351.81,436.37,350.07,440.66,349.18Z" transform="translate(0.04 0.44)"/><path d="M435.82,429.4c1,2.23-.33,5.61-2.28,6.3-.29.1-.92,0-1-.22a1.7,1.7,0,0,1,0-1.31C433.54,432.59,434.65,431.08,435.82,429.4Z" transform="translate(0.04 0.44)"/><path d="M10.32,516.1c1.31,1.71.77,2.33-4.08,4.77C5.9,518.59,6.6,517.78,10.32,516.1Z" transform="translate(0.04 0.44)"/><path d="M201.82,425.94c-.35,3-2.7,3.35-4.67,4.26C196.68,427.56,197.55,426.76,201.82,425.94Z" transform="translate(0.04 0.44)"/><path d="M45.7,542.8,55.41,545C52.16,546.35,47,545.22,45.7,542.8Z" transform="translate(0.04 0.44)"/><path d="M529.65,302.2c.91,2.64.37,2.4-4.59,4.46C525.92,303.42,526.61,302.75,529.65,302.2Z" transform="translate(0.04 0.44)"/><path d="M486.75,535l11.54-6.45.43.76-11.5,6.51Z" transform="translate(0.04 0.44)"/><path d="M493.18,324.85l-6.5,2-.35-.58,5.84-3.78Z" transform="translate(0.04 0.44)"/><path d="M458.89,414.65c-1.11-2.27-.44-3,3.58-4.06C462.65,413.23,461,414.14,458.89,414.65Z" transform="translate(0.04 0.44)"/><path d="M31.83,588c2.2-2.66,3.76-6,7.33-7.15Z" transform="translate(0.04 0.44)"/><path d="M507.34,384.52c.53-2.6,1.65-4.19,4.09-4.7C512.35,383.35,509.3,383.21,507.34,384.52Z" transform="translate(0.04 0.44)"/><path d="M522.82,366.87l-2-2.29,4.59-2.38.63.62Z" transform="translate(0.04 0.44)"/><path d="M500.32,320.71c.52-1.19,1.05-2.38,1.65-3.72l3.27,1.42L500.76,321Z" transform="translate(0.04 0.44)"/><path d="M549.35,295.32c-1.19,1.39-2.38,2.78-3.92,4.6C544.78,296.19,546.93,295.61,549.35,295.32Z" transform="translate(0.04 0.44)"/><path d="M31.64,564.34l3.49-4.51.69.54c.18,2.56-1.61,3.57-3.65,4.38Z" transform="translate(0.04 0.44)"/><path d="M543.77,259c1.41,2.62,1.35,2.72-1.92,3.9C540.74,260.84,541.6,259.71,543.77,259Z" transform="translate(0.04 0.44)"/><path d="M514.61,473.43l-7.77,5.14-.54-.86,8-4.76Z" transform="translate(0.04 0.44)"/><path d="M28,591.26c-1.3-2.42,1.11-3.24,1.55-4.85C31.3,587.76,31.3,587.76,28,591.26Z" transform="translate(0.04 0.44)"/><path d="M40.46,533.24l6,1.23C44,535.74,41.64,535.21,40.46,533.24Z" transform="translate(0.04 0.44)"/><path d="M531,360.42l3.24-.76.47.5-2.32,3.25Z" transform="translate(0.04 0.44)"/><path d="M518.48,308.36l-3.27,4.53C514.67,309.83,516.14,308.77,518.48,308.36Z" transform="translate(0.04 0.44)"/><path d="M23.12,568.21q-1.39,2.12-2.78,4.23l-.9-.59c.88-1.43,1.76-2.87,2.65-4.3Z" transform="translate(0.04 0.44)"/><path d="M488.14,491.64l-5.45,4-.44-.56,5.45-4.25C487.85,491.1,488,491.37,488.14,491.64Z" transform="translate(0.04 0.44)"/><path d="M439,428.17l1.14-3.92,1.13.29c-.3,1.33-.59,2.65-.88,4Z" transform="translate(0.04 0.44)"/><path d="M32.43,610.12l-1.78,3.44C28.93,611.91,29.27,611.09,32.43,610.12Z" transform="translate(0.04 0.44)"/><path d="M477.44,627.53c-1.51-2.73-1.11-4,1.72-4.61C478.59,624.46,478.12,625.71,477.44,627.53Z" transform="translate(0.04 0.44)"/><path d="M465.79,339.66l1.23-3.9,1.12.35c-.39,1.31-.79,2.62-1.18,3.92Z" transform="translate(0.04 0.44)"/><path d="M42.31,582.36l3.82-1.86c-.41,3-2.06,2.58-3.51,2.55Z" transform="translate(0.04 0.44)"/><path d="M480.25,328.63c-.22-.65-.44-1.3-.73-2.18l3-1.22c-.62,1.63-1,2.63-1.39,3.62Z" transform="translate(0.04 0.44)"/><path d="M373.17,628c.38,1.09.75,2.19,1.24,3.64C371.69,631,371.62,630.79,373.17,628Z" transform="translate(0.04 0.44)"/><path d="M473.66,332.69c-.67-1.42-.86-2.72,1.54-3.83-.31,1.59-.53,2.77-.76,3.94Z" transform="translate(0.04 0.44)"/><path d="M560.47,289.29l-2.14,3.77-.84-.48,2-3.88Z" transform="translate(0.04 0.44)"/><path d="M502,481.56l-3.72,2.85-.66-.82,3.7-2.84Z" transform="translate(0.04 0.44)"/><path d="M49.18,556.76c-.09,1.53-.46,2.76-3,2.22.9-1.08,1.61-1.94,2.32-2.81Z" transform="translate(0.04 0.44)"/><path d="M491.66,391.68l1.77-3.55.82.41-1.68,3.6Z" transform="translate(0.04 0.44)"/><path d="M452.92,415.88c-.39,1.34-.68,2.37-1,3.4C450.36,417.59,450.47,416.48,452.92,415.88Z" transform="translate(0.04 0.44)"/><path d="M458.61,343.66l-1.94,3.66C455.15,345.41,455.21,345.28,458.61,343.66Z" transform="translate(0.04 0.44)"/><path d="M32.59,508.74l-3.24,1.87C29.06,507.78,30.63,508.34,32.59,508.74Z" transform="translate(0.04 0.44)"/><path d="M5.27,580.12c.59-1.29,1.19-2.57,1.78-3.85l.87.4-1.65,3.87Z" transform="translate(0.04 0.44)"/><path d="M567.58,286.59l1.65-3.82,1,.44-1.7,3.69Z" transform="translate(0.04 0.44)"/><path class="cls-1" d="M319.43,168.35,340.66,192c-4,2.44-9.27,5.58-14.45,8.84a68.82,68.82,0,0,0-8,5.61,144.79,144.79,0,0,0-20.81,22.45,158.7,158.7,0,0,0-21.22,36.32c-2.93,7.18-4.27,14.81-5.29,22.48-.65,4.89-1.26,9.8-2.08,14.67a7,7,0,0,1-1.82,3.23c-18.4,20-37,39.85-55.23,60C189,390.62,166.61,416,144,441.11c-16.36,18.19-32.86,36.25-49.29,54.38a20.43,20.43,0,0,0-1.37,1.9l-.55-.45.47-1.37-.29-.25c-4.64,5.44-9.3,10.87-13.91,16.34-3.14,3.72-6.13,7.59-9.36,11.23-1.34,1.52-3.24,2.53-4.69,4a31.3,31.3,0,0,0-3.24,4.09c-2.18,3-3.33,3.06-5.42-.08-.8-1.19-1.46-2.48-2.17-3.72-4.29-7.5-10.91-13.12-16-20-3.53-4.74-8.23-7.94-12.92-11.25l-.58-.42c-5.09-3.92-5.19-5-.93-9.62Q85.91,418.26,148.1,350.64c.9-1,2.32-1.47,3.44-2.27a15.47,15.47,0,0,0,2.72-2.3c5.26-6.23,10.24-12.7,15.72-18.73,11.89-13.07,24-25.93,36.07-38.84a45.43,45.43,0,0,1,3.61-3.12c1.23,1.93,2.35,1.32,3.53-.1,6-7.19,11.83-14.49,18-21.51,9-10.22,18.16-20.22,27.25-30.32,12-13.37,23.91-26.88,36.15-40.06C302.4,185,310.73,177.08,319.43,168.35Zm-145,160.07c-1.58,1.25-2.31,23.87-1.31,29.78A84.16,84.16,0,0,0,174.39,328.42ZM63.06,466.58c.4,4.68.85,9.16,1.11,13.66a3,3,0,0,0,2.3,3.11,64.27,64.27,0,0,1,6.09,3.07c.81.4,1.67.71,2.5,1.06l.5-1c-2.57-1.48-5.08-3.07-7.74-4.37a2.43,2.43,0,0,1-1.71-2.45c-.06-3.1-.23-6.22-.5-9.31C65.46,468.59,65.18,466.75,63.06,466.58ZM168,334.24h-1.05v21.83A65.51,65.51,0,0,0,168,334.24Zm-30.32,58.83.76,0c.38-.68,1.12-1.4,1-2s-1-1.21-1.47-1.8c-.43.55-1.17,1.1-1.2,1.67S137.35,392.37,137.67,393.07Zm74.82-58.63c.68-1.11,1.33-1.71,1.33-2.31,0-.44-.85-.88-1.32-1.31-.41.49-1.09.95-1.15,1.49S211.89,333.38,212.49,334.44ZM113.57,437.56l-1.24.05v3l1.5-.1ZM51.83,485.61l-1.21,2.89,2.87.95Z" transform="translate(0.04 0.44)"/><path class="cls-1" d="M380.08,132.44c-18.18,10.37-28.17,25.2-28.79,46-1.23-1.32-3.52-1.56-3.22-4,0-.23-.27-.53-.48-.74-3.06-3.22-6-6.53-9.24-9.63s-6.33-5.73-9.5-8.59c-5-4.52-10.13-9-15-13.62-4.33-4.13-8.39-8.55-12.62-12.78-1.41-1.41-3-2.64-4.48-4q-15.09-13.34-30.18-26.69-21.68-19.27-43.31-38.6c-2.61-2.32-5.35-4.49-8.19-6.85.66-.88,1.07-1.54,1.58-2.12q14.53-16.27,29.1-32.52c2.36-2.63,2.52-2.58,5.2-.41,3.79,3.06,7.71,6,11.4,9.14,2.16,1.86,3.87,4.23,6,6.17,3.28,3,6.6,6,10.14,8.73s6.82,5.16,9.07,9a14.58,14.58,0,0,0,4.6,5.1c6.46,4,11.19,9.74,16.35,15.06,4.62,4.77,9.25,9.47,14.86,13.16,2.64,1.73,4.76,4.23,7.21,6.29,6.36,5.34,12.76,10.62,19.15,15.94,3.71,3.09,7.41,6.2,11.13,9.27.6.49,1.37.77,2,1.27,1.88,1.54,3.77,3.08,5.56,4.72,1.17,1.07,2.07,2.43,3.26,3.48C374.26,127.65,377,129.88,380.08,132.44ZM254.77,54.5c-1.92,2.84-1.7,7.27.52,8.59C255.1,60,254.94,57.25,254.77,54.5Z" transform="translate(0.04 0.44)"/><path class="cls-1" d="M417.57,415.62A167.35,167.35,0,0,1,395,457.8c-7.74,10.35-17.93,18.4-28.87,25.33a22.79,22.79,0,0,1-12,3.61,9.45,9.45,0,0,1-2.38-.16c-4.64-1.18-5-2.45-2.36-5.47,6.21-7.2,12.42-14.39,18.84-21.39,6.81-7.42,14-14.52,20.74-22,2.1-2.31,3.51-5.28,5-8.06.37-.68-.08-1.81-.2-3.32-10.61,15.41-24.67,25.24-40.34,33.17l3.86-5.05-.23-.25c-3.32,2.4-6.57,4.92-10,7.18a19.67,19.67,0,0,1-5.77,2.72c-2.66.68-3.51-.19-3.46-3,.06-3,.45-6.08.33-9.11-.94-24,7.66-45.29,18.25-66.05,1.82-3.56,4.27-6.84,5.74-10.51,1.8-4.49,5.49-6,9.45-7.44.85-.31,1.7-.65,1.72-.46,10.49,10.07,21.07,20.05,31.44,30.24,6.9,6.77,13.53,13.82,20.18,20.83a3.39,3.39,0,0,1,.28,2.74c-3.33,11.51-6.93,22.95-10.1,34.51-2.53,9.24-4.53,18.62-6.88,27.92a11.28,11.28,0,0,1-3.85,6c-3.37,2.83-6.56,5.85-9.9,8.71-7.5,6.41-16.5,9.67-25.88,12-6.1,1.5-11.65-1.12-17.17-3.19-2.49-.93-4.83-2.25-7.24-3.39l.22-.6c1.68,0,3.37.13,5,0a24.81,24.81,0,0,0,13.16-5.4c8.54-6.83,16.84-14,25.17-21.05a16.23,16.23,0,0,0,3-3.73,421.87,421.87,0,0,0,24.77-45.66,35.46,35.46,0,0,0,2.51-7.73C418.37,418.47,417.77,417,417.57,415.62Z" transform="translate(0.04 0.44)"/><path class="cls-1" d="M306.74,296.76c-1.87-1.73-2.27-3.48-.82-5.87,3.06-5.05,5.84-10.28,8.73-15.44l-.62-.39-10.1,16.24c-1.22-1.62-1.84-3.18-.7-5.32,3-5.56,5.77-11.23,8.63-16.85l-.63-.36c-3.06,5.55-6.13,11.09-9.43,17.05-.81-2.85-2-5.27-.65-8.09,3.07-6.24,6.09-12.5,9.11-18.77.44-.91.78-1.87,1.17-2.81l-.67-.35L299.93,275c-.49-2.66-.79-5.1.48-7.51q5.67-10.83,11.32-21.68c.39-.75.71-1.53,1.07-2.29l-.72-.4-12.27,20.74c.63-5.82,1.07-11.16,3.26-16a156,156,0,0,1,8.16-15.45,21.82,21.82,0,0,1,5.2-5.57c6.52-5.26,13.11-10.43,19.85-15.41a19.24,19.24,0,0,1,6.55-2.81,4,4,0,0,1,3.5,1.09c3.53,4.83,6.3,9.94,5.29,16.36-1.88,11.83-3.69,23.68-5.27,35.56-.82,6.16-1.14,12.4-1.59,18.62-.25,3.51.71,6.44,4.22,8.09,3.16,1.5,6.22,3.22,9.39,4.71.73.35,1.72.14,3.09.21-4.18-2.25-7.78-4.21-11.4-6.12a6.31,6.31,0,0,1-3.53-6.72q1.26-13,2.61-26c.17-1.63.57-3.24.87-4.87l.61,0v31.76h.5q.36-5.83.71-11.69l.37-.11a15.14,15.14,0,0,1,.6,1.53,46.21,46.21,0,0,0,7.86,16.83c1.31,1.67,2.77,3,5,3l-.08-.07c1.23,2.86,2.76,3.26,5.6,2.31,8.26-2.76,16.58-5.35,24.9-7.93,3.95-1.22,8-2.28,12.48-3.57a23.58,23.58,0,0,1-.73,4.61c-1.5,3.95-2.83,8-4.91,11.68-4,6.93-8.3,13.65-12.66,20.35-2.08,3.19-5.36,5-8.92,6.15-3,1-4.51-.35-3.64-3.34a25.35,25.35,0,0,1,3.13-6.93c3.61-5.37,7.5-10.55,11.26-15.81.82-1.15,1.57-2.34,2.31-3.44L372,317l-.53-.5c7.69-8.25,15.9-16.07,21.58-26l-1.83,1.94q-14,14.94-28.07,29.87c-1.24,1.32-2.5,2.26-4.28.56-.4-.38-1.63-.2-2.33.09-2.21.92-4.31,2.13-6.53,3-2.95,1.17-4.69.45-6.06-2.4a28.15,28.15,0,0,1-1.41-3.82c-1.71-5.45-1.69-5.46-6.71-8.35a40,40,0,0,1,7.91-10.59,11.91,11.91,0,0,0,1.46-2.29l-.8-.65c-1.83,1.83-3.75,3.58-5.44,5.53-1.3,1.5-2.2,3.35-3.5,4.85a36.82,36.82,0,0,1-5.42,5.46c-1.11.83-2.89.79-4.55.82,2.44-7.54,5-14.78,10.73-20.24a5.34,5.34,0,0,1,3.85-1c4.6.52,9.15,1.46,13.75,2,1.81.19,3.7-.37,5.55-.59l0-.67a6.24,6.24,0,0,0-.94-.26c-5.93-.74-11.91-1.25-17.79-2.29a6.32,6.32,0,0,0-6.22,1.93c-4.25,4.32-6.72,9.69-9,15.17-.67,1.62-1.27,3.27-2,5.16a15.62,15.62,0,0,1-7.65-5.06c-.31-.35,0-1.46.32-2.12,1.51-3.66,3.09-7.29,4.65-10.92l-.54-.25-6.19,11-.81-.14a6.15,6.15,0,0,1,.22-2.13C315,301,316.59,298,318.19,295l-.55-.34-5.94,9.21c-2.71-2.31-2.72-2.48-1.12-5.34,1.94-3.45,3.83-6.92,5.74-10.38l-.74-.44-7.44,12c-.52-1.07-1-2-1.45-2.95l8.16-13.1-.68-.42c-1.43,2.3-2.95,4.54-4.26,6.9C308.73,292.26,307.79,294.54,306.74,296.76Z" transform="translate(0.04 0.44)"/><path class="cls-1" d="M451.64,115.19l-3.51,5.17,7.24-3.23a47.4,47.4,0,0,1-3.79,5.48c-4,4.31-8.2,8.5-12.38,12.66a2,2,0,0,1-1.81.15c-2.54-1.31-5-2.77-7.66-4.27l17.87-20.89-5,4.12-.26-.27,3.41-4-.56-.5c-4.37,4.58-8.73,9.2-13.16,13.74a13.68,13.68,0,0,1-2.87,1.62,6,6,0,0,1-.52,2.31c-1.21,2.07-2.75,2.61-5.36,1.79A56.44,56.44,0,0,0,385,130.43a2.63,2.63,0,0,1-3.2-.5c-4.09-3.89-8.18-7.78-12.31-11.62-1.45-1.34-3-2.54-5-4.2,2.37-.4,2.92,1.83,4.64,2.21-.93-1.14-1.72-2.11-2.53-3.12,10.82-12.13,21.48-24.13,32.21-36.07,7.48-8.32,15.09-16.54,22.59-24.85,1.11-1.23,1.95-1,3,0q8.64,8,17.29,15.91,9.81,9,19.67,17.91c1.85,1.68,1.89,1.64,1,4.11,2.35.84,1.83,2.24.58,3.75-1.53,1.84-3.06,3.7-4.57,5.56q-6.84,8.43-13.66,16.88l.66.65,4.9-4.3.27.23-2,3.53,2.84-1.55Z" transform="translate(0.04 0.44)"/><path class="cls-1" d="M424.12,229.28l4.73,9.06.77-.24a5.61,5.61,0,0,0-.42-2c-2.11-3.05-1.48-6.62-2-10a3.06,3.06,0,0,1,1.33-2.55,54.19,54.19,0,0,0,25.66-22.25,14.7,14.7,0,0,1,1-1.16,27.35,27.35,0,0,0,2.5,3.19q5.47,5.19,11.08,10.22c3.28,2.92,6.9,5.51,9.9,8.68,1.84,1.94,3.4,3.7,6.11,4.5a6,6,0,0,1,3.92,5.81c.38-.09,1-.32,1.08-.24,1.69,3.29,5.89,1.73,8.12,4.33,2.05,2.41,4.79,4.22,7.18,6.33q8,7.06,15.95,14.19a43,43,0,0,1,3,3.3c-8,10.16-15.59,21-25.42,29.84l-.64-.5,18.11-23.7-.29-.25L487.1,297.91c-4-3.37-7.75-6.52-11.44-9.8-5.62-5-11.2-10-16.68-15.15a5,5,0,0,1-1.27-3.27c-.1-3.27,0-6.55.17-9.82.2-4.34,1.07-8.3,5.43-10.63a12.64,12.64,0,0,0,3.83-3.5,3.24,3.24,0,0,0,.26-2.83A2.72,2.72,0,0,0,465,242c-2.37.51-4.66,1.34-7.49,2.2,1-.88,1.82-1.44,2.48-2.13a13.4,13.4,0,0,0,2.27-2.73,2.46,2.46,0,0,0,.07-2.19c-.34-.46-1.37-.53-2.11-.57a10.55,10.55,0,0,1-2.14.1,16.14,16.14,0,0,0,1.86-1.73c.44-.57,1.05-1.44.88-1.93a2.16,2.16,0,0,0-1.8-1.1c-2.66.55-5.27,1.34-7.48,1.94a8.51,8.51,0,0,0,1.64-1.85,3,3,0,0,0,.2-2.4,2.17,2.17,0,0,0-2-.58c-4.15,1.79-8.37,3.5-12.31,5.69-4.87,2.7-5.8,7.26-4.9,12.42.45,2.55.81,5.12,1.32,8.41-1.86-2.4-4.26-4.11-4.46-6-.45-4.47-4.47-5.55-6.54-8.38-.36-.48-.92-1-.91-1.52C423.69,235.87,424,232.12,424.12,229.28Z" transform="translate(0.04 0.44)"/><path class="cls-1" d="M428.09,181.46l2.2.45c-.57.68-1.49,1.35-1.76,2.22s.09,1.93.21,3.2l-3.09-3.43c-.3,1.57-.49,2.59-.8,4.22-.7-1.75-1.2-3-1.73-4.36l-4.23,1.11c-.23-.82.46-3-1.85-1.35-.7.51-1.32,1.13-2.12,1.81-.16-1.37-.31-2.58-.53-4.42l-2.79,2.23L410.15,182c-.15,1-.26,1.86-.47,3.32l-3-4.38-3,.82-.18,2.43-.64.18-.81-3.1-3.28,1c1-1.39,1.83-2.49,2.34-3.17l-2.48-7.81.43-.22,3.44,5.35.81-.53c-1.68-3.83-3.34-7.68-6.4-10.66l-.94.35c.43,2,.86,4,1.27,5.89-3.31,1.17-5.53.12-7.14-2.84a27,27,0,0,0-3.07-3.83l-.79.22.33,7.13-.47.09q-1-4.24-2.11-8.49l-.63,0c-.33,2.49-.65,5-1,8l-6.87-7.53-.76.31a14.34,14.34,0,0,0,.49,2.72c.93,2.47,1.91,4.92,3,7.31.63,1.36.28,2.13-.83,3a32.23,32.23,0,0,0-3.88,3.87c-.39.44-.39,1.22-.56,1.84a7.74,7.74,0,0,0,1.75-.11,17.08,17.08,0,0,1,3.33-.92c-13.18,12.38-20.92,27.17-20.78,45.62l-.68-.2v-5.26l-.63,0c-.24,3.55-.54,7.09-.71,10.65s-.33,7.35-.27,11,.54,7.33.53,11-.41,7.29-.43,11l1.14-5.76.66.11Q356,266,355.2,271.55l-.73.06c-.6-4-1.81-8-1.7-11.93.27-9.81,1.38-19.6,1.69-29.42a97.4,97.4,0,0,0-1-17.82c-.85-5.52-3.85-6.9-9.35-6.14-5.78.8-10.13,4.13-14.49,7.52-3.66,2.83-7.26,5.74-10.88,8.61l-.44-.4,5.32-6.7-.31-.32-6.15,5.82-.28-.17,2.56-4c-16,16.2-25.19,35.86-28.78,58.33l-1-.36c.53-3.34.91-6.71,1.61-10,4.32-20.54,13.45-38.56,28.52-53.32a34.57,34.57,0,0,1,8.05-5.45c3.79-2,7.78-3.74,11.76-5.41a6.55,6.55,0,0,1,3.62-.29c5.8,1.15,8.84,5.27,10.8,10.44.17.44.18,1,.49,1.32a23.77,23.77,0,0,0,2.23,1.74c.26-.83.54-1.65.78-2.48a18.31,18.31,0,0,1,.79-2.82c.95-1.94,1.36-3.55.08-5.75a31.72,31.72,0,0,1-4.17-20c1.66,6.77,2.46,13.81,6.21,20.39,2.33-4.13,4.55-8,6.6-11.86.2-.37-.45-1.42-1-1.9-3-2.85-6.21-5.53-9.14-8.47a5.71,5.71,0,0,1-1.62-3.69,43.84,43.84,0,0,1,15.47-33.56c3.33-2.92,7.28-5.12,10.95-7.66,1.54-1.07,2.76-.86,4.21.46q10.62,9.71,21.44,19.16c2.24,1.95,4.79,3.53,7.18,5.31a5.77,5.77,0,0,1,1,1.06c.39.5.64,1.27,1.15,1.51,4.71,2.23,7.61,6.79,12.07,9.29a11.69,11.69,0,0,0,2.76.75l-.06-.06-4.8,3.81c-5-1.6-3.12-7.17-6.3-10.49v12.67l.76,0c.11-1.64.23-3.29.39-5.57,1.08,2.7,1.93,4.79,2.76,6.88l4.43-3.76.33.3-2.87,4.33.38.45,1.61-.45Zm-23.91-6.84h.33l.59-2.56,4,4-1.6.92c.12.82.27,2,2.24,1.12a4.7,4.7,0,0,1,1.8,0h4.16c-.35-1.9-.62-3.37-.95-5.14l4,4.71.56-.44c-.19-.93-.11-2.06-.62-2.76-1.7-2.35-3.6-4.56-5.46-6.81a10.8,10.8,0,0,0-1.22-1.11l-.65.36,2.75,9.6-3.88.42,1.6-3.09c-.39-.18-.76-.51-.95-.42-2.67,1.19-3.44-.9-4.42-2.56-.6-1-1.07-2.15-1.67-3.18a7.16,7.16,0,0,0-1.09-1.19l-.46.28Z" transform="translate(0.04 0.44)"/><path class="cls-1" d="M431.52,173.36a2.25,2.25,0,0,0-.86-3c-3.24-2.47-6.32-5.14-9.47-7.72-.88-.72-1.55-1.46-.49-2.56l18.05-18.79c16.85,11.75,22.78,35.25,14.88,52.47l-15-13.93-2.12,2.26,15.45,15.82c-5.16,9.69-13,16.7-23.42,21.68.25-1,.35-1.64.54-2.21,2.22-6.92,2.37-13.77-.35-20.64-1-2.62-1.63-5.42-2.42-8.14l.9-.47c1.2,1.5,2.31,3.09,3.64,4.46a30.65,30.65,0,0,0,3.52,2.77c-.45-1.34-.81-2.71-1.37-4a31.21,31.21,0,0,0-2.22-4.25c-1.1-1.72-.52-2.89.88-4.06,2.26-1.88,4.47-3.83,6.66-5.8a11.29,11.29,0,0,0,1.25-1.94c-5,.74-7.74,4.41-11.46,6.17l.06,0q2.79-4.19,5.59-8.35l-.38-.41-1.9.55Z" transform="translate(0.04 0.44)"/><path class="cls-1" d="M107.6,493.7l-9.41,8.35-.32-.31c3.13-3.57,6.3-7.1,9.37-10.71,10.06-11.8,20.44-23.35,30-35.53,18-22.82,37.64-44.1,57.53-65.2,7-7.39,14-14.7,21-22.06a1.64,1.64,0,0,1,1.3-.7l-6.79,8.74.25.25,8.28-9.32.88.84-13.65,20.8.2.27,4.28-4,.31.32L109.53,496.54l-.42-.34c.36-.73.73-1.46,1.1-2.19l-.4-.33L107,497l-.52-.39,1.34-2.77Z" transform="translate(0.04 0.44)"/><path class="cls-1" d="M422.93,206.68l-4.6-2.55-.47.63c1.43,1.06,2.91,2.06,4.26,3.21a15.3,15.3,0,0,1,1.84,2.5c-2.54-.08-3.56-2.94-6.19-1.05,5,2.68,3.65,7.23,3.33,11.21-.17,2-1.82,4-2.9,5.9-.19.33-.93.34-1.81.61-2.75,6.42-5.73,13.37-8.86,20.69-.38-2.33-1.14-4.12-3.48-4.4-2-.25-3.89-.17-5.55,1.39a12.87,12.87,0,0,1-3.38,1.69l-3.48-6.08c2.21,4.41-.61,8.51-.92,12.76-.18-1.48-.33-3-.54-4.46-.38-2.8-.95-5.6-1.14-8.41-.09-1.21.57-2.48.9-3.71.09-.33.3-.63.37-1,.62-2.83,1.23-5.67,1.9-8.8l3.31,1.77.28-.34-1.1-1.64c6-.12,9-5.16,13.37-8a6.66,6.66,0,0,0-2.17.57c-2.29,1.59-4.39,3.48-6.77,4.91a12.72,12.72,0,0,1-4.73,1.28c-.36,0-1.23-1-1.27-1.62-.32-4.3-.43-8.35,2.32-12.36,2.33-3.39,3.36-7.69,4.8-11.65.92-2.52,1.28-5.3,4.1-6.86.54,2.28-2.15,4.3-.34,6.47l4-8.76.6.22v5.3l.36.06c.23-2,.45-4,.59-5.25l5.81-2.32-1.49,4.61.69.36,2.58-3.11c.76,3.5,1.52,7,2.25,10.26l.75-11C422.63,195.14,426.38,200.21,422.93,206.68Zm-15.69,14-.08.52,3.68,2.71c1.58,1.15,5.06.32,5.11-1.28.12-3.75.16-7.5,0-11.25a18.68,18.68,0,0,0-1-4.05l-.59.14a37.74,37.74,0,0,1,.31,15c-1.49-.27-2.75-.44-4-.74S408.39,221.06,407.24,220.7Zm1,12.92c.38-1.34.81-2.89,1.25-4.45-3.42-2.12-8.88-1.4-10.24,2Zm-6.83-28.51c2.7,3.52,7.95,4.22,9.38.64Zm-.43-1.93c2.88,1.25,8.28.1,10.44-2.27Zm5,33.07,0-.73h-4.19v.73Z" transform="translate(0.04 0.44)"/><path class="cls-1" d="M369.8,350c3-2.58,5.35-4.72,9-5.18s6.92-2,10.44-2.54c5.86-.9,8.07.75,9.58,6.4.25,1,.6,1.9,1.13,3.53l11.41-23.9c-.14,2-.25,3.61-.36,5.22l.3.07c.28-1.43.69-2.85.84-4.29q1.62-16.33,3.15-32.68a58.12,58.12,0,0,0,.34-6.46,5.5,5.5,0,0,0-1-2.6c-1-1.62.36-5.8,2.21-6.4v-4.47c1.55-.83,2.45.38,2.74,1.67a20.27,20.27,0,0,1,.48,5.65c-.77,12.6-1.55,25.2-2.51,37.78-.46,6-1.47,12-1.94,18-.57,7.41-.94,14.84-1.19,22.27-.1,2.89-.53,4.77-3.91,5.67-4.22,1.12-8.28,2.29-12.69,1.41a9.42,9.42,0,0,1-6.06-3.88,86,86,0,0,0-7.3-8.85C380.66,352.53,375.81,350.53,369.8,350Z" transform="translate(0.04 0.44)"/><path class="cls-1" d="M157,504.52c0,7.52,3,13.45,6.73,19.28,2.12,3.3,3.93,6.91,3.55,11.38-.32,3.82.56,7.76,1,11.63.23,1.93.74,3.82,1.24,6.33l-13,3.8c2.78,1.61,5,.38,7.39.45l-.43,3.08-8.05,1.5c1.6,2,3,1.14,4.37.84.7-.16,1.83-.2,2.13.2a3.39,3.39,0,0,1,.38,2.41,1.69,1.69,0,0,1-1.4,1,81.17,81.17,0,0,1-9.84-1.81c-6.43-1.81-8.48-5.4-6.83-12A88.74,88.74,0,0,1,147.94,541c2.13-5.27,1.51-10.23-.46-15.33a114.8,114.8,0,0,1-3.62-11.33c-.58-2.1.48-3.73,2.45-4.68C149.74,508,153.19,506.34,157,504.52Zm-2.6,17.26a22.58,22.58,0,0,0-1.56-1.86c-2.63-2.48-2.67-2.68-.85-5.83.12-.21.36-.39.37-.6a17,17,0,0,0,0-1.75c-.62.18-1.52.16-1.79.57a13.39,13.39,0,0,0-2.16,4.17C147.75,519.53,150.71,522.32,154.4,521.78Z" transform="translate(0.04 0.44)"/><path class="cls-1" d="M449,263.52c.89,1.41,1.71,2.86,2.69,4.2.83,1.14,2.15,2,2.69,3.23.79,1.78-.46,4.64-2.7,5.8-8.78,4.57-17.65,9-26.5,13.42-.12.06-.3,0-.64,0-.2-3.93-.44-7.87-.52-11.81,0-.43.78-1.11,1.32-1.27,3.59-1.07,7.2-2.08,10.84-3a20.08,20.08,0,0,1,3.57-.29l.13-.73,2.19,2,.43-.2L441.32,272l3,1.38.5-.73a16.63,16.63,0,0,0-2.95-2.08,2.91,2.91,0,0,1-1.89-2.68c-1-6.95-2.5-13.85-3.3-20.82-1-8.85-1.51-7.11,5.63-12.22,2.85-2,6.37-3.14,9.57-4.66.21.4.36.61.33.65-2.29,2.47-4.27,5.38-7,7.26-3.66,2.55-5.66,5.66-5,9.93.92,6.28,2.29,12.5,3.5,18.73a2.23,2.23,0,0,0,1.15,1.39c-.22-1.15-.43-2.29-.66-3.44s-.49-2.34-.74-3.52a20.6,20.6,0,0,0-.75-3.26c-1.76-4.35-.88-8.79-.51-13.19a3.29,3.29,0,0,1,1.56-2.44c3.87-1.26,6.29-4.64,9.79-6.37.79-.39,1.62-.68,2.51-1.05.1.54.21.76.14.83-2.54,2.77-4.92,5.71-7.69,8.22-2.58,2.32-3.19,5-2.81,8.2.07.53.81,1,1.23,1.48a5.1,5.1,0,0,0,.5-1.74,8,8,0,0,1,4.15-7.93c1.44.9,1.25,1.95.67,3.42a41.33,41.33,0,0,0-1.39,5.81l1.16.4c.55-1.33,1.11-2.64,1.65-4,.64-1.59,1.45-2.4,2.83-.75,1.2-2.89,4.46-1.65,6.2-3.46l.38.62c-.85.62-1.67,1.3-2.55,1.86a12.11,12.11,0,0,0-5.94,10.49c-.07,3.24,0,6.48,0,9.73l-.83.38c-1.57-1.65-3.14-3.31-4.72-5l-1.78-4.84c.17,2.75.32,5.32.51,8.37C448.29,265.52,448.65,264.52,449,263.52Z" transform="translate(0.04 0.44)"/><path class="cls-1" d="M214.23,473.44c.59,5.85,1.07,11.72,1.81,17.56a70.78,70.78,0,0,0,1.86,7.72c-1.17-.58-2-.92-2.73-1.38-1.42-.89-2.71-2-4.2-2.76-3.71-1.84-7.46-2.15-11.2.11-1.49.91-3.08,1.68-4.66,2.46-3.93,2-7.56,1.6-11.28-.88a58.81,58.81,0,0,0-9.3-4.8,8.67,8.67,0,0,0-9.05,1.26c-.47.36-1,.64-2,1.26.79-2.64,1.08-4.95,2.18-6.78.7-1.19,2.48-2,3.94-2.42,10.08-3.06,20.14-6.19,30.71-7.28a80.12,80.12,0,0,0,11-2.31,11.91,11.91,0,0,0,3-1.72Z" transform="translate(0.04 0.44)"/><path class="cls-1" d="M233.83,437.88q.76,14,1.54,28l.48,0c0-5-.1-10,0-15.05.34-13.51.13-27.07,1.34-40.51,1.58-17.42,4.06-34.77,6.65-52.08,2.28-15.2,10.67-27.16,21.55-37.56a16.58,16.58,0,0,1,1.36-1,7.42,7.42,0,0,1,.7.76c.34.53.63,1.08.83,1.42-9.31,12.13-15.73,25.45-20.72,39.68-5.59,15.92-6.53,32.31-7.14,48.89-.38,10.22-1.47,20.42-2.49,30.6a113.22,113.22,0,0,0,4,44.35,2.56,2.56,0,0,1,.11,1.51c-1.9-2.27-3.84-4.51-5.66-6.83-.35-.44-.27-1.21-.36-1.83-.65-4.25-1.35-8.49-1.91-12.75A94,94,0,0,1,233,454.7c-.09-5.64.2-11.28.34-16.92Z" transform="translate(0.04 0.44)"/><path class="cls-1" d="M399.31,518.93c-.28,2.35,1.66,2.93,3.15,3.67a49.55,49.55,0,0,0,19.59,5,89.05,89.05,0,0,0,9.74-.59c1.69,2.78,5.56,2.72,9.45,4.49-2.47.73-4.27,1.63-6.13,1.76q-15.12,1.1-30.26,1.82c-3.34.15-6.71-.43-10-.28-1.66.07-4.31.65-4.72,1.7-1.28,3.29-4.07,3.08-6.48,3.59-3,.65-4.93-.51-5.74-3a5.39,5.39,0,0,1,2.42-6.74c4-2.67,7.92-5.63,12-8.21a55.65,55.65,0,0,1,7.05-3.24Z" transform="translate(0.04 0.44)"/><path class="cls-1" d="M305.13,225.18c-18.11,28.53-26.81,58.74-16.85,92.4l-.44.56c-3.94-3-7.94-6-11.77-9.11-.62-.52-.78-1.95-.69-2.92.52-5.39,1-10.79,1.84-16.13.71-4.49,2.17-8.86,2.86-13.35,3-19.52,13.55-35.33,24.55-51A4.62,4.62,0,0,1,305.13,225.18Z" transform="translate(0.04 0.44)"/><path class="cls-1" d="M386.61,133.82c10.7-4.91,27.38-4.76,36.08-.91-2.47,2.87-4.81,5.62-7.17,8.35-2,2.35-4.13,4.66-6.12,7.05-.36.43-.34,1.18-.56,1.75-.38,1-2.65,1.51-3.52.75q-9.15-8.1-18.26-16.24A3.8,3.8,0,0,1,386.61,133.82Z" transform="translate(0.04 0.44)"/><path class="cls-1" d="M423,318.09c.73-6.09,1.46-11.7,2-17.32.2-1.82,0-3.68,0-6.22l21.59-11.5.42.48c-1.27,3.49-2.57,7-3.8,10.48a80.58,80.58,0,0,0-3,9.1c-1.57,7.16-7.34,10-12.92,13.1A45.83,45.83,0,0,1,423,318.09Z" transform="translate(0.04 0.44)"/><path class="cls-1" d="M383.72,236.06c-.1-.76-.2-1.53-.29-2.29l-.72,0q-.61,6.94-1.22,13.88l.72.52,2.72-1.58c-.61,5.45-1.26,11.2-1.91,16.95l-.76.17c-.41-1.11-1.2-2.21-1.18-3.31.24-14,.42-28.12,1-42.16a53.22,53.22,0,0,1,5.83-21.86c1.69-3.37,4.25-6.3,6.51-9.58l4,3.29a20.77,20.77,0,0,0-.59,2.81c-.06.62-1,2.08,1,1.56a10.13,10.13,0,0,1,.47,2.66c-.29,3.34-2.78,5-5.33,6.54a3.14,3.14,0,0,1-2.5-.15c-1.64-.78-2.45-.19-2.87,1.34-.91,3.39-1.78,6.79-2.72,10.39l3.74-2.29-3.49,22.44Zm.66-21.79.69.14,3.31-11.95-.77-.22C385.6,206,385.43,210.25,384.38,214.27Z" transform="translate(0.04 0.44)"/><path class="cls-1" d="M358.71,353.66c-2.59-2.87-5.07-5.66-7.62-8.4a4.49,4.49,0,0,0-1.61-.84c-.78-.3-1.59-.54-2.49-.84,5.81-6.45,12-11.68,21-11.6a26.26,26.26,0,0,1,7.4,1.41c1.16.36,2.09,1.48.63,2.95-5.16,5.23-10.24,10.54-15.37,15.8A16.64,16.64,0,0,1,358.71,353.66Z" transform="translate(0.04 0.44)"/><path class="cls-1" d="M379.74,237.73l-3-2.31c-.58,3.17-1.11,6.09-1.63,9l-.44-.06,1-10.05-.37-.1-.8,1.28-.84-4.22-1.16,1.55A73.43,73.43,0,0,1,378,199c1.23-3,1.81-6.41,4.68-8.44a17.53,17.53,0,0,1,3.89-1.55v1.75l4.88-5.24-8.06,18-3.73-5.08c-2.49,5.55-3.06,10.75-.45,16.15l1.74.07C380.57,222.17,380.16,229.76,379.74,237.73Z" transform="translate(0.04 0.44)"/><path class="cls-1" d="M436.07,138.75c-5.52,5.92-10.66,11.46-15.84,17-4.39,4.69-4.4,4.67-9.1.25-2.08-2-2.07-2.4-.19-4.46,4.92-5.4,9.78-10.85,14.75-16.2a2.69,2.69,0,0,1,2.33-.7C430.62,135.78,433.1,137.2,436.07,138.75Z" transform="translate(0.04 0.44)"/><path class="cls-1" d="M315.11,332.07c-2.74.3-5.48.67-8.23.88-7.28.54-14.6.85-21.63-1.46-2.61-.85-4.9-2.65-7.86-4.31,3.4-1.24,3.38-1.21,5.7,0,4.5,2.3,9.08,4.48,14.34,4a15,15,0,0,0,4.67-1.42c-9,1.35-16.23-2.47-23.19-7.15l.23-.81a13.94,13.94,0,0,1,2.33.7c4.88,2.46,9.88,4.53,15.39,5.09a2.08,2.08,0,0,0,1.49-.31c-1.66-.57-3.35-1.06-5-1.72-3.77-1.53-7.55-3.06-11.24-4.76-1.71-.78-3.46-1.47-3.62-4.11-.09-1.56-1.72-3-2.93-5,.85.47,1.36.71,1.83,1,3.78,2.52,7.6,5,11.32,7.61,1.6,1.12,2.95,2.58,4.48,3.79.5.39,1.45.85,1.86.64,3.28-1.71,6.2.18,9,1.12,3.59,1.21,6.89,3.27,10.31,5a4.3,4.3,0,0,1,.74.55Z" transform="translate(0.04 0.44)"/><path class="cls-1" d="M412.78,272.84l-5,7.41-.79-.53c2.21-4.13,4.91-8.08,6.5-12.44s2-9,3-13.57l8.86,1.09c-2.51,6.5-5.77,12.8-5.74,19.38l-6.24,2.89-1.42-1,1.26-3Z" transform="translate(0.04 0.44)"/><path class="cls-1" d="M327.72,331.29l2.49-7.46.56-.11a7.34,7.34,0,0,1,.9,2.35c0,7.12-2.58,13.49-5.72,20.65-1.52-2.27-2.73-3.89-3.73-5.63-2.09-3.68-4.54-6.81-9.26-7.09,3-1.58,3-1.38,6.2-.67a5.67,5.67,0,0,0,4.07-1.08c1.6-1.21,2.8-3,4.44-4.79-.12,1.57-.21,2.77-.3,4Z" transform="translate(0.04 0.44)"/><path class="cls-1" d="M226.72,489.09c-7.17-9.43-6.55-25.89,1-32.88.1.73.44,1.45.21,1.85-1.8,3.24-.5,6.53-.35,9.81a22.92,22.92,0,0,1-.14,6.09C226.38,478.79,225.53,483.6,226.72,489.09Z" transform="translate(0.04 0.44)"/><path class="cls-1" d="M368.16,234.35c-.61-2.52-1.43-5.09-1.82-7.72s-.37-5.55-.53-8.47l1.81-.11V210.3c3,1.93,3,1.93,6.12-2.81-.63,3.23-1.39,6.32-1.78,9.46s-.46,6.34-.59,9.52C371.26,229.35,372.08,232.49,368.16,234.35Z" transform="translate(0.04 0.44)"/><path class="cls-1" d="M292.74,303.62c1.25,2.21,2.46,4.43,3.75,6.61,1,1.72,2.05,3.44,3.22,5,2,2.78,4.64,4.36,8.27,3.55a9.54,9.54,0,0,1,2.39-.08c1.86.06,2.68.75,2.38,2.88a57.19,57.19,0,0,0-.07,7.54c-3.38-2.28-6.51-3.91-9-6.23a44.24,44.24,0,0,1-7.33-8.76c-1.95-3.1-3.11-6.7-4.62-10.08Z" transform="translate(0.04 0.44)"/><path class="cls-1" d="M388.44,243.34c0,6.87,2.61,13.63.49,20.59a10.73,10.73,0,0,0,0,5.92c1.32,4.37.12,8.32-1.15,12.35a11.71,11.71,0,0,0-.28,1.79l.56.25,1.51-2.81c.26,3.84.26,3.84-2.44,4.42C385.41,281.6,386.2,249.73,388.44,243.34Z" transform="translate(0.04 0.44)"/><path class="cls-1" d="M396.93,181.73l-1.38-1.81-.32,4.7c-1.13-1.21-2-2-2.67-2.88-2.48-3-2.47-3-6.18-.77-.26-1-.83-1.94-.62-2.68.16-.58,1.29-.88,2.3-1.5-.13-2.44-.28-5.34-.42-8.23l.53-.21,3.12,4.15-1.61,2.08,2.29-1c.45,1.66,3.72,2.11,1.26,4.88l.88.08,3-4.63c-1.4.29-2.9,1.72-3.31-.87l3.94-.56C398,175.76,401.39,178.87,396.93,181.73Z" transform="translate(0.04 0.44)"/><path class="cls-1" d="M380.09,262.88l-2.92-2-.83.92c-1.77-5.28-4-10.25-2-16,1.39.51,2.57,1.38,3.49,1.16s1.34-1.62,2.27-2.88v18.83Z" transform="translate(0.04 0.44)"/><path class="cls-1" d="M331.25,338c4.77,2,9.26.31,13.88-.27-5.76,4.31-11.37,8.77-17.76,12l-.65-.58C328.19,345.54,329.66,341.92,331.25,338Z" transform="translate(0.04 0.44)"/><path class="cls-1" d="M365.66,290.9c.37-2.63,0-5.41,1.46-7.84.67,2.62-1.08,5.31.26,7.83l.93.08,1-9.63.6,0c1,3.09-2.07,6.5.46,9.53.18-2.29.36-4.58.57-7.32,1.33,2-1.28,4.17,1.39,5.66l.73-3a15.2,15.2,0,0,0,1.8.44c1.51.17,2.33-.31,2.47-2.06a36.26,36.26,0,0,1,1.18-5.16h.72L384,287c-4.12,1.4-8.14,2.61-12,4.16-2.28.9-4.31,1.47-6.35-.32Z" transform="translate(0.04 0.44)"/><path class="cls-1" d="M519.72,278.52l4.32-3.8.45.36-1.29,2.5,2.72-1.58.58.69c-4.68,6.16-9.59,12.14-16.15,16.67l4.44-5.66-.22-.27-6.75,5.86-.45-.41c.91-1.11,1.78-2.26,2.74-3.33,2.77-3.08,5.59-6.12,8.37-9.21a18.55,18.55,0,0,0,1.33-1.91Z" transform="translate(0.04 0.44)"/><path class="cls-1" d="M172.31,567.14c.38-1,.6-1.48.78-2,1-3,.1-4.51-3.07-5.09a5.27,5.27,0,0,0-1.66-.17c-2.13.35-3.1-.61-3.2-2.84.94-.39,2-.75,3-1.24s1.91-1.12,2.76-1.63c2.62,1.54,5.13,3.07,7.69,4.49,2.78,1.53,3,2.1,1.63,5.27-.56-3.71-1.65-4.61-5-3.93a9.2,9.2,0,0,0,.62,1.41c.52.77,1.75,1.86,1.57,2.14a14.14,14.14,0,0,1-2.9,3.19C174.07,567.08,173.29,567,172.31,567.14Z" transform="translate(0.04 0.44)"/><path class="cls-1" d="M416.82,250.75l4.91-7.75c2.06,1.93,3.93,3.5,5.57,5.29a2,2,0,0,1-1.51,3.37,73.12,73.12,0,0,1-8.38.09Z" transform="translate(0.04 0.44)"/><path class="cls-1" d="M413,280.7c0,2.9,0,5.58,0,8.27a2.4,2.4,0,0,1-.55,1.28c-3.08,3.94-6.19,7.86-9.54,11.66a68.26,68.26,0,0,0,3.8-8,72.93,72.93,0,0,0,2.66-11C409.69,280.5,411.25,281.11,413,280.7Z" transform="translate(0.04 0.44)"/><path class="cls-1" d="M519.81,278.43c-1.9,1.68-3.88,3.26-5.67,5-2.79,2.76-5.43,5.65-8.16,8.47a19.51,19.51,0,0,1-1.71,1.42l-.61-.61,19.17-22.6,1,.71c-.6,1-1.24,1.91-1.77,2.92-.83,1.56-1.58,3.16-2.36,4.74Z" transform="translate(0.04 0.44)"/><path class="cls-1" d="M375.18,283.89c-3.11-3-5.77-10.26-4.6-12.83l.71,1.51,1.57-.75a15.74,15.74,0,0,0,2.17,3c.27.23,1.36-.46,2.49-.88Z" transform="translate(0.04 0.44)"/><path class="cls-1" d="M219.41,471.23c-.17,7.44,3,13.93,6,20.64C219.39,490.13,216.5,480.1,219.41,471.23Z" transform="translate(0.04 0.44)"/><path class="cls-1" d="M377.12,180.13c4.67-2.41,2.41-5.42,1.3-8.32a8.78,8.78,0,0,1-.87-3.52c1.59,1.81,3.19,3.61,5.08,5.74.4-1.67.7-2.9,1-4.25,1.07,2.05,2.05,3.92,3.07,5.89l-2.71.61.67,1.79-6.78,2.33Z" transform="translate(0.04 0.44)"/><path class="cls-1" d="M391.29,284.22c.88-6.29,5-11.18,7.26-17.14,1.78,1.2,2.36,2.24,1.35,4.06-2.15,3.9-4.1,7.91-6.22,11.82a9.42,9.42,0,0,1-1.79,1.84Z" transform="translate(0.04 0.44)"/><path class="cls-1" d="M392.2,275.89c1.11-5.5,2.22-11,3.4-16.91.89,2.46,1.63,4.45,2.3,6.47a1.77,1.77,0,0,1-.25,1.13c-1.56,3.19-3.16,6.37-4.74,9.55Z" transform="translate(0.04 0.44)"/><path class="cls-1" d="M376.66,198.66l-3.94.19a13.36,13.36,0,0,1,4.84-8.79l.26.73,2.74-1C379.31,192.61,377.93,195.75,376.66,198.66Z" transform="translate(0.04 0.44)"/><path class="cls-1" d="M401.29,270.75c1.56,1.21,1.86,2.39.86,4a46.8,46.8,0,0,0-3.32,6.1c-.92,2.12-2.54,2.61-4.78,2.82Z" transform="translate(0.04 0.44)"/><path class="cls-1" d="M364.48,219.62c.27,4,.51,7.43.77,11.11l-.86-.36q-.94,2.59-1.91,5.21C361.21,230.5,362.17,223.39,364.48,219.62Z" transform="translate(0.04 0.44)"/><path class="cls-1" d="M399.38,282l8.23-15.49.71.07c-.05,1.22.27,2.63-.22,3.63C403.81,279,401.74,281.74,399.38,282Z" transform="translate(0.04 0.44)"/><path class="cls-1" d="M518.86,273.3l-18,21.42-.59-.5c5.08-7.92,11.72-14.52,18.07-21.36Z" transform="translate(0.04 0.44)"/><path class="cls-1" d="M449,286.83,450.1,283l-.5-.18c-1.08,2.84-2.25,5.66-3.23,8.54-1.31,3.84-2.39,7.77-3.76,11.59a19,19,0,0,1-2.25,3.63l-.64-.36c1.52-4,3-7.95,4.54-11.93,1.23-3.29,2.49-6.56,3.59-9.89.52-1.58,1.19-2.75,3.56-2.71-.85,1.8-1.64,3.46-2.44,5.12Z" transform="translate(0.04 0.44)"/><path class="cls-1" d="M359.12,282.05c-2.16-4.25,0-8.28.25-12.71C362.73,273.9,360.15,278,359.12,282.05Z" transform="translate(0.04 0.44)"/><path class="cls-1" d="M367.2,246.13v16.76c-1.24-5.59-2.2-11.17-.87-16.8Z" transform="translate(0.04 0.44)"/><path class="cls-1" d="M373.9,260.12c-2.49-2.37-2.11-5.3-2.39-7.82a26.75,26.75,0,0,1,.7-7.83Z" transform="translate(0.04 0.44)"/><path class="cls-1" d="M403,280.91l5.58-9.68C409.86,273.44,405.81,280.6,403,280.91Z" transform="translate(0.04 0.44)"/><path class="cls-1" d="M446.82,299.7l5-15.53c-1.15,5.36-1.85,10.87-4.06,15.92Z" transform="translate(0.04 0.44)"/><path class="cls-1" d="M449,286.79a9.37,9.37,0,0,1,0,2.31q-1.44,5.55-3.05,11.06a13.23,13.23,0,0,1-1.28,2.36l-.67-.29q2.55-7.68,5.09-15.38Z" transform="translate(0.04 0.44)"/><path class="cls-1" d="M355.93,276.34l1.56-11,.76.08c1,3.82-1.43,7.34-1.21,11.1Z" transform="translate(0.04 0.44)"/><path class="cls-1" d="M364.49,247.43v9.22C362.1,253,362,251.66,364.49,247.43Z" transform="translate(0.04 0.44)"/><path class="cls-1" d="M453.37,244.93c-.13-.86-.44-1.78-.26-1.89,2.2-1.33,3.75-3.83,6.88-3.61Z" transform="translate(0.04 0.44)"/><path class="cls-1" d="M404.44,268.19l1-7.27C407.77,264.28,407.64,265.46,404.44,268.19Z" transform="translate(0.04 0.44)"/><path class="cls-1" d="M360.62,285.27l1.17-8.3c2.65,3-.32,5.59,0,8.42Z" transform="translate(0.04 0.44)"/><path class="cls-1" d="M369,259.12q-.33-5.73-.67-11.46l.89-.06q.36,5.7.71,11.42Z" transform="translate(0.04 0.44)"/><path class="cls-1" d="M485.9,217.26c2.87,1.3,2.26,3.74,2.3,6.41C484.65,222.15,486.94,219.16,485.9,217.26Z" transform="translate(0.04 0.44)"/><path class="cls-1" d="M477.27,214.55a30.64,30.64,0,0,1-3-2.88c-.32-.39-.07-1.25-.08-1.9.61.08,1.56-.07,1.78.27a37.52,37.52,0,0,1,2.13,4Z" transform="translate(0.04 0.44)"/><path class="cls-1" d="M364,280.86c2.33,2.49-.35,4.92-.16,7.43C362.5,285.82,363.73,283.36,364,280.86Z" transform="translate(0.04 0.44)"/><path class="cls-1" d="M484.42,215v5C481.69,219.34,481.58,218.32,484.42,215Z" transform="translate(0.04 0.44)"/><path class="cls-1" d="M405.89,182.28c3.16,2.55,1,3.71.19,5.09l-.76-.09C405.49,185.81,405.66,184.34,405.89,182.28Z" transform="translate(0.04 0.44)"/><path class="cls-1" d="M360.85,251c-.07-1.22-.22-2.43-.17-3.63,0-.38.59-.72.91-1.08.27.47.81,1,.74,1.4a27.14,27.14,0,0,1-1,3.34Z" transform="translate(0.04 0.44)"/><path class="cls-1" d="M272.83,320.5c-2.25-.27-3.05-1.74-3.74-3.33l.65-.66Z" transform="translate(0.04 0.44)"/><path d="M174.39,328.42a84.16,84.16,0,0,1-1.31,29.78C172.08,352.29,172.81,329.67,174.39,328.42Z" transform="translate(0.04 0.44)"/><path d="M63.06,466.58c2.12.17,2.4,2,2.55,3.74.27,3.09.44,6.21.5,9.31a2.43,2.43,0,0,0,1.71,2.45c2.66,1.3,5.17,2.89,7.74,4.37l-.5,1c-.83-.35-1.69-.66-2.5-1.06a64.27,64.27,0,0,0-6.09-3.07,3,3,0,0,1-2.3-3.11C63.91,475.74,63.46,471.26,63.06,466.58Z" transform="translate(0.04 0.44)"/><path d="M168,334.24a65.51,65.51,0,0,1-1.05,21.83V334.24Z" transform="translate(0.04 0.44)"/><path d="M137.67,393.07c-.32-.7-.91-1.41-.88-2.1s.77-1.12,1.2-1.67c.52.59,1.39,1.14,1.47,1.8s-.65,1.33-1,2Z" transform="translate(0.04 0.44)"/><path d="M212.49,334.44c-.6-1.06-1.2-1.63-1.14-2.13s.74-1,1.15-1.49c.47.43,1.32.87,1.32,1.31C213.82,332.73,213.17,333.33,212.49,334.44Z" transform="translate(0.04 0.44)"/><path d="M113.57,437.56l.26,2.95-1.5.1v-3Z" transform="translate(0.04 0.44)"/><path d="M51.83,485.61l1.66,3.84-2.87-.95Z" transform="translate(0.04 0.44)"/><path d="M254.77,54.5c.17,2.75.33,5.51.52,8.59C253.07,61.77,252.85,57.34,254.77,54.5Z" transform="translate(0.04 0.44)"/><path d="M306.74,296.76c1.05-2.22,2-4.5,3.17-6.66,1.31-2.36,2.83-4.6,4.26-6.9l.68.42-8.16,13.1Z" transform="translate(0.04 0.44)"/><path d="M404.18,174.62l-.94-7.84.46-.28a7.16,7.16,0,0,1,1.09,1.19c.6,1,1.07,2.15,1.67,3.18,1,1.66,1.75,3.75,4.42,2.56.19-.09.56.24.95.42l-1.6,3.09,3.88-.42-2.75-9.6.65-.36a10.8,10.8,0,0,1,1.22,1.11c1.86,2.25,3.76,4.46,5.46,6.81.51.7.43,1.83.62,2.76l-.56.44-4-4.71c.33,1.77.6,3.24.95,5.14h-4.16a4.7,4.7,0,0,0-1.8,0c-2,.91-2.12-.3-2.24-1.12l1.6-.92-4-4-.59,2.56Z" transform="translate(0.04 0.44)"/><path d="M431.46,173.3l1.9-.55.38.41q-2.81,4.17-5.59,8.35l-1.61.45-.38-.45,2.87-4.33-.33-.3-4.43,3.76c-.83-2.09-1.68-4.18-2.76-6.88-.16,2.28-.28,3.93-.39,5.57l-.76,0V166.62c3.18,3.32,1.35,8.89,6.3,10.49Z" transform="translate(0.04 0.44)"/><path d="M407.24,220.7c1.15.36,2.29.78,3.46,1.07s2.48.47,4,.74a37.74,37.74,0,0,0-.31-15l.59-.14a18.68,18.68,0,0,1,1,4.05c.13,3.75.09,7.5,0,11.25-.05,1.6-3.53,2.43-5.11,1.28l-3.68-2.71Z" transform="translate(0.04 0.44)"/><path d="M408.21,233.62l-9-2.49c1.36-3.36,6.82-4.08,10.24-2C409,230.73,408.59,232.28,408.21,233.62Zm-.38-4.11c-2.63-.23-5-.64-7.27,1.28l6.68,1.45C407.43,231.36,407.59,230.6,407.83,229.51Z" transform="translate(0.04 0.44)"/><path d="M401.38,205.11l9.38.64C409.33,209.33,404.08,208.63,401.38,205.11Z" transform="translate(0.04 0.44)"/><path d="M401,203.18l10.44-2.27C409.23,203.28,403.83,204.43,401,203.18Z" transform="translate(0.04 0.44)"/><path d="M406,236.25h-4.22v-.73h4.19Z" transform="translate(0.04 0.44)"/><path d="M154.4,521.78c-3.69.54-6.65-2.25-6-5.3a13.39,13.39,0,0,1,2.16-4.17c.27-.41,1.17-.39,1.79-.57a17,17,0,0,1,0,1.75c0,.21-.25.39-.37.6-1.82,3.15-1.78,3.35.85,5.83A22.58,22.58,0,0,1,154.4,521.78Z" transform="translate(0.04 0.44)"/><path d="M449,263.52c-.35,1-.71,2-1.26,3.55-.19-3.05-.34-5.62-.51-8.37l1.78,4.84Z" transform="translate(0.04 0.44)"/><path d="M384.38,214.27c1.05-4,1.22-8.28,3.23-12l.77.22-3.31,11.95Z" transform="translate(0.04 0.44)"/><path class="cls-1" d="M407.83,229.51c-.24,1.09-.4,1.85-.59,2.73l-6.68-1.45C402.85,228.87,405.2,229.28,407.83,229.51Z" transform="translate(0.04 0.44)"/></svg>