<?xml version="1.0" encoding="UTF-8"?>
<svg version="1.1" fill="white" viewBox="0 0 744.09 1052.4" xmlns="http://www.w3.org/2000/svg">
 <path d="m291.35 50.486c-3.8956 0.10574-7.5218 2.5177-9.0312 6.375-0.56403 1.4413-0.76416 2.9282-0.65625 4.375-1.4471 0.05674-2.8924 0.11594-4.3438 0.1875-0.26631-3.7278-2.6004-7.1411-6.3125-8.5938-5.1431-2.0126-10.956 0.51318-12.969 5.6562-0.55983 1.4306-0.7587 2.9071-0.65625 4.3438-1.9737 0.18396-3.8898 0.38819-5.8125 0.59375-0.98226-4.5464-5.0428-7.9279-9.875-7.875-5.5225 0.06042-9.9667 4.5712-9.9062 10.094 2e-3 0.14653 0.0234 0.29258 0.0312 0.4375-1.7198 0.28819-3.3793 0.57114-4.9688 0.875-1.6726-3.2737-5.1058-5.5117-9.0312-5.4688-5.5225 0.06042-9.9354 4.6025-9.875 10.125 3e-3 0.30218 0.033 0.57993 0.0625 0.875-1.6293 0.75305-3.2605 1.5929-4.9375 2.5-1.832-1.8083-4.3477-2.9054-7.125-2.875-5.5225 0.06042-9.9354 4.5712-9.875 10.094 0.0124 1.1306 0.20561 2.2091 0.5625 3.2188-1.5157 1.0856-3.0143 2.1972-4.5 3.3125-1.8584-2.2023-4.6436-3.5652-7.75-3.5312-5.5225 0.06042-9.9667 4.5712-9.9062 10.094 0.0245 2.2358 0.80438 4.2857 2.0625 5.9375-8.3629 7.0852-14.129 12.507-15.531 13.844-1.5474-0.77712-3.2811-1.2188-5.125-1.2188-6.3335 0-11.5 5.1665-11.5 11.5 0 3.1668 1.2917 6.0417 3.375 8.125-0.41079 0.71861-4.0508 7.1836-9.5625 18-3.3237-0.91108-7.0217-0.0901-9.6562 2.5-3.9383 3.8719-3.9969 10.187-0.125 14.125 0.36299 0.36922 0.75402 0.6991 1.1562 1-0.66131 1.4006-1.3227 2.7883-2 4.25-3.8104-2.27-8.7826-1.8178-12.094 1.4375-3.9383 3.8719-3.9969 10.218-0.125 14.156 1.1926 1.2131 2.6075 2.0565 4.125 2.5312-0.56001 1.3149-1.0958 2.6574-1.6562 4-3.5854-1.4599-7.8453-0.76143-10.781 2.125-3.9383 3.8719-3.9969 10.218-0.125 14.156 1.0273 1.045 2.2482 1.8152 3.5313 2.3125-0.60523 1.6089-1.2175 3.2124-1.8125 4.8438-4.4072-1.0704-9.1412 0.99861-11.281 5.2188-2.4978 4.9257-0.51946 10.94 4.4062 13.438 0.15206 0.0771 0.31475 0.11886 0.46875 0.1875-0.504 1.5914-1.0142 3.18-1.5 4.7812-3.714-0.0694-7.3323 1.9648-9.125 5.5-2.4251 4.7822-0.61375 10.567 4 13.188-0.46872 1.9185-0.91249 3.8477-1.3438 5.7812-3.0533 0.48964-5.8382 2.3748-7.3438 5.3438-2.3895 4.7121-0.68278 10.389 3.7812 13.062-0.4089 2.4737-0.79758 4.9392-1.1562 7.4062-3.6418 0.20196-7.0571 2.3698-8.625 5.9375-2.222 5.0561 0.10013 10.965 5.1562 13.188 0.35634 0.1566 0.69936 0.26268 1.0625 0.375-0.15738 1.5825-0.29741 3.1529-0.4375 4.7188-4.2045-0.43447-8.3955 1.8286-10.188 5.9062-2.222 5.0561 0.06888 10.965 5.125 13.188 1.1853 0.52093 2.4364 0.79692 3.6562 0.84375-0.07553 1.4861-0.12516 2.9517-0.1875 4.4062-3.3852 0.41658-6.4656 2.5259-7.9375 5.875-2.222 5.0561 0.06888 10.965 5.125 13.188 0.76035 0.33415 1.5294 0.55177 2.3125 0.6875-0.01572 1.8189-0.03183 3.5306-0.03125 5.25-3.5589 0.27577-6.8384 2.4411-8.375 5.9375-2.222 5.0561 0.06888 10.934 5.125 13.156 1.172 0.51507 2.3874 0.79243 3.5938 0.84375 0.25551 7.173 0.5269 11.113 0.59375 12.031-4.691 1.4509-8.125 5.8434-8.125 11 0 6.3335 5.1665 11.5 11.5 11.5 0.10443 0 0.20872-0.0285 0.3125-0.0312 0.09843 0.49848 0.97677 4.7089 3.0625 12.406-3.7684 1.2818-6.5725 4.7516-6.7812 8.9688-0.27307 5.5161 3.9839 10.227 9.5 10.5 1.0448 0.0517 2.0699-0.0618 3.0312-0.3125 0.51479 1.5822 0.99344 3.0939 1.5625 4.7812-4.1748 1.0316-7.3702 4.7028-7.5938 9.2188-0.27307 5.5161 3.9839 10.196 9.5 10.469 1.7238 0.0853 3.3905-0.27003 4.8438-0.96875 0.50175 1.3231 1.0026 2.6992 1.5312 4.0625-3.6741 1.3315-6.3884 4.7586-6.5938 8.9062-0.27307 5.5161 3.9839 10.227 9.5 10.5 1.6503 0.0817 3.2184-0.23419 4.625-0.875 0.66171 1.5539 1.3385 3.1273 2.0312 4.7188-4.3213 2.0551-6.6562 6.9586-5.3125 11.719 1.5004 5.3151 6.9974 8.4066 12.312 6.9062 0.42446-0.11982 0.8551-0.26851 1.25-0.4375 0.66835 1.4187 1.34 2.8395 2.0312 4.2812-3.2112 2.4079-4.7807 6.6246-3.625 10.719 1.5004 5.3151 7.0286 8.4066 12.344 6.9062 0.0194-5e-3 0.0431 6e-3 0.0625 0 0.85068 1.656 1.7142 3.3196 2.5938 5-2.0718 2.4521-2.9377 5.8343-2 9.1562 1.3918 4.9306 6.2493 7.9743 11.188 7.1875 1.3968 2.2318 2.8159 4.4151 4.25 6.5-2.2736 2.6057-3.1399 6.3064-1.9375 9.8125 1.7916 5.2242 7.4946 8.0103 12.719 6.2188 0.44719-0.15336 0.87118-0.32353 1.2812-0.53125 0.99654 1.1329 1.9971 2.2676 3 3.3438-2.2152 2.6008-3.0323 6.2842-1.8438 9.75 1.7916 5.2242 7.4633 8.0103 12.688 6.2188 1.4545-0.49879 2.72-1.3038 3.75-2.3125 1.1989 0.97857 2.4014 1.9335 3.5938 2.8438-1.6209 2.4908-2.1325 5.6586-1.0938 8.6875 1.7916 5.2242 7.4946 8.0103 12.719 6.2188 2.1927-0.75196 3.919-2.1977 5.0938-4 1.5779 0.86957 3.1288 1.7064 4.6562 2.4688 0.15765 0.0787 0.31167 0.14116 0.46875 0.21875-0.40281 1.7557-0.34609 3.6394 0.28125 5.4688 1.7916 5.2242 7.4633 8.0103 12.688 6.2188 2.3472-0.80494 4.207-2.3926 5.375-4.375 7.4983 2.2862 12.974 3.1322 15.562 3.4375 0.73284 5.636 5.545 10.031 11.375 10.031 6.3335 0 11.5-5.1665 11.5-11.5 0-0.45128-0.0427-0.90577-0.0937-1.3438 0.91747 0.11535 7.5278 0.82501 18.406-0.59375 1.9028 4.1712 6.5169 6.6177 11.188 5.625 4.6742-0.99347 7.8693-5.0987 7.9062-9.6875 0.9667-0.28361 1.9425-0.59041 2.9375-0.90625 1.7742 4.4331 6.514 7.089 11.344 6.0625 5.4022-1.1482 8.867-6.4728 7.7188-11.875-0.11066-0.52066-0.25316-1.018-0.4375-1.5 1.1796-0.55141 2.3904-1.1214 3.5938-1.7188 2.1826 3.3979 6.3158 5.2643 10.5 4.375 5.4022-1.1482 8.867-6.4728 7.7188-11.875-0.18041-0.84881-0.47363-1.6329-0.84375-2.375 1.1673-0.74781 2.3494-1.5197 3.5312-2.3125 3.1568 3.0418 8.0742 3.7462 12.031 1.4062 4.5708-2.7028 6.1609-8.4588 3.7812-13.125 1.3105-1.0639 2.6464-2.1278 3.9688-3.25 3.1598 2.9631 8.0209 3.6285 11.938 1.3125 4.7539-2.8111 6.3111-8.9336 3.5-13.688-0.23826-0.40292-0.49813-0.79974-0.78125-1.1562 1.1647-1.1562 2.3296-2.3271 3.5-3.5312 3.1126 2.1612 7.3373 2.4612 10.812 0.40625 4.7539-2.8111 6.3111-8.9336 3.5-13.688-0.29311-0.49568-0.60875-0.98106-0.96875-1.4062 0.1972-0.23161 0.39646-0.45445 0.59375-0.6875 0.73222-0.86497 1.4359-1.7514 2.1562-2.625 3.0966 1.5182 6.8952 1.3983 9.9688-0.65625 4.5914-3.0693 5.8193-9.2836 2.75-13.875-0.2388-0.35722-0.50667-0.68387-0.78125-1 0.91479-1.2761 1.8271-2.5605 2.7188-3.8438 3.3194 2.8204 8.2305 3.2283 12.031 0.6875 4.5914-3.0693 5.8193-9.2836 2.75-13.875-1.0204-1.5264-2.3978-2.6567-3.9375-3.4062 0.77541-1.2638 1.5278-2.5203 2.2812-3.7812 2.2356 1.621 5.0491 2.2357 7.75 1.7188 0.31896-0.0611 0.6543-0.1257 0.96875-0.21875 0.31445-0.0931 0.59864-0.21823 0.90625-0.34375 0.61522-0.25104 1.2386-0.55384 1.8125-0.9375 1.7218-1.151 2.9599-2.7479 3.6875-4.5312 0.12127-0.29723 0.22046-0.59959 0.3125-0.90625 0.64426-2.1466 0.56612-4.503-0.3125-6.6562-0.12552-0.30761-0.24781-0.6078-0.40625-0.90625s-0.33942-0.58804-0.53125-0.875c-0.95916-1.4348-2.2289-2.531-3.6562-3.2812-0.25642-0.13477-0.51525-0.26343-0.78125-0.375 0.83268-1.5624 1.6403-3.1155 2.4375-4.6562 3.1297 1.617 7.0204 1.5338 10.156-0.5625 4.5914-3.0693 5.8193-9.2836 2.75-13.875-1.0551-1.5783-2.4897-2.7536-4.0938-3.5 10.684-23.086 16.434-40.247 17.906-44.812 7.8767 3.6372 32.97 13.845 41.531 0.71875l7.9688 7.9688c3.6313 3.6313 5.6861 6.0218 6.5 7.0312-1.9628 2.0644-3.1875 4.8446-3.1875 7.9062 0 6.3335 5.1665 11.5 11.5 11.5 2.5973 0 5.0085-0.88181 6.9375-2.3438 1.8313 1.0056 6.4057 3.724 11.219 8.375-1.3178 1.6939-2.0938 3.8126-2.0938 6.125 0 5.5228 4.4772 10 10 10 1.085 0 2.1154-0.1804 3.0938-0.5 0.59058 1.3688 1.1299 2.7902 1.5938 4.2812-2.6183 1.8033-4.3438 4.7992-4.3438 8.2188 0 5.4255 4.3306 9.8147 9.7188 9.9688 0.47693 1.6752 0.93215 3.3764 1.4062 5.0625-3.2187 1.6616-5.4375 5.0343-5.4375 8.9062 0 5.5228 4.4772 10 10 10 0.20906 0 0.41912-0.0186 0.625-0.0312 2.2122 8.1415 3.8305 14.155 4.0625 15.031-5.0117 1.2393-8.75 5.8024-8.75 11.188 0 5.5739 4.0043 10.21 9.2812 11.25l4.0312 14.938-8.0312 1 2.5 19.844-19.844 2.5 2.5 19.844 19.844-2.5 7.5 59.531 19.844-2.5-7.5-59.531 19.844-2.5-2.5-19.844-19.844 2.5-2.5-19.844-8.8438 1.125-3.8438-14.375c5.8902-0.48765 10.562-5.4252 10.562-11.438 0-6.2375-5.017-11.347-11.219-11.5-0.10732-0.40595-1.8573-6.9085-4.1562-15.375 3.77-1.4323 6.4375-5.0401 6.4375-9.3125 0-5.5228-4.4772-10-10-10-0.59394 0-1.1533 0.057-1.7188 0.15625-0.41974-1.4926-0.82763-2.9832-1.25-4.4688 4.1995-1.1857 7.2812-5.046 7.2812-9.625 0-5.5228-4.4772-10-10-10-1.0249 0-2.0065 0.15104-2.9375 0.4375-0.48266-1.4943-1.0243-2.9362-1.625-4.3125 2.5356-1.8139 4.2188-4.7696 4.2188-8.125 0-5.5228-4.4772-10-10-10-2.1271 0-4.0979 0.68031-5.7188 1.8125-4.6225-4.4853-8.9275-7.2202-11.219-8.5312 1.4821-1.9364 2.375-4.3204 2.375-6.9375 0-6.3335-5.1665-11.5-11.5-11.5-2.2143 0-4.2731 0.62661-6.0312 1.7188-0.90298-1.1097-3.0339-3.6276-6.6875-7.2812l-8.4688-8.5-0.375 0.375c6.0847-14.46-16.321-29.095-24.125-33.656 0.76998-3.0798 4.8119-19.252 9.3125-35.969 0.16559-0.61505 0.35668-1.4329 0.53125-2.0938 3.6157 0.26468 7.26-1.4439 9.2812-4.75 2.8808-4.712 1.3995-10.869-3.3125-13.75-0.41298-0.25249-0.84928-0.47006-1.2812-0.65625 0.33498-1.4855 0.66432-3.0164 1-4.5625 4.1931 1.1617 8.8362-0.50932 11.219-4.4062 2.8808-4.712 1.3995-10.869-3.3125-13.75-1.2542-0.76679-2.6303-1.2365-4-1.4062 0.2518-1.4179 0.47919-2.8524 0.71875-4.2812 3.5954 0.24097 7.2089-1.4625 9.2188-4.75 2.8808-4.712 1.3995-10.869-3.3125-13.75-0.98777-0.6039-2.0538-0.98802-3.125-1.2188 0.19824-1.8005 0.34198-3.5754 0.5-5.3438 4.2244-0.35432 7.9136-3.3963 8.9062-7.75 1.2276-5.3847-2.1466-10.741-7.5312-11.969-0.21082-0.0481-0.41451-0.0909-0.625-0.125-0.0468-1.5955-0.12133-3.2069-0.21875-4.8438 3.8915-0.64054 7.1942-3.5736 8.125-7.6562 1.2276-5.3847-2.1466-10.741-7.5312-11.969-0.94659-0.21581-1.8897-0.27307-2.8125-0.21875-0.23869-1.5318-0.48226-3.0605-0.75-4.5938 2.8696-1.2069 5.1302-3.702 5.875-6.9688 1.2276-5.3847-2.1153-10.741-7.5-11.969-0.81407-0.1856-1.6387-0.26564-2.4375-0.25-0.53355-2.1385-1.0849-4.2368-1.6562-6.3125 3.3019-2.0698 5.2216-5.9731 4.5625-10.062-0.82382-5.1117-5.3777-8.6718-10.438-8.375-0.68995-1.8653-1.3905-3.6633-2.0938-5.375 2.3823-2.1974 3.6793-5.5294 3.125-8.9688-0.87875-5.4525-6.0163-9.16-11.469-8.2812-0.37386 0.0602-0.73721 0.15102-1.0938 0.25-1.0051-1.4022-2.0726-2.8308-3.1875-4.2812 1.6498-2.1155 2.4605-4.8925 2-7.75-0.87875-5.4525-6.0163-9.16-11.469-8.2812-1.0943 0.17636-2.1005 0.54402-3.0312 1.0312-1.2515-1.4112-2.519-2.831-3.7812-4.2188 1.7478-2.1373 2.5988-4.9662 2.125-7.9062-0.87875-5.4525-6.0163-9.16-11.469-8.2812-1.5962 0.25725-3.0241 0.86233-4.25 1.75-6.6614-6.8528-11.714-11.785-13.875-13.875 0.8051-1.5692 1.25-3.3397 1.25-5.2188 0-6.3335-5.1665-11.5-11.5-11.5-2.6449 0-5.0846 0.89549-7.0312 2.4062-0.28665-0.20289-5.8474-4.0849-15.375-9.5 1.2906-3.7947 0.22505-8.1456-3.0312-10.875-4.2326-3.5477-10.546-3.0139-14.094 1.2188-0.13518 0.16128-0.25171 0.33296-0.375 0.5-1.4245-0.68247-2.9088-1.3763-4.4062-2.0625 1.176-3.7422 0.0685-7.9795-3.125-10.656-4.2326-3.5477-10.515-3.0139-14.062 1.2188-0.46881 0.55932-0.89225 1.1606-1.2188 1.7812-1.534-0.5708-3.0788-1.1351-4.6562-1.6875-0.0411-2.8057-1.2433-5.5561-3.5625-7.5-4.2326-3.5477-10.546-3.0139-14.094 1.2188-0.21225 0.25323-0.41078 0.5142-0.59375 0.78125-1.969-0.42983-4.114-0.80053-6.375-1.125-0.47123-3.4807-2.7471-6.6292-6.25-8-5.1431-2.0126-10.956 0.54443-12.969 5.6875-0.10137 0.25903-0.17147 0.51945-0.25 0.78125-1.578-0.04911-3.1896-0.10222-4.8125-0.125 0.17756-4.1511-2.2582-8.1512-6.3438-9.75-1.2858-0.50316-2.6077-0.72275-3.9062-0.6875zm9.6562 13.438c1.6833 0.02195 3.3363 0.07567 4.9688 0.125 0.0571 3.9427 2.445 7.6306 6.3438 9.1562 5.1431 2.0126 10.956-0.51318 12.969-5.6562 0.25158-0.64288 0.41807-1.2827 0.53125-1.9375 1.8055 0.2607 3.5035 0.54836 5.0938 0.875-1.1091 3.7096 0.0317 7.8861 3.1875 10.531 4.2326 3.5477 10.515 2.9827 14.062-1.25 0.90258-1.0768 1.559-2.2655 1.9375-3.5312 1.3816 0.48803 2.7461 0.99774 4.0938 1.5-0.62736 3.4243 0.54755 7.0726 3.4062 9.4688 4.2326 3.5477 10.546 2.9827 14.094-1.25 0.19742-0.23553 0.39042-0.4712 0.5625-0.71875 1.4713 0.67418 2.9122 1.3606 4.3125 2.0312-1.3186 3.807-0.24014 8.1955 3.0312 10.938 4.2326 3.5477 10.546 2.9827 14.094-1.25 0.14732-0.17576 0.27305-0.34868 0.40625-0.53125 8.5018 4.8412 13.55 8.2818 14.625 9.0313-1.453 1.9256-2.3438 4.3176-2.3438 6.9062 0 6.3335 5.1665 11.5 11.5 11.5 3.3606 0 6.394-1.4696 8.5-3.7812 2.4368 2.36 7.3296 7.1899 13.469 13.5-1.5621 2.0928-2.3233 4.8119-1.875 7.5938 0.87875 5.4525 6.0163 9.16 11.469 8.2812 1.4408-0.23221 2.7615-0.77757 3.9062-1.5312 1.195 1.3174 2.4089 2.6611 3.5938 4-1.9574 1.9655-3.0774 4.6757-2.9062 7.5938 0.0198 0.33732 0.0388 0.69047 0.0937 1.0312 0.49429 3.067 2.3265 5.5741 4.8125 7.0312 0.27622 0.16191 0.58379 0.33365 0.875 0.46875 0.87362 0.40528 1.8073 0.67351 2.7812 0.8125 0.32464 0.0463 0.63681 0.0798 0.96875 0.0937 0.33194 0.014 0.69393 0.0198 1.0312 0s0.65922-0.0701 1-0.125c1.5061-0.24274 2.8825-0.81603 4.0625-1.625 0.90168 1.1752 1.7697 2.3345 2.5938 3.4688-3.1872 2.0985-5.0215 5.9258-4.375 9.9375 0.87875 5.4525 6.0163 9.16 11.469 8.2812 0.94069-0.15161 1.8028-0.42787 2.625-0.8125 0.55854 1.3816 1.105 2.8256 1.6562 4.3125-4.3504 1.6456-7.1126 6.1666-6.3438 10.938 0.87875 5.4525 6.0163 9.16 11.469 8.2812 0.30807-0.0496 0.60983-0.1114 0.90625-0.1875 0.50439 1.8522 0.99375 3.7216 1.4688 5.625-3.1821 1.0788-5.7608 3.7338-6.5625 7.25-1.2276 5.3847 2.1466 10.741 7.5312 11.969 1.0644 0.24267 2.1255 0.28417 3.1562 0.1875 0.26151 1.5003 0.48526 3.0026 0.71875 4.5-3.0059 1.1556-5.4178 3.718-6.1875 7.0938-1.2276 5.3847 2.1466 10.741 7.5312 11.969 0.27368 0.0624 0.53949 0.11727 0.8125 0.15625 0.10061 1.6289 0.2009 3.2294 0.25 4.8125-3.984 0.56671-7.3959 3.4989-8.3438 7.6562-1.2276 5.3847 2.1466 10.741 7.5312 11.969 0.0308 7e-3 0.063-7e-3 0.0937 0-0.15858 1.7647-0.33187 3.5434-0.53125 5.3438-3.0379 0.27937-5.9114 1.9471-7.625 4.75-2.8808 4.712-1.3995 10.869 3.3125 13.75 0.51754 0.31641 1.0476 0.56865 1.5938 0.78125-0.28245 1.6903-0.57546 3.3867-0.875 5.0625-2.6713 0.51087-5.1258 2.0905-6.6562 4.5938-2.8263 4.6228-1.4401 10.616 3.0625 13.562-0.37428 1.7395-0.75121 3.4294-1.125 5.0938-3.7128-0.38416-7.4857 1.3218-9.5625 4.7188-2.8808 4.712-1.3995 10.869 3.3125 13.75 0.50887 0.31111 1.0259 0.57053 1.5625 0.78125-0.16304 0.61713-0.34492 1.3927-0.5 1.9688-4.4349 16.472-8.3687 32.143-9.25 35.656l-17.531 33.688-0.5-0.15625s-6.1461 19.933-18.594 46.75c-2.3268-0.31061-4.7701 0.18664-6.875 1.5938-4.5914 3.0693-5.8193 9.2836-2.75 13.875 0.38366 0.57393 0.80873 1.0953 1.2812 1.5625-0.96229 1.8643-1.9543 3.7603-2.9688 5.6562-0.28806-0.0264-0.58502-0.0298-0.875-0.0312-1.9261-9e-3 -3.872 0.53651-5.5938 1.6875-4.5914 3.0693-5.8193 9.2836-2.75 13.875 0.081 0.12121 0.16469 0.22724 0.25 0.34375-0.99459 1.6725-1.998 3.354-3.0312 5.0312-2.3635-0.34535-4.8578 0.16175-7 1.5938-4.4968 3.006-5.7701 9.0336-2.9375 13.594-0.97603 1.4124-1.9647 2.8153-2.9688 4.2188-3.227-1.9854-7.4565-2.0247-10.812 0.21875-4.5914 3.0693-5.8193 9.2836-2.75 13.875 0.42214 0.63149 0.90891 1.1855 1.4375 1.6875-0.65919 0.79785-1.2997 1.6158-1.9688 2.4062-0.19717 0.23292-0.39668 0.45605-0.59375 0.6875-3.0747-1.9536-7.087-2.1687-10.438-0.1875-4.7539 2.8111-6.3423 8.9336-3.5312 13.688 0.2253 0.38101 0.48444 0.7542 0.75 1.0938-1.1746 1.2084-2.3629 2.3721-3.5312 3.5312-3.1054-2.1164-7.27-2.3831-10.719-0.34375-4.7051 2.7822-6.287 8.7986-3.5938 13.531-1.2902 1.0968-2.5654 2.1474-3.8438 3.1875-3.144-3.2381-8.1937-4.0236-12.25-1.625-4.6602 2.7557-6.2743 8.6945-3.6875 13.406-1.145 0.76664-2.2756 1.5266-3.4062 2.25-2.3159-2.4206-5.7949-3.6226-9.3125-2.875-5.4022 1.1482-8.8357 6.4416-7.6875 11.844 0.0427 0.20109 0.10219 0.39821 0.15625 0.59375-1.3143 0.6539-2.6216 1.2772-3.9062 1.875-2.283-2.8968-6.0858-4.4124-9.9375-3.5938-4.9798 1.0584-8.2857 5.6502-7.875 10.594-0.91001 0.29049-1.8028 0.54961-2.6875 0.8125-1.4934-4.9141-6.5083-7.9625-11.625-6.875-5.1361 1.0916-8.5109 5.9444-7.8438 11.062-11.02 1.3991-17.438 0.46875-17.438 0.46875l-0.28125 2c-1.0868-5.2173-5.7498-9.1562-11.281-9.1562-5.8164 0-10.625 4.3518-11.375 9.9688-2.5604-0.31423-7.603-1.1358-14.469-3.2188 0.42658-1.7818 0.38833-3.7011-0.25-5.5625-1.7916-5.2242-7.4633-7.9791-12.688-6.1875-2.3708 0.81304-4.2404 2.4272-5.4062 4.4375-0.0767-0.0381-0.14193-0.0867-0.21875-0.125-1.5418-0.76956-3.1238-1.6187-4.7188-2.5 0.53757-1.8933 0.49933-3.966-0.1875-5.9688-1.7916-5.2242-7.4633-8.0103-12.688-6.2188-1.1754 0.4031-2.221 1.0021-3.125 1.75-1.2588-0.95679-2.5145-1.9336-3.7812-2.9688 1.2852-2.3728 1.6006-5.2775 0.65625-8.0312-1.7916-5.2242-7.4633-8.0103-12.688-6.2188-0.75032 0.25731-1.4505 0.59487-2.0938 1-0.95557-1.0238-1.8937-2.0794-2.8438-3.1562 2.6747-2.6141 3.7939-6.6332 2.5-10.406-1.7916-5.2242-7.4946-7.9791-12.719-6.1875-0.69972 0.23996-1.3618 0.53699-1.9688 0.90625-1.2206-1.7825-2.431-3.6078-3.625-5.5 4.1888-2.1122 6.4471-6.9726 5.125-11.656-1.5004-5.3151-7.0286-8.4066-12.344-6.9062-0.94398 0.26647-1.8033 0.65961-2.5938 1.1562-0.73905-1.4152-1.4691-2.8212-2.1875-4.2188 3.5363-2.3344 5.3376-6.7979 4.125-11.094-1.5004-5.3151-7.0286-8.4066-12.344-6.9062-0.21399 0.0604-0.41837 0.14557-0.625 0.21875-0.72201-1.506-1.4282-2.9883-2.125-4.4688 2.8632-2.4579 4.2176-6.442 3.125-10.312-1.3764-4.8762-6.1498-7.8516-11.031-7.1562-0.8174-1.874-1.6008-3.7411-2.375-5.5625 1.8969-1.718 3.1447-4.1482 3.2812-6.9062 0.27307-5.5161-3.9839-10.227-9.5-10.5-0.30166-0.0149-0.57885-0.0116-0.875 0-0.68806-1.7683-1.3574-3.5186-2-5.2188 1.8065-1.7088 2.9923-4.1016 3.125-6.7812 0.26995-5.453-3.8886-10.068-9.3125-10.438-0.6855-2.0218-1.2984-3.8784-1.9062-5.75 2.6745-1.6772 4.5508-4.5766 4.7188-7.9688 0.27307-5.5161-3.9839-10.227-9.5-10.5-0.26118-0.0129-0.52414-7e-3 -0.78125 0-2.0582-7.5763-2.9059-11.713-3.0312-12.344 4.7523-1.4129 8.2188-5.7997 8.2188-11 0-6.3335-5.1665-11.5-11.5-11.5-0.12829 0-0.2477-4e-3 -0.375 0-0.08448-1.1998-0.35369-4.9799-0.59375-11.875 2.8367-0.75487 5.3209-2.7286 6.5938-5.625 2.222-5.0561-0.10013-10.934-5.1562-13.156-0.58176-0.25567-1.1528-0.45506-1.75-0.59375-0.0011-1.7683 0.01507-3.5315 0.03125-5.4062 3.3422-0.44873 6.3877-2.5619 7.8438-5.875 2.222-5.0561-0.10013-10.965-5.1562-13.188-0.72028-0.31655-1.446-0.51805-2.1875-0.65625 0.0687-1.6051 0.13391-3.2317 0.21875-4.875 2.7849-0.77935 5.2145-2.7397 6.4688-5.5938 2.222-5.0561-0.06888-10.965-5.125-13.188 0.14732-1.6708 0.27046-3.3415 0.4375-5.0312 3.8282-0.0192 7.4541-2.2378 9.0938-5.9688 2.222-5.0561-0.06888-10.965-5.125-13.188-0.50993-0.2241-1.04-0.39728-1.5625-0.53125 0.31609-2.1727 0.64485-4.354 1-6.5312 4.3907 1.0388 9.088-0.98571 11.219-5.1875 2.4978-4.9257 0.51946-10.94-4.4062-13.438-0.98344-0.49871-1.9974-0.81409-3.0312-0.96875 0.35096-1.5571 0.71822-3.1098 1.0938-4.6562 4.339 0.94286 8.9292-1.1048 11.031-5.25 2.4979-4.9257 0.55071-10.94-4.375-13.438-0.44829-0.22733-0.91209-0.40802-1.375-0.5625 0.45808-1.5045 0.93191-3.0039 1.4062-4.5 4.0441 0.47436 8.1448-1.5629 10.094-5.4062 2.3903-4.7136 0.68582-10.422-3.7812-13.094 0.65624-1.8002 1.3312-3.5708 2-5.3438 2.74 0.17522 5.5442-0.76738 7.6562-2.8438 3.9383-3.8719 3.9969-10.218 0.125-14.156-0.25249-0.25683-0.50918-0.49498-0.78125-0.71875 0.71847-1.7241 1.4698-3.4152 2.1875-5.0938 2.487-0.0324 4.9614-0.96239 6.875-2.8438 3.8076-3.7434 3.9914-9.794 0.5-13.75 0.76204-1.6498 1.5078-3.2393 2.25-4.8125 3.4846 1.2208 7.5018 0.48205 10.312-2.2812 3.9383-3.8719 3.9969-10.187 0.125-14.125-0.52895-0.53802-1.1104-1.0133-1.7188-1.4062 5.1697-10.146 8.5656-16.17 9.25-17.375 1.6813 0.9645 3.6171 1.5312 5.6875 1.5312 6.3335 0 11.5-5.1665 11.5-11.5 0-3.3887-1.4983-6.4233-3.8438-8.5312 2.0493-1.9393 7.5223-7.0088 15.156-13.469 1.6611 1.1781 3.7142 1.8365 5.9062 1.8125 5.5225-0.0604 9.9354-4.5712 9.875-10.094-0.0145-1.3207-0.27221-2.5697-0.75-3.7188 1.4495-1.0861 2.8986-2.1618 4.375-3.2188 0.87834 1.1532 1.9922 2.1304 3.2812 2.8125 0.28505 0.15084 0.57454 0.28302 0.875 0.40625 1.2018 0.49291 2.5256 0.73386 3.9062 0.71875 5.5225-0.06042 9.9667-4.5712 9.9062-10.094-0.0181-1.6518-0.46325-3.1974-1.1875-4.5625 1.3136-0.70764 2.6053-1.3327 3.875-1.9375 1.5573 3.5723 5.1394 6.0453 9.2812 6 5.5225-0.06042 9.9667-4.5712 9.9062-10.094-6e-3 -0.52909-0.0715-1.0565-0.15625-1.5625 1.4686-0.27581 3.0706-0.54874 4.6562-0.8125 1.4312 3.8381 5.1367 6.5474 9.4688 6.5 5.1878-0.05676 9.4011-4.0314 9.8438-9.0938 2.0819-0.22351 4.1698-0.42672 6.3125-0.625 0.98519 2.4926 2.9634 4.6025 5.6562 5.6562 5.1431 2.0126 10.925-0.54443 12.938-5.6875 0.17473-0.44652 0.33009-0.89023 0.4375-1.3438 1.76-0.08836 3.5263-0.15247 5.2812-0.21875 0.99253 2.4681 2.921 4.5478 5.5938 5.5938 5.1431 2.0126 10.956-0.51318 12.969-5.6562 0.0281-0.0718 0.0362-0.1467 0.0625-0.21875zm116.88 35.938c4.7122 0 8.5 3.7878 8.5 8.5s-3.7878 8.5-8.5 8.5-8.5-3.7878-8.5-8.5 3.7878-8.5 8.5-8.5zm-272 17c4.7122 0 8.5 3.7878 8.5 8.5s-3.7878 8.5-8.5 8.5-8.5-3.7878-8.5-8.5 3.7878-8.5 8.5-8.5zm-67 284c4.7122 0 8.5 3.7878 8.5 8.5s-3.7878 8.5-8.5 8.5-8.5-3.7878-8.5-8.5 3.7878-8.5 8.5-8.5zm444 41c4.7122 0 8.5 3.7878 8.5 8.5s-3.7878 8.5-8.5 8.5-8.5-3.7878-8.5-8.5 3.7878-8.5 8.5-8.5zm49.531 105.78c4.7122 0 8.5 3.7878 8.5 8.5s-3.7878 8.5-8.5 8.5-8.5-3.7878-8.5-8.5 3.7878-8.5 8.5-8.5zm-329.53 73.219c4.7122 0 8.5 3.7878 8.5 8.5s-3.7878 8.5-8.5 8.5-8.5-3.7878-8.5-8.5 3.7878-8.5 8.5-8.5z"/>
</svg>
